<svg xmlns="http://www.w3.org/2000/svg" viewBox="0 0 1385 1042" width="1385" height="1042">
	<defs>
		<clipPath clipPathUnits="userSpaceOnUse" id="cp1">
			<path d="M0 0L1385 0L1385 1042L0 1042Z" />
		</clipPath>
		<linearGradient id="grd1" gradientUnits="userSpaceOnUse"  x1="366.698" y1="551.538" x2="992.592" y2="551.538">
			<stop offset="0" stop-color="#40d5e6"  />
			<stop offset="1" stop-color="#5577ff"  />
		</linearGradient>
		<linearGradient id="grd2" gradientUnits="userSpaceOnUse"  x1="403.608" y1="523.831" x2="926.171" y2="523.831">
			<stop offset="0" stop-color="#404b61"  />
			<stop offset="1" stop-color="#2f3e5c"  />
		</linearGradient>
		<linearGradient id="grd3" gradientUnits="userSpaceOnUse"  x1="1098.307" y1="716.777" x2="1227.652" y2="716.777">
			<stop offset="0" stop-color="#3076a1"  />
			<stop offset="1" stop-color="#639c38"  />
		</linearGradient>
		<linearGradient id="grd4" gradientUnits="userSpaceOnUse"  x1="1081.517" y1="697.321" x2="1252.464" y2="697.321">
			<stop offset="0" stop-color="#3076a1"  />
			<stop offset="1" stop-color="#639c38"  />
		</linearGradient>
		<linearGradient id="grd5" gradientUnits="userSpaceOnUse"  x1="1043.46" y1="670.794" x2="1152.709" y2="670.794">
			<stop offset="0" stop-color="#3076a1"  />
			<stop offset="1" stop-color="#639c38"  />
		</linearGradient>
		<linearGradient id="grd6" gradientUnits="userSpaceOnUse"  x1="1073.36" y1="695.1" x2="1101.088" y2="695.1">
			<stop offset="0" stop-color="#3076a1"  />
			<stop offset="1" stop-color="#639c38"  />
		</linearGradient>
		<linearGradient id="grd7" gradientUnits="userSpaceOnUse"  x1="1005.355" y1="701.904" x2="1096.128" y2="701.904">
			<stop offset="0" stop-color="#3076a1"  />
			<stop offset="1" stop-color="#639c38"  />
		</linearGradient>
		<linearGradient id="grd8" gradientUnits="userSpaceOnUse"  x1="1079.348" y1="914.093" x2="1161.895" y2="593.079">
			<stop offset="0" stop-color="#3076a1"  />
			<stop offset="1" stop-color="#639c38"  />
		</linearGradient>
		<linearGradient id="grd9" gradientUnits="userSpaceOnUse"  x1="1104.207" y1="765.044" x2="1144.037" y2="765.044">
			<stop offset="0" stop-color="#3076a1"  />
			<stop offset="1" stop-color="#639c38"  />
		</linearGradient>
		<linearGradient id="grd10" gradientUnits="userSpaceOnUse"  x1="1067.879" y1="838.919" x2="1143.632" y2="838.919">
			<stop offset="0" stop-color="#ff9340"  />
			<stop offset="1" stop-color="#ffce45"  />
		</linearGradient>
		<linearGradient id="grd11" gradientUnits="userSpaceOnUse"  x1="1067.879" y1="838.919" x2="1143.632" y2="838.919">
			<stop offset="0" stop-color="#c97332"  />
			<stop offset="1" stop-color="#ffce45"  />
		</linearGradient>
		<linearGradient id="grd12" gradientUnits="userSpaceOnUse"  x1="665.475" y1="677.673" x2="665.475" y2="1024.706">
			<stop offset="0" stop-color="#40d5e6"  />
			<stop offset="1" stop-color="#5577ff"  />
		</linearGradient>
		<linearGradient id="grd13" gradientUnits="userSpaceOnUse"  x1="4.112" y1="939.258" x2="690.539" y2="939.258">
			<stop offset="0" stop-color="#40d5e6"  />
			<stop offset="1" stop-color="#5577ff"  />
		</linearGradient>
		<linearGradient id="grd14" gradientUnits="userSpaceOnUse"  x1="366.698" y1="551.538" x2="992.592" y2="551.538">
			<stop offset="0" stop-color="#d1f5f9"  />
			<stop offset="1" stop-color="#d6deff"  />
		</linearGradient>
		<linearGradient id="grd15" gradientUnits="userSpaceOnUse"  x1="403.608" y1="523.831" x2="926.171" y2="523.831">
			<stop offset="0" stop-color="#d1d4d9"  />
			<stop offset="1" stop-color="#cdd1d8"  />
		</linearGradient>
		<linearGradient id="grd16" gradientUnits="userSpaceOnUse"  x1="996.42" y1="701.904" x2="1096.23" y2="701.904">
			<stop offset="0" stop-color="#cddee9"  />
			<stop offset="1" stop-color="#dae7cf"  />
		</linearGradient>
	</defs>
	<style>
		tspan { white-space:pre }
		.shp0 { fill: url(#grd1) } 
		.shp1 { fill: url(#grd2) } 
		.shp2 { fill: #6aafe8 } 
		.shp3 { fill: url(#grd3) } 
		.shp4 { fill: url(#grd4) } 
		.shp5 { fill: url(#grd5) } 
		.shp6 { fill: url(#grd6) } 
		.shp7 { fill: url(#grd7) } 
		.shp8 { fill: #ffffff } 
		.shp9 { fill: url(#grd8) } 
		.shp10 { fill: url(#grd9) } 
		.shp11 { fill: url(#grd10) } 
		.shp12 { fill: url(#grd11) } 
		.shp13 { fill: #1487e3 } 
		.shp14 { fill: #78c2ff } 
		.shp15 { fill: #ff7e55 } 
		.shp16 { fill: #424773 } 
		.shp17 { fill: #292c47 } 
		.shp18 { fill: #eea886 } 
		.shp19 { fill: #754836 } 
		.shp20 { fill: #e2d2ca } 
		.shp21 { fill: #ffcb55 } 
		.shp22 { fill: #a1d4ff } 
		.shp23 { fill: url(#grd12) } 
		.shp24 { fill: url(#grd13) } 
		.shp25 { fill: #4d78eb } 
		.shp26 { fill: #e0e0e0 } 
		.shp27 { fill: #ff8761 } 
		.shp28 { fill: #fdfdfd } 
		.shp29 { fill: url(#grd14) } 
		.shp30 { fill: url(#grd15) } 
		.shp31 { fill: url(#grd16) } 
		.shp32 { fill: #dff0ff } 
		.shp33 { fill: #4aafff } 
		.shp34 { fill: #1a598c } 
		.shp35 { fill: #2273b5 } 
		.shp36 { fill: #3788cc } 
		.shp37 { fill: #414773 } 
		.shp38 { fill: #2d314f } 
		.shp39 { fill: #2b3b57 } 
		.shp40 { fill: #ffc655 } 
		.shp41 { fill: #353a3d } 
		.shp42 { fill: #d4d8e8 } 
		.shp43 { fill: #e55353 } 
		.shp44 { fill: #6069a8 } 
		.shp45 { fill: #202338 } 
		.shp46 { fill: #464240 } 
		.shp47 { fill: #eb4747 } 
		.shp48 { fill: #325bb3 } 
		.shp49 { fill: #a77860 } 
		.shp50 { fill: #5e5853 } 
		.shp51 { fill: #91887f } 
		.shp52 { fill: #eddad3 } 
		.shp53 { fill: #6e6760 } 
		.shp54 { fill: #807066 } 
	</style>
	<g id="Page 1" clip-path="url(#cp1)">
		<path id="Path 2" class="shp0" d="M947.08 760.19L383.69 760.19L383.69 362.62C383.69 351.72 392.53 342.88 403.43 342.88L927.35 342.88C938.25 342.88 947.08 351.72 947.08 362.62L947.08 465.34L926.17 465.34L926.17 363.32L403.61 363.32L403.61 684.34L926.17 684.34L926.17 650.88L947.08 650.88L947.08 760.19Z" />
		<path id="Path 3" class="shp1" d="M926.17 684.34L403.61 684.34L403.61 363.32L926.17 363.32L926.17 465.34L759.57 465.34C754.95 465.34 751.21 469.09 751.21 473.71L751.21 642.51C751.21 647.13 754.95 650.88 759.57 650.88L926.17 650.88L926.17 684.34Z" />
		<path id="Path 4" fill-rule="evenodd" class="shp2" d="M348.72 364.81L215.8 364.81L216.03 363.62C218.16 352.67 227.82 344.73 239 344.73C240.61 344.73 242.22 344.89 243.79 345.23C250.71 332.06 264.17 323.92 279.09 323.92C291.8 323.92 303.79 330.02 311.3 340.28C314.04 339.45 316.89 339.03 319.77 339.03C334.24 339.03 346.34 349.39 348.54 363.66L348.72 364.81ZM218.24 362.82L346.37 362.82C343.87 350.31 332.64 341.01 319.77 341.01C316.85 341.01 313.97 341.48 311.23 342.39L310.53 342.62L310.1 342.02C302.99 331.93 291.4 325.91 279.09 325.91C264.67 325.91 251.68 333.92 245.21 346.81L244.85 347.52L244.08 347.33C242.43 346.92 240.72 346.71 239 346.71C229.18 346.71 220.64 353.42 218.24 362.82ZM836.88 201.19L836.43 200.96C789.26 176.88 795.59 130.24 795.66 129.77L795.79 128.92L796.64 128.92C826.63 128.92 836.06 119.26 836.15 119.16L836.88 118.38L837.61 119.16C837.7 119.26 847.12 128.92 877.11 128.92L877.97 128.92L878.1 129.77C878.16 130.24 884.5 176.88 837.33 200.96L836.88 201.19ZM797.53 130.9C796.94 137.22 794.95 177.26 836.88 198.96C878.81 177.26 876.82 137.22 876.22 130.9C850.18 130.74 839.59 123.49 836.88 121.19C834.17 123.49 823.57 130.74 797.53 130.9Z" />
		<path id="Path 5" class="shp3" d="M1094.99 821.05C1087.89 788.6 1103.23 780.5 1118.06 772.68C1130.19 766.28 1141.64 760.23 1141.03 741.11C1140.22 715.76 1157.49 706.54 1172.73 698.4C1184.06 692.35 1194.76 686.63 1196.36 675.1C1200.2 647.34 1225.8 612.85 1226.06 612.5L1227.65 613.69C1227.4 614.03 1202.1 648.12 1198.33 675.37C1196.59 687.9 1185.45 693.85 1173.66 700.15C1158.21 708.4 1142.24 716.93 1143.01 741.05C1143.66 761.41 1131.12 768.03 1118.99 774.43C1104.16 782.26 1090.15 789.65 1096.92 820.62L1094.99 821.05Z" />
		<path id="Path 6" fill-rule="evenodd" class="shp4" d="M1102.78 812.78C1102.44 812.78 1102.1 812.77 1101.75 812.74C1095.34 812.27 1089.05 807.39 1081.96 797.4L1081.52 796.77L1082.01 796.19C1082.13 796.05 1093.49 782.2 1089.32 756.21C1088.34 750.14 1087.04 745.5 1086 741.77C1084.47 736.33 1083.46 732.74 1085.15 729.87C1087.3 726.23 1093.09 724.32 1109.4 720.44C1126.77 716.3 1132.57 696.73 1137.7 679.46C1142.53 663.2 1147.1 647.86 1160.61 648.34C1173.03 648.81 1191.9 629.35 1208.54 612.19C1223.98 596.28 1238.55 581.28 1247.87 581.57C1250.11 581.65 1252 582.59 1253.48 584.36C1261.79 594.25 1254.04 609.26 1246.55 623.78C1240.15 636.16 1234.11 647.86 1238 655.57C1242.89 665.26 1243.57 674.04 1239.98 680.93C1235.73 689.09 1225.82 694.36 1210.53 696.57C1196.55 698.6 1195.04 713.85 1193.44 729.99C1191.57 748.83 1189.45 770.18 1165.99 772.21C1148.57 773.72 1136.83 785.95 1126.47 796.74C1118.23 805.32 1111.07 812.78 1102.78 812.78ZM1084.01 796.85C1090.46 805.8 1096.32 810.35 1101.9 810.76C1109.7 811.34 1116.81 803.94 1125.04 795.36C1135.64 784.32 1147.66 771.81 1165.82 770.24C1187.64 768.35 1189.58 748.75 1191.46 729.8C1193.14 712.86 1194.73 696.86 1210.24 694.61C1224.87 692.49 1234.28 687.58 1238.22 680.01C1241.5 673.71 1240.81 665.56 1236.23 656.46C1231.88 647.85 1238.15 635.71 1244.78 622.87C1251.98 608.93 1259.42 594.52 1251.96 585.64C1250.84 584.3 1249.48 583.62 1247.8 583.56C1239.38 583.28 1225.09 597.98 1209.96 613.57C1192.43 631.65 1174.31 650.33 1161.05 650.33L1160.54 650.32C1148.55 649.88 1144.4 663.85 1139.6 680.03C1134.33 697.81 1128.35 717.97 1109.86 722.37C1095.1 725.89 1088.65 727.84 1086.86 730.88C1085.6 733.02 1086.47 736.11 1087.91 741.24C1088.97 745.01 1090.28 749.71 1091.28 755.89C1095.15 780.05 1086.25 793.83 1084.01 796.85Z" />
		<path id="Path 7" fill-rule="evenodd" class="shp5" d="M1103.5 805.98C1103.27 805.98 1103.04 805.97 1102.81 805.95C1092.28 804.99 1084.19 781.94 1076.37 759.64C1072.65 749.07 1069.15 739.08 1065.73 732.67C1063.09 727.69 1059.72 722.51 1056.46 717.49C1047.79 704.14 1038.83 690.32 1041.75 678.2C1043.28 671.83 1047.86 666.52 1055.74 661.98C1072.98 652.04 1070.33 646.43 1064.52 634.13C1060.25 625.11 1054.41 612.75 1054.18 593.3C1054.09 584.94 1053.89 577.71 1053.72 571.33C1053.17 550.83 1052.9 540.55 1057.27 536.82C1059.09 535.28 1061.62 534.89 1065.25 535.57C1071.46 536.76 1074.14 541.77 1076.99 547.08C1080.61 553.85 1084.72 561.52 1097.12 564.11C1108.76 566.55 1119.96 569.87 1123.05 577.6C1125.22 583.04 1123.16 590.19 1116.76 599.47C1115.21 601.72 1114.67 603.63 1115.13 605.31C1116.15 609.05 1121.94 611.75 1128.66 614.89C1138.21 619.35 1150.11 624.9 1153.48 636.39C1156.19 645.65 1153.05 657.2 1143.87 671.7C1122.17 706.01 1123.04 729.28 1123.81 749.8C1124.38 765.02 1124.92 779.38 1115.75 795.44C1111.7 802.52 1107.69 805.98 1103.5 805.98ZM1062.14 537.23C1060.59 537.23 1059.43 537.6 1058.56 538.33C1054.91 541.44 1055.19 552.04 1055.71 571.28C1055.88 577.66 1056.07 584.9 1056.17 593.27C1056.39 612.29 1062.13 624.42 1066.31 633.28C1072.08 645.49 1075.56 652.85 1056.73 663.7C1049.35 667.96 1045.07 672.85 1043.67 678.67C1040.96 689.96 1049.69 703.41 1058.13 716.41C1061.41 721.46 1064.8 726.68 1067.48 731.73C1070.97 738.28 1074.5 748.34 1078.24 758.99C1085.5 779.68 1093.74 803.13 1102.99 803.97C1106.52 804.29 1110.23 801.09 1114.02 794.45C1122.92 778.89 1122.41 765.45 1121.83 749.88C1121.05 729.06 1120.16 705.47 1142.2 670.64C1151.05 656.65 1154.12 645.62 1151.57 636.94C1148.46 626.32 1137.49 621.2 1127.82 616.69C1120.66 613.35 1114.47 610.46 1113.21 605.84C1112.6 603.55 1113.22 601.1 1115.13 598.34C1121.12 589.65 1123.11 583.11 1121.2 578.34C1118.45 571.46 1107.28 568.27 1096.72 566.06C1083.41 563.27 1078.88 554.81 1075.24 548.01C1072.51 542.92 1070.15 538.53 1064.88 537.53C1063.86 537.33 1062.95 537.23 1062.14 537.23Z" />
		<path id="Path 8" class="shp6" d="M1103.71 818.28L1101.82 817.69C1112.42 784.15 1093.24 708.92 1087.52 690.61C1084.71 681.61 1087.3 668.06 1089.82 654.95C1093.06 638.03 1096.42 620.52 1087.86 613.96C1071.79 601.64 1072.64 573.13 1072.68 571.92L1074.66 571.99C1074.65 572.28 1073.81 600.69 1089.07 612.38C1098.6 619.69 1095.13 637.81 1091.77 655.32C1089.3 668.19 1086.75 681.49 1089.41 690.02C1096.49 712.66 1114.29 784.83 1103.71 818.28Z" />
		<path id="Path 9" class="shp7" d="M1089.49 810.52C1081.74 810.52 1074.54 783.18 1064.69 770.64C1053.06 755.84 1048.31 732.59 1034.57 715.68C1020.83 698.77 982.25 693.49 999.16 666.54C1002.9 660.59 1005.26 655.13 1006.67 650.06C1009.49 648.72 1011.44 645.84 1011.44 642.51L1011.44 593.46C1012.05 593.34 1012.68 593.29 1013.3 593.29C1017.39 593.29 1021.59 595.72 1023.47 600.49C1037.21 635.36 1064.04 629.47 1060.96 644.72C1053.97 679.28 1075.26 683.98 1096.42 699.3C1117.59 714.62 1096.42 729.68 1095.37 753.46C1094.31 777.24 1103.26 794.42 1093.75 807.63C1092.3 809.64 1090.89 810.52 1089.49 810.52Z" />
		<path id="Path 10" class="shp8" d="M1109.15 810.69C1109.03 809.98 1097.28 740.33 1070.97 721.24C1044.14 701.77 1039.27 683.79 1029.9 641.39L1031.84 640.96C1041.09 682.84 1045.9 700.6 1072.14 719.64C1099.11 739.2 1110.63 807.46 1111.11 810.36L1109.15 810.69Z" />
		<path id="Path 11" class="shp9" d="M1085.41 808.19C1085.41 808.19 1093.23 788.86 1079 761.38C1064.77 733.89 1053.26 738.12 1087.56 716.98C1121.85 695.84 1087.77 629.25 1116.97 620.8C1146.16 612.34 1171.53 504.56 1193.73 518.29C1215.92 532.01 1186.33 584.86 1202.18 600.71C1218.04 616.57 1220.15 636.75 1187.39 653.08C1154.62 669.42 1210.64 731.78 1166.25 750.81C1121.85 769.83 1134.59 844.43 1085.41 808.19Z" />
		<path id="Path 12" class="shp8" d="M1098.97 828.69C1098.92 828.45 1094.15 803.69 1109.23 771.71C1124.6 739.12 1131.95 703.5 1128.91 676.42C1127.25 661.75 1136.65 656.02 1145.74 650.47C1154.68 645 1163.93 639.36 1163.42 624.91C1162.96 611.85 1168.49 581.25 1168.72 579.95L1170.68 580.31C1170.62 580.63 1164.95 612 1165.41 624.84C1165.96 640.45 1156.2 646.4 1146.77 652.16C1137.82 657.63 1129.37 662.79 1130.88 676.2C1133.96 703.63 1126.54 739.65 1111.03 772.55C1096.24 803.91 1100.87 828.06 1100.92 828.3L1098.97 828.69ZM1134.85 692.1C1144.81 682.84 1158 681.51 1155.25 695.24C1152.51 708.98 1143.09 712.9 1147.8 721.54C1152.51 730.17 1160.35 738.8 1147.01 749.4C1133.67 760 1126.21 761.17 1122.29 781.19C1118.36 801.2 1119.15 814.87 1101.88 815.73C1084.61 816.58 1091.28 791.39 1096.78 780.01C1096.78 780.01 1105.02 767.02 1099.52 749.97C1094.03 732.92 1083.43 723.71 1105.8 717.91C1128.17 712.12 1128.13 698.34 1134.85 692.1Z" />
		<path id="Path 13" class="shp10" d="M1103.13 828.52C1103.07 826.07 1101.89 768.41 1112.67 758.71C1123.68 748.8 1125.8 731.28 1126.08 721.73C1126.45 709.27 1142.54 701.87 1143.22 701.57L1144.04 703.38C1143.88 703.45 1128.39 710.57 1128.06 721.78C1127.71 733.84 1124.98 750.3 1114 760.19C1103.89 769.29 1105.1 827.88 1105.11 828.47L1103.13 828.52Z" />
		<path id="Path 14" class="shp11" d="M1143.63 804.99L1125.74 872.85L1085.76 872.85L1067.88 804.99L1143.63 804.99Z" />
		<path id="Path 15" class="shp12" d="M1143.63 804.99C1143.63 804.99 1104.25 812.38 1104.25 872.85L1085.76 872.85L1067.88 804.99L1143.63 804.99Z" />
		<path id="Path 16" class="shp13" d="M438.89 633.6L386.24 633.6L386.24 627.64L438.89 627.64L438.89 633.6Z" />
		<path id="Path 17" class="shp14" d="M375.25 463.16L291.22 463.16L291.22 355.69L293.2 355.69L293.2 461.17L375.25 461.17L375.25 463.16ZM730.93 392.35L728.95 392.35L728.95 281.54L835.88 281.54L835.88 188.34L837.87 188.34L837.87 283.52L730.93 283.52L730.93 392.35ZM1076.4 515.79L965.13 515.79L965.13 513.8L1074.41 513.8L1074.41 449.19L1076.4 449.19L1076.4 515.79Z" />
		<path id="Path 18" class="shp15" d="M244.55 605.57C244.55 605.57 242.17 639 248.7 643C252.79 645.51 269.11 653.96 268.62 655.55C268.14 657.14 259.41 669.65 259.41 669.65C259.41 669.65 228.07 649.02 227.06 642.51C226.07 636.16 228.6 593.57 232.91 591.6C236.14 590.13 237.84 591.35 241.91 594.37C247.61 598.6 244.55 605.57 244.55 605.57Z" />
		<path id="Path 19" class="shp16" d="M240.91 848.85C240.91 848.85 239.93 855.62 239.81 856.63C239.69 857.65 228.97 856.03 228.97 856.03L228.1 847.98C228.1 847.98 239.57 847.9 240.91 848.85Z" />
		<path id="Path 20" class="shp17" d="M239.93 855.77C239.93 855.77 243.32 859.85 246.61 861.63C249.89 863.4 255.05 864.1 257 865.95C258.4 867.27 262.1 872.99 248.46 872.87C234.82 872.76 228.24 873.68 226.78 871.49C225.32 869.3 228.9 855.31 228.9 855.31C228.9 855.31 232.12 856.47 239.93 855.77Z" />
		<path id="Path 21" class="shp16" d="M294.55 848.85C294.55 848.85 293.58 855.62 293.46 856.63C293.33 857.65 282.62 856.03 282.62 856.03L281.75 847.98C281.75 847.98 293.22 847.9 294.55 848.85Z" />
		<path id="Path 22" class="shp17" d="M293.57 855.77C293.57 855.77 296.97 859.85 300.25 861.63C303.54 863.4 315.63 864.86 317.57 866.7C318.97 868.03 321.3 873.37 302.11 872.87C288.47 872.51 281.89 873.68 280.42 871.49C278.96 869.3 282.54 855.31 282.54 855.31C282.54 855.31 285.58 856.55 293.57 855.77ZM244.75 675.04C244.75 675.04 234.68 691.05 235.43 705.51C236.19 719.98 234.54 735.43 233.02 750.54C231.34 767.38 226.74 802.44 226.49 811.45C226.24 820.46 226.82 854.37 226.82 854.37L244.29 854.24C244.29 854.24 250.49 785.74 253.5 778.62C256.5 771.51 268.84 720.05 269.34 714.36C269.84 708.67 244.75 675.04 244.75 675.04ZM297.77 677.21C297.77 677.21 301.75 716.54 302.75 725.39C303.75 734.24 303.07 772.6 303.57 778.14C304.07 783.67 300.22 842.19 299.27 853.34L280.07 853.21C280.07 853.21 278.75 805.87 278.75 782.87C278.75 759.87 272.85 733.1 266.08 717.92C259.32 702.74 243.84 702.38 239.69 674.23C239.69 674.23 292.15 668.28 297.77 677.21Z" />
		<path id="Path 23" class="shp18" d="M255.39 540.13C255.39 540.13 267.39 532.11 275.82 540.7C284.25 549.29 288.39 569.47 282.34 573.51C276.29 577.54 266.02 578.59 261.15 573.12C256.28 567.66 251.07 559.32 249.8 553.23C248.51 547.14 252.35 542.69 255.39 540.13ZM278.26 574.86C278.26 574.86 278.1 583.3 279.03 585.1C279.96 586.9 261.52 586.94 261.52 586.94C261.52 586.94 260.02 577.16 257.18 568.9C254.34 560.64 278.26 574.86 278.26 574.86Z" />
		<path id="Path 24" class="shp19" d="M257.64 568.76C257.64 568.76 259.36 570.52 264.24 568.53C269.11 566.55 273.69 558.36 275.63 557.13C277.57 555.89 277.29 554.65 277.29 554.65L279.07 556.27L281.35 555.88C281.35 555.88 277.88 550.34 280.39 547.16C282.9 543.98 272.6 528.43 257.71 537.92C257.71 537.92 246.06 544.29 248.18 551.27C250.31 558.25 254.02 565.89 257.64 568.76Z" />
		<path id="Path 25" class="shp20" d="M280.13 584.88C280.13 584.88 280.07 581.45 278.51 581.12C276.95 580.79 261.32 579.28 259.41 580.04L259.41 584.04C259.41 584.04 263.1 586.3 280.13 584.88Z" />
		<path id="Path 26" class="shp18" d="M276.35 552.15C275.79 551.03 271.96 548.34 271.66 552.25C271.36 556.16 275.42 560.36 276.94 559.57C278.47 558.77 277.78 554.99 276.35 552.15Z" />
		<path id="Path 27" class="shp19" d="M251.93 542.19C251.93 542.19 234.76 546.8 256.95 568.1L251.93 542.19Z" />
		<path id="Path 28" class="shp18" d="M405.26 633.44L387.77 633.28C389.28 632.4 391.72 630.82 391.18 630.1C390.41 629.08 385.46 631.33 383.45 631.54C381.6 631.72 378.51 631.49 376.16 632.34L370.64 634.7L375.7 639.38C375.7 639.38 384.85 640.69 387.52 640.88C391.88 641.19 405.2 636 405.42 635.21C405.82 633.8 405.26 633.44 405.26 633.44Z" />
		<path id="Path 29" class="shp15" d="M302.96 589.64C291.83 587.69 280.13 584.88 280.13 584.88L259.41 584.04C259.41 584.04 240.4 588.22 232.91 591.6C232.2 591.92 232.2 608.56 230.25 612.93L236.46 626.02C236.46 626.02 240.04 651.96 240.79 663.5C241.13 668.8 233.39 713.17 233.39 713.17C233.39 713.17 241.68 715.61 255.82 717.16C269.96 718.72 305.28 716.6 305.5 714.93C305.73 713.26 298.66 652.76 298.35 649.62C297.87 644.81 299.74 622.59 299.74 622.59C302.4 626.17 317.8 639.59 325.32 643.86C330.67 646.89 343.79 645.04 347.65 644.64C356.02 643.79 379.12 642.13 379.57 641.31C379.93 640.82 378.24 632.4 377.28 632.07C376.43 631.79 346.61 630.32 339.12 630.7C336.09 630.86 326.19 619.81 326.19 619.81C326.19 619.81 309.09 592.4 302.96 589.64Z" />
		<path id="Path 30" class="shp21" d="M175.56 505.91L230.32 505.91L230.32 545.59L230.32 553.95L221.96 545.59L175.56 545.59L175.56 505.91Z" />
		<path id="Path 31" fill-rule="evenodd" class="shp2" d="M1057.3 379.61L1004.1 379.61L1004.1 326.41L1057.3 326.41L1057.3 379.61ZM1005.88 377.83L1055.53 377.83L1055.53 328.18L1005.88 328.18L1005.88 377.83ZM1189.7 345.91L1067.94 345.91L1067.94 332.91L1189.7 332.91L1189.7 345.91ZM1069.71 344.14L1187.93 344.14L1187.93 334.69L1069.71 334.69L1069.71 344.14ZM1189.7 406.39L1004.1 406.39L1004.1 393.39L1189.7 393.39L1189.7 406.39ZM1005.88 404.62L1187.93 404.62L1187.93 395.16L1005.88 395.16L1005.88 404.62ZM1122.32 431.36L1004.1 431.36L1004.1 418.36L1122.32 418.36L1122.32 431.36ZM1005.88 429.59L1120.54 429.59L1120.54 420.13L1005.88 420.13L1005.88 429.59Z" />
		<path id="Path 32" fill-rule="evenodd" class="shp2" d="M1150.39 370.72L1067.94 370.72L1067.94 357.72L1150.39 357.72L1150.39 370.72ZM1069.71 368.95L1148.62 368.95L1148.62 359.49L1069.71 359.49L1069.71 368.95Z" />
		<path id="Path 33" fill-rule="evenodd" class="shp2" d="M1210.83 459.64L982.97 459.64L982.97 298.13L1210.83 298.13L1210.83 459.64ZM984.74 457.87L1209.06 457.87L1209.06 299.9L984.74 299.9L984.74 457.87ZM902.63 225.79L885.58 225.79L885.58 223.81L900.64 223.81L900.64 208.76L902.63 208.76L902.63 225.79ZM787.99 225.79L770.93 225.79L770.93 208.76L772.92 208.76L772.92 223.81L787.99 223.81L787.99 225.79ZM772.93 111.16L770.94 111.16L770.94 94.11L787.98 94.11L787.98 96.1L772.93 96.1L772.93 111.16ZM902.63 111.15L900.64 111.15L900.64 96.1L885.58 96.1L885.58 94.12L902.63 94.12L902.63 111.15ZM902.63 183.3L900.64 183.3L900.64 136.61L902.63 136.61L902.63 183.3ZM772.92 183.3L770.93 183.3L770.93 136.61L772.92 136.61L772.92 183.3Z" />
		<path id="Path 34" fill-rule="evenodd" class="shp14" d="M292.21 356.69C288.19 356.69 284.91 353.41 284.91 349.39C284.91 345.37 288.19 342.09 292.21 342.09C296.24 342.09 299.51 345.37 299.51 349.39C299.51 353.41 296.24 356.69 292.21 356.69ZM292.21 344.08C289.28 344.08 286.9 346.46 286.9 349.39C286.9 352.32 289.28 354.7 292.21 354.7C295.14 354.7 297.52 352.32 297.52 349.39C297.52 346.46 295.14 344.08 292.21 344.08ZM836.88 189.34C832.85 189.34 829.58 186.06 829.58 182.04C829.58 178.02 832.85 174.75 836.88 174.75C840.9 174.75 844.18 178.02 844.18 182.04C844.18 186.06 840.9 189.34 836.88 189.34ZM836.88 176.73C833.95 176.73 831.57 179.11 831.57 182.04C831.57 184.97 833.95 187.35 836.88 187.35C839.81 187.35 842.19 184.97 842.19 182.04C842.19 179.11 839.81 176.73 836.88 176.73ZM1075.4 450.53C1071.38 450.53 1068.11 447.25 1068.11 443.23C1068.11 439.21 1071.38 435.93 1075.4 435.93C1079.43 435.93 1082.7 439.21 1082.7 443.23C1082.7 447.25 1079.43 450.53 1075.4 450.53ZM1075.4 437.92C1072.48 437.92 1070.09 440.3 1070.09 443.23C1070.09 446.16 1072.48 448.54 1075.4 448.54C1078.33 448.54 1080.71 446.16 1080.71 443.23C1080.71 440.3 1078.33 437.92 1075.4 437.92Z" />
		<path id="Path 35" fill-rule="evenodd" class="shp22" d="M340.61 154.06L290.52 154.06L290.52 103.97L340.61 103.97L340.61 154.06ZM292.51 152.07L338.62 152.07L338.62 105.96L292.51 105.96L292.51 152.07ZM316.56 140.97L314.57 140.97L314.57 130.29L303.89 130.29L303.89 128.3L314.57 128.3L314.57 117.62L316.56 117.62L316.56 128.3L327.24 128.3L327.24 130.29L316.56 130.29L316.56 140.97ZM1103.91 214.48L1032.31 214.48L1032.31 163.37L1103.91 163.37L1103.91 214.48ZM1100.61 212.5L1076.68 187.27L1068.11 194.33L1059.54 187.27L1035.62 212.5L1100.61 212.5ZM1034.3 166.47L1034.3 211L1058.01 186L1034.3 166.47ZM1101.92 166.47L1078.22 186L1101.92 211L1101.92 166.47ZM1068.11 191.76L1100.15 165.36L1036.08 165.36L1068.11 191.76ZM465.6 265.83L464.85 263.88C464.18 263.79 463.53 263.64 462.89 263.43L461.37 264.86L456.96 261.72L457.81 259.81C457.4 259.28 457.04 258.71 456.74 258.11L454.66 258.04L453.76 252.7L455.71 251.96C455.79 251.29 455.95 250.64 456.16 250L454.73 248.48L457.87 244.07L459.77 244.92C460.31 244.51 460.88 244.15 461.48 243.85L461.54 241.77L466.88 240.87L467.63 242.81C468.29 242.9 468.95 243.05 469.59 243.26L471.11 241.84L475.52 244.98L474.67 246.88C475.08 247.41 475.43 247.98 475.74 248.59L477.82 248.65L478.72 253.99L476.77 254.74C476.68 255.4 476.53 256.06 476.32 256.7L477.75 258.21L474.61 262.63L472.71 261.78C472.17 262.19 471.61 262.54 471 262.84L470.94 264.93L465.6 265.83ZM462.54 261.71L462.98 261.88C463.77 262.18 464.6 262.37 465.45 262.45L465.91 262.49L466.55 264.15L469.49 263.66L469.54 261.88L469.97 261.68C470.75 261.34 471.47 260.89 472.11 260.34L472.47 260.04L474.1 260.77L475.83 258.35L474.6 257.04L474.77 256.61C475.08 255.82 475.26 254.99 475.34 254.14L475.38 253.67L477.05 253.04L476.55 250.1L474.77 250.04L474.58 249.62C474.23 248.84 473.78 248.12 473.23 247.47L472.93 247.11L473.66 245.49L471.24 243.76L469.94 244.98L469.5 244.81C468.71 244.51 467.88 244.32 467.03 244.25L466.57 244.21L465.93 242.54L463 243.03L462.94 244.82L462.51 245.01C461.73 245.36 461.01 245.81 460.36 246.35L460.01 246.65L458.38 245.93L456.65 248.35L457.87 249.65L457.71 250.09C457.4 250.88 457.21 251.71 457.14 252.56L457.1 253.02L455.43 253.66L455.93 256.59L457.71 256.65L457.9 257.08C458.25 257.85 458.7 258.58 459.25 259.22L459.55 259.58L458.82 261.21L461.24 262.94L462.54 261.71ZM466.23 259.24C465.01 259.24 463.83 258.86 462.83 258.14C460.18 256.26 459.56 252.58 461.44 249.94C463.32 247.29 467.01 246.67 469.65 248.55C470.93 249.46 471.79 250.82 472.05 252.37C472.31 253.92 471.95 255.48 471.04 256.76C470.13 258.04 468.77 258.89 467.22 259.15C466.89 259.21 466.56 259.24 466.23 259.24ZM466.25 248.95C464.87 248.95 463.51 249.6 462.66 250.8C461.98 251.75 461.71 252.92 461.9 254.08C462.1 255.24 462.74 256.25 463.69 256.93C464.65 257.61 465.81 257.88 466.97 257.68C468.13 257.49 469.14 256.85 469.82 255.9C470.5 254.94 470.77 253.78 470.58 252.62C470.38 251.46 469.75 250.45 468.79 249.77C468.02 249.22 467.13 248.95 466.25 248.95Z" />
		<path id="Path 36" fill-rule="evenodd" class="shp22" d="M424.23 272.05L422.57 267.71C420.79 267.51 419.03 267.11 417.35 266.51L413.96 269.7L404.75 263.14L406.65 258.9C405.53 257.5 404.58 255.98 403.81 254.36L399.15 254.21L397.28 243.06L401.62 241.4C401.82 239.62 402.22 237.86 402.82 236.18L399.64 232.79L406.19 223.58L410.44 225.48C411.83 224.36 413.36 223.41 414.98 222.64L415.12 217.99L426.27 216.11L427.93 220.45C429.71 220.65 431.46 221.05 433.15 221.65L436.54 218.47L445.75 225.02L443.85 229.26C444.97 230.66 445.92 232.19 446.7 233.81L451.35 233.95L453.23 245.1L448.88 246.76C448.68 248.55 448.28 250.3 447.68 251.98L450.87 255.37L444.31 264.58L440.07 262.69C438.67 263.8 437.15 264.75 435.53 265.53L435.38 270.18L424.23 272.05ZM416.89 264.22L417.47 264.44C419.36 265.16 421.34 265.62 423.36 265.79L423.98 265.85L425.51 269.83L433.44 268.49L433.58 264.23L434.15 263.97C436 263.15 437.73 262.07 439.27 260.77L439.75 260.37L443.64 262.1L448.3 255.55L445.39 252.44L445.61 251.86C446.33 249.98 446.79 247.99 446.96 245.97L447.01 245.35L451 243.82L449.66 235.89L445.4 235.75L445.14 235.19C444.32 233.33 443.24 231.6 441.94 230.06L441.54 229.59L443.27 225.7L436.72 221.03L433.61 223.94L433.03 223.72C431.14 223 429.16 222.54 427.14 222.37L426.52 222.32L425 218.34L417.06 219.67L416.92 223.93L416.35 224.19C414.5 225.01 412.78 226.09 411.23 227.39L410.75 227.79L406.86 226.06L402.2 232.61L405.11 235.72L404.89 236.3C404.17 238.19 403.71 240.17 403.54 242.19L403.49 242.81L399.51 244.34L400.84 252.27L405.1 252.41L405.36 252.98C406.18 254.83 407.26 256.56 408.56 258.1L408.96 258.58L407.23 262.47L413.79 267.13L416.89 264.22ZM425.23 256.93C422.66 256.93 420.05 256.16 417.8 254.55C412.02 250.44 410.67 242.4 414.78 236.63C418.89 230.85 426.93 229.5 432.7 233.61C438.48 237.72 439.84 245.76 435.72 251.53C433.22 255.05 429.25 256.93 425.23 256.93ZM425.26 233.22C421.87 233.22 418.51 234.8 416.4 237.78C414.71 240.15 414.05 243.02 414.53 245.89C415.02 248.75 416.58 251.25 418.95 252.94C423.83 256.41 430.63 255.26 434.11 250.38C435.79 248.02 436.45 245.14 435.97 242.28C435.49 239.41 433.92 236.91 431.55 235.23C429.64 233.87 427.44 233.22 425.26 233.22Z" />
		<path id="Path 37" fill-rule="evenodd" class="shp14" d="M164.24 282.51C143.8 282.51 127.17 265.88 127.17 245.44L129.16 245.44C129.16 264.78 144.9 280.52 164.24 280.52C183.58 280.52 199.32 264.78 199.32 245.44C199.32 226.09 183.58 210.36 164.24 210.36L164.24 208.37C184.68 208.37 201.31 225 201.31 245.44C201.31 265.88 184.68 282.51 164.24 282.51ZM164.24 277.35C146.64 277.35 132.33 263.04 132.33 245.44C132.33 227.84 146.64 213.52 164.24 213.52C181.84 213.52 196.16 227.84 196.16 245.44L194.17 245.44C194.17 228.94 180.74 215.51 164.24 215.51C147.74 215.51 134.31 228.94 134.31 245.44C134.31 261.94 147.74 275.37 164.24 275.37L164.24 277.35ZM159.7 257.72L146.33 244.35L147.73 242.94L159.7 254.91L180.75 233.86L182.15 235.26L159.7 257.72Z" />
		<path id="Path 38" class="shp23" d="M947.06 699.94L665.47 699.94L383.89 699.94L322.26 930.29L667.32 930.29L1008.69 930.29L947.06 699.94Z" />
		<path id="Path 39" class="shp8" d="M405.2 740.35L439.8 740.35C441.24 740.35 442.33 741.48 442.06 742.69L438.71 757.74C438.5 758.67 437.55 759.34 436.45 759.34L401.25 759.34C399.77 759.34 398.68 758.18 399 756.94L402.94 741.89C403.18 741 404.11 740.35 405.2 740.35ZM455.66 740.35L481.82 740.35L478.34 759.34L451.68 759.34L455.66 740.35ZM494.9 740.35L521.06 740.35L518.32 759.34L491.66 759.37L494.9 740.35ZM534.14 740.35L560.29 740.35L558.3 759.34L531.65 759.34L534.14 740.35ZM573.37 740.35L599.53 740.35L598.29 759.34L571.63 759.34L573.37 740.35ZM612.61 740.35L638.77 740.35L638.27 759.34L611.61 759.37L612.61 740.35ZM926.59 740.35L887.36 740.35L891.58 759.34L931.57 759.34L926.59 740.35ZM874.28 740.35L848.12 740.35L851.6 759.34L878.26 759.34L874.28 740.35ZM835.04 740.35L808.88 740.35L811.62 759.34L838.28 759.37L835.04 740.35ZM795.8 740.35L769.64 740.35L771.63 759.34L798.29 759.34L795.8 740.35ZM756.57 740.35L730.41 740.35L731.65 759.34L758.31 759.34L756.57 740.35ZM717.33 740.35L691.17 740.35L691.67 759.34L718.32 759.37L717.33 740.35ZM651.85 740.35L678.01 740.35L678.44 759.34L651.85 759.34L651.85 740.35ZM393.69 773.49L448.35 773.49L445.23 793.08L389.54 793.08L393.69 773.49ZM935.13 773.49L867.56 773.49L871.41 793.08L940.26 793.08L935.13 773.49ZM854.05 773.49L827.02 773.49L830.1 793.08L857.64 793.08L854.05 773.49ZM813.51 773.49L786.48 773.49L788.79 793.08L816.33 793.08L813.51 773.49ZM772.97 773.49L745.95 773.49L747.48 793.08L775.02 793.08L772.97 773.49ZM732.43 773.49L705.41 773.49L706.17 793.08L733.71 793.08L732.43 773.49ZM385.52 808.41L441.4 808.41L437.33 827.86L380.42 827.86L385.52 808.41ZM455.37 808.41L483.31 808.41L480 827.86L451.55 827.86L455.37 808.41ZM497.28 808.41L525.22 808.41L706.82 808.41L707.6 827.86L494.22 827.86L497.28 808.41ZM720.81 808.41L748.75 808.41L750.27 827.86L721.83 827.86L720.81 808.41ZM762.72 808.41L790.66 808.41L792.95 827.86L764.5 827.86L762.72 808.41ZM804.63 808.41L832.57 808.41L835.63 827.86L807.18 827.86L804.63 808.41ZM846.54 808.41L874.48 808.41L878.3 827.86L849.85 827.86L846.54 808.41ZM888.45 808.41L944.33 808.41L949.43 827.86L892.53 827.86L888.45 808.41ZM691.95 773.49L665.14 773.49L665.14 793.08L692.46 793.08L691.95 773.49ZM651.41 773.49L624.39 773.49L623.61 793.08L651.15 793.08L651.41 773.49ZM610.87 773.49L583.85 773.49L582.31 793.08L609.85 793.08L610.87 773.49ZM570.34 773.49L543.31 773.49L541 793.08L568.54 793.08L570.34 773.49ZM529.8 773.49L502.77 773.49L499.69 793.08L527.23 793.08L529.8 773.49ZM489.26 773.49L462.23 773.49L458.38 793.08L485.92 793.08L489.26 773.49ZM406.47 728.42L410.91 711.47L423.61 711.47L419.47 728.42L406.47 728.42ZM436.31 711.47L461.71 711.47L458.16 728.42L432.32 728.42L436.31 711.47ZM474.42 711.47L499.82 711.47L496.93 728.42L471.09 728.42L474.42 711.47ZM512.52 711.47L537.92 711.47L535.7 728.42L509.85 728.42L512.52 711.47ZM550.62 711.47L576.02 711.47L574.47 728.42L548.62 728.42L550.62 711.47ZM588.72 711.47L614.12 711.47L613.24 728.42L587.39 728.42L588.72 711.47ZM626.82 711.47L652.22 711.47L652 728.42L626.16 728.42L626.82 711.47ZM664.93 711.47L690.33 711.47L690.77 728.42L664.93 728.42L664.93 711.47ZM703.03 711.47L728.43 711.47L729.54 728.42L703.69 728.42L703.03 711.47ZM741.13 711.47L766.53 711.47L768.31 728.42L742.46 728.42L741.13 711.47ZM779.23 711.47L804.63 711.47L807.07 728.42L781.23 728.42L779.23 711.47ZM817.33 711.47L842.74 711.47L845.84 728.42L820 728.42L817.33 711.47ZM855.44 711.47L880.84 711.47L884.61 728.42L858.77 728.42L855.44 711.47ZM893.54 711.47L918.94 711.47L923.38 728.42L897.53 728.42L893.54 711.47Z" />
		<path id="Path 40" class="shp24" d="M990.75 948.22L340.19 948.22C330.29 948.22 322.26 940.19 322.26 930.29L1008.69 930.29C1008.69 940.19 1000.66 948.22 990.75 948.22Z" />
		<path id="Path 41" class="shp25" d="M745.27 855.85C744.6 851.8 741.09 848.83 736.98 848.83L665.47 848.83L593.96 848.83C589.85 848.83 586.35 851.8 585.68 855.85L576.74 909.92C575.9 915.04 579.85 919.69 585.03 919.69L665.47 919.69L745.92 919.69C751.1 919.69 755.05 915.04 754.21 909.92L745.27 855.85Z" />
		<path id="Path 42" class="shp26" d="M497.11 396.52L438.89 396.52L438.89 390.56L497.11 390.56L497.11 396.52ZM555.43 441.4L513.4 441.4L513.4 435.44L555.43 435.44L555.43 441.4Z" />
		<path id="Path 43" class="shp13" d="M589.87 441.4L561.98 441.4L561.98 435.44L589.87 435.44L589.87 441.4ZM467.44 554.27L439.55 554.27L439.55 548.31L467.44 548.31L467.44 554.27Z" />
		<path id="Path 44" class="shp26" d="M662.72 441.4L595.38 441.4L595.38 435.44L662.72 435.44L662.72 441.4ZM482.82 531.67L439.55 531.67L439.55 525.71L482.82 525.71L482.82 531.67ZM526.29 576.71L499.87 576.71L499.87 570.76L526.29 570.76L526.29 576.71Z" />
		<path id="Path 45" class="shp13" d="M491.89 576.71L439.55 576.71L439.55 570.76L491.89 570.76L491.89 576.71Z" />
		<path id="Path 46" class="shp26" d="M468.42 599.16L439.55 599.16L439.55 593.2L468.42 593.2L468.42 599.16Z" />
		<path id="Path 47" class="shp14" d="M549.76 396.52L508.43 396.52L508.43 390.56L549.76 390.56L549.76 396.52Z" />
		<path id="Path 48" class="shp13" d="M549.76 463.85L508.43 463.85L508.43 457.89L549.76 457.89L549.76 463.85Z" />
		<path id="Path 49" class="shp26" d="M505.43 486.29L487.77 486.29L487.77 480.32L505.43 480.32L505.43 486.29Z" />
		<path id="Path 50" class="shp14" d="M509.77 509.06L470.11 509.06L470.11 503.1L509.77 503.1L509.77 509.06Z" />
		<path id="Path 51" class="shp13" d="M570.52 509.06L515.77 509.06L515.77 503.1L570.52 503.1L570.52 509.06ZM480.88 486.45L439.55 486.45L439.55 480.49L480.88 480.49L480.88 486.45ZM464.07 509.06L439.55 509.06L439.55 503.1L464.07 503.1L464.07 509.06Z" />
		<path id="Path 52" class="shp27" d="M536.89 486.45L513.75 486.45L513.75 480.49L536.89 480.49L536.89 486.45ZM463.38 621.6L440.25 621.6L440.25 615.64L463.38 615.64L463.38 621.6Z" />
		<path id="Path 53" class="shp14" d="M480.71 441.4L439.39 441.4L439.39 435.44L480.71 435.44L480.71 441.4ZM517.26 554.27L475.93 554.27L475.93 548.31L517.26 548.31L517.26 554.27ZM517.77 599.16L476.44 599.16L476.44 593.2L517.77 593.2L517.77 599.16ZM591.18 599.16L549.86 599.16L549.86 593.2L591.18 593.2L591.18 599.16ZM498.3 463.85L439.39 463.85L439.39 457.89L498.3 457.89L498.3 463.85ZM756.77 396.52L715.45 396.52L715.45 390.56L756.77 390.56L756.77 396.52ZM609.55 621.6L568.22 621.6L568.22 615.64L609.55 615.64L609.55 621.6ZM797.29 396.52L769.63 396.52L769.63 390.56L797.29 390.56L797.29 396.52ZM890.89 418.96L863.22 418.96L863.22 413L890.89 413L890.89 418.96Z" />
		<path id="Path 54" class="shp13" d="M613.54 396.52L560.88 396.52L560.88 390.56L613.54 390.56L613.54 396.52ZM818.68 418.96L766.03 418.96L766.03 413L818.68 413L818.68 418.96ZM754.11 441.4L701.46 441.4L701.46 435.44L754.11 435.44L754.11 441.4ZM685.56 463.85L632.91 463.85L632.91 457.89L685.56 457.89L685.56 463.85Z" />
		<path id="Path 55" class="shp14" d="M798.16 441.4L760.73 441.4L760.73 435.44L798.16 435.44L798.16 441.4Z" />
		<path id="Path 56" class="shp27" d="M705.13 396.52L652.48 396.52L652.48 390.56L705.13 390.56L705.13 396.52ZM623.27 463.85L592.4 463.85L592.4 457.89L623.27 457.89L623.27 463.85ZM599.1 554.61L568.22 554.61L568.22 548.64L599.1 548.64L599.1 554.61Z" />
		<path id="Path 57" class="shp26" d="M642.54 396.52L623.27 396.52L623.27 390.56L642.54 390.56L642.54 396.52ZM580.15 463.85L560.88 463.85L560.88 457.89L580.15 457.89L580.15 463.85ZM850.65 418.96L831.38 418.96L831.38 413L850.65 413L850.65 418.96Z" />
		<path id="Path 58" class="shp13" d="M469.04 418.96L438.89 418.96L438.89 413L469.04 413L469.04 418.96ZM543.14 531.83L519.34 531.83L519.34 525.87L543.14 525.87L543.14 531.83ZM486.18 418.96L476.44 418.96L476.44 413L486.18 413L486.18 418.96Z" />
		<path id="Path 59" class="shp26" d="M756.77 418.96L676.3 418.96L676.3 413L756.77 413L756.77 418.96ZM679.56 599.16L599.1 599.16L599.1 593.2L679.56 593.2L679.56 599.16Z" />
		<path id="Path 60" class="shp27" d="M503.26 418.96L493.33 418.96L493.33 413L503.26 413L503.26 418.96Z" />
		<path id="Path 61" class="shp13" d="M668.87 418.96L642.54 418.96L642.54 413L668.87 413L668.87 418.96Z" />
		<path id="Path 62" class="shp27" d="M695.2 441.4L668.87 441.4L668.87 435.44L695.2 435.44L695.2 441.4ZM559.83 621.6L533.5 621.6L533.5 615.64L559.83 615.64L559.83 621.6Z" />
		<path id="Path 63" class="shp13" d="M635.57 418.96L579.56 418.96L579.56 413L635.57 413L635.57 418.96ZM560.15 554.61L527.42 554.61L527.42 548.64L560.15 548.64L560.15 554.61ZM541.68 599.16L525.32 599.16L525.32 593.2L541.68 593.2L541.68 599.16Z" />
		<path id="Path 64" class="shp14" d="M571.61 418.96L552.34 418.96L552.34 413L571.61 413L571.61 418.96Z" />
		<path id="Path 65" class="shp27" d="M506.74 441.4L487.47 441.4L487.47 435.44L506.74 435.44L506.74 441.4ZM510.58 531.83L491.31 531.83L491.31 525.87L510.58 525.87L510.58 531.83Z" />
		<path id="Path 66" class="shp13" d="M544.99 418.96L511.41 418.96L511.41 413L544.99 413L544.99 418.96Z" />
		<path id="Path 67" class="shp28" d="M1003.08 650.88L947.08 650.88L947.08 465.34L1003.08 465.34C1007.7 465.34 1011.44 469.09 1011.44 473.71L1011.44 513.8L965.13 513.8L965.13 515.79L1011.44 515.79L1011.44 593.46C1006.66 594.35 1002.58 598.75 1003.39 606.83C1004.63 619.18 1011.64 632.18 1006.67 650.06C1005.58 650.58 1004.36 650.88 1003.08 650.88Z" />
		<path id="Path 68" class="shp29" d="M947.08 650.88L926.17 650.88L926.17 465.34L947.08 465.34L947.08 650.88Z" />
		<path id="Path 69" class="shp30" d="M926.17 650.88L759.57 650.88C754.95 650.88 751.21 647.13 751.21 642.51L751.21 473.71C751.21 469.09 754.95 465.34 759.57 465.34L926.17 465.34L926.17 650.88Z" />
		<path id="Path 70" class="shp31" d="M1006.67 650.06C1011.64 632.18 1004.63 619.18 1003.39 606.83C1002.58 598.75 1006.66 594.35 1011.44 593.46L1011.44 642.51C1011.44 645.84 1009.49 648.72 1006.67 650.06Z" />
		<path id="Path 71" class="shp32" d="M1011.44 515.79L965.13 515.79L965.13 513.8L1011.44 513.8L1011.44 515.79Z" />
		<path id="Path 72" fill-rule="evenodd" class="shp33" d="M983.34 573.72L941.41 573.72C939.64 573.72 938.2 572.28 938.2 570.51L938.2 564.04C938.2 562.26 939.64 560.83 941.41 560.83L983.34 560.83C985.11 560.83 986.55 562.26 986.55 564.04L986.55 570.51C986.55 572.28 985.11 573.72 983.34 573.72ZM983.34 597.86L941.41 597.86C939.64 597.86 938.2 596.42 938.2 594.65L938.2 588.17C938.2 586.4 939.64 584.96 941.41 584.96L983.34 584.96C985.11 584.96 986.55 586.4 986.55 588.17L986.55 594.65C986.55 596.42 985.11 597.86 983.34 597.86ZM983.34 621.99L941.41 621.99C939.64 621.99 938.2 620.56 938.2 618.79L938.2 612.31C938.2 610.54 939.64 609.1 941.41 609.1L983.34 609.1C985.11 609.1 986.55 610.54 986.55 612.31L986.55 618.79C986.55 620.56 985.11 621.99 983.34 621.99ZM871.39 623.9C842.45 634.24 811.26 624.9 792.46 602.81C787.98 597.54 784.21 591.55 781.33 584.93C780.7 583.46 780.11 581.97 779.56 580.45C774.09 565.16 774.12 549.24 778.63 534.85C785.13 514.09 800.95 496.52 823.01 488.62C830.29 486.02 837.71 484.66 845.05 484.44C875.34 483.53 904.07 502 914.83 532.07C928.19 569.43 908.74 610.53 871.39 623.9ZM897.9 538.12C889.84 515.58 868.29 501.73 845.58 502.41C840.09 502.58 834.52 503.6 829.06 505.55C812.52 511.46 800.66 524.64 795.79 540.21C792.41 550.99 792.39 562.93 796.49 574.39C796.9 575.53 797.34 576.66 797.82 577.75C799.97 582.72 802.8 587.21 806.16 591.16C820.25 607.73 843.64 614.73 865.33 606.97C893.34 596.95 907.92 566.13 897.9 538.12Z" />
		<path id="Path 73" class="shp34" d="M795.79 540.21L778.63 534.85C785.13 514.09 800.95 496.52 823.01 488.62C830.29 486.02 837.71 484.66 845.05 484.44L845.58 502.41C840.09 502.58 834.52 503.6 829.06 505.55C812.52 511.46 800.66 524.64 795.79 540.21Z" />
		<path id="Path 74" class="shp35" d="M797.82 577.75L781.33 584.93C780.7 583.46 780.11 581.97 779.56 580.45C774.09 565.16 774.12 549.24 778.63 534.85L795.79 540.21C792.41 550.99 792.39 562.93 796.49 574.39C796.9 575.53 797.34 576.66 797.82 577.75Z" />
		<path id="Path 75" class="shp36" d="M792.46 602.81C787.98 597.54 784.21 591.55 781.33 584.93L797.82 577.75C799.97 582.72 802.8 587.21 806.16 591.16L792.46 602.81Z" />
		<path id="Path 76" class="shp18" d="M871.18 598.86C871.18 598.86 867.7 592.77 873.21 576.45C878.55 560.67 897.02 562.1 902.89 572.21C908.76 582.32 906.78 588.61 898.14 600.02C889.49 611.44 874.76 604.08 871.18 598.86ZM914.08 879.62C914.08 879.62 915 886.32 915.11 887.33C915.22 888.33 925.28 886.74 925.28 886.74L926.09 878.76C926.09 878.76 915.34 878.68 914.08 879.62Z" />
		<path id="Path 77" class="shp37" d="M915 886.48C915 886.48 911.81 890.51 908.74 892.27C905.65 894.04 900.81 894.73 898.99 896.55C897.68 897.87 894.2 903.53 907 903.41C919.79 903.3 925.96 904.22 927.34 902.05C928.71 899.87 925.35 886.02 925.35 886.02C925.35 886.02 922.22 886.91 915 886.48Z" />
		<path id="Path 78" class="shp18" d="M844.46 879.62C844.46 879.62 845.38 886.32 845.49 887.33C845.6 888.33 855.66 886.74 855.66 886.74L856.47 878.76C856.47 878.76 845.72 878.68 844.46 879.62Z" />
		<path id="Path 79" class="shp37" d="M845.39 886.48C845.39 886.48 842.2 890.51 839.12 892.27C836.04 894.04 824.7 895.48 822.88 897.3C821.56 898.62 819.37 903.91 837.38 903.41C850.17 903.06 856.34 904.22 857.72 902.05C859.09 899.87 855.73 886.02 855.73 886.02C855.73 886.02 851.76 886.73 845.39 886.48Z" />
		<path id="Path 80" class="shp38" d="M910.7 712.75C910.7 712.75 915.85 728.77 915.17 742.57C914.49 756.38 917.84 771.49 919.2 785.91C920.73 801.99 926.97 840.05 927.19 848.65C927.42 857.25 926.23 884.72 926.23 884.72L913.74 885.01C913.74 885.01 903.25 818.47 900.54 811.68C897.82 804.89 884.35 756.49 883.9 751.06C883.45 745.62 910.7 712.75 910.7 712.75ZM858.93 711.08C858.93 711.08 851.35 753.44 850.44 761.89C849.54 770.34 848.93 802.78 848.48 808.06C848.03 813.34 845.46 877.17 843.05 885.01L856.97 885.01C856.97 885.01 871.26 838.62 871.26 816.66C871.26 794.71 880.73 768.94 886.84 754.45C892.95 739.96 906.94 739.62 910.7 712.75C910.7 712.75 864.01 702.56 858.93 711.08Z" />
		<path id="Path 81" class="shp18" d="M876.22 603.17C876.22 603.17 877.79 607.74 876.22 611C874.65 614.26 896.29 612.31 896.29 612.31C896.29 612.31 895.31 605.57 898.14 600.02C900.96 594.47 876.22 603.17 876.22 603.17Z" />
		<path id="Path 82" class="shp39" d="M911.7 716.24C911.7 716.24 903.92 724.23 858.23 714.99L858.93 711.08L910.86 713.04L911.7 716.24Z" />
		<path id="Path 83" class="shp18" d="M872.95 612.06C872.95 612.06 864.96 612.88 862.67 613.31C860.39 613.75 845.02 610.56 841.87 610.24C838.71 609.91 825.27 600.7 824.84 599.61C824.4 598.53 816.66 578.92 816.22 574.68C815.79 570.43 808.68 572.63 809.29 575.55C810.43 581.01 811.89 594.28 812.7 598.13C813.56 602.28 815.89 611.68 817.19 612.84C818.49 614 830.6 623.21 842.45 627.12C854.3 631.03 863.22 636.8 863.22 636.8L921.63 636.8C921.63 636.8 944.35 604.32 944.84 599.43C945.32 594.54 928.97 562.02 925.71 557.94C922.44 553.86 917.73 559.27 917.73 559.27C917.73 559.27 927.5 587.95 928.8 592.03C930.11 596.11 917.44 614.02 913.96 614.08C910.48 614.13 901.55 612.99 897.57 612.82C893.61 612.66 889.42 610.92 889.42 610.92L872.95 612.06Z" />
		<path id="Path 84" class="shp40" d="M847.78 633.75C847.78 633.75 854.93 638.51 855.58 646.66C856.23 654.81 858.84 667.7 860.15 672.1C861.45 676.51 859.01 708.47 858.68 710.75C858.35 713.04 903.87 718.46 910.86 713.04C910.86 713.04 912.82 683.19 913.64 674.71C914.45 666.23 918.37 645.68 919.67 642.91C920.98 640.14 936.8 617.95 937.45 615.02C937.45 615.02 929.26 601.97 923.39 601.81C923.39 601.81 914.07 612.74 911.03 613.23C907.99 613.72 889.35 610.3 889.35 610.27C889.35 610.27 887.32 613.05 876.5 609.78C876.5 609.78 863.63 611.23 861.53 611.5C859 611.83 841.36 609.29 841.36 609.29C841.36 609.29 834.29 621.24 835.53 627.26L847.78 633.75Z" />
		<path id="Path 85" class="shp18" d="M816.63 577.22C816.63 577.22 815.03 569.67 816.96 567.5C818.05 566.26 820.68 562.99 820.92 562.51C821.16 562.03 823.99 560.41 823.99 559.62C823.99 558.84 821.22 557.88 818.82 560.11C816.42 562.33 814.92 562.81 813.96 562.57C812.99 562.33 811.61 554.34 811.49 552.36C811.37 550.37 810.61 545.15 809.37 545.51C808.13 545.87 808.19 548.15 808.19 548.15C808.19 548.15 806.75 544.19 805.79 544.97C804.82 545.75 804.94 547.67 804.94 547.67C804.94 547.67 803.14 545.45 802.66 547.07C802.18 548.69 802.66 550.13 802.66 550.13C802.66 550.13 800.8 549.11 800.68 551.64C800.56 554.16 801.22 561.55 802.54 564.19C803.86 566.84 808.81 573.75 809.4 576.45C809.99 579.15 816.63 577.22 816.63 577.22ZM919.32 563.95C919.32 563.95 913.89 554.82 912.04 554C910.19 553.19 907.58 552.72 905.3 551.09C903.01 549.46 900 548.1 900.16 547.56C900.32 547.02 903.01 547.23 905.89 548.48C908.78 549.73 910.04 549.13 910.31 548.48C910.58 547.82 908.78 543.22 907.9 542.13C907.03 541.04 900.84 534.81 901.87 533.89C902.9 532.96 906.93 536.39 907.58 537.09C907.58 537.09 904.37 530.35 905.62 530.03C906.87 529.7 909.21 532.09 909.21 532.09C909.21 532.09 908.94 526.33 915.14 535.68C915.14 535.68 913.83 532.58 915.73 533.62C917.64 534.65 919.49 540.47 920.08 543.4C920.68 546.34 923.39 555.69 925.71 557.94C928.02 560.2 919.32 563.95 919.32 563.95Z" />
		<path id="Path 86" class="shp41" d="M898.14 600.02C898.14 600.02 895.27 600.27 889.19 598.17C883.1 596.07 882.64 585.42 881.33 586.68C878.64 589.26 876.1 587.48 875.09 585.96C875.09 585.96 878.06 582.05 876.68 580.16C875.3 578.27 873.06 576.9 873.06 576.9C873.06 576.9 877.34 556.26 896.83 565.66C919.66 576.68 898.14 600.02 898.14 600.02Z" />
		<path id="Path 87" class="shp42" d="M876.22 611L876.91 608.02C876.91 608.02 889.35 607.77 896.13 608.75L896.85 612.32C896.85 612.32 888.16 616.26 876.22 611Z" />
		<path id="Path 88" class="shp18" d="M879.29 584.07C880.42 582.2 884.6 580.93 885.09 586.25C885.47 590.37 877.62 594.88 877.55 591.03C877.48 587.19 878.54 585.32 879.29 584.07Z" />
		<path id="Path 89" class="shp43" d="M816.34 575.51C816.34 575.51 811.85 575.62 809.67 577.59C809.67 577.59 809.53 578.84 810.03 579.82C810.03 579.82 813.92 578 816.91 577.66C816.91 577.66 816.86 576.03 816.34 575.51Z" />
		<path id="Path 90" class="shp41" d="M811.04 576.63C810.63 577.61 811.09 578.74 812.07 579.16C813.05 579.57 814.19 579.11 814.6 578.13C815.01 577.15 814.56 576.01 813.57 575.6C812.59 575.19 811.46 575.65 811.04 576.63Z" />
		<path id="Path 91" class="shp44" d="M700.81 417.13C700.81 417.13 707.22 428.01 709.93 429.78C713.61 432.19 711.3 434.63 709.56 434.63C707.81 434.64 698.9 435.27 696.93 433.04C694.96 430.81 693.99 424.13 692.16 422.38C690.34 420.64 688.45 413.69 693.05 412C697.13 410.51 700.81 417.13 700.81 417.13Z" />
		<path id="Path 92" class="shp45" d="M698.03 412.35C698.03 412.35 705.38 425.08 706.64 426.97C707.91 428.85 704.26 428.84 702 427.95C699.74 427.06 694.05 417.92 693.23 416.26C692.25 414.28 693.05 412 693.05 412L698.03 412.35Z" />
		<path id="Path 93" class="shp44" d="M690.59 419.2L692.28 432.26L693.18 432.3L692.9 422.9L690.59 419.2ZM637.19 417.13C637.19 417.13 643.61 428.01 646.32 429.78C650 432.19 647.69 434.63 645.95 434.63C644.2 434.64 635.28 435.27 633.32 433.04C631.35 430.81 630.38 424.13 628.55 422.38C626.73 420.64 624.77 413.51 629.44 412C633.53 410.68 637.19 417.13 637.19 417.13Z" />
		<path id="Path 94" class="shp45" d="M634.8 412.37C634.8 412.37 641.76 425.08 643.03 426.97C644.3 428.85 640.64 428.84 638.38 427.95C636.12 427.06 630.43 417.92 629.61 416.26C628.64 414.28 629.44 412 629.44 412L634.8 412.37Z" />
		<path id="Path 95" class="shp44" d="M626.97 419.2L628.67 432.26L629.57 432.3L629.29 422.9L626.97 419.2Z" />
		<path id="Path 96" class="shp45" d="M608.73 318.16L666.78 344.61C666.78 344.61 673.26 346.72 673.99 353.92C676.26 376.38 693.05 412 693.05 412C698.44 414.64 698.03 412.35 698.03 412.35C694.64 401.45 690.5 356.51 689.02 338.44C688.71 334.61 688.52 331.99 688.47 331.16C688.45 330.59 687.83 329.84 686.75 328.97C678.78 322.51 646.01 309.14 646.01 309.14C621.4 308.51 608.73 318.16 608.73 318.16ZM597.79 329.52C599.59 345.21 621.99 343.42 621.99 343.42L649.13 343.42C649.13 343.42 642 359.28 639.25 372.67C636.33 386.87 629.44 412 629.44 412C629.44 412 629.89 412.85 634.8 412.37C634.8 412.37 656.11 369.91 664.27 359.23C666.02 356.93 671.05 344.46 671.92 337.02C672.21 334.52 672.03 332.58 671.1 331.8C670.15 331.01 667.99 329.52 665.1 327.7C656.6 322.34 641.83 314.09 633.6 312.24C622.59 309.76 605.16 305.12 605.16 305.12C605.16 305.12 596 313.83 597.79 329.52Z" />
		<path id="Path 97" class="shp46" d="M616.27 208.66C616.27 208.66 612.2 200.95 614.18 192.73C616.16 184.52 623.79 176.33 634.95 180.09C646.11 183.85 655.13 192.52 648.44 202.55C641.75 212.57 654.5 217.1 651.25 221.87C648 226.64 649.23 231.62 650.61 232.73C651.98 233.84 656.42 237.8 655.93 242.48C655.44 247.16 634.27 228.83 634.27 228.83C634.27 228.83 622.75 205.67 616.27 208.66Z" />
		<path id="Path 98" class="shp47" d="M650.28 307.26C650.28 307.26 648.6 315.42 605.25 305.11C605.25 305.11 619.78 300.28 650.28 307.26Z" />
		<path id="Path 99" class="shp48" d="M604.76 307.4C604.08 308.69 603.41 309.97 602.74 311.25C618.59 311.71 634.44 312.18 650.28 312.64C647.78 304.24 648.59 292.87 649.03 284.25C649.57 273.71 655.39 266.38 654.77 255.72C657.9 256.23 658.44 256.32 661.59 256.8C656.78 243.12 655.14 236.34 640.22 231.07C635.36 229.36 632.17 229.02 626.91 229.45C609.64 230.88 604.43 231.08 595.94 246.74C609.23 248.85 607.04 253.62 611.07 266.84C613.03 273.28 615.08 280.47 614.03 287.27C612.99 293.96 604.76 301.3 604.76 307.4Z" />
		<path id="Path 100" class="shp18" d="M632.33 234.39C625.26 233.06 626.76 229.12 626.76 229.12C626.76 229.12 627.09 226.9 627.22 224.1C627.25 223.38 627.27 222.62 627.26 221.85C627.26 220.69 627.2 219.5 627.07 218.38C626.49 213.63 639.9 216.46 639.9 216.46C639.9 216.46 639.13 226.07 640.98 228.94C642.83 231.82 639.4 235.73 632.33 234.39ZM618.84 229.1C618.84 229.1 633.1 245.57 638.37 249.38C638.37 249.38 644.43 243.91 640.7 229.46C640.7 229.46 633.81 226.01 618.84 229.1ZM619.23 189.46C619.23 189.46 611.82 203.73 619.16 217.25C626.51 230.77 640.95 211.36 641.88 209.09C642.81 206.81 647.76 193.93 637.92 190.02C628.07 186.11 621.32 185.59 619.23 189.46Z" />
		<path id="Path 101" class="shp46" d="M621.69 194.52C621.69 194.52 616.59 201.22 615.99 206.17C615.99 206.17 613.96 196.81 619.7 187.83C625.43 178.84 640.03 187.4 641.98 190.99C643.94 194.58 649.66 197.75 640.04 213.18C640.04 213.18 622.74 201.16 621.69 194.52Z" />
		<path id="Path 102" class="shp49" d="M633.53 218.68C633.53 218.68 632.24 221.49 627.22 224.1C627.25 223.38 627.27 222.62 627.26 221.85C627.26 221.85 630.66 221.44 633.53 218.68Z" />
		<path id="Path 103" class="shp18" d="M558.67 294.56C558.67 294.56 555.15 296.13 553.47 295.42C551.81 294.71 549.22 294.57 548.41 294.57C547.32 294.56 543.91 293.35 543.97 294.68C544.03 296.01 549.5 296.94 550.62 297.36C551.75 297.77 547.27 300.24 546.86 301.33C546.44 302.42 551.49 309.6 554.34 307.56C557.19 305.51 558.73 301.43 559.31 301.17C559.89 300.91 561.45 299.76 561.45 299.76L558.67 294.56ZM547.4 300.69C547.4 300.69 539.14 307.54 539.01 308.46C538.88 309.39 539.32 309.82 540.12 309.21C540.92 308.61 548.31 302.83 548.31 302.83C548.31 302.83 540.03 312.6 539.75 313.33C539.59 313.75 540.38 314.64 540.85 314.35C541.31 314.07 550.11 304.87 550.11 304.87C550.11 304.87 542.4 314.01 542.36 314.69C542.32 315.29 543.25 315.93 543.87 315.3C544.49 314.66 552.16 306.6 552.16 306.6C552.16 306.6 547.01 313.61 547.33 314.23C547.52 314.61 548.17 315.4 549.44 313.55C550.71 311.69 554.2 307.65 554.2 307.65L547.4 300.69Z" />
		<path id="Path 104" class="shp15" d="M646.3 343.42L621.99 343.42C621.99 343.42 599.59 345.21 597.79 329.52C596 313.83 605.16 305.12 605.16 305.12C605.16 305.12 616.99 308.27 627.32 310.76C632.49 309.67 638.73 308.95 646.01 309.14C646.01 309.14 689.8 323.61 688.48 331.23C688.48 331.23 670.16 321.43 646.3 343.42Z" />
		<path id="Path 105" class="shp50" d="M630.47 316.25L676.83 315.56L653.43 327.45L630.47 316.25Z" />
		<path id="Path 106" class="shp48" d="M644.88 310.33C644.88 310.33 634.45 314.36 621.66 310.71L621.07 305.94L647.39 307.4L644.88 310.33Z" />
		<path id="Path 107" class="shp51" d="M653.43 327.45L630.47 318.56L630.47 316.25L655.24 325.18L653.43 327.45Z" />
		<path id="Path 108" class="shp52" d="M644.71 312.53C644.59 314.25 646.32 315.48 647.9 314.81L650.59 313.66C651.4 313.31 651.87 312.46 651.73 311.59C650.61 304.58 648.21 277.29 651.73 272.6C653.02 270.87 653.83 269.35 654.29 268.03C656.61 274.01 659.5 281.71 660.64 285.86L682.54 314.99L689.89 316.86C680.72 294.78 673.36 283.08 673.36 283.08C671.93 279.23 667.82 267.58 664.18 257.2C661.88 250.65 659.77 244.61 658.64 241.36C658.06 239.72 656.93 238.33 655.43 237.44C652.04 235.41 646.39 232.21 641.26 229.73L641.2 229.7L640.71 229.46L640.7 229.46L640.7 229.45C650.44 244.2 646.64 285.84 644.72 312.48L644.71 312.53ZM608.54 230.71C605.41 231.19 597.67 238.71 593.56 246.3C588.87 254.95 584.09 264.81 580.51 268.05C573.93 274.02 555.51 295.09 554.63 294.58C554.3 294.39 559.69 300.88 560.37 301.18C560.71 301.33 590.65 275.39 593.53 271.44C596.26 267.69 603.55 251.96 605.73 252.31L605.73 252.32L605.74 252.33C605.9 252.68 608.55 258.43 611.07 266.84L611.19 267.26C612.92 273.12 612.76 279.48 611.82 286.64C611.12 292.03 607.09 300.86 604.66 305.15C604.36 305.67 604.44 306.65 604.76 307.4C604.95 307.85 605.22 308.21 605.55 308.33L614.34 311.59L616.41 312.36C617.9 312.91 619.46 312.62 620.62 311.77C621.58 311.08 622.27 310.01 622.44 308.72C624.39 293.68 626.86 278.32 628.83 272.54C637.48 247.15 625.45 228.07 625.45 228.07C625.45 228.07 611.27 229.69 608.54 230.71Z" />
		<path id="Path 109" class="shp53" d="M653.43 327.45L667.21 289.8L711.66 290.53L698.52 325.22L653.43 327.45Z" />
		<path id="Path 110" class="shp54" d="M681.44 306.46C680.08 309.17 680.49 312.12 682.35 313.05C684.21 313.98 686.82 312.54 688.18 309.83C689.54 307.12 689.13 304.16 687.26 303.23C685.4 302.3 682.79 303.75 681.44 306.46Z" />
		<path id="Path 111" class="shp46" d="M634.58 203.67C634.58 203.67 637.42 208.1 634.8 211.93C632.16 215.75 635.46 219.51 636.03 223.55C636.6 227.59 625.05 238.35 637.9 243.76C650.74 249.17 654.83 240.22 651.55 235.3C648.28 230.38 645.95 226.38 645.67 219.37C645.4 212.35 643.09 201.41 634.58 203.67Z" />
		<path id="Path 112" class="shp14" d="M541.53 150.51L596.28 150.51L596.28 190.2L596.28 198.56L587.92 190.2L541.53 190.2L541.53 150.51Z" />
	</g>
</svg>