<svg xmlns="http://www.w3.org/2000/svg" viewBox="0 0 1042 1042" width="1042" height="1042">
	<defs>
		<clipPath clipPathUnits="userSpaceOnUse" id="cp1">
			<path d="M0 0L1042 0L1042 1042L0 1042Z" />
		</clipPath>
	</defs>
	<style>
		tspan { white-space:pre }
		.shp0 { fill: #e1f2f4 } 
		.shp1 { fill: #2ea0bd } 
		.shp2 { fill: #ffffff } 
		.shp3 { fill: #207a93 } 
		.shp4 { fill: #122931 } 
		.shp5 { fill: #4ecdda } 
		.shp6 { fill: #3abcea } 
		.shp7 { fill: #32a5dc } 
		.shp8 { fill: #99e3f4 } 
		.shp9 { fill: #f3fafb } 
		.shp10 { fill: #8bd6e1 } 
		.txt11 { font-size: 57px;fill: #33a4c2;font-family: "S LC XB A+ Fredoka One" } 
		.shp12 { fill: #81dbe5 } 
		.shp13 { fill: #33a4c2 } 
		.shp14 { fill: #1c7eb8 } 
		.shp15 { fill: #155d88 } 
		.shp16 { fill: #ff5e77 } 
	</style>
	<g id="Page 1" clip-path="url(#cp1)">
		<path id="Path 2" class="shp0" d="M371 652.24C377.98 654.99 386.03 651.96 389.4 645.1C392.96 637.88 389.99 629.15 382.77 625.59C379.24 623.82 302.06 584.3 312.25 505.5C323.2 420.77 392.95 399.66 395.92 398.8C403.63 396.57 408.12 388.52 405.92 380.79C403.72 373.07 395.72 368.57 387.99 370.74C384.27 371.78 296.8 397.44 283.32 501.76C277.96 543.28 291.34 582.48 322.04 615.12C344.68 639.2 368.86 651.25 369.87 651.75C370.25 651.93 370.62 652.09 371 652.24ZM411.73 301.61C399.91 306.75 390.38 315.17 383.89 325.28C377.39 335.4 373.86 347.24 373.86 359.41C373.85 367.82 375.56 376.4 379.11 384.56C384.25 396.37 392.67 405.9 402.78 412.39C412.9 418.89 424.74 422.42 436.91 422.42C445.32 422.43 453.9 420.72 462.05 417.17C469.44 413.95 472.82 405.36 469.6 397.97C466.39 390.59 457.79 387.21 450.41 390.43C445.97 392.36 441.42 393.25 436.91 393.26C430.4 393.26 423.99 391.35 418.55 387.85C413.1 384.34 408.65 379.32 405.85 372.91C403.92 368.47 403.03 363.92 403.02 359.41C403.02 352.9 404.93 346.49 408.43 341.05C411.94 335.61 416.96 331.15 423.37 328.35C430.76 325.14 434.14 316.55 430.92 309.16C427.7 301.78 419.11 298.4 411.73 301.61Z" />
		<path id="Path 3" class="shp1" d="M313.63 541.3L284.65 544.76C285.32 548.19 286.1 551.59 287.05 554.96L316.38 551.46C315.31 548.19 314.39 544.8 313.63 541.3ZM333.99 584.48L312.19 603.63C314.31 606.33 316.55 608.98 318.89 611.61L340.63 592.51C338.37 589.98 336.14 587.3 333.99 584.48ZM320.77 562.62L294.47 574.92C295.93 578.05 297.52 581.14 299.23 584.2L325.58 571.87C323.86 568.91 322.25 565.83 320.77 562.62ZM316.81 483.2L288.66 475.46C287.74 478.73 286.9 482.1 286.14 485.57L314.35 493.33C315.08 489.84 315.88 486.44 316.81 483.2ZM311.5 513.63L282.53 509.54C282.28 513.06 282.2 516.55 282.22 520.02L311.43 524.14C311.28 520.73 311.3 517.22 311.5 513.63ZM346.86 430.24L324.29 411.55C321.97 414.03 319.68 416.64 317.43 419.4L339.98 438.07C342.23 435.29 344.53 432.68 346.86 430.24ZM352.19 604.09L338.53 630.6C341.4 632.99 344.2 635.18 346.86 637.16L360.37 610.95C357.72 608.88 354.98 606.6 352.19 604.09ZM388.75 401.42L374.82 375.68C372.01 376.92 368.85 378.43 365.44 380.23L379.3 405.86C382.92 403.96 386.13 402.5 388.75 401.42ZM366.37 413.68L351.11 388.79C348.34 390.65 345.5 392.68 342.64 394.89L358 419.96C360.84 417.64 363.64 415.56 366.37 413.68ZM329.75 452.83L303.31 440.07C301.64 443.03 300.03 446.11 298.49 449.31L324.87 462.04C326.41 458.83 328.04 455.75 329.75 452.83Z" />
		<path id="Path 4" class="shp2" d="M490.54 742.27L418.31 739.02C415.36 799.71 453.12 833.14 453.13 833.15C454.82 838.04 468.66 842.39 485.68 843.16C502.41 843.91 516.41 840.92 518.88 836.33L519.2 836.36C519.2 836.36 559.8 806.73 562.75 746.04L490.54 742.27Z" />
		<path id="Path 5" class="shp0" d="M491.07 731.52L384.5 726.61C381.55 787.29 437.99 821.63 438 821.64C440.6 826.57 461.12 831.25 486.22 832.41C510.91 833.55 531.47 830.88 535.01 826.34L535.49 826.37C535.49 826.37 594.65 797.65 597.6 736.96L491.07 731.52Z" />
		<path id="Path 6" class="shp2" d="M498.41 580.32L324.9 572.53C317.81 718.31 408.52 798.63 408.53 798.64C412.59 810.38 445.85 820.85 486.72 822.69C526.93 824.49 560.55 817.31 566.49 806.29L567.26 806.35C567.26 806.35 664.79 735.18 671.87 589.39L498.41 580.32ZM671.93 588.1C671.07 607.36 592.68 619.48 496.85 615.18C401.02 610.87 324.03 591.78 324.9 572.53C325.76 553.27 404.15 541.16 499.98 545.45C595.81 549.76 672.8 568.85 671.93 588.1Z" />
		<path id="Path 7" class="shp1" d="M493.92 608.79C448.66 606.59 406.46 601.03 375.09 593.14C338.88 584.03 331.03 575.19 331.14 572.81C331.25 570.39 340.05 562.17 377.78 556.34C410.45 551.28 453.75 549.64 499.7 551.7L502.93 551.85C548.19 554.05 590.38 559.6 621.75 567.5C657.95 576.61 665.8 585.44 665.69 587.82C665.58 590.24 656.78 598.46 619.05 604.3C586.38 609.35 543.08 611 497.13 608.94L493.92 608.79Z" />
		<path id="Path 8" class="shp3" d="M496.42 597.24C476.28 596.26 457.51 593.79 443.56 590.27C427.45 586.22 423.96 582.29 424.01 581.24C424.06 580.16 427.97 576.5 444.76 573.91C459.29 571.66 478.55 570.93 498.99 571.84L500.42 571.91C520.55 572.89 539.32 575.36 553.27 578.87C569.38 582.92 572.87 586.85 572.82 587.91C572.77 588.99 568.86 592.65 552.07 595.24C537.54 597.49 518.28 598.22 497.84 597.3L496.42 597.24Z" />
		<path id="Path 9" class="shp4" d="M428.98 585.29C432.13 584.01 437.09 582.6 444.76 581.42C459.29 579.17 478.55 578.44 498.99 579.35L500.42 579.42C520.55 580.4 539.32 582.87 553.27 586.38C560.27 588.14 564.88 589.88 567.85 591.36C571.6 589.84 572.79 588.5 572.82 587.91C572.87 586.85 569.38 582.92 553.27 578.87C539.32 575.36 520.55 572.89 500.42 571.91L498.99 571.84C478.55 570.93 459.29 571.66 444.76 573.91C427.97 576.5 424.06 580.16 424.01 581.24C423.99 581.83 425.1 583.35 428.98 585.29Z" />
		<path id="Path 10" class="shp3" d="M334.8 577.39C340.39 573.83 352.69 568.99 377.35 565.18C410.02 560.13 453.32 558.48 499.27 560.54L502.5 560.69C547.76 562.89 589.95 568.45 621.32 576.34C644.91 582.27 656.45 588.09 661.6 592.08C664.57 590.2 665.65 588.66 665.69 587.82C665.8 585.44 657.95 576.61 621.75 567.5C590.38 559.6 548.19 554.05 502.93 551.85L499.7 551.7C453.75 549.64 410.45 551.28 377.78 556.34C340.05 562.17 331.25 570.39 331.14 572.81C331.1 573.64 332.04 575.25 334.8 577.39Z" />
		<path id="Path 11" class="shp1" d="M636.11 673.5C629.39 698.51 613.05 715.86 599.61 712.25C586.17 708.64 580.72 685.44 587.44 660.42C594.16 635.41 610.51 618.07 623.95 621.68C637.39 625.29 642.84 648.49 636.11 673.5Z" />
		<path id="Path 12" class="shp3" d="M623.95 621.68L623.88 621.66C632.76 629.71 635.62 649.25 630.02 670.08C623.31 695.05 607.01 712.37 593.59 708.84C595.36 710.45 597.37 711.65 599.61 712.25C613.05 715.86 629.39 698.51 636.11 673.5C642.84 648.49 637.39 625.29 623.95 621.68Z" />
		<path id="Path 13" class="shp0" d="M623.83 619C623.83 619 599.24 612.33 585.61 658.08C571.99 703.83 598.84 714.78 598.84 714.78L576.46 713.69C576.46 713.69 551.93 698.17 566.44 657.15C584.58 605.88 623.83 619 623.83 619ZM576.89 747.48C558.7 755.85 539.9 764.5 502.21 759.64C474.96 756.13 458.93 732.98 441.96 708.47C424.61 683.42 406.67 657.52 375.31 656.62C359.71 656.19 345.85 660.43 334.87 668.94C338.37 682.11 342.58 694.32 347.19 705.57C352.78 694.55 361.37 689.53 374.35 689.94C387.89 690.33 398.57 704.37 414.55 727.45C433.01 754.11 455.99 787.29 497.95 792.7C507.02 793.87 515.28 794.38 522.86 794.38C554.68 794.38 574.37 785.33 590.82 777.77C594.45 776.1 597.78 774.57 600.98 773.24C609.68 762.92 619.19 750.18 628.33 734.98C606.84 733.72 591.64 740.7 576.89 747.48Z" />
		<path id="Path 14" class="shp1" d="M576.89 747.48C558.7 755.85 539.9 764.5 502.21 759.64C474.96 756.13 458.93 732.98 441.96 708.47C424.61 683.42 406.67 657.52 375.31 656.62C359.71 656.19 345.85 660.43 334.87 668.94C335.23 670.3 335.6 671.64 335.98 672.98C346.78 665.02 360.23 661.06 375.31 661.48C406.67 662.38 424.61 688.28 441.96 713.34C458.93 737.84 474.96 760.99 502.21 764.5C539.9 769.36 558.7 760.71 576.89 752.34C590.96 745.87 605.45 739.25 625.4 739.74C626.38 738.18 627.36 736.6 628.33 734.98C606.84 733.72 591.64 740.7 576.89 747.48Z" />
		<path id="Path 15" class="shp2" d="M621.94 423.76C587.95 391.42 543.77 373.92 497.62 374.67C454.31 375.39 412.56 392.61 380.06 423.14C348.93 452.4 329.56 491.41 326.93 530.17L326.39 538.14L333.95 540.73C385.2 558.27 452.43 567.93 523.25 567.93L523.27 567.93C527.63 567.93 532.01 567.89 536.41 567.82C581.73 567.07 625.08 562.57 665.27 554.44L673.22 552.84L673.6 544.73C673.75 541.64 673.8 538.8 673.75 536.02C673.08 495.36 654.2 454.44 621.94 423.76Z" />
		<path id="Path 16" class="shp1" d="M445.69 429C396.23 429 356.13 476.22 356.13 534.48C356.13 535.24 356.16 535.98 356.18 536.74C404.56 550.48 466.1 558.27 533.1 557.43C534.49 550.04 535.25 542.36 535.25 534.48C535.25 476.22 495.15 429 445.69 429Z" />
		<path id="Path 17" class="shp3" d="M445.69 429C444.36 429 443.04 429.05 441.73 429.11C489.35 431.56 527.32 477.79 527.32 534.48C527.32 542.36 526.56 550.04 525.17 557.43C522.88 557.46 520.6 557.45 518.32 557.46C523.22 557.49 528.14 557.49 533.1 557.43C534.49 550.04 535.25 542.36 535.25 534.48C535.25 476.22 495.15 429 445.69 429Z" />
		<path id="Path 18" class="shp4" d="M418.07 472.06C419.11 474.15 419.7 476.56 419.7 479.11C419.7 487.26 413.7 493.87 406.3 493.87C401.65 493.87 397.56 491.25 395.16 487.28C393.73 490.66 392.91 494.41 392.91 498.38C392.91 512.95 403.63 524.77 416.86 524.77C430.08 524.77 440.8 512.95 440.8 498.38C440.8 484.25 430.73 472.76 418.07 472.06ZM414.78 479.11C414.78 484.27 410.99 488.45 406.3 488.45C401.62 488.45 397.83 484.27 397.83 479.11C397.83 473.95 401.62 469.77 406.3 469.77C410.99 469.77 414.78 473.95 414.78 479.11Z" />
		<path id="Path 19" class="shp5" d="M360.16 531.44C360.16 531.44 361.51 495.4 380.47 469.77C395.16 449.92 415.05 436.79 428.12 436.79C431.93 436.79 435.15 437.91 437.5 440.3C443.94 446.84 430.86 450.97 414.78 461.13C398.7 471.29 369.45 491.34 360.16 531.44Z" />
		<path id="Path 20" class="shp1" d="M582.99 506.72C584.41 484.82 594.07 466.16 610.17 454.19C618.55 447.96 628.28 443.91 638.76 442.18C638.27 441.56 637.75 440.97 637.25 440.35C626.9 442.24 617.26 446.32 608.93 452.51C592.33 464.86 582.37 484.06 580.91 506.59C579.63 526.38 585.04 546.65 596.24 564.5C597.02 564.43 597.8 564.36 598.58 564.28C587.24 546.59 581.71 526.41 582.99 506.72Z" />
		<path id="Path 21" class="shp0" d="M673.45 529.16C673.4 528.48 673.34 527.8 673.29 527.12C673.15 525.43 672.98 523.74 672.78 522.05C672.7 521.37 672.63 520.69 672.54 520.02C672.24 517.75 671.9 515.48 671.49 513.22L671.48 513.14C671.06 510.89 670.59 508.64 670.07 506.4C669.91 505.73 669.74 505.05 669.58 504.37C669.17 502.72 668.73 501.06 668.27 499.42C668.08 498.74 667.89 498.06 667.69 497.39C667.04 495.18 666.35 492.98 665.59 490.8L665.52 490.6C664.77 488.43 663.95 486.29 663.1 484.14C662.83 483.47 662.55 482.81 662.28 482.14C661.62 480.55 660.94 478.97 660.23 477.4C659.93 476.74 659.64 476.07 659.33 475.41C658.34 473.3 657.32 471.2 656.24 469.12L656.1 468.87C655.03 466.81 653.9 464.79 652.73 462.77C652.36 462.13 651.98 461.5 651.61 460.86C650.71 459.36 649.79 457.86 648.84 456.38C648.45 455.76 648.05 455.14 647.65 454.52C646.33 452.52 644.99 450.53 643.58 448.58L643.56 448.54C632.7 450.64 602.18 459.51 597.05 493.24C592.76 521.48 605.95 549.23 615.66 562.41C632.64 560.33 649.21 557.69 665.27 554.44L673.22 552.84L673.6 544.73C673.75 541.64 673.8 538.8 673.75 536.02C673.71 533.73 673.6 531.45 673.45 529.16Z" />
		<path id="Path 22" class="shp5" d="M448.98 447.85C444.97 447.85 441.73 444.61 441.73 440.6C441.73 436.6 444.97 433.35 448.98 433.35C452.98 433.35 456.23 436.6 456.23 440.6C456.23 444.61 452.98 447.85 448.98 447.85Z" />
		<path id="Path 23" class="shp0" d="M616.27 685.01C608.76 685.01 602.39 679.25 601.76 671.63C601.09 663.61 607.05 656.56 615.07 655.89C619 655.54 705.29 647 724.64 569.94C745.45 487.08 688.26 441.91 685.81 440.03C679.46 435.13 678.22 425.99 683.1 419.6C687.97 413.22 697.06 411.96 703.47 416.8C706.54 419.13 778.56 475.03 752.93 577.04C742.73 617.65 715.93 649.23 675.42 668.37C645.53 682.5 618.63 684.86 617.5 684.96C617.09 684.99 616.68 685.01 616.27 685.01ZM686.05 364.41C689.38 367.75 691.83 371.54 693.49 375.61C695.13 379.67 695.96 384.01 695.96 388.35C695.96 392.7 695.13 397.04 693.49 401.1C691.83 405.17 689.38 408.96 686.05 412.29C682.71 415.62 678.92 418.08 674.86 419.73C670.79 421.38 666.46 422.21 662.11 422.21C657.77 422.21 653.43 421.38 649.36 419.73C645.3 418.08 641.51 415.62 638.17 412.29C632.48 406.6 623.24 406.6 617.55 412.29C611.85 417.99 611.85 427.22 617.55 432.92C623.67 439.04 630.81 443.68 638.4 446.76C646 449.84 654.06 451.38 662.11 451.38C670.16 451.38 678.22 449.84 685.82 446.76C693.41 443.68 700.55 439.04 706.67 432.92C712.8 426.79 717.44 419.66 720.51 412.06C723.59 404.46 725.13 396.41 725.13 388.35C725.13 380.3 723.59 372.25 720.51 364.65C717.44 357.05 712.8 349.91 706.67 343.79C700.97 338.1 691.74 338.1 686.05 343.79C680.35 349.49 680.35 358.72 686.05 364.41Z" />
		<path id="Path 24" class="shp1" d="M703.97 611.2L730 625.19C732.11 622.41 734.08 619.52 735.96 616.57L710.25 602.75C708.27 605.73 706.17 608.55 703.97 611.2ZM666.39 640.54L679.64 666.26C682.77 664.67 685.83 663.02 688.79 661.28L675.5 635.48C672.47 637.32 669.42 639.01 666.39 640.54ZM687.95 626.83L707.96 647.94C710.67 645.72 713.29 643.43 715.78 641.05L695.81 619.98C693.26 622.43 690.63 624.7 687.95 626.83ZM727.14 557.84L756.23 560.95C756.8 557.44 757.25 554 757.59 550.61L728.56 547.51C728.24 550.87 727.74 554.33 727.14 557.84ZM718.58 587.59L747.27 594.44C748.56 591.21 749.77 587.94 750.81 584.58L722.36 577.78C721.23 581.2 719.97 584.46 718.58 587.59ZM723.5 497.04L751.32 487.92C750.24 484.53 749.06 481.26 747.81 478.1L719.97 487.24C721.24 490.35 722.43 493.62 723.5 497.04ZM641.27 650.47L644.25 679.8C647.46 678.94 650.86 677.92 654.41 676.75L651.4 647.08C647.88 648.39 644.49 649.51 641.27 650.47ZM698.7 452.67L720.98 433.89C718.46 430.97 716.07 428.41 713.91 426.22L691.54 445.08C693.57 447.05 696.03 449.58 698.7 452.67ZM713.36 473.59L736.83 455.88C734.97 452.77 733.08 449.85 731.18 447.1L707.87 464.68C709.73 467.43 711.57 470.4 713.36 473.59ZM728.8 524.88L758 522.68C757.75 519.14 757.38 515.69 756.9 512.32L727.63 514.52C728.15 517.86 728.54 521.32 728.8 524.88Z" />
		<path id="Path 25" fill-rule="evenodd" class="shp6" d="M510.77 903.84C432.22 903.84 368.54 895.44 368.54 885.09C368.54 874.73 432.22 866.34 510.77 866.34C589.31 866.34 652.99 874.73 652.99 885.09C652.99 895.44 589.31 903.84 510.77 903.84ZM481.6 873.98C435.05 873.98 397.31 878.95 397.31 885.09C397.31 891.23 435.05 896.2 481.6 896.2C528.15 896.2 565.89 891.23 565.89 885.09C565.89 878.95 528.15 873.98 481.6 873.98Z" />
		<path id="Path 26" class="shp7" d="M481.6 896.2C435.05 896.2 397.31 891.23 397.31 885.09C397.31 878.95 435.05 873.98 481.6 873.98C528.15 873.98 565.89 878.95 565.89 885.09C565.89 891.23 528.15 896.2 481.6 896.2Z" />
		<path id="Path 27" class="shp8" d="M424.01 170.44L179.69 170.44L179.69 158.98L424.01 158.98L424.01 170.44ZM424.01 186.59L179.69 186.59L179.69 175.13L424.01 175.13L424.01 186.59ZM424.01 202.73L179.69 202.73L179.69 191.27L424.01 191.27L424.01 202.73ZM424.01 218.88L179.69 218.88L179.69 207.42L424.01 207.42L424.01 218.88ZM424.01 235.02L179.69 235.02L179.69 223.56L424.01 223.56L424.01 235.02ZM424.01 251.17L179.69 251.17L179.69 239.71L424.01 239.71L424.01 251.17ZM424.01 267.31L179.69 267.31L179.69 255.86L424.01 255.86L424.01 267.31ZM424.01 283.46L179.69 283.46L179.69 272L424.01 272L424.01 283.46ZM424.01 299.61L179.69 299.61L179.69 288.15L424.01 288.15L424.01 299.61ZM391.4 315.75L179.69 315.75L179.69 304.29L406.29 304.29C400.68 307.4 395.68 311.29 391.4 315.75Z" />
		<path id="Path 28" class="shp9" d="M424.01 315.75L391.4 315.75C395.68 311.29 400.68 307.4 406.29 304.29L424.01 304.29L424.01 315.75Z" />
		<path id="Path 29" class="shp8" d="M424.01 331.9L417.12 331.9C419.03 330.53 421.11 329.34 423.37 328.35C423.59 328.26 423.8 328.16 424.01 328.06L424.01 331.9ZM380.18 331.9L179.69 331.9L179.69 320.44L387.33 320.44C386.11 322 384.96 323.62 383.89 325.28C382.52 327.42 381.28 329.63 380.18 331.9Z" />
		<path id="Path 30" class="shp9" d="M417.12 331.9L380.18 331.9C381.28 329.63 382.52 327.42 383.89 325.28C384.96 323.62 386.11 322 387.33 320.44L424.01 320.44L424.01 328.06C423.8 328.16 423.59 328.26 423.37 328.35C421.11 329.34 419.03 330.53 417.12 331.9Z" />
		<path id="Path 31" class="shp8" d="M424.01 348.04L404.99 348.04C405.87 345.59 407.02 343.24 408.43 341.05C409.44 339.47 410.59 337.98 411.85 336.59L424.01 336.59L424.01 348.04ZM374.89 348.04L179.69 348.04L179.69 336.59L378.14 336.59C376.7 340.29 375.61 344.12 374.89 348.04Z" />
		<path id="Path 32" class="shp9" d="M404.99 348.04L374.89 348.04C375.61 344.12 376.7 340.29 378.14 336.59L411.85 336.59C410.59 337.98 409.44 339.47 408.43 341.05C407.02 343.24 405.87 345.59 404.99 348.04Z" />
		<path id="Path 33" class="shp8" d="M424.01 364.19L403.37 364.19C403.14 362.6 403.02 361 403.02 359.41C403.02 357.16 403.25 354.92 403.69 352.73L424.01 352.73L424.01 364.19ZM374.04 364.19L179.69 364.19L179.69 352.73L374.21 352.73C373.98 354.94 373.86 357.17 373.86 359.41C373.86 361 373.92 362.59 374.04 364.19Z" />
		<path id="Path 34" class="shp9" d="M403.37 364.19L374.04 364.19C373.92 362.59 373.86 361 373.86 359.41C373.86 357.17 373.98 354.94 374.21 352.73L403.69 352.73C403.25 354.92 403.02 357.16 403.02 359.41C403.02 361 403.14 362.6 403.37 364.19Z" />
		<path id="Path 35" class="shp8" d="M880.59 283.5L636.27 283.5L636.27 272.05L880.59 272.05L880.59 283.5ZM880.59 299.65L636.27 299.65L636.27 288.19L880.59 288.19L880.59 299.65ZM880.59 315.8L636.27 315.8L636.27 304.34L880.59 304.34L880.59 315.8ZM880.59 331.94L636.27 331.94L636.27 320.48L880.59 320.48L880.59 331.94ZM880.59 348.09L710.59 348.09C709.36 346.61 708.05 345.17 706.67 343.79C703.82 340.94 700.09 339.52 696.36 339.52C692.62 339.52 688.89 340.94 686.05 343.79C684.77 345.07 683.77 346.53 683.07 348.09L636.27 348.09L636.27 336.63L880.59 336.63L880.59 348.09Z" />
		<path id="Path 36" class="shp9" d="M710.59 348.09L683.07 348.09C683.77 346.53 684.77 345.07 686.05 343.79C688.89 340.94 692.62 339.52 696.36 339.52C700.09 339.52 703.82 340.94 706.67 343.79C708.05 345.17 709.36 346.61 710.59 348.09Z" />
		<path id="Path 37" class="shp8" d="M880.59 364.23L720.34 364.23C718.7 360.26 716.63 356.41 714.14 352.77L880.59 352.77L880.59 364.23ZM685.87 364.23L636.27 364.23L636.27 352.77L681.84 352.77C681.46 356.86 682.81 361.07 685.87 364.23Z" />
		<path id="Path 38" class="shp9" d="M720.34 364.23L685.87 364.23C682.81 361.07 681.46 356.86 681.84 352.77L714.14 352.77C716.63 356.41 718.7 360.26 720.34 364.23Z" />
		<path id="Path 39" class="shp8" d="M880.59 380.38L724.63 380.38C724.13 376.51 723.28 372.67 722.07 368.92L880.59 368.92L880.59 380.38ZM695.02 380.38L636.27 380.38L636.27 368.92L689.84 368.92C691.33 371.04 692.54 373.28 693.49 375.61C694.11 377.16 694.63 378.76 695.02 380.38Z" />
		<path id="Path 40" class="shp9" d="M724.63 380.38L695.02 380.38C694.63 378.76 694.11 377.16 693.49 375.61C692.54 373.28 691.33 371.04 689.84 368.92L722.07 368.92C723.28 372.67 724.13 376.51 724.63 380.38Z" />
		<path id="Path 41" class="shp8" d="M880.59 396.52L724.6 396.52C724.95 393.81 725.13 391.08 725.13 388.35C725.13 387.26 725.1 386.16 725.04 385.07L880.59 385.07L880.59 396.52ZM694.97 396.52L636.27 396.52L636.27 385.07L695.8 385.07C695.91 386.16 695.96 387.26 695.96 388.35C695.96 391.1 695.63 393.85 694.97 396.52Z" />
		<path id="Path 42" class="shp9" d="M724.6 396.52L694.97 396.52C695.63 393.85 695.96 391.1 695.96 388.35C695.96 387.26 695.91 386.16 695.8 385.07L725.04 385.07C725.1 386.16 725.13 387.26 725.13 388.35C725.13 391.08 724.95 393.81 724.6 396.52Z" />
		<path id="Path 43" class="shp8" d="M880.59 412.67L720.26 412.67C720.35 412.47 720.43 412.26 720.51 412.06C721.95 408.53 723.04 404.9 723.81 401.21L880.59 401.21L880.59 412.67ZM685.66 412.67L638.56 412.67C638.43 412.55 638.3 412.42 638.17 412.29C637.58 411.7 636.94 411.16 636.27 410.69L636.27 401.21L693.44 401.21C691.79 405.24 689.35 408.99 686.05 412.29C685.92 412.42 685.79 412.55 685.66 412.67Z" />
		<path id="Path 44" class="shp9" d="M720.26 412.67L685.66 412.67C685.79 412.55 685.92 412.42 686.05 412.29C689.35 408.99 691.79 405.24 693.44 401.21L723.81 401.21C723.04 404.9 721.95 408.53 720.51 412.06C720.43 412.26 720.35 412.47 720.26 412.67ZM638.56 412.67L636.27 412.67L636.27 410.69C636.94 411.16 637.58 411.7 638.17 412.29C638.3 412.42 638.43 412.55 638.56 412.67Z" />
		<path id="Path 45" class="shp8" d="M880.59 428.82L716.41 428.82C715.26 427.59 714.15 426.45 713.1 425.4C714.97 422.83 716.63 420.13 718.07 417.36L880.59 417.36L880.59 428.82ZM662.11 422.21C662.11 422.21 662.11 422.21 662.11 422.21C657.77 422.21 653.43 421.38 649.36 419.73C647.74 419.07 646.15 418.28 644.63 417.36L679.59 417.36C678.06 418.28 676.48 419.07 674.86 419.73C670.79 421.38 666.46 422.21 662.11 422.21Z" />
		<path id="Path 46" class="shp9" d="M716.41 428.82L716.41 428.82C715.55 427.9 714.71 427.04 713.91 426.22L710.84 428.82L710.43 428.82C711.36 427.7 712.25 426.56 713.1 425.4C714.15 426.45 715.26 427.59 716.41 428.82ZM710.43 428.82L636.27 428.82L636.27 417.36L644.63 417.36C646.15 418.28 647.74 419.07 649.36 419.73C653.43 421.38 657.77 422.21 662.11 422.21C662.11 422.21 662.11 422.21 662.11 422.21C666.46 422.21 670.79 421.38 674.86 419.73C676.48 419.07 678.06 418.28 679.59 417.36L718.07 417.36C716.63 420.13 714.97 422.83 713.1 425.4C712.25 426.56 711.36 427.7 710.43 428.82Z" />
		<path id="Path 47" class="shp10" d="M716.41 428.82L710.84 428.82L713.91 426.22C714.71 427.04 715.55 427.9 716.41 428.82Z" />
		<path id="Path 48" class="shp8" d="M880.59 444.96L729.68 444.96C726.6 440.66 723.53 436.84 720.65 433.5L880.59 433.5L880.59 444.96ZM691.42 444.96L689.84 444.96C690.18 444.79 690.53 444.62 690.87 444.44C691.05 444.61 691.23 444.78 691.42 444.96Z" />
		<path id="Path 49" class="shp9" d="M729.68 444.96L707.84 444.96L720.98 433.89C720.87 433.76 720.76 433.63 720.64 433.5L720.65 433.5C723.53 436.84 726.6 440.66 729.68 444.96ZM691.68 444.96L691.42 444.96C691.23 444.78 691.05 444.61 690.87 444.44C692.33 443.69 693.77 442.89 695.17 442.02L691.68 444.96ZM689.84 444.96L636.27 444.96L636.27 433.5L705.28 433.5L695.17 442.02C693.77 442.89 692.33 443.69 690.87 444.44C690.53 444.62 690.18 444.79 689.84 444.96Z" />
		<path id="Path 50" class="shp10" d="M707.84 444.96L691.68 444.96L695.17 442.02L705.28 433.5L720.64 433.5C720.76 433.63 720.87 433.76 720.98 433.89L707.84 444.96Z" />
		<path id="Path 51" class="shp8" d="M880.59 461.11L739.83 461.11C737.59 457.01 735.26 453.19 732.91 449.65L880.59 449.65L880.59 461.11ZM705.39 461.11L651.78 461.11C649.47 457.21 647 453.39 644.35 449.65L647.44 449.65C652.26 450.8 657.19 451.38 662.11 451.38C667.04 451.38 671.96 450.8 676.78 449.65L696 449.65C696.87 450.59 697.77 451.6 698.7 452.67L698.7 452.66C700.83 455.13 703.1 457.94 705.39 461.11Z" />
		<path id="Path 52" fill-rule="evenodd" class="shp2" d="M644.35 449.65L644.35 449.65C645.48 451.26 646.57 452.88 647.65 454.52C648.05 455.14 648.45 455.76 648.84 456.38C649.79 457.86 650.71 459.36 651.61 460.86C651.65 460.95 651.7 461.03 651.75 461.11L651.78 461.11C649.47 457.21 647 453.39 644.35 449.65ZM638.77 449.65L636.27 449.65L636.27 450.37C637.14 450.1 637.97 449.86 638.77 449.65Z" />
		<path id="Path 53" class="shp9" d="M651.75 461.11L636.27 461.11L636.27 450.37C637.14 450.1 637.97 449.86 638.77 449.65L644.35 449.65C645.48 451.26 646.57 452.88 647.65 454.52C648.05 455.14 648.45 455.76 648.84 456.38C649.79 457.86 650.71 459.36 651.61 460.86C651.65 460.95 651.7 461.03 651.75 461.11ZM739.83 461.11L729.91 461.11L736.83 455.88C735.54 453.72 734.22 451.64 732.9 449.65L732.91 449.65C735.26 453.19 737.59 457.01 739.83 461.11ZM712.61 461.11L705.39 461.11C703.1 457.94 700.83 455.13 698.7 452.66L702.28 449.65L727.8 449.65L712.61 461.11ZM662.11 451.38C657.19 451.38 652.26 450.8 647.44 449.65L676.78 449.65C671.96 450.8 667.04 451.38 662.11 451.38Z" />
		<path id="Path 54" class="shp10" d="M729.91 461.11L712.61 461.11L727.8 449.65L732.9 449.65C734.22 451.64 735.54 453.72 736.83 455.88L729.91 461.11ZM698.7 452.67C697.77 451.6 696.87 450.59 696 449.65L702.28 449.65L698.7 452.66L698.7 452.67Z" />
		<path id="Path 55" class="shp8" d="M880.59 477.25L747.48 477.25C745.86 473.24 744.12 469.42 742.29 465.8L880.59 465.8L880.59 477.25ZM715.36 477.25L660.2 477.25C658.44 473.38 656.53 469.56 654.46 465.8L708.62 465.8C710.22 468.23 711.81 470.82 713.36 473.59L713.38 473.58C714.04 474.77 714.71 476 715.36 477.25Z" />
		<path id="Path 56" class="shp2" d="M660.2 477.25L660.16 477.25C659.89 476.64 659.61 476.03 659.33 475.41C658.34 473.3 657.32 471.2 656.24 469.12L656.1 468.87C655.56 467.84 655.01 466.81 654.45 465.8L654.46 465.8C656.53 469.56 658.44 473.38 660.2 477.25Z" />
		<path id="Path 57" class="shp9" d="M660.16 477.25L636.27 477.25L636.27 465.8L654.45 465.8C655.01 466.81 655.56 467.84 656.1 468.87L656.24 469.12C657.32 471.2 658.34 473.3 659.33 475.41C659.61 476.03 659.89 476.64 660.16 477.25ZM747.48 477.25L715.36 477.25C714.71 476 714.04 474.77 713.38 473.58L723.69 465.8L742.29 465.8C744.12 469.42 745.86 473.24 747.48 477.25Z" />
		<path id="Path 58" class="shp10" d="M713.36 473.59C711.81 470.82 710.22 468.23 708.62 465.8L723.69 465.8L713.38 473.58L713.36 473.59Z" />
		<text id="ERROR " style="transform: matrix(1,0,0,1,293.052,342.358)" >
			<tspan x="0" y="0" class="txt11">ERROR</tspan>
		</text>
		<text id="ERROR " style="transform: matrix(1,0,0,1,731.567,342.315)" >
			<tspan x="0" y="0" class="txt11">ERROR</tspan>
		</text>
		<path id="Path 61" fill-rule="evenodd" class="shp12" d="M588.83 101.35L576.13 101.35L544.85 104.28L559.76 119.19C560.37 118.98 561.02 118.86 561.71 118.86C564.97 118.86 567.61 121.51 567.61 124.77C567.61 128.02 564.97 130.67 561.71 130.67C558.45 130.67 555.8 128.02 555.8 124.77C555.8 123.85 556.01 122.98 556.39 122.2L539.5 105.31L512.25 121.4L516.31 125.46L522.91 125.46C523.53 122.86 525.87 120.94 528.65 120.94C531.91 120.94 534.55 123.58 534.55 126.84C534.55 130.1 531.91 132.74 528.65 132.74C526.54 132.74 524.7 131.64 523.65 129.98L520.83 129.98L543.91 153.06C544.6 152.77 545.37 152.61 546.17 152.61C549.43 152.61 552.07 155.25 552.07 158.51C552.07 161.77 549.43 164.41 546.17 164.41C542.91 164.41 540.27 161.77 540.27 158.51C540.27 157.71 540.42 156.95 540.71 156.25L514.44 129.98L510.85 129.98L510.85 141.06C512.99 141.94 514.5 144.05 514.5 146.51C514.5 149.77 511.85 152.41 508.59 152.41C505.33 152.41 502.69 149.77 502.69 146.51C502.69 144.05 504.19 141.94 506.33 141.06L506.33 129.98L498.61 129.98L482.6 145.98L482.6 170.85L488.14 165.32C487.52 164.38 487.15 163.26 487.15 162.05C487.15 158.79 489.8 156.15 493.05 156.15C496.31 156.15 498.96 158.79 498.96 162.05C498.96 165.31 496.31 167.95 493.05 167.95C492.69 167.95 492.34 167.92 491.99 167.85L483.84 176L497.79 185.8L516.05 167.54C515.48 166.63 515.15 165.56 515.15 164.41C515.15 161.15 517.8 158.51 521.06 158.51C524.31 158.51 526.96 161.15 526.96 164.41C526.96 167.67 524.31 170.31 521.06 170.31C520.62 170.31 520.21 170.27 519.8 170.18L503.5 186.48L518.92 186.48C519.81 184.34 521.91 182.84 524.37 182.84C527.63 182.84 530.28 185.48 530.28 188.74C530.28 192 527.63 194.64 524.37 194.64C521.91 194.64 519.81 193.14 518.92 191L507.65 191L517.99 204.78L538.21 184.56C537.58 183.62 537.21 182.5 537.21 181.29C537.21 178.03 539.86 175.38 543.11 175.38C546.38 175.38 549.02 178.03 549.02 181.29C549.02 184.55 546.38 187.19 543.11 187.19C542.76 187.19 542.4 187.15 542.06 187.09L523.84 205.31L538.43 205.31L545.11 215.33L564.8 195.63C564.23 194.73 563.9 193.66 563.9 192.51C563.9 189.25 566.54 186.6 569.8 186.6C573.06 186.6 575.71 189.25 575.71 192.51C575.71 195.77 573.06 198.41 569.8 198.41C569.37 198.41 568.95 198.36 568.55 198.28L550.21 216.61L588.83 216.61L588.83 188.29C586.69 187.4 585.19 185.3 585.19 182.84C585.19 179.58 587.83 176.94 591.09 176.94C594.35 176.94 596.99 179.58 596.99 182.84C596.99 185.3 595.49 187.4 593.35 188.29L593.35 216.61L612.56 216.61L612.56 173.32C610.52 172.39 609.11 170.34 609.11 167.95C609.11 164.69 611.75 162.05 615.01 162.05C618.27 162.05 620.91 164.69 620.91 167.95C620.91 170.48 619.32 172.64 617.08 173.48L617.08 216.61L652.05 216.61L640.86 205.43C640.31 205.6 639.72 205.69 639.11 205.69C635.85 205.69 633.21 203.05 633.21 199.79C633.21 196.53 635.85 193.89 639.11 193.89C642.37 193.89 645.01 196.53 645.01 199.79C645.01 200.77 644.77 201.7 644.34 202.51L657.57 215.74L667.87 206.25L665.35 192.29L632.76 188.71C631.68 190.03 630.03 190.87 628.19 190.87C624.93 190.87 622.29 188.23 622.29 184.97C622.29 181.71 624.93 179.07 628.19 179.07C631.23 179.07 633.72 181.36 634.06 184.31L669.01 188.14L676.95 175.93L660.15 175.93C659.31 178.16 657.15 179.75 654.62 179.75C651.36 179.75 648.72 177.11 648.72 173.85C648.72 170.59 651.36 167.95 654.62 167.95C657.01 167.95 659.07 169.37 660 171.41L678.85 171.41L678.85 151.07L650.46 151.07C649.58 153.21 647.47 154.71 645.01 154.71C641.75 154.71 639.11 152.07 639.11 148.81C639.11 145.55 641.75 142.91 645.01 142.91C647.47 142.91 649.58 144.41 650.46 146.55L675.97 146.55L653.97 122.61L631.59 105.48L614.1 122.97C614.67 123.88 615.01 124.96 615.01 126.12C615.01 129.38 612.37 132.02 609.11 132.02C605.85 132.02 603.2 129.38 603.2 126.12C603.2 122.86 605.85 120.21 609.11 120.21C609.53 120.21 609.94 120.26 610.33 120.34L625.94 104.74L604.45 104.74L593.35 115.84L593.35 145.24C595.49 146.13 596.99 148.24 596.99 150.69C596.99 153.95 594.35 156.6 591.09 156.6C587.83 156.6 585.19 153.95 585.19 150.69C585.19 148.24 586.69 146.13 588.83 145.24L588.83 101.35ZM543.55 221.13L536.01 209.84L516.13 209.84L502 191L497.33 191L478.08 177.48L478.08 144.11L496.73 125.46L506.33 125.46L506.33 119.64L539.14 100.28L576.02 96.83L593.35 96.83L593.35 109.45L602.58 100.22L632.16 100.22L657.16 119.41L683.37 147.93L683.37 174.34L671.29 192.94L670.04 192.8L672.76 207.89L658.39 221.13L543.55 221.13Z" />
		<path id="Path 62" class="shp2" d="M195.59 158.96L199.61 148.58L194.51 143.48L189.42 138.39L179.03 142.4L174.53 132.22L167.32 132.22L160.12 132.22L155.61 142.4L145.23 138.39L140.13 143.48L135.04 148.58L139.06 158.97L128.87 163.47L128.87 170.67L128.87 177.88L139.06 182.38L135.04 192.77L140.13 197.87L145.23 202.96L155.62 198.94L160.12 209.13L167.32 209.13L174.53 209.13L179.03 198.94L189.42 202.96L194.51 197.87L199.61 192.77L195.59 182.38L205.78 177.88L205.78 170.67L205.78 163.47L195.59 158.96Z" />
		<path id="Path 63" class="shp13" d="M187.03 170.67C187.03 159.79 178.21 150.97 167.32 150.97C156.44 150.97 147.62 159.79 147.62 170.67C147.62 181.55 156.44 190.38 167.32 190.38C178.21 190.38 187.03 181.55 187.03 170.67Z" />
		<path id="Path 64" class="shp2" d="M180.05 170.67C180.05 163.65 174.35 157.95 167.32 157.95C160.3 157.95 154.6 163.65 154.6 170.67C154.6 177.7 160.3 183.4 167.32 183.4C174.35 183.4 180.05 177.7 180.05 170.67Z" />
		<path id="Path 65" class="shp13" d="M174.5 170.67C174.5 166.71 171.29 163.5 167.32 163.5C163.36 163.5 160.15 166.71 160.15 170.67C160.15 174.63 163.36 177.85 167.32 177.85C171.29 177.85 174.5 174.63 174.5 170.67Z" />
		<path id="Path 66" class="shp2" d="M243.91 195.09L246.67 187.97L243.17 184.48L239.68 180.99L232.56 183.74L229.47 176.76L224.53 176.76L219.59 176.76L216.5 183.74L209.38 180.99L205.88 184.48L202.39 187.97L205.15 195.1L198.16 198.19L198.16 203.12L198.16 208.07L205.15 211.15L202.39 218.28L205.88 221.77L209.38 225.26L216.5 222.51L219.59 229.49L224.53 229.49L229.47 229.49L232.56 222.51L239.68 225.26L243.17 221.77L246.67 218.27L243.91 211.15L250.9 208.06L250.9 203.12L250.9 198.18L243.91 195.09Z" />
		<path id="Path 67" class="shp13" d="M238.04 203.12C238.04 195.66 231.99 189.61 224.53 189.61C217.07 189.61 211.02 195.66 211.02 203.12C211.02 210.59 217.07 216.64 224.53 216.64C231.99 216.64 238.04 210.59 238.04 203.12Z" />
		<path id="Path 68" class="shp2" d="M233.26 203.12C233.26 198.3 229.35 194.4 224.53 194.4C219.71 194.4 215.8 198.3 215.8 203.12C215.8 207.94 219.71 211.85 224.53 211.85C229.35 211.85 233.26 207.94 233.26 203.12Z" />
		<path id="Path 69" class="shp13" d="M229.45 203.12C229.45 200.41 227.25 198.21 224.53 198.21C221.81 198.21 219.61 200.41 219.61 203.12C219.61 205.84 221.81 208.04 224.53 208.04C227.25 208.04 229.45 205.84 229.45 203.12Z" />
		<path id="Path 70" class="shp2" d="M844.06 450.16L848.08 439.78L842.99 434.68L837.89 429.59L827.5 433.61L823 423.42L815.8 423.42L808.59 423.42L804.09 433.61L793.7 429.59L788.6 434.68L783.51 439.78L787.53 450.17L777.34 454.67L777.34 461.87L777.34 469.08L787.53 473.58L783.51 483.97L788.6 489.07L793.7 494.16L804.09 490.14L808.59 500.33L815.8 500.33L823 500.33L827.5 490.14L837.89 494.16L842.99 489.07L848.08 483.97L844.06 473.58L854.25 469.08L854.25 461.87L854.25 454.67L844.06 450.16Z" />
		<path id="Path 71" class="shp13" d="M835.5 461.87C835.5 450.99 826.68 442.17 815.8 442.17C804.91 442.17 796.09 450.99 796.09 461.87C796.09 472.76 804.91 481.58 815.8 481.58C826.68 481.58 835.5 472.76 835.5 461.87Z" />
		<path id="Path 72" class="shp2" d="M828.52 461.87C828.52 454.85 822.82 449.15 815.8 449.15C808.76 449.15 803.07 454.85 803.07 461.87C803.07 468.9 808.76 474.6 815.8 474.6C822.82 474.6 828.52 468.9 828.52 461.87Z" />
		<path id="Path 73" class="shp13" d="M822.96 461.87C822.96 457.91 819.75 454.7 815.8 454.7C811.83 454.7 808.62 457.91 808.62 461.87C808.62 465.83 811.83 469.05 815.8 469.05C819.75 469.05 822.96 465.83 822.96 461.87Z" />
		<path id="Path 74" class="shp2" d="M892.38 486.3L895.14 479.17L891.64 475.68L888.15 472.19L881.03 474.94L877.94 467.96L873 467.96L868.06 467.96L864.97 474.94L857.85 472.19L854.35 475.68L850.86 479.17L853.62 486.3L846.63 489.39L846.63 494.32L846.63 499.27L853.62 502.36L850.86 509.48L854.35 512.97L857.85 516.46L864.97 513.71L868.06 520.69L873 520.69L877.94 520.69L881.03 513.71L888.15 516.46L891.64 512.97L895.14 509.48L892.38 502.35L899.37 499.26L899.37 494.32L899.37 489.38L892.38 486.3Z" />
		<path id="Path 75" class="shp13" d="M886.51 494.32C886.51 486.86 880.46 480.81 873 480.81C865.54 480.81 859.49 486.86 859.49 494.32C859.49 501.79 865.54 507.84 873 507.84C880.46 507.84 886.51 501.79 886.51 494.32Z" />
		<path id="Path 76" class="shp2" d="M881.73 494.32C881.73 489.51 877.82 485.6 873 485.6C868.18 485.6 864.27 489.51 864.27 494.32C864.27 499.15 868.18 503.05 873 503.05C877.82 503.05 881.73 499.15 881.73 494.32Z" />
		<path id="Path 77" class="shp13" d="M877.92 494.32C877.92 491.61 875.72 489.41 873 489.41C870.28 489.41 868.08 491.61 868.08 494.32C868.08 497.04 870.28 499.24 873 499.24C875.72 499.24 877.92 497.04 877.92 494.32Z" />
		<path id="Path 78" class="shp14" d="M569.92 303.14C568.07 303.14 566.57 301.64 566.57 299.8L566.57 291.5L558.27 291.5C556.43 291.5 554.92 290 554.92 288.15C554.92 286.3 556.43 284.8 558.27 284.8L566.57 284.8L566.57 276.5C566.57 274.65 568.07 273.15 569.92 273.15C571.77 273.15 573.27 274.65 573.27 276.5L573.27 284.8L581.57 284.8C583.41 284.8 584.91 286.3 584.91 288.15C584.91 290 583.41 291.5 581.57 291.5L573.27 291.5L573.27 299.8C573.27 301.64 571.77 303.14 569.92 303.14ZM602.74 303.14C600.89 303.14 599.39 301.64 599.39 299.8L599.39 291.5L591.09 291.5C589.24 291.5 587.74 290 587.74 288.15C587.74 286.3 589.24 284.8 591.09 284.8L599.39 284.8L599.39 276.5C599.39 274.65 600.89 273.15 602.74 273.15C604.59 273.15 606.09 274.65 606.09 276.5L606.09 284.8L614.38 284.8C616.24 284.8 617.73 286.3 617.73 288.15C617.73 290 616.24 291.5 614.38 291.5L606.09 291.5L606.09 299.8C606.09 301.64 604.59 303.14 602.74 303.14ZM532.51 314.45C530.29 314.45 528.04 314.16 525.77 313.57C523.51 312.99 521.17 312.01 518.76 310.63C516.35 309.25 514.19 307.56 512.27 305.58C510.35 303.59 508.78 301.04 507.54 297.93C506.3 294.82 505.68 291.44 505.68 287.8C505.68 284.15 506.29 280.84 507.5 277.87C508.72 274.9 510.27 272.45 512.17 270.51C514.06 268.57 516.22 266.94 518.66 265.63C523.23 263.11 527.84 261.85 532.47 261.85C534.67 261.85 536.9 262.19 539.17 262.86C541.44 263.54 543.16 264.23 544.33 264.93L546.01 265.91C546.85 266.43 547.51 266.85 547.97 267.18C549.19 268.16 549.8 269.27 549.8 270.51C549.8 271.75 549.3 273.04 548.32 274.4C546.5 276.93 544.86 278.19 543.41 278.19C542.57 278.19 541.38 277.67 539.84 276.64C537.87 275.05 535.25 274.26 531.98 274.26C528.94 274.26 525.95 275.31 523 277.42C521.6 278.44 520.43 279.89 519.5 281.76C518.56 283.64 518.09 285.75 518.09 288.11C518.09 290.48 518.56 292.59 519.5 294.46C520.43 296.33 521.62 297.8 523.07 298.88C525.92 300.94 528.89 301.96 531.98 301.96C533.43 301.96 534.8 301.78 536.08 301.41C537.37 301.03 538.29 300.66 538.85 300.28L540.12 299.37C541.71 298.43 542.83 297.96 543.49 297.96C544.93 297.96 546.5 299.28 548.18 301.9C549.21 303.53 549.73 304.84 549.73 305.82C549.73 306.8 549.41 307.62 548.78 308.28C548.15 308.93 547.41 309.51 546.57 310.03C545.73 310.55 544.92 311.04 544.15 311.5C543.38 311.97 541.8 312.58 539.41 313.33C537.03 314.07 534.73 314.45 532.51 314.45Z" />
		<path id="Path 79" class="shp15" d="M677.51 721.96C724.35 729.63 768.53 697.88 776.2 651.05C783.87 604.21 752.11 560.03 705.28 552.36C658.45 544.69 614.26 576.44 606.59 623.28C606.5 623.82 606.45 624.37 606.36 624.92C602.48 622.73 598.51 619.1 596.01 612.97C596.01 612.97 584.25 644.7 608.76 660.79C617.64 691.74 643.62 716.41 677.51 721.96Z" />
		<path id="Path 80" class="shp2" d="M667.09 627.04L657.54 627.04L657.54 617.5L667.09 617.5L667.09 627.04ZM657.54 627.04L648 627.04L648 617.5L657.54 617.5L657.54 627.04ZM667.09 617.5L657.54 617.5L657.54 607.96L667.09 607.96L667.09 617.5Z" />
		<path id="Path 81" class="shp16" d="M676.63 627.04L667.09 627.04L667.09 617.5L676.63 617.5L676.63 627.04ZM686.16 627.04L676.63 627.04L676.63 617.5L686.16 617.5L686.16 627.04ZM705.25 627.04L695.71 627.04L695.71 617.5L705.25 617.5L705.25 627.04ZM714.79 627.04L705.25 627.04L705.25 617.5L714.79 617.5L714.79 627.04Z" />
		<path id="Path 82" class="shp2" d="M676.63 617.5L667.09 617.5L667.09 607.96L676.63 607.96L676.63 617.5ZM686.16 617.5L676.63 617.5L676.63 607.96L686.16 607.96L686.16 617.5Z" />
		<path id="Path 83" class="shp16" d="M695.71 627.04L686.16 627.04L686.16 617.5L695.71 617.5L695.71 627.04Z" />
		<path id="Path 84" class="shp2" d="M657.54 636.58L648 636.58L648 627.04L657.54 627.04L657.54 636.58ZM657.54 646.13L648 646.13L648 636.58L657.54 636.58L657.54 646.13Z" />
		<path id="Path 85" class="shp16" d="M667.09 636.58L657.54 636.58L657.54 627.04L667.09 627.04L667.09 636.58ZM676.63 636.58L667.09 636.58L667.09 627.04L676.63 627.04L676.63 636.58ZM686.16 636.58L676.63 636.58L676.63 627.04L686.16 627.04L686.16 636.58ZM695.71 636.58L686.16 636.58L686.16 627.04L695.71 627.04L695.71 636.58ZM705.25 636.58L695.71 636.58L695.71 627.04L705.25 627.04L705.25 636.58ZM714.79 636.58L705.25 636.58L705.25 627.04L714.79 627.04L714.79 636.58ZM676.63 646.13L667.09 646.13L667.09 636.58L676.63 636.58L676.63 646.13ZM686.16 646.13L676.63 646.13L676.63 636.58L686.16 636.58L686.16 646.13ZM695.71 646.13L686.16 646.13L686.16 636.58L695.71 636.58L695.71 646.13ZM705.25 646.13L695.71 646.13L695.71 636.58L705.25 636.58L705.25 646.13ZM686.16 655.67L676.63 655.67L676.63 646.13L686.16 646.13L686.16 655.67ZM695.71 655.67L686.16 655.67L686.16 646.13L695.71 646.13L695.71 655.67ZM695.71 665.21L686.16 665.21L686.16 655.67L695.71 655.67L695.71 665.21ZM705.25 655.67L695.71 655.67L695.71 646.13L705.25 646.13L705.25 655.67ZM714.79 646.13L705.25 646.13L705.25 636.58L714.79 636.58L714.79 646.13ZM724.34 636.58L714.79 636.58L714.79 627.04L724.34 627.04L724.34 636.58ZM667.09 646.13L657.54 646.13L657.54 636.58L667.09 636.58L667.09 646.13ZM667.09 655.67L657.54 655.67L657.54 646.13L667.09 646.13L667.09 655.67ZM676.63 655.67L667.09 655.67L667.09 646.13L676.63 646.13L676.63 655.67ZM676.63 665.21L667.09 665.21L667.09 655.67L676.63 655.67L676.63 665.21ZM686.16 665.21L676.63 665.21L676.63 655.67L686.16 655.67L686.16 665.21ZM686.16 674.75L676.63 674.75L676.63 665.21L686.16 665.21L686.16 674.75ZM695.71 674.75L686.16 674.75L686.16 665.21L695.71 665.21L695.71 674.75ZM695.71 684.29L686.16 684.29L686.16 674.75L695.71 674.75L695.71 684.29ZM714.79 627.04L724.34 627.04L724.34 617.5L714.79 617.5L714.79 627.04ZM724.34 627.04L733.88 627.04L733.88 617.5L724.34 617.5L724.34 627.04ZM705.25 617.5L714.79 617.5L714.79 607.96L705.25 607.96L705.25 617.5ZM714.79 617.5L724.34 617.5L724.34 607.96L714.79 607.96L714.79 617.5ZM695.71 617.5L705.25 617.5L705.25 607.96L695.71 607.96L695.71 617.5ZM724.34 636.58L733.88 636.58L733.88 627.04L724.34 627.04L724.34 636.58ZM714.79 646.13L724.34 646.13L724.34 636.58L714.79 636.58L714.79 646.13ZM714.79 655.67L724.34 655.67L724.34 646.13L714.79 646.13L714.79 655.67ZM724.34 646.13L733.88 646.13L733.88 636.58L724.34 636.58L724.34 646.13ZM705.25 655.67L714.79 655.67L714.79 646.13L705.25 646.13L705.25 655.67ZM705.25 665.21L714.79 665.21L714.79 655.67L705.25 655.67L705.25 665.21ZM695.71 665.21L705.25 665.21L705.25 655.67L695.71 655.67L695.71 665.21ZM695.71 674.75L705.25 674.75L705.25 665.21L695.71 665.21L695.71 674.75Z" />
		<path id="Path 86" fill-rule="evenodd" class="shp12" d="M223.34 493.53L156.42 493.53C137.52 493.53 122.14 478.15 122.14 459.25C122.14 443.54 132.91 429.96 147.8 426.1C153.24 413.78 165.36 405.77 179.12 405.77C185.64 405.77 191.85 407.56 197.29 410.99C200.31 410.13 203.44 409.7 206.61 409.7C219.31 409.7 230.85 416.68 236.79 427.73C249.37 433.08 257.62 445.39 257.62 459.25C257.62 478.15 242.24 493.53 223.34 493.53ZM179.12 419.34C169.95 419.34 161.99 425.23 159.31 434C158.54 436.54 156.34 438.4 153.7 438.75C143.45 440.09 135.72 448.91 135.72 459.25C135.72 470.67 145.01 479.96 156.42 479.96L223.34 479.96C234.76 479.96 244.05 470.67 244.05 459.25C244.05 450.27 238.31 442.36 229.77 439.57C227.91 438.97 226.41 437.6 225.64 435.81C222.36 428.19 214.89 423.27 206.61 423.27C203.92 423.27 201.28 423.79 198.78 424.82C197.95 425.16 197.08 425.33 196.21 425.33C194.69 425.33 193.2 424.82 191.98 423.84C188.28 420.9 183.83 419.34 179.12 419.34Z" />
		<path id="Path 87" class="shp14" d="M456.61 255.58C454.57 255.58 452.91 253.92 452.91 251.88L452.91 242.72L443.75 242.72C441.71 242.72 440.05 241.06 440.05 239.02C440.05 236.98 441.71 235.32 443.75 235.32L452.91 235.32L452.91 226.16C452.91 224.12 454.57 222.46 456.61 222.46C458.65 222.46 460.3 224.12 460.3 226.16L460.3 235.32L469.47 235.32C471.51 235.32 473.16 236.98 473.16 239.02C473.16 241.06 471.51 242.72 469.47 242.72L460.3 242.72L460.3 251.88C460.3 253.92 458.65 255.58 456.61 255.58Z" />
		<path id="Path 88" class="shp2" d="M509.89 243.37L504.76 243.37L504.76 238.24C504.76 237.1 503.83 236.17 502.69 236.17C501.55 236.17 500.62 237.1 500.62 238.24L500.62 243.37L495.49 243.37C494.35 243.37 493.42 244.3 493.42 245.44C493.42 246.58 494.35 247.51 495.49 247.51L500.62 247.51L500.62 252.64C500.62 253.78 501.55 254.71 502.69 254.71C503.83 254.71 504.76 253.78 504.76 252.64L504.76 247.51L509.89 247.51C511.03 247.51 511.96 246.58 511.96 245.44C511.96 244.3 511.03 243.37 509.89 243.37ZM746.25 237.64L741.12 237.64L741.12 232.51C741.12 231.37 740.19 230.44 739.05 230.44C737.91 230.44 736.98 231.37 736.98 232.51L736.98 237.64L731.86 237.64C730.71 237.64 729.79 238.57 729.79 239.71C729.79 240.85 730.71 241.78 731.86 241.78L736.98 241.78L736.98 246.91C736.98 248.05 737.91 248.98 739.05 248.98C740.19 248.98 741.12 248.05 741.12 246.91L741.12 241.78L746.25 241.78C747.39 241.78 748.31 240.85 748.31 239.71C748.31 238.57 747.39 237.64 746.25 237.64ZM734.82 168.25L729.69 168.25L729.69 163.12C729.69 161.97 728.77 161.05 727.63 161.05C726.48 161.05 725.55 161.97 725.55 163.12L725.55 168.25L720.43 168.25C719.28 168.25 718.36 169.17 718.36 170.31C718.36 171.46 719.28 172.38 720.43 172.38L725.55 172.38L725.55 177.51C725.55 178.65 726.48 179.58 727.63 179.58C728.77 179.58 729.69 178.65 729.69 177.51L729.69 172.38L734.82 172.38C735.96 172.38 736.89 171.46 736.89 170.31C736.89 169.17 735.96 168.25 734.82 168.25ZM507.27 350.66L502.15 350.66L502.15 345.53C502.15 344.39 501.22 343.46 500.08 343.46C498.94 343.46 498.01 344.39 498.01 345.53L498.01 350.66L492.88 350.66C491.74 350.66 490.81 351.59 490.81 352.73C490.81 353.87 491.74 354.8 492.88 354.8L498.01 354.8L498.01 359.93C498.01 361.07 498.94 362 500.08 362C501.22 362 502.15 361.07 502.15 359.93L502.15 354.8L507.27 354.8C508.42 354.8 509.34 353.87 509.34 352.73C509.34 351.59 508.42 350.66 507.27 350.66ZM280.1 404.87L274.97 404.87L274.97 399.74C274.97 398.6 274.04 397.67 272.9 397.67C271.76 397.67 270.83 398.6 270.83 399.74L270.83 404.87L265.71 404.87C264.56 404.87 263.64 405.8 263.64 406.94C263.64 408.08 264.56 409.01 265.71 409.01L270.83 409.01L270.83 414.14C270.83 415.28 271.76 416.21 272.9 416.21C274.04 416.21 274.97 415.28 274.97 414.14L274.97 409.01L280.1 409.01C281.24 409.01 282.17 408.08 282.17 406.94C282.17 405.8 281.24 404.87 280.1 404.87ZM793.8 529.37L788.67 529.37L788.67 524.25C788.67 523.1 787.74 522.17 786.6 522.17C785.46 522.17 784.53 523.1 784.53 524.25L784.53 529.37L779.41 529.37C778.26 529.37 777.34 530.3 777.34 531.44C777.34 532.59 778.26 533.51 779.41 533.51L784.53 533.51L784.53 538.64C784.53 539.78 785.46 540.71 786.6 540.71C787.74 540.71 788.67 539.78 788.67 538.64L788.67 533.51L793.8 533.51C794.94 533.51 795.87 532.59 795.87 531.44C795.87 530.3 794.94 529.37 793.8 529.37ZM839.43 550.95L834.3 550.95L834.3 545.82C834.3 544.67 833.37 543.75 832.23 543.75C831.09 543.75 830.16 544.67 830.16 545.82L830.16 550.95L825.04 550.95C823.89 550.95 822.96 551.87 822.96 553.01C822.96 554.16 823.89 555.08 825.04 555.08L830.16 555.08L830.16 560.21C830.16 561.35 831.09 562.28 832.23 562.28C833.37 562.28 834.3 561.35 834.3 560.21L834.3 555.08L839.43 555.08C840.57 555.08 841.5 554.16 841.5 553.01C841.5 551.87 840.57 550.95 839.43 550.95ZM138.61 399.14L133.48 399.14L133.48 394.01C133.48 392.87 132.55 391.95 131.41 391.95C130.27 391.95 129.34 392.87 129.34 394.01L129.34 399.14L124.21 399.14C123.07 399.14 122.14 400.07 122.14 401.21C122.14 402.35 123.07 403.28 124.21 403.28L129.34 403.28L129.34 408.41C129.34 409.55 130.27 410.48 131.41 410.48C132.55 410.48 133.48 409.55 133.48 408.41L133.48 403.28L138.61 403.28C139.75 403.28 140.67 402.35 140.67 401.21C140.67 400.07 139.75 399.14 138.61 399.14ZM264.82 504.35L259.69 504.35L259.69 499.22C259.69 498.08 258.76 497.15 257.62 497.15C256.48 497.15 255.55 498.08 255.55 499.22L255.55 504.35L250.43 504.35C249.28 504.35 248.36 505.28 248.36 506.42C248.36 507.56 249.28 508.49 250.43 508.49L255.55 508.49L255.55 513.62C255.55 514.76 256.48 515.69 257.62 515.69C258.76 515.69 259.69 514.76 259.69 513.62L259.69 508.49L264.82 508.49C265.96 508.49 266.89 507.56 266.89 506.42C266.89 505.28 265.96 504.35 264.82 504.35Z" />
		<path id="Path 89" class="shp14" d="M575.71 361.89C573.86 361.89 572.36 360.39 572.36 358.54L572.36 350.24L564.06 350.24C562.21 350.24 560.71 348.74 560.71 346.89C560.71 345.04 562.21 343.55 564.06 343.55L572.36 343.55L572.36 335.25C572.36 333.4 573.86 331.9 575.71 331.9C577.56 331.9 579.05 333.4 579.05 335.25L579.05 343.55L587.35 343.55C589.2 343.55 590.7 345.04 590.7 346.89C590.7 348.74 589.2 350.24 587.35 350.24L579.05 350.24L579.05 358.54C579.05 360.39 577.56 361.89 575.71 361.89ZM714.79 235.47C712.94 235.47 711.45 233.97 711.45 232.12L711.45 223.82L703.15 223.82C701.3 223.82 699.8 222.32 699.8 220.47C699.8 218.62 701.3 217.12 703.15 217.12L711.45 217.12L711.45 208.82C711.45 206.98 712.94 205.48 714.79 205.48C716.64 205.48 718.14 206.98 718.14 208.82L718.14 217.12L726.44 217.12C728.29 217.12 729.79 218.62 729.79 220.47C729.79 222.32 728.29 223.82 726.44 223.82L718.14 223.82L718.14 232.12C718.14 233.97 716.64 235.47 714.79 235.47ZM795.87 595.31C794.02 595.31 792.52 593.81 792.52 591.96L792.52 583.66L784.22 583.66C782.37 583.66 780.88 582.17 780.88 580.32C780.88 578.47 782.37 576.97 784.22 576.97L792.52 576.97L792.52 568.67C792.52 566.82 794.02 565.32 795.87 565.32C797.72 565.32 799.21 566.82 799.21 568.67L799.21 576.97L807.51 576.97C809.36 576.97 810.86 578.47 810.86 580.32C810.86 582.17 809.36 583.66 807.51 583.66L799.21 583.66L799.21 591.96C799.21 593.81 797.72 595.31 795.87 595.31ZM238.04 546.44C236.19 546.44 234.69 544.94 234.69 543.09L234.69 534.79L226.39 534.79C224.55 534.79 223.05 533.29 223.05 531.44C223.05 529.59 224.55 528.09 226.39 528.09L234.69 528.09L234.69 519.8C234.69 517.95 236.19 516.45 238.04 516.45C239.89 516.45 241.39 517.95 241.39 519.8L241.39 528.09L249.69 528.09C251.54 528.09 253.03 529.59 253.03 531.44C253.03 533.29 251.54 534.79 249.69 534.79L241.39 534.79L241.39 543.09C241.39 544.94 239.89 546.44 238.04 546.44Z" />
	</g>
</svg>