<svg xmlns="http://www.w3.org/2000/svg" viewBox="0 0 1042 1042" width="1042" height="1042">
	<defs>
		<clipPath clipPathUnits="userSpaceOnUse" id="cp1">
			<path d="M0 0L1042 0L1042 1042L0 1042Z" />
		</clipPath>
	</defs>
	<style>
		tspan { white-space:pre }
		.shp0 { fill: #e2f4fc } 
		.shp1 { fill: #ffcf7a } 
		.shp2 { fill: #ffe7b0 } 
		.shp3 { fill: #438aca } 
		.shp4 { fill: #1f3d7c } 
		.shp5 { fill: #ffffff } 
		.shp6 { fill: #f97969 } 
		.shp7 { fill: #ff877a } 
		.shp8 { fill: #1654a6 } 
		.shp9 { fill: #fe5c43 } 
		.shp10 { fill: #90b4d6 } 
		.shp11 { fill: #98c2df } 
		.shp12 { fill: #b4d8eb } 
	</style>
	<g id="Page 1" clip-path="url(#cp1)">
		<path id="Path 2" class="shp0" d="M899.93 531.11C888.23 489.15 925.41 487.53 926.23 433.46C926.57 411.35 914.45 388.83 885.31 378.5C870.98 373.42 856.7 369.93 843.96 361.86C814.91 343.46 815.44 308.46 807.51 278.62C790.11 213.08 723.14 161.02 655.35 162.71C606.48 163.93 562.3 165.43 517.75 206.9C487.26 235.29 467.45 270.21 439.15 299.47C409.18 330.46 372.65 345.32 331.64 355.28C292.86 364.69 250.67 375.9 220.98 404.13C193.08 430.66 197.15 458.41 209.11 490.99C222.3 526.91 193.7 551.35 163.88 565.34C138.77 577.12 96.73 601.07 95.36 645.25C91.11 782.07 178.01 782.61 210.41 795.62C508.49 915.25 622.88 822.98 749.26 824.84C875.25 826.7 947.48 674.34 943.1 629.46C937.55 572.49 908.1 560.41 899.93 531.11Z" />
		<path id="Path 3" class="shp1" d="M225.03 731.57C225.03 707.18 205.26 687.41 180.87 687.41C156.48 687.41 136.71 707.18 136.71 731.57C136.71 745.52 143.19 757.95 153.29 766.04L145.17 781.83L150.18 781.83L160.43 770.71C166.54 773.9 173.49 775.72 180.87 775.72C188.45 775.72 195.58 773.81 201.82 770.44L212.31 781.83L217.32 781.83L208.98 765.62C218.78 757.52 225.03 745.27 225.03 731.57Z" />
		<path id="Path 4" class="shp2" d="M216.66 732.35C216.66 752.12 200.64 768.15 180.87 768.15C161.1 768.15 145.07 752.12 145.07 732.35C145.07 712.58 161.1 696.56 180.87 696.56C200.64 696.56 216.66 712.58 216.66 732.35Z" />
		<path id="Path 5" class="shp1" d="M202.71 735.48L178.94 735.48L166.59 710.8C165.82 709.26 166.44 707.38 167.98 706.61C169.52 705.84 171.4 706.46 172.18 708.01L182.8 729.23L202.71 729.23C204.44 729.23 205.83 730.63 205.83 732.35C205.83 734.08 204.44 735.48 202.71 735.48Z" />
		<path id="Path 6" class="shp3" d="M213.55 624.3L205.4 626.55L202.95 615.01C202.57 613.19 203.67 611.38 205.46 610.88C207.25 610.39 209.12 611.37 209.73 613.14L213.55 624.3Z" />
		<path id="Path 7" class="shp4" d="M249.6 775.31C250.79 779.42 252.2 782.52 252.83 782.35C253.46 782.18 253.07 778.79 251.99 774.65L249.6 775.31Z" />
		<path id="Path 8" class="shp5" d="M254.6 757.7C251.02 749.58 248.04 741.21 245.68 732.66L213.82 617.34L201.6 620.71L233.46 736.03C235.82 744.59 237.56 753.3 238.66 762.1L239 764.79C239.05 765.2 239.21 765.59 239.47 765.92L249.67 778.79C250.24 779.51 251.18 779.81 252.06 779.57C252.94 779.33 253.59 778.58 253.71 777.67L255.86 761.39C255.91 760.98 255.86 760.56 255.69 760.18L254.6 757.7ZM231.53 681.44L213.82 617.34L201.6 620.71L219.31 684.82L231.53 681.44ZM241.8 768.85L255.37 765.1L255.69 762.65L240.26 766.91L241.8 768.85Z" />
		<path id="Path 9" class="shp3" d="M243.63 740.37L239.17 741.6L231.46 713.68L235.92 712.45L243.63 740.37Z" />
		<path id="Path 10" class="shp5" d="M243.63 740.37L239.17 741.6L235.26 727.45L239.72 726.21L243.63 740.37Z" />
		<path id="Path 11" class="shp3" d="M231.85 682.61L219.64 685.99L219.03 683.8L231.24 680.42L231.85 682.61ZM215.17 622.36L202.96 625.74L202.35 623.54L214.56 620.17L215.17 622.36Z" />
		<path id="Path 12" class="shp6" d="M241.58 615.45L251.98 757.34L258.22 751.41L248.22 614.96L241.58 615.45Z" />
		<path id="Path 13" class="shp7" d="M234.94 615.94L244.94 752.39L251.91 756.46L241.58 615.45L234.94 615.94Z" />
		<path id="Path 14" class="shp5" d="M254.54 753.56C254.54 753.56 253.29 751.77 251.58 751.9C249.88 752.03 248.9 753.97 248.9 753.97C246.95 751.81 244.94 752.39 244.94 752.39L249.99 765.74L255.18 765.36L258.22 751.41C258.22 751.41 256.15 751.13 254.54 753.56Z" />
		<path id="Path 15" class="shp4" d="M252.57 765.35C251.68 765.42 250.82 765.56 249.99 765.74L252.56 772.53C252.65 772.8 252.89 772.92 253.12 772.91L253.13 772.91C253.35 772.89 253.58 772.74 253.62 772.46L255.18 765.36C254.33 765.3 253.46 765.29 252.57 765.35Z" />
		<path id="Path 16" class="shp5" d="M247.88 610.34L234.6 611.31L234.94 615.94L248.22 614.96L247.88 610.34Z" />
		<path id="Path 17" class="shp3" d="M243.54 599.67L237.34 600.12C235.38 600.27 233.91 601.97 234.06 603.92L234.6 611.31L247.88 610.34L247.34 602.95C247.2 600.99 245.5 599.52 243.54 599.67Z" />
		<path id="Path 18" class="shp1" d="M263.78 611.51L266.84 753.75L273.38 748.15L270.44 611.37L263.78 611.51Z" />
		<path id="Path 19" class="shp2" d="M257.12 611.65L260.06 748.44L266.82 752.86L263.78 611.51L257.12 611.65Z" />
		<path id="Path 20" class="shp5" d="M269.58 750.1C269.58 750.1 268.43 748.26 266.72 748.29C265.01 748.33 263.93 750.22 263.93 750.22C262.1 747.96 260.06 748.44 260.06 748.44L264.41 762.03L269.61 761.92L273.38 748.15C273.38 748.15 271.32 747.76 269.58 750.1Z" />
		<path id="Path 21" class="shp4" d="M267.01 761.78C266.11 761.8 265.25 761.89 264.41 762.04L266.62 768.95C266.7 769.22 266.94 769.36 267.17 769.35L267.17 769.35C267.4 769.35 267.63 769.2 267.7 768.93L269.61 761.92C268.77 761.81 267.9 761.76 267.01 761.78Z" />
		<path id="Path 22" class="shp5" d="M270.34 606.73L257.03 607.02L257.12 611.65L270.44 611.37L270.34 606.73Z" />
		<path id="Path 23" class="shp3" d="M266.56 595.85L260.34 595.98C258.38 596.03 256.82 597.65 256.86 599.61L257.03 607.02L270.34 606.73L270.18 599.32C270.14 597.36 268.52 595.81 266.56 595.85ZM291.92 627.46L283.94 624.67L288.49 613.78C289.2 612.07 291.14 611.2 292.89 611.82C294.65 612.43 295.63 614.3 295.13 616.1L291.92 627.46Z" />
		<path id="Path 24" class="shp4" d="M235.73 772.18C234.37 776.24 233.77 779.6 234.38 779.81C235 780.02 236.61 777.02 238.06 773L235.73 772.18Z" />
		<path id="Path 25" class="shp5" d="M249.85 760.53C251.52 751.82 253.83 743.24 256.75 734.86L296.1 621.88L284.13 617.71L244.78 730.69C241.86 739.07 238.34 747.23 234.24 755.1L232.99 757.5C232.79 757.86 232.7 758.28 232.73 758.7L233.81 775.09C233.86 776 234.46 776.79 235.33 777.09C236.19 777.39 237.15 777.14 237.77 776.46L248.79 764.29C249.07 763.98 249.26 763.6 249.34 763.19L249.85 760.53ZM274.23 684.68L296.1 621.88L284.13 617.71L262.26 680.51L274.23 684.68ZM232.98 762.43L246.28 767.06L247.94 765.23L232.81 759.96L232.98 762.43Z" />
		<path id="Path 26" class="shp3" d="M250.68 740.04L246.31 738.52L255.84 711.17L260.21 712.69L250.68 740.04Z" />
		<path id="Path 27" class="shp5" d="M250.68 740.04L246.31 738.52L251.14 724.65L255.51 726.17L250.68 740.04Z" />
		<path id="Path 28" class="shp3" d="M273.82 685.83L261.86 681.66L262.6 679.51L274.57 683.68L273.82 685.83ZM294.36 626.78L282.39 622.61L283.14 620.46L295.1 624.63L294.36 626.78Z" />
		<path id="Path 29" class="shp8" d="M280.69 787.61L212.88 787.61C209.55 787.61 206.86 784.91 206.86 781.59L206.86 677.82L286.7 677.82L286.7 781.59C286.7 784.91 284.01 787.61 280.69 787.61Z" />
		<path id="Path 30" class="shp6" d="M814.62 598.42C815.77 615.65 806.64 632.09 792.04 639.39C782.9 644.87 771.95 643.04 762.81 639.39C755.51 635.74 750.03 630.26 746.38 624.78C740.9 613.83 737.24 604.69 739.07 591.91C740.9 582.77 742.72 573.64 750.03 568.17C757.34 560.86 766.46 557.21 777.42 557.21C782.9 557.21 786.56 559.03 792.04 560.86C801.17 566.34 808.47 573.64 811.55 582.1C813.49 587.04 814.58 592.54 814.62 598.42Z" />
		<path id="Path 31" class="shp7" d="M804.73 599.49C804.82 617.48 799.34 641.22 777.42 643.04C768.29 643.04 760.99 637.57 757.34 630.26C755.51 622.95 751.86 617.48 750.03 610.17C750.03 599.21 748.2 586.43 753.68 575.47C755.51 571.82 757.34 568.17 760.99 564.51C764.64 559.03 771.95 559.03 777.42 557.21C781.08 557.21 784.73 559.03 788.38 560.86C795.69 566.34 799.34 575.47 802.43 582.75C803.86 587.84 804.67 593.49 804.73 599.49Z" />
		<path id="Path 32" class="shp6" d="M794.48 600.34C793.86 615.65 793.86 643.04 779.25 639.39C751.86 632.09 750.03 569.99 777.42 559.03C786.56 555.38 790.21 573.64 792.99 583.26C793.89 588.47 794.42 594.26 794.48 600.34Z" />
		<path id="Path 33" class="shp7" d="M785.66 600.76C784.73 615.65 786.56 630.26 777.42 643.04C764.64 617.48 764.64 582.77 777.42 557.21C782.9 564.51 784.73 573.64 784.83 583.51C785.3 588.79 785.59 594.64 785.66 600.76Z" />
		<path id="Path 34" class="shp4" d="M732.95 633.58L751.24 694.72C751.24 694.72 758.52 700.24 774.65 700.55C790.79 700.85 802.27 696.76 802.27 696.76L822.75 635.41L732.95 633.58Z" />
		<path id="Path 35" class="shp8" d="M826.59 646.67C826.59 648.69 824.96 650.33 822.94 650.33L732.04 650.33C730.02 650.33 728.39 648.69 728.39 646.67L728.39 629.32C728.39 627.3 730.02 625.67 732.04 625.67L822.94 625.67C824.96 625.67 826.59 627.3 826.59 629.32L826.59 646.67ZM884.05 754.75C883.8 754.75 883.49 754.8 883.49 754.89L883.49 753.88L670.93 753.88C667.6 753.88 664.91 762.06 664.91 771.62C664.91 781.18 667.6 789.36 670.93 789.36L883.49 789.36L883.49 789.22C883.49 789.31 883.8 789.36 884.05 789.36C887.38 789.36 890.07 781.61 890.07 772.05C890.07 762.49 887.38 754.75 884.05 754.75Z" />
		<path id="Path 36" class="shp3" d="M874.83 759.6L833.91 759.6C835.89 761.89 836.46 767.61 836.46 773.4C836.46 779.1 835.92 783.64 834 787.07L874.83 787.07C876.91 787.07 878.59 780.82 878.59 773.34C878.59 765.86 876.91 759.6 874.83 759.6ZM679.21 772.57C679.21 766.63 680.32 761.89 681.98 758.46L674.4 758.46C672.32 758.46 670.64 764.71 670.64 772.19C670.64 779.67 672.32 785.93 674.4 785.93L681.58 785.93C680.14 782.49 679.21 778 679.21 772.57Z" />
		<path id="Path 37" class="shp7" d="M864.52 723.12C864.31 723.12 863.54 722.98 863.54 722.98L695.29 722.98C692.64 722.98 690.49 729.58 690.49 738.43C690.49 747.28 692.64 753.88 695.29 753.88L864.04 753.88L864.04 754.5C864.04 754.58 864.58 754.63 864.78 754.63C867.43 754.63 869.45 747.44 869.45 738.59C869.45 729.74 867.17 723.12 864.52 723.12ZM864.52 723.01C864.31 723.01 863.54 722.98 863.54 722.98L695.29 722.98C692.64 722.98 690.49 729.85 690.49 737.86L869.32 737.86C869.32 729.85 867.17 723.01 864.52 723.01Z" />
		<path id="Path 38" class="shp9" d="M700.35 738.82C700.35 733.06 701.52 728.7 703.26 725.27L699.98 725.27C697.9 725.27 696.22 731.52 696.22 739C696.22 746.48 697.9 752.74 699.98 752.74L703.54 752.74C701.65 750.45 700.35 744.88 700.35 738.82Z" />
		<path id="Path 39" class="shp5" d="M858.31 732.14L858.31 739L773.63 739L773.63 732.14L858.31 732.14Z" />
		<path id="Path 40" class="shp1" d="M836.74 691.44C836.73 691.44 836.57 691.45 836.57 691.45L836.57 692.08L710.69 692.08L710.69 691.45C707.25 691.54 706.71 698.48 706.71 707.05C706.71 715.6 707.25 722.55 710.69 722.64L710.69 722.98L836.57 722.98L836.57 722.64C836.57 722.64 836.73 722.65 836.74 722.65C838.96 722.65 840.76 715.66 840.76 707.05C840.76 698.43 838.96 691.44 836.74 691.44Z" />
		<path id="Path 41" class="shp8" d="M554.24 778.84C546.82 768.04 546.14 753.48 546.14 753.48L525.89 753.48L516.93 753.48L496.68 753.48C496.68 753.48 496 768.04 488.58 778.84C481.15 789.64 465.63 796.39 465.63 796.39L516.93 796.39L525.89 796.39L577.19 796.39C577.19 796.39 561.67 789.64 554.24 778.84ZM765.48 745.57C765.48 754.52 758.22 761.77 749.28 761.77L292.13 761.77C283.18 761.77 275.93 754.52 275.93 745.57L275.93 444.46C275.93 435.51 283.18 428.26 292.13 428.26L749.28 428.26C758.22 428.26 765.48 435.51 765.48 444.46L765.48 745.57Z" />
		<path id="Path 42" class="shp3" d="M275.93 715.5L275.93 745.57C275.93 754.52 283.18 761.77 292.13 761.77L749.28 761.77C758.22 761.77 765.48 754.52 765.48 745.57L765.48 715.5L275.93 715.5Z" />
		<path id="Path 43" class="shp10" d="M209.35 333.43C209.13 333.1 209.06 333.09 209.14 333.42C208.77 332.02 206.97 331.34 206 332.65C205.05 333.96 206.23 335.48 207.68 335.41C207.34 335.44 207.37 335.5 207.75 335.61C208.97 336.2 210.29 334.41 209.35 333.43ZM196.99 374.77C197.57 374.07 198.21 373.35 198.2 372.39C198.18 371.51 197.5 371.01 196.65 371.26C195.74 371.53 195.24 372.36 194.75 373.13C193.78 374.64 195.84 376.15 196.99 374.77ZM220.86 369.59C222.28 370.63 223.9 368.42 222.48 367.38C221.06 366.34 219.44 368.55 220.86 369.59ZM749.81 266.47C750.36 266.5 750.91 266.52 751.46 266.54C752.16 266.57 752.9 266.01 753.06 265.33C753.13 265.02 753.13 264.77 753.06 264.46C752.9 263.78 752.16 263.22 751.46 263.25C750.91 263.27 750.36 263.3 749.81 263.32C747.79 263.41 747.78 266.38 749.81 266.47ZM763.26 300.05C764.58 300.05 764.58 298 763.26 298C761.94 298 761.94 300.05 763.26 300.05ZM744.64 284.82C746.32 284.82 746.32 282.21 744.64 282.21C742.96 282.21 742.96 284.82 744.64 284.82ZM339.81 482.95C339.21 482.6 338.62 482.47 337.94 482.4C337.45 482.35 336.92 482.89 336.97 483.36C337.05 484.05 337.17 484.64 337.52 485.24C338.93 487.61 342.2 484.37 339.81 482.95ZM324.49 470.68C324.72 470.66 324.95 470.64 325.18 470.62C327.41 470.44 327.42 467.32 325.18 467.14C324.95 467.12 324.72 467.11 324.49 467.09C322.18 466.9 322.18 470.86 324.49 470.68ZM353.46 405.23C355.46 405.23 355.46 402.13 353.46 402.13C351.47 402.13 351.46 405.23 353.46 405.23ZM357.6 417.65C359.61 417.65 359.61 414.53 357.6 414.53C355.59 414.53 355.59 417.65 357.6 417.65ZM776.81 534.67C778.69 534.67 778.7 531.74 776.81 531.74C774.92 531.74 774.92 534.67 776.81 534.67ZM794.39 531.62C793.44 531.66 792.86 531.79 792.29 532.58C792.06 532.9 792.06 533.5 792.29 533.82C792.86 534.61 793.44 534.75 794.39 534.79C796.43 534.89 796.44 531.52 794.39 531.62ZM785.14 519.7C784.78 519.35 784.43 519.04 784.01 518.76C782.81 517.95 781.21 519.56 782.01 520.75C782.29 521.17 782.6 521.52 782.96 521.88C784.36 523.28 786.54 521.11 785.14 519.7ZM793.36 510.77C795.1 510.77 795.1 508.06 793.36 508.06C791.61 508.06 791.61 510.77 793.36 510.77Z" />
		<path id="Path 44" class="shp11" d="M868.37 711.52C872.7 711.52 872.71 704.79 868.37 704.79C864.03 704.79 864.02 711.52 868.37 711.52ZM871.07 673.34C871.03 673.56 870.99 673.78 870.95 674C870.66 675.69 871.69 677.4 873.54 677.4C875.38 677.4 876.42 675.69 876.13 674C876.09 673.78 876.05 673.56 876.01 673.34C875.58 670.9 871.49 670.89 871.07 673.34ZM889.05 709.21C893.07 709.21 893.08 702.96 889.05 702.96C885.03 702.96 885.03 709.21 889.05 709.21ZM219.54 765.33C219.75 765.41 219.96 765.49 220.16 765.57C222.31 766.39 224.56 764.32 224.56 762.23C224.56 760.13 222.31 758.06 220.16 758.88C219.96 758.96 219.75 759.04 219.54 759.12C216.5 760.28 216.49 764.17 219.54 765.33ZM253.49 768C258.27 768 258.28 760.58 253.49 760.58C248.72 760.58 248.71 768 253.49 768ZM241.08 732.19C243.69 732.19 243.7 728.14 241.08 728.14C238.48 728.14 238.47 732.19 241.08 732.19ZM387.58 226.14C392.14 226.14 392.14 219.06 387.58 219.06C383.03 219.06 383.02 226.14 387.58 226.14ZM420.68 238.83C424.26 238.83 424.26 233.26 420.68 233.26C417.1 233.26 417.09 238.83 420.68 238.83ZM423.05 209.6C422.83 209.63 422.61 209.67 422.39 209.71C419.87 210.14 419.87 214.37 422.39 214.8C422.61 214.84 422.83 214.88 423.05 214.92C424.79 215.22 426.54 214.16 426.54 212.26C426.54 210.36 424.79 209.29 423.05 209.6Z" />
		<path id="Path 45" class="shp3" d="M580.33 801.9L463.28 801.9C462.27 801.9 461.46 801.08 461.46 800.07L461.46 791.18C461.46 790.17 462.27 789.36 463.28 789.36L580.33 789.36C581.33 789.36 582.15 790.17 582.15 791.18L582.15 800.07C582.15 801.08 581.33 801.9 580.33 801.9Z" />
		<path id="Path 46" class="shp4" d="M739.11 698.48L300.78 698.48C296.86 698.48 293.68 695.3 293.68 691.39L293.68 451.64C293.68 447.72 296.86 444.54 300.78 444.54L739.11 444.54C743.03 444.54 746.21 447.72 746.21 451.64L746.21 691.39C746.21 695.3 743.03 698.48 739.11 698.48Z" />
		<path id="Path 47" class="shp12" d="M732.95 470.16C732.95 466.24 729.78 463.06 725.86 463.06L318.05 463.06C314.13 463.06 310.96 466.24 310.96 470.16L310.96 490.1L732.95 490.1L732.95 470.16Z" />
		<path id="Path 48" class="shp5" d="M310.96 490.1L310.96 672.86C310.96 676.78 314.13 679.96 318.05 679.96L725.86 679.96C729.78 679.96 732.95 676.78 732.95 672.86L732.95 490.1L310.96 490.1Z" />
		<path id="Path 49" class="shp4" d="M764.25 465.85C764.77 466.38 765.2 467 765.48 467.68L765.48 464.49C765.07 464.94 764.66 465.4 764.25 465.85Z" />
		<path id="Path 50" class="shp8" d="M372.32 811.52L655.94 811.52L702.11 833.71L320.03 833.71L372.32 811.52Z" />
		<path id="Path 51" class="shp3" d="M702.11 839.79L320.03 839.79L320.03 833.71L702.11 833.71L702.11 839.79Z" />
		<path id="Path 52" class="shp4" d="M522.31 750.09L519.76 750.09C513.28 750.09 508.03 744.84 508.03 738.36L508.03 735.81C508.03 729.33 513.28 724.08 519.76 724.08L522.31 724.08C528.79 724.08 534.04 729.33 534.04 735.81L534.04 738.36C534.04 744.84 528.79 750.09 522.31 750.09Z" />
		<path id="Path 53" fill-rule="evenodd" class="shp3" d="M405 819.69L390.41 819.68L399.87 815.54L413.28 815.54L405 819.69ZM387.2 819.67L372.61 819.66L383.51 815.54L396.92 815.54L387.2 819.67ZM440.59 819.72L426 819.71L432.59 815.54L446.01 815.54L440.59 819.72ZM422.8 819.71L408.21 819.69L416.23 815.54L429.65 815.54L422.8 819.71ZM476.47 819.75L461.88 819.74L465.58 815.54L478.99 815.54L476.47 819.75ZM458.68 819.74L444.09 819.73L449.22 815.54L462.63 815.54L458.68 819.74ZM512.07 819.79L497.48 819.77L498.3 815.54L511.71 815.54L512.07 819.79ZM494.27 819.77L479.68 819.76L481.94 815.54L495.36 815.54L494.27 819.77ZM547.79 819.82L533.2 819.81L531.14 815.54L544.56 815.54L547.79 819.82ZM529.99 819.8L515.4 819.79L514.78 815.54L528.2 815.54L529.99 819.8ZM583.38 819.85L568.79 819.84L563.86 815.54L577.28 815.54L583.38 819.85ZM565.59 819.83L551 819.82L547.51 815.54L560.92 815.54L565.59 819.83ZM619.26 819.88L604.67 819.87L596.85 815.54L610.26 815.54L619.26 819.88ZM601.47 819.86L586.88 819.85L580.49 815.54L593.9 815.54L601.47 819.86ZM654.86 819.91L640.27 819.9L629.57 815.54L642.99 815.54L654.86 819.91ZM637.06 819.9L622.47 819.89L613.21 815.54L626.63 815.54L637.06 819.9ZM395.57 824.68L379.56 824.65L388.99 820.52L403.81 820.53L395.57 824.68ZM376.05 824.65L360.04 824.62L370.9 820.49L385.73 820.51L376.05 824.65ZM434.62 824.75L418.61 824.72L425.16 820.55L439.99 820.57L434.62 824.75ZM415.1 824.71L399.09 824.69L407.08 820.53L421.91 820.55L415.1 824.71ZM473.97 824.82L457.97 824.79L461.63 820.59L476.45 820.6L473.97 824.82ZM454.45 824.79L438.45 824.76L443.54 820.57L458.37 820.59L454.45 824.79ZM513.02 824.89L497.01 824.86L497.8 820.63L512.63 820.64L513.02 824.89ZM493.5 824.86L477.49 824.83L479.71 820.61L494.54 820.62L493.5 824.86ZM552.21 824.96L536.2 824.93L534.1 820.67L548.93 820.68L552.21 824.96ZM532.69 824.92L516.68 824.9L516.02 820.65L530.85 820.66L532.69 824.92ZM591.25 825.03L575.25 825L570.28 820.7L585.11 820.72L591.25 825.03ZM571.73 824.99L555.72 824.96L552.19 820.69L567.02 820.7L571.73 824.99ZM630.61 825.1L614.6 825.07L606.74 820.74L621.57 820.76L630.61 825.1ZM611.09 825.06L595.09 825.04L588.66 820.72L603.48 820.74L611.09 825.06ZM669.66 825.17L653.65 825.14L642.92 820.78L657.74 820.79L669.66 825.17ZM650.14 825.13L634.13 825.1L624.83 820.76L639.66 820.78L650.14 825.13ZM385.91 829.54L368.53 829.5L377.95 825.36L394.16 825.39L385.91 829.54ZM364.71 829.49L347.33 829.45L358.19 825.32L374.39 825.35L364.71 829.49ZM428.32 829.65L410.94 829.6L417.49 825.43L433.7 825.46L428.32 829.65ZM407.12 829.59L389.74 829.55L397.73 825.4L413.93 825.43L407.12 829.59ZM512.91 829.86L453.69 829.71L457.34 825.51L512.55 825.61L512.91 829.86ZM449.87 829.7L432.48 829.66L437.58 825.47L453.78 825.5L449.87 829.7ZM556.04 829.97L538.66 829.92L536.56 825.66L552.77 825.69L556.04 829.97ZM534.84 829.91L517.45 829.87L516.79 825.62L533 825.65L534.84 829.91ZM598.45 830.07L581.07 830.03L576.1 825.73L592.3 825.76L598.45 830.07ZM577.25 830.02L559.86 829.98L556.33 825.7L572.54 825.72L577.25 830.02ZM641.2 830.18L623.81 830.14L615.95 825.81L632.16 825.84L641.2 830.18ZM619.99 830.13L602.61 830.08L596.18 825.77L612.39 825.8L619.99 830.13ZM683.6 830.29L666.22 830.24L655.49 825.88L671.69 825.91L683.6 830.29ZM662.4 830.24L645.02 830.19L635.72 825.85L651.93 825.88L662.4 830.24ZM337.19 396.87C335.31 394.71 333.84 392.28 332.8 389.7L321.16 391.55L319.38 380.35L331.02 378.5C331.2 375.73 331.84 372.96 332.97 370.32L323.44 363.4L330.09 354.23L339.63 361.14C341.79 359.26 344.22 357.79 346.8 356.75L344.95 345.11L356.14 343.33L357.99 354.97C360.77 355.15 363.54 355.8 366.18 356.92L373.09 347.39L382.26 354.04L375.35 363.58C377.24 365.74 378.7 368.16 379.74 370.75L391.38 368.9L393.16 380.09L381.53 381.94C381.34 384.72 380.7 387.49 379.57 390.13L389.1 397.04L382.45 406.22L372.91 399.3C370.76 401.19 368.33 402.65 365.74 403.7L367.6 415.33L356.4 417.11L354.55 405.48C351.77 405.29 349.01 404.65 346.36 403.52L339.45 413.05L330.28 406.4L337.19 396.87ZM346.81 388.4C353 395.38 364.09 393.62 367.8 385.06C369.68 380.74 368.85 375.57 365.74 372.05C359.54 365.06 348.45 366.83 344.74 375.39C342.87 379.7 343.69 384.88 346.81 388.4Z" />
		<path id="Path 54" fill-rule="evenodd" class="shp3" d="M304.78 339.1C303.67 337.11 302.93 334.98 302.55 332.8L293.2 332.31L293.66 323.32L303.01 323.8C303.62 321.67 304.57 319.63 305.88 317.76L299.61 310.81L306.3 304.78L312.57 311.73C314.56 310.62 316.7 309.88 318.88 309.5L319.36 300.15L328.36 300.61L327.87 309.96C330 310.57 332.05 311.52 333.91 312.83L340.86 306.57L346.9 313.26L339.94 319.53C341.06 321.51 341.79 323.65 342.17 325.83L351.53 326.31L351.06 335.31L341.71 334.82C341.11 336.96 340.15 339 338.84 340.86L345.11 347.81L338.41 353.85L332.15 346.9C330.16 348 328.03 348.74 325.85 349.13L325.36 358.48L316.36 358.01L316.85 348.66C314.72 348.06 312.68 347.1 310.81 345.79L303.86 352.06L297.83 345.37L304.78 339.1ZM313.65 334.1C317.31 340.56 326.22 341.02 330.53 334.98C332.7 331.93 332.91 327.77 331.07 324.52C327.41 318.07 318.5 317.6 314.19 323.65C312.03 326.69 311.81 330.85 313.65 334.1ZM682.01 315.36C682.3 313.57 682.89 311.86 683.73 310.31L678.1 305.38L682.84 299.97L688.47 304.9C689.9 303.86 691.51 303.05 693.26 302.53L692.76 295.07L699.94 294.6L700.44 302.06C702.23 302.34 703.94 302.94 705.49 303.77L710.42 298.15L715.83 302.89L710.9 308.51C711.94 309.95 712.75 311.56 713.27 313.3L720.73 312.81L721.2 319.99L713.75 320.48C713.46 322.28 712.87 323.98 712.03 325.54L717.65 330.46L712.91 335.88L707.29 330.95C705.85 331.99 704.24 332.79 702.5 333.32L702.99 340.77L695.81 341.25L695.32 333.79C693.52 333.5 691.82 332.91 690.26 332.07L685.34 337.7L679.92 332.96L684.85 327.33C683.81 325.9 683.01 324.29 682.49 322.54L675.03 323.04L674.55 315.86L682.01 315.36ZM690.05 316.62C689.15 322.48 694.51 327.18 700.2 325.51C703.06 324.68 705.25 322.18 705.71 319.22C706.61 313.37 701.25 308.67 695.56 310.33C692.69 311.17 690.5 313.67 690.05 316.62ZM668.2 366.91C668.61 366.86 668.99 367.15 669.05 367.56L669.39 370.05L708.74 364.61L708.51 362.96C708.41 362.26 708.89 361.62 709.58 361.53L717.88 360.38C718.57 360.29 719.21 360.77 719.31 361.46L719.54 363.13L723.82 362.54C724.93 362.39 725.9 363.24 726.05 364.35L731.81 406.11C731.96 407.22 731.25 408.17 730.14 408.33L662.6 417.64C661.49 417.8 660.4 417.1 660.25 415.99L654.49 374.23C654.34 373.11 655.17 372.01 656.28 371.86L659.27 371.44L658.93 368.96C658.87 368.54 659.16 368.16 659.57 368.11L668.2 366.91ZM719.4 371.35C720.09 371.25 720.57 370.63 720.48 369.93L720.32 368.82C720.22 368.12 719.61 367.79 718.92 367.88L710.61 369.03C709.93 369.12 709.42 369.61 709.52 370.31L709.68 371.42C709.77 372.12 710.4 372.59 711.09 372.5L719.4 371.35ZM696.01 410.35C707.08 408.83 714.83 398.56 713.28 387.32C711.75 376.22 701.51 368.44 690.43 369.97C679.36 371.5 671.47 381.78 673 392.88C674.55 404.12 684.93 411.88 696.01 410.35Z" />
		<path id="Path 55" fill-rule="evenodd" class="shp3" d="M711.35 387.72C712.77 398.05 705.66 407.45 695.52 408.85C685.2 410.27 675.82 403.15 674.4 392.82C672.99 382.64 680.1 373.24 690.41 371.81C700.55 370.42 709.94 377.54 711.35 387.72ZM694.79 403.61C701.93 402.63 707.12 395.75 706.11 388.44C705.12 381.28 698.26 376.08 691.13 377.06C683.84 378.06 678.8 384.91 679.79 392.07C680.8 399.38 687.5 404.61 694.79 403.61Z" />
		<path id="Path 56" fill-rule="evenodd" class="shp3" d="M691.24 378.44C697.81 377.54 703.87 382.13 704.78 388.7C705.69 395.27 701.09 401.34 694.52 402.24C687.95 403.15 681.89 398.56 680.98 391.99C680.08 385.41 684.67 379.35 691.24 378.44ZM691.88 383.05C687.85 383.61 685.04 387.33 685.59 391.35C686.15 395.37 689.87 398.19 693.89 397.64C697.91 397.08 700.73 393.36 700.17 389.34C699.61 385.31 695.9 382.5 691.88 383.05ZM465.49 193.73C464.68 191.41 464.29 189 464.3 186.61L454.44 184.35L456.61 174.87L466.47 177.13C467.51 174.98 468.9 172.98 470.65 171.24L465.28 162.68L473.52 157.51L478.89 166.08C481.21 165.27 483.62 164.88 486.01 164.88L488.27 155.02L497.75 157.19L495.49 167.05C497.64 168.09 499.64 169.49 501.38 171.23L509.94 165.86L515.1 174.1L506.54 179.47C507.35 181.8 507.74 184.2 507.74 186.59L517.6 188.85L515.42 198.33L505.57 196.07C504.53 198.23 503.13 200.22 501.39 201.96L506.76 210.52L498.52 215.69L493.15 207.13C490.82 207.94 488.42 208.32 486.03 208.33L483.77 218.18L474.29 216.01L476.55 206.15C474.39 205.11 472.4 203.71 470.66 201.97L462.1 207.34L456.93 199.1L465.49 193.73ZM475.86 190.07C478.55 197.62 487.94 199.77 493.65 194.15C496.52 191.32 497.53 186.93 496.18 183.13C493.49 175.58 484.09 173.43 478.39 179.05C475.51 181.89 474.51 186.27 475.86 190.07Z" />
		<path id="Path 57" fill-rule="evenodd" class="shp3" d="M620.44 374.47C620.01 373.22 619.8 371.92 619.8 370.64L614.49 369.42L615.66 364.32L620.97 365.53C621.53 364.37 622.28 363.3 623.22 362.36L620.33 357.75L624.76 354.97L627.65 359.58C628.91 359.15 630.2 358.94 631.49 358.94L632.7 353.63L637.81 354.8L636.59 360.1C637.75 360.66 638.82 361.42 639.76 362.36L644.37 359.46L647.15 363.9L642.54 366.79C642.98 368.04 643.19 369.34 643.19 370.63L648.49 371.84L647.32 376.94L642.02 375.73C641.46 376.89 640.7 377.96 639.77 378.9L642.66 383.51L638.22 386.29L635.33 381.68C634.08 382.11 632.78 382.33 631.5 382.33L630.28 387.63L625.18 386.46L626.39 381.16C625.24 380.59 624.16 379.84 623.22 378.9L618.62 381.8L615.84 377.36L620.44 374.47ZM626.03 372.5C627.47 376.56 632.53 377.72 635.6 374.69C637.15 373.17 637.69 370.81 636.96 368.76C635.51 364.7 630.45 363.54 627.39 366.57C625.84 368.09 625.3 370.45 626.03 372.5ZM341.72 270.8C341.72 270.8 337.81 269.64 340.01 266.12C340.24 265.76 340.5 265.35 340.79 264.89L332.51 259.69C331.71 259.18 331.47 258.11 331.97 257.32L339.14 245.94C339.65 245.14 340.71 244.89 341.51 245.39L349.79 250.6C350.22 249.92 350.57 249.36 350.82 248.96C352.53 246.24 354.77 248.86 354.77 248.86L362.35 254.8C367.2 253.8 372.66 254.68 377.45 257.69C380.96 259.91 383.6 262.94 385.22 266.3C387.79 270.68 390.13 278.13 400.98 287.43C401.89 286.89 403.04 286.86 403.99 287.46C405.36 288.32 405.76 290.11 404.9 291.46C404.45 292.18 403.73 292.63 402.96 292.76L375.88 275.71C376.48 273.73 375.74 271.53 373.92 270.38C371.73 269 368.84 269.66 367.46 271.84C366.08 274.02 366.74 276.93 368.93 278.31C370.69 279.42 372.9 279.18 374.43 277.91L401.6 295.03C401.78 295.77 401.68 296.58 401.24 297.27C400.39 298.64 398.59 299.04 397.24 298.18C396.29 297.58 395.81 296.52 395.9 295.48C384.04 290.24 376.56 290.67 371.51 290.49C367.31 290.79 362.85 289.75 358.85 287.23C354.01 284.18 350.86 279.59 349.69 274.74L341.72 270.8Z" />
		<path id="Path 58" fill-rule="evenodd" class="shp3" d="M666.23 244.75C660.74 250.64 650.97 252.85 638.8 249.05C610.33 240.15 601.46 217.54 602.3 204.54C602.98 193.91 610.22 189.12 617.57 197.91C621.18 202.22 624.88 203.66 627.01 201.27C629.14 198.88 627.07 196.51 624.12 192.37C618.5 184.47 629.5 185.54 638.29 189.2C645.49 192.19 652.2 196.94 657.57 202.48C663.26 208.36 667.75 215.06 669.97 223.19C672.19 231.33 671.01 239.62 666.23 244.75ZM657.89 225.96C660.93 227.07 662.9 225.8 662.39 223.37C661.87 220.93 659.24 218.26 656.42 217.18C653.6 216.11 651.49 217.01 651.78 219.41C652.08 221.81 654.85 224.85 657.89 225.96ZM637.24 195.16C634.2 193.93 631.59 194.3 631.49 196.17C631.38 198.05 634 200.76 637.27 202.05C640.55 203.33 643.04 202.66 642.91 200.73C642.8 198.81 640.29 196.4 637.24 195.16ZM625.4 227.02C625.07 230.11 628.63 234.19 633.23 235.71C637.82 237.24 641.37 235.61 641.3 232.47C641.22 229.33 637.86 225.85 633.67 224.38C629.48 222.9 625.73 223.93 625.4 227.02ZM645.59 230.05C645.75 232.83 648.83 236.29 652.35 237.49C655.87 238.69 658.29 237.15 657.85 234.34C657.42 231.54 654.52 228.52 651.26 227.35C648 226.19 645.42 227.27 645.59 230.05ZM614.06 210.63C613.49 213.14 616.36 216.55 620.39 217.98C624.43 219.41 627.81 218.27 628.04 215.7C628.26 213.14 625.51 210.17 621.81 208.79C618.1 207.41 614.62 208.12 614.06 210.63ZM714.52 204.36C713.63 206.2 685.62 251.61 678.54 263.09C677.18 260.68 674.58 258.98 671.89 258.45C671.68 258.4 671.47 258.36 671.26 258.34C678.96 247.33 709.59 203.55 710.92 202C713.47 199.05 716.22 200.87 714.52 204.36ZM677.45 268.59C673.99 277.37 661.86 279.02 653.59 278.71C661.4 274.89 659.72 269.68 662.8 264.46C668.24 255.22 680.06 261.96 677.45 268.59Z" />
		<path id="Path 59" class="shp12" d="M606.89 547.32L436.55 547.32L436.55 544.22L606.89 544.22L606.89 547.32ZM693.04 519.55L351.14 519.55L351.14 512.46L693.04 512.46L693.04 519.55ZM606.89 556.95L436.04 556.95L436.04 553.86L606.89 553.86L606.89 556.95ZM606.89 537.69L436.04 537.69L436.04 534.59L606.89 534.59L606.89 537.69ZM606.89 566.59L436.04 566.59L436.04 563.49L606.89 563.49L606.89 566.59ZM606.89 576.21L436.04 576.21L436.04 573.12L606.89 573.12L606.89 576.21ZM606.89 585.85L436.04 585.85L436.04 582.75L606.89 582.75L606.89 585.85ZM606.89 595.48L436.04 595.48L436.04 592.38L606.89 592.38L606.89 595.48ZM606.89 605.11L436.04 605.11L436.04 602.01L606.89 602.01L606.89 605.11ZM528.39 614.74L436.04 614.74L436.04 611.64L528.39 611.64L528.39 614.74Z" />
		<path id="Path 60" class="shp4" d="M680.8 476.78C680.8 479.55 678.56 481.8 675.79 481.8C673.02 481.8 670.77 479.55 670.77 476.78C670.77 474.02 673.02 471.77 675.79 471.77C678.56 471.77 680.8 474.02 680.8 476.78ZM701.23 476.78C701.23 479.55 698.99 481.8 696.22 481.8C693.45 481.8 691.21 479.55 691.21 476.78C691.21 474.02 693.45 471.77 696.22 471.77C698.99 471.77 701.23 474.02 701.23 476.78ZM721.66 476.78C721.66 479.55 719.42 481.8 716.65 481.8C713.88 481.8 711.64 479.55 711.64 476.78C711.64 474.02 713.88 471.77 716.65 471.77C719.42 471.77 721.66 474.02 721.66 476.78Z" />
		<path id="Path 61" class="shp12" d="M422.05 664.92L357.87 664.92C354.24 664.92 351.29 661.97 351.29 658.33L351.29 541.07C351.29 537.43 354.24 534.49 357.87 534.49L422.05 534.49C425.69 534.49 428.64 537.43 428.64 541.07L428.64 658.33C428.64 661.97 425.69 664.92 422.05 664.92ZM685.68 664.92L621.5 664.92C617.86 664.92 614.91 661.97 614.91 658.33L614.91 541.07C614.91 537.43 617.86 534.49 621.5 534.49L685.68 534.49C689.31 534.49 692.26 537.43 692.26 541.07L692.26 658.33C692.26 661.97 689.31 664.92 685.68 664.92Z" />
		<path id="Path 62" class="shp1" d="M595.95 336.29C595.95 293.1 560.64 258.16 517.32 258.76C475.41 259.35 441.27 293.66 440.9 335.57C440.74 353.52 446.67 370.07 456.76 383.28C473.81 405.61 483.19 432.84 484.37 460.91L552.47 460.91L552.47 460.9C553.65 432.75 563.21 405.53 580.23 383.08C590.1 370.08 595.95 353.86 595.95 336.29Z" />
		<path id="Path 63" fill-rule="evenodd" class="shp2" d="M501.06 438.15L500.97 436.12C500.95 435.54 498.11 377.71 476.39 355.3L469.13 347.81L478.72 351.93C478.92 352.02 499.66 360.75 518.19 354.67L518.84 354.45L519.49 354.67C538.06 360.76 558.76 352.02 558.96 351.93L568.58 347.79L561.29 355.3C539.55 377.72 536.74 435.54 536.71 436.12L532.53 436.03C532.53 437.22 533.47 437.93 534.12 438.03C532.38 437.76 514.16 437.94 503.09 438.12L501.06 438.15ZM484.18 358.2C500.78 381.62 504.4 424 505.04 433.9C521.65 433.65 529.14 433.62 532.65 433.79C533.3 423.69 536.96 381.53 553.5 358.2C545.5 360.46 531.92 362.92 518.84 358.85C505.76 362.92 492.18 360.46 484.18 358.2Z" />
		<path id="Path 64" class="shp3" d="M548.16 496.45C548.16 509.62 534.85 520.29 518.42 520.29C502 520.29 488.68 509.62 488.68 496.45C488.68 483.29 502 472.62 518.42 472.62C534.85 472.62 548.16 483.29 548.16 496.45Z" />
		<path id="Path 65" class="shp8" d="M545.76 503.98L491.08 503.98C487.65 503.98 484.81 501.31 484.6 497.88L480.78 433.72L556.06 433.72L552.24 497.88C552.04 501.31 549.2 503.98 545.76 503.98Z" />
		<path id="Path 66" class="shp3" d="M480.54 456.17C478.12 456.17 475.99 454.41 475.59 451.95C475.15 449.21 477.01 446.64 479.75 446.2L555.51 434.06C558.24 433.63 560.82 435.49 561.25 438.22C561.69 440.96 559.83 443.53 557.09 443.97L481.34 456.11C481.07 456.15 480.8 456.17 480.54 456.17ZM480.54 472.79C478.12 472.79 475.99 471.03 475.59 468.56C475.15 465.83 477.01 463.25 479.75 462.81L555.51 450.68C558.24 450.25 560.82 452.1 561.25 454.84C561.69 457.58 559.83 460.15 557.09 460.59L481.34 472.73C481.07 472.77 480.8 472.79 480.54 472.79ZM482.07 489.16C479.64 489.16 477.51 487.4 477.12 484.94C476.68 482.2 478.54 479.63 481.28 479.19L553.98 467.54C556.72 467.1 559.29 468.97 559.73 471.7C560.16 474.44 558.3 477.01 555.56 477.45L482.87 489.1C482.6 489.14 482.33 489.16 482.07 489.16ZM486.18 504.44C483.76 504.44 481.62 502.68 481.23 500.21C480.79 497.48 482.65 494.9 485.39 494.46L551.25 483.91C553.99 483.48 556.56 485.34 557 488.07C557.44 490.81 555.58 493.39 552.84 493.83L486.98 504.38C486.71 504.42 486.44 504.44 486.18 504.44Z" />
		<path id="Path 67" class="shp1" d="M518.42 250.45C517.05 250.45 515.94 249.34 515.94 247.97L515.94 202.26C515.94 200.89 517.05 199.78 518.42 199.78C519.79 199.78 520.9 200.89 520.9 202.26L520.9 247.97C520.9 249.34 519.79 250.45 518.42 250.45ZM473.32 262.53C472.46 262.53 471.63 262.09 471.17 261.29L448.31 221.71C447.63 220.52 448.04 219.01 449.22 218.32C450.41 217.64 451.92 218.04 452.6 219.23L475.46 258.82C476.14 260 475.74 261.52 474.55 262.2C474.16 262.43 473.74 262.53 473.32 262.53ZM440.29 295.55C439.87 295.55 439.45 295.45 439.05 295.22L399.47 272.37C398.28 271.68 397.88 270.17 398.56 268.98C399.25 267.8 400.76 267.39 401.95 268.08L441.53 290.93C442.72 291.61 443.12 293.13 442.44 294.31C441.98 295.11 441.15 295.55 440.29 295.55ZM428.21 340.66L382.5 340.66C381.13 340.66 380.02 339.55 380.02 338.18C380.02 336.81 381.13 335.71 382.5 335.71L428.21 335.71C429.57 335.71 430.69 336.81 430.69 338.18C430.69 339.55 429.57 340.66 428.21 340.66ZM400.71 408.62C399.85 408.62 399.02 408.18 398.56 407.39C397.88 406.2 398.28 404.68 399.47 404L439.05 381.14C440.24 380.46 441.75 380.87 442.44 382.05C443.12 383.24 442.72 384.75 441.53 385.44L401.95 408.29C401.56 408.52 401.13 408.62 400.71 408.62ZM636.14 408.62C635.71 408.62 635.29 408.52 634.9 408.29L595.31 385.44C594.13 384.75 593.72 383.24 594.4 382.05C595.09 380.86 596.6 380.46 597.79 381.14L637.38 404C638.56 404.68 638.97 406.2 638.28 407.39C637.82 408.18 636.99 408.62 636.14 408.62ZM654.35 340.66L608.64 340.66C607.27 340.66 606.16 339.55 606.16 338.18C606.16 336.81 607.27 335.71 608.64 335.71L654.35 335.71C655.72 335.71 656.83 336.81 656.83 338.18C656.83 339.55 655.72 340.66 654.35 340.66ZM596.55 295.55C595.7 295.55 594.86 295.11 594.4 294.31C593.72 293.13 594.13 291.61 595.31 290.93L634.9 268.08C636.08 267.39 637.6 267.8 638.28 268.98C638.97 270.17 638.56 271.68 637.38 272.37L597.79 295.22C597.4 295.45 596.98 295.55 596.55 295.55ZM563.53 262.53C563.11 262.53 562.68 262.43 562.29 262.2C561.1 261.52 560.7 260 561.38 258.82L584.24 219.23C584.92 218.04 586.44 217.64 587.62 218.32C588.81 219.01 589.21 220.52 588.53 221.71L565.67 261.29C565.22 262.09 564.38 262.53 563.53 262.53Z" />
	</g>
</svg>