<svg xmlns="http://www.w3.org/2000/svg" viewBox="0 0 1000 1000" width="1000" height="1000">
	<defs>
		<clipPath clipPathUnits="userSpaceOnUse" id="cp1">
			<path d="M0 0L1000 0L1000 1000L0 1000Z" />
		</clipPath>
	</defs>
	<style>
		tspan { white-space:pre }
		.shp0 { fill: #1b75bb } 
		.shp1 { fill: #3793d1 } 
		.shp2 { fill: #53b1e5 } 
		.shp3 { fill: #6ac7ef } 
		.shp4 { fill: #ffffff } 
		.shp5 { fill: #0d2435 } 
		.shp6 { fill: #2c5777 } 
		.shp7 { fill: #1d3a55 } 
		.shp8 { fill: #ffd2b8 } 
		.shp9 { fill: #f7b99a } 
		.shp10 { fill: #fb9000 } 
		.shp11 { fill: #fbb900 } 
		.shp12 { fill: #fbb000 } 
		.shp13 { fill: #bedfea } 
		.shp14 { fill: #a4cdd8 } 
		.shp15 { fill: #f9a78a } 
		.shp16 { fill: #dcf1f7 } 
		.shp17 { fill: #fdc3aa } 
		.shp18 { fill: #d6274c } 
		.shp19 { fill: #eb4e69 } 
		.shp20 { fill: #f7728f } 
		.shp21 { fill: #27aae1 } 
		.shp22 { fill: #23bbb8 } 
		.shp23 { fill: #eb008b } 
		.shp24 { fill: #ffd200 } 
	</style>
	<g id="Page 1" clip-path="url(#cp1)">
		<path id="Path 1" class="shp0" d="M0 737.2L1000 737.2L1000 0L0 0L0 737.2Z" />
		<path id="Path 2" class="shp1" d="M857.85 544.33C857.85 736.89 701.74 892.99 509.18 892.99C316.62 892.99 160.51 736.89 160.51 544.33C160.51 351.76 316.62 195.66 509.18 195.66C701.74 195.66 857.85 351.76 857.85 544.33Z" />
		<path id="Path 3" class="shp2" d="M793.54 544.33C793.54 701.37 666.23 828.69 509.18 828.69C352.13 828.69 224.82 701.37 224.82 544.33C224.82 387.28 352.13 259.97 509.18 259.97C666.23 259.97 793.54 387.28 793.54 544.33Z" />
		<path id="Path 4" class="shp3" d="M730.58 544.33C730.58 666.61 631.46 765.73 509.18 765.73C386.9 765.73 287.77 666.61 287.77 544.33C287.77 422.05 386.9 322.92 509.18 322.92C631.46 322.92 730.58 422.05 730.58 544.33Z" />
		<path id="Path 5" class="shp4" d="M951.4 587.34C924.8 587.34 902.53 605.71 896.48 630.44C893.02 628.93 889.22 628.08 885.21 628.08C870.91 628.08 859.13 638.76 857.34 652.57C855.06 651.97 852.68 651.62 850.21 651.62C834.68 651.62 822.08 664.21 822.08 679.74C822.08 679.86 822.1 679.97 822.1 680.08C820.94 679.87 819.76 679.74 818.54 679.74C809.55 679.74 801.95 685.67 799.43 693.83C794.62 689.98 788.52 687.66 781.87 687.66C776.64 687.66 771.77 689.11 767.57 691.6C765.55 678.06 753.9 667.66 739.79 667.66C734.03 667.66 728.67 669.4 724.21 672.38C724.58 670.86 724.79 669.29 724.79 667.66C724.79 656.62 715.84 647.66 704.79 647.66C700.76 647.66 697.02 648.86 693.88 650.91C693.81 650.8 693.77 650.73 693.77 650.73C683.59 635.76 666.41 625.92 646.94 625.92C617.91 625.92 594 647.77 590.73 675.92C585.04 670.56 577.39 667.24 568.95 667.24C561.62 667.24 554.89 669.75 549.52 673.91C542.87 665.05 532.32 659.29 520.4 659.29C516.88 659.29 513.48 659.82 510.26 660.75C509.27 641.53 493.42 626.23 473.95 626.23C464.02 626.23 455.03 630.21 448.47 636.66C447.96 627.7 440.56 620.58 431.47 620.58C429.73 620.58 428.06 620.85 426.48 621.33C426.48 621.08 426.5 620.83 426.5 620.58C426.5 589.32 401.15 563.98 369.89 563.98C342.11 563.98 319.02 584.01 314.22 610.41C312.07 609.43 309.69 608.88 307.18 608.88C297.76 608.88 290.13 616.51 290.13 625.92C290.13 626.4 290.17 626.87 290.21 627.34C286.36 623.19 280.89 620.58 274.8 620.58C270.99 620.58 267.43 621.61 264.35 623.38C260.25 602.67 241.99 587.05 220.07 587.05C200.12 587.05 183.21 600.01 177.25 617.96C173.4 613.79 167.92 611.17 161.8 611.17C153.65 611.17 146.6 615.81 143.11 622.58C138.92 619.88 133.94 618.29 128.58 618.29C114.45 618.29 102.89 629.2 101.8 643.05C99.33 641.17 96.25 640.04 92.91 640.04C88.63 640.04 84.79 641.88 82.09 644.78C79.52 637.46 72.55 632.2 64.34 632.2C60.88 632.2 57.65 633.14 54.87 634.77C54.24 622.85 44.41 613.36 32.33 613.36C27.7 613.36 23.4 614.76 19.81 617.15C16.93 608.98 9.16 603.12 0 603.12L0 910.42L1000 910.42L1000 614.93C990.12 598.41 972.05 587.34 951.4 587.34Z" />
		<path id="Path 6" class="shp0" d="M48.6 705.89C75.2 705.89 97.46 724.26 103.52 748.99C106.98 747.48 110.78 746.63 114.79 746.63C129.09 746.63 140.87 757.31 142.66 771.12C144.94 770.52 147.32 770.17 149.79 770.17C165.33 770.17 177.92 782.76 177.92 798.29C177.92 798.41 177.9 798.52 177.9 798.63C179.06 798.42 180.24 798.29 181.46 798.29C190.45 798.29 198.05 804.22 200.57 812.38C205.38 808.53 211.48 806.21 218.13 806.21C223.36 806.21 228.23 807.66 232.43 810.15C234.46 796.61 246.1 786.21 260.21 786.21C265.97 786.21 271.33 787.95 275.79 790.93C275.42 789.41 275.21 787.84 275.21 786.21C275.21 775.17 284.16 766.21 295.21 766.21C299.24 766.21 302.98 767.41 306.12 769.46C306.19 769.35 306.23 769.28 306.23 769.28C316.41 754.31 333.59 744.47 353.06 744.47C382.09 744.47 406 766.32 409.27 794.47C414.96 789.11 422.61 785.8 431.05 785.8C438.38 785.8 445.11 788.3 450.48 792.46C457.12 783.6 467.68 777.85 479.6 777.85C483.12 777.85 486.52 778.37 489.74 779.3C490.73 760.08 506.58 744.78 526.05 744.78C535.98 744.78 544.97 748.77 551.54 755.21C552.04 746.25 559.44 739.13 568.53 739.13C570.27 739.13 571.94 739.4 573.52 739.88C573.52 739.63 573.5 739.38 573.5 739.13C573.5 707.87 598.85 682.53 630.11 682.53C657.89 682.53 680.98 702.56 685.78 728.96C687.93 727.98 690.31 727.43 692.82 727.43C702.23 727.43 709.87 735.06 709.87 744.47C709.87 744.95 709.83 745.42 709.79 745.89C713.64 741.74 719.11 739.13 725.2 739.13C729.01 739.13 732.57 740.16 735.65 741.93C739.75 721.22 758.01 705.6 779.93 705.6C799.89 705.6 816.79 718.56 822.75 736.51C826.59 732.34 832.08 729.72 838.2 729.72C846.34 729.72 853.4 734.36 856.89 741.13C861.08 738.43 866.06 736.84 871.42 736.84C885.55 736.84 897.11 747.75 898.2 761.6C900.67 759.72 903.75 758.59 907.09 758.59C911.37 758.59 915.21 760.43 917.91 763.33C920.48 756.01 927.45 750.75 935.66 750.75C939.12 750.75 942.35 751.69 945.13 753.32C945.75 741.4 955.59 731.91 967.67 731.91C972.3 731.91 976.6 733.31 980.19 735.7C983.07 727.53 990.84 721.67 1000 721.67L1000 1000L0 1000L0 733.48C9.89 716.96 27.95 705.89 48.6 705.89Z" />
		<path id="Path 7" class="shp5" d="M570.08 748.49L575.66 766.29L567.13 796.2C565.57 801.71 568.67 807.47 574.13 809.19C578.38 810.52 583.02 809.05 585.72 805.51L613.98 768.39L606.46 743.57L570.08 748.49Z" />
		<path id="Path 8" class="shp6" d="M552.63 511.95L459.51 470.44C459.51 470.44 370.38 527.95 363.32 541.12C356.26 554.29 386.36 690.02 386.36 690.02L420.41 691.26C420.41 691.26 421.49 587.93 422.93 572.34C424.37 556.75 552.63 511.95 552.63 511.95Z" />
		<path id="Path 9" class="shp7" d="M500.83 517.21L458.57 543.23L420.31 556.38L395.28 557.63L416.92 563.63L406.82 571.1L417.56 571.39L413.65 649.68L416.03 666.04C416.03 666.04 411.56 683.28 386.36 690.02L420.41 691.26C420.41 691.26 421.49 587.93 422.93 572.34C423.9 561.86 482.24 538.16 520.34 523.76L500.83 517.21Z" />
		<path id="Path 10" class="shp6" d="M499.13 486.14C499.13 486.14 505.36 610.19 510.66 630.59C518.37 660.28 570.08 748.49 570.08 748.49L606.45 743.57C606.45 743.57 572.8 645.73 571.2 621.03C568.21 575.16 595.58 543.59 595.3 493.5C595.02 443.42 499.13 486.14 499.13 486.14Z" />
		<path id="Path 11" class="shp7" d="M606.46 743.57C606.46 743.57 572.81 645.73 571.2 621.03C568.43 578.39 591.87 548.09 594.96 503.79C581.44 500.89 570.92 498.57 570.92 498.57L529.14 508.82C529.14 508.82 568.07 512.06 574.95 524.9C581.82 537.74 562.92 600.58 562.92 600.58L552.4 625.83L563.74 616.95L561.22 642.16L569.82 632.72C569.82 632.72 579.37 692.09 588.94 710.56C598.51 729.03 570.08 748.49 570.08 748.49L606.46 743.57ZM640.5 286.5C640.5 286.5 624.82 294.96 627.7 305.31C627.7 305.31 622.93 303.01 623.83 297.69C623.83 297.69 618.65 300.21 618.51 304.63C618.51 304.63 607.21 296.19 614.14 284.55C621.07 272.92 639.16 270.18 640.5 286.5Z" />
		<path id="Path 12" class="shp8" d="M427 239.32C427 239.32 427.68 243.15 429.42 247.8L450.3 240.03C449.54 237.27 448.52 232.66 448.71 228.3C448.98 227.86 449.2 227.41 449.4 226.96L449.4 226.96C460.68 215.06 450.85 208.84 448.81 204.13C447.36 200.78 441.62 204.68 439.85 204.61C439.67 203.98 442.04 198.82 441.87 198.16C441.62 197.16 440.77 196.38 439.74 196.28C436.46 195.96 434.78 200.04 434.78 200.04C430.12 194.39 426.29 201.02 426.29 201.02C422 197.91 418.1 202.75 418.1 202.75C415.21 199.95 411.1 204.04 411.1 204.04C411.1 204.04 406.42 210.71 409.16 219.41C411.91 228.11 427 239.32 427 239.32Z" />
		<path id="Path 13" class="shp9" d="M448.71 228.46C448.71 228.41 448.71 228.35 448.71 228.3C448.68 228.36 448.68 228.41 448.71 228.46ZM448.71 228.3C448.98 227.86 449.2 227.41 449.4 226.96L449.4 226.96C459.88 215.91 452.14 209.75 449.35 205.16C448.19 204.84 447 204.67 445.85 204.72C441.16 204.93 427.14 206.53 426.23 206.82C425.32 207.11 421.27 207.58 420.25 208.59C419.23 209.6 416.26 214.99 416.26 214.99C416.26 214.99 414.74 217.8 414.01 218.03C413.29 218.25 413.13 221.81 413.13 221.81L417.73 226.19L417.94 225.77C417.94 225.77 419.25 225.03 418.71 222.35C418.71 222.35 422.91 225.27 426.05 223.83C429.18 222.38 428.59 217.99 428.59 217.99C428.59 217.99 432.64 221.29 435.49 220.16C438.33 219.03 437.83 215.03 437.83 215.03C437.83 215.03 443.08 217.2 448.15 215.75C453.22 214.31 449.28 227.28 448.71 228.3ZM427 239.32C427 239.32 427.68 243.15 429.42 247.8L433.65 246.23C433.38 245.69 433.2 245.25 433.13 244.96L435.16 241.02L441.02 237.24L432.96 238.51L424.25 232.85L419.17 226.21L417.03 223.97L409.16 219.41C411.91 228.11 427 239.32 427 239.32Z" />
		<path id="Path 14" class="shp6" d="M384.49 199.97L356.17 218.69L393.2 274.73L421.53 256.02L384.49 199.97Z" />
		<path id="Path 15" class="shp7" d="M416.5 248.41L392.83 264.05L360.82 215.62L356.17 218.69L393.2 274.74L421.53 256.02L416.5 248.41Z" />
		<path id="Path 16" class="shp10" d="M347.15 216.53L352.43 213.04L396.94 280.39L391.66 283.87L347.15 216.53Z" />
		<path id="Path 17" class="shp11" d="M468.27 192.03C469.18 192.03 467.39 185.44 467.39 185.44C467.39 185.44 462.03 181.21 461.68 182.05C458.78 186.97 417.42 221.03 392.29 211.78L403.01 227.99L413.72 244.21C415.06 217.47 462.61 192.76 468.27 192.03Z" />
		<path id="Path 18" class="shp10" d="M468.27 192.03C469.18 192.03 467.39 185.44 467.39 185.44C467.39 185.44 466.32 184.6 465.11 183.74C465.5 185.54 465.82 187.56 465.32 187.56C459.66 188.29 412.11 213 410.77 239.74L413.72 244.21C415.06 217.47 462.61 192.76 468.27 192.03Z" />
		<path id="Path 19" class="shp11" d="M464.99 201.03C459.61 204.59 452.36 203.11 448.8 197.73C445.24 192.35 446.72 185.1 452.11 181.54C457.49 177.98 464.74 179.46 468.3 184.84C471.85 190.23 470.37 197.48 464.99 201.03Z" />
		<path id="Path 20" class="shp12" d="M394.28 260.83L369.38 223.15L383.41 213.88L408.31 251.56L394.28 260.83Z" />
		<path id="Path 21" class="shp10" d="M405.79 247.74L394.93 254.92L372.55 221.06L369.38 223.15L394.28 260.83L408.31 251.56L405.79 247.74Z" />
		<path id="Path 22" class="shp12" d="M514.63 110.07L466.42 141.93C449.44 153.15 444.78 176 455.99 192.97C467.21 209.95 490.07 214.61 507.04 203.4L555.25 171.53L514.63 110.07Z" />
		<path id="Path 23" class="shp10" d="M549.52 162.87L508.86 189.75C491.89 200.96 469.03 196.3 457.82 179.33C454.08 173.68 452.12 167.38 451.77 161.07C448.35 171.42 449.52 183.18 456 192.98C467.21 209.95 490.07 214.61 507.04 203.4L555.25 171.53L549.52 162.87ZM554.39 203.94C557.4 199.71 558.47 195.27 557.56 190.75C555.75 181.75 546.52 175.89 546.13 175.65C545.41 175.2 544.56 175.05 543.73 175.24C542.89 175.43 542.18 175.94 541.73 176.68C540.8 178.17 541.26 180.14 542.75 181.08C544.77 182.33 550.24 186.74 551.29 192C551.85 194.77 551.16 197.47 549.19 200.24C545.36 205.62 538 203.64 528.02 200.24C520.8 197.79 513.98 195.47 509.58 199.14C507.52 200.86 506.34 203.05 506.16 205.47C505.95 208.39 507.23 210.93 508.22 212.43C508.73 213.2 509.16 213.69 509.28 213.82C509.52 214.09 509.8 214.32 510.12 214.49C511.3 215.14 512.77 214.97 513.77 214.07C515.08 212.91 515.21 210.88 514.04 209.57C513.62 209.08 512.42 207.37 512.53 205.92C512.57 205.46 512.73 204.83 513.67 204.05C515.32 202.67 521.48 204.77 525.98 206.3C535.57 209.56 547.51 213.62 554.39 203.94ZM484.47 98.15C489.54 97.04 494.05 97.8 497.85 100.41C505.42 105.6 507.19 116.39 507.26 116.84C507.4 117.68 507.2 118.52 506.7 119.21C506.19 119.91 505.44 120.36 504.59 120.49C502.85 120.76 501.22 119.57 500.95 117.82C500.58 115.48 498.67 108.72 494.24 105.68C491.91 104.09 489.17 103.66 485.84 104.39C479.39 105.81 478.33 113.35 477.54 123.86C476.97 131.46 476.43 138.65 471.33 141.26C468.94 142.48 466.46 142.71 464.16 141.92C461.4 140.98 459.56 138.8 458.57 137.3C458.06 136.53 457.77 135.94 457.7 135.78C457.55 135.45 457.45 135.1 457.41 134.74C457.29 133.41 458.02 132.13 459.23 131.55C460.82 130.8 462.73 131.48 463.48 133.07C463.76 133.65 464.87 135.42 466.25 135.88C466.69 136.03 467.33 136.13 468.41 135.57C470.33 134.59 470.81 128.11 471.17 123.37C471.93 113.27 472.88 100.69 484.47 98.15ZM423.27 223.35C420.47 221.99 417.62 222.08 416.04 224.69C412.17 231.11 404.6 225.18 401.91 219.14C399.92 214.67 403.09 213.52 404.88 213.23C400.43 213.6 396.17 213.21 392.29 211.78L403.01 228L413.72 244.21C414.09 236.96 417.86 229.86 423.27 223.35ZM405.98 213.12L405.98 213.11C405.92 213.11 405.86 213.12 405.8 213.13C405.9 213.12 405.98 213.12 405.98 213.12Z" />
		<path id="Path 24" class="shp8" d="M435.32 210.35C435.32 210.35 437.51 214.73 441.78 213.3C446.06 211.87 442.94 197.18 439.37 192.13C435.8 187.09 428.37 190.11 428.09 195.14C427.81 200.18 435.32 210.35 435.32 210.35Z" />
		<path id="Path 25" class="shp9" d="M437.5 208.36C437.5 208.36 429.98 198.19 430.26 193.16C430.32 192.15 430.67 191.22 431.21 190.42C429.48 191.4 428.2 193.11 428.09 195.14C427.8 200.18 435.32 210.35 435.32 210.35C435.32 210.35 437.51 214.73 441.78 213.3C442.52 213.05 443.04 212.4 443.37 211.48C439.49 212.33 437.5 208.36 437.5 208.36Z" />
		<path id="Path 26" class="shp8" d="M416.79 224.21C416.79 224.21 415.28 226.43 412.49 225.11C409.69 223.78 402.01 210.65 403.63 206.17C405.25 201.69 409.77 201.98 409.77 201.98C409.77 201.98 412.27 197.65 418.07 198.64C418.07 198.64 421.03 193.34 426.74 194.57C432.44 195.8 436.11 211.42 435.69 214.09C435.3 216.53 432.79 218.87 429.85 216.71C426.91 214.55 425.87 211.72 425.87 211.72C425.87 211.72 427.97 219.4 425.87 221C424.1 222.34 419.41 222.5 416.44 216.57C416.44 216.57 419.3 222.07 416.79 224.21ZM452.31 211.6C453.66 206.72 450.68 201.73 445.77 200.53C441 199.37 435.16 198.46 433.03 200.26C428.91 203.74 438.8 213.28 446.72 215.43C449.98 216.31 451.57 214.29 452.31 211.6Z" />
		<path id="Path 27" class="shp9" d="M452.31 211.6C452.52 210.84 452.62 210.08 452.63 209.32C451.82 211.74 450.23 213.44 447.2 212.62C441.08 210.96 433.78 204.88 432.69 200.6C429.52 204.32 439.05 213.35 446.72 215.43C449.98 216.31 451.57 214.29 452.31 211.6ZM424.21 204.42C420.58 198.37 420.79 196.15 421.47 195.33C421.34 195.4 421.21 195.48 421.09 195.56C421.06 195.57 421.03 195.59 421 195.61C420.91 195.67 420.82 195.74 420.73 195.8C420.7 195.82 420.67 195.84 420.64 195.86C420.54 195.93 420.45 196 420.37 196.07C420.35 196.08 420.33 196.1 420.31 196.11C420.09 196.29 419.89 196.46 419.71 196.64C419.69 196.65 419.67 196.67 419.65 196.69C419.58 196.76 419.51 196.83 419.44 196.9C419.42 196.92 419.4 196.94 419.38 196.96C419.31 197.03 419.25 197.1 419.18 197.17C419.17 197.18 419.16 197.2 419.14 197.21C418.99 197.38 418.86 197.54 418.74 197.69C418.73 197.7 418.72 197.72 418.7 197.73C418.66 197.79 418.62 197.84 418.58 197.9C418.56 197.92 418.55 197.93 418.54 197.95C418.5 198 418.46 198.05 418.43 198.1C418.42 198.11 418.41 198.13 418.4 198.14C418.32 198.25 418.25 198.35 418.2 198.43C418.19 198.45 418.19 198.46 418.18 198.47C418.16 198.5 418.15 198.52 418.14 198.54C418.13 198.55 418.12 198.56 418.12 198.57C418.11 198.58 418.1 198.59 418.1 198.6C418.08 198.63 418.07 198.64 418.07 198.64C421.24 202.4 425.87 211.72 425.87 211.72L425.87 211.72L425.87 211.72L425.87 211.72L425.94 211.88C426.21 212.51 427.33 214.85 429.85 216.71C430.03 216.84 430.2 216.94 430.37 217.04C430.43 217.07 430.48 217.1 430.54 217.13C430.65 217.18 430.76 217.24 430.87 217.29C430.94 217.31 431 217.33 431.07 217.36C431.17 217.39 431.27 217.42 431.37 217.45C431.43 217.47 431.5 217.48 431.56 217.49C431.66 217.51 431.75 217.53 431.85 217.54C431.91 217.54 431.97 217.55 432.03 217.55C432.13 217.56 432.22 217.55 432.31 217.55C432.37 217.55 432.43 217.55 432.49 217.54C432.58 217.53 432.68 217.51 432.78 217.49C432.82 217.48 432.87 217.47 432.92 217.46C433.05 217.43 433.19 217.38 433.32 217.33C433.34 217.32 433.36 217.31 433.38 217.3C433.49 217.25 433.6 217.2 433.7 217.14C433.75 217.11 433.79 217.08 433.84 217.05C433.91 217 433.99 216.95 434.06 216.9C434.11 216.86 434.15 216.82 434.2 216.78C434.26 216.73 434.33 216.67 434.38 216.61C434.43 216.57 434.48 216.52 434.52 216.48C434.58 216.42 434.63 216.36 434.68 216.29C434.72 216.24 434.77 216.19 434.81 216.14C434.86 216.08 434.9 216.01 434.95 215.94C434.99 215.89 435.02 215.83 435.06 215.78C435.1 215.7 435.14 215.63 435.19 215.55C435.21 215.5 435.25 215.44 435.27 215.39C435.33 215.27 435.38 215.15 435.43 215.02C435.44 215.01 435.44 215.01 435.44 215C432.12 217.15 430.08 214.19 424.21 204.42ZM420.97 217.65C417.03 215.5 414.68 209.8 412.51 205.83C410.41 201.98 413.02 199.3 413.18 199.14C410.84 200.15 409.77 201.98 409.77 201.98C409.77 201.98 411.6 207.89 412.48 210.08C413.36 212.28 417.68 220.15 417.16 221.55C416.64 222.94 414.37 224.23 408.16 216.16C402.16 208.35 405.73 203.4 405.97 203.08C405.05 203.7 404.17 204.66 403.63 206.17C402.01 210.65 409.69 223.78 412.49 225.11C415.28 226.43 416.79 224.21 416.79 224.21C419.3 222.07 416.44 216.57 416.44 216.57C419.41 222.51 424.1 222.34 425.87 221C427.7 219.61 426.35 213.63 425.96 212.08C426.46 215.41 424.83 219.76 420.97 217.65ZM425.99 212L425.95 211.91C425.96 211.94 425.97 211.97 425.99 212Z" />
		<path id="Path 28" class="shp13" d="M425.04 246.91C425.04 246.91 454.92 305.07 466.58 317.3C478.24 329.54 530.02 341.05 538.63 341.2C557.73 341.53 557.43 297.33 557.43 297.33C557.43 297.33 544.28 296.17 541.27 296.06C533.09 295.78 489.14 292.05 489.14 292.05C489.14 292.05 471.33 263.11 452.76 234.28L425.04 246.91Z" />
		<path id="Path 29" class="shp14" d="M453.98 236.18C453.57 235.54 453.17 234.91 452.76 234.28L425.04 246.91C425.04 246.91 445.5 286.72 459.16 307.39C458.94 306.94 436.36 260.73 437.89 252.59C439.43 244.42 453.98 236.18 453.98 236.18Z" />
		<path id="Path 30" class="shp13" d="M557.43 297.33C557.43 297.33 545.02 312.7 522 343.64C498.59 375.08 459.51 470.44 459.51 470.44C459.51 470.44 496.89 522.87 594.78 510.45C594.78 510.45 615.41 406.63 615.5 313.83L557.43 297.33Z" />
		<path id="Path 31" class="shp14" d="M579.64 334.19L599.64 313.67L591.98 308.37L574.77 316.71L575.84 320.56C575.8 320.54 575.76 320.52 575.72 320.51L571.56 319.5L574.77 316.71L571.72 302.93L562.79 303.19L562.5 327.36L566.79 323.63L567.89 327.67C567.92 327.79 567.98 327.89 568.03 328C566.38 335.71 561.16 351.86 545.14 364.31C526.18 379.07 507.96 398.54 503.11 403.84C502.31 404.71 501.93 405.88 502.07 407.06L503.45 418.94C503.72 421.3 505.95 422.93 508.28 422.48L521.42 419.91C522.6 419.68 523.62 418.94 524.2 417.88C527.52 411.8 539.74 390.26 554.94 373.14C568.56 357.8 572.93 338.23 574.27 329.42L577.55 326.7L579.64 334.19Z" />
		<path id="Path 32" class="shp6" d="M567.48 318.8C567.48 318.8 565.68 342.63 543.86 359.6C524.89 374.36 506.68 393.83 501.83 399.13C501.03 400 500.65 401.17 500.79 402.35L502.17 414.23C502.44 416.59 504.67 418.22 507 417.77L520.13 415.2C521.32 414.97 522.34 414.23 522.92 413.17C526.25 407.09 538.46 385.55 553.66 368.43C571.8 348 573.54 320.04 573.54 320.04L567.48 318.8Z" />
		<path id="Path 33" class="shp7" d="M573.54 320.04L570.75 319.47C569.04 329.07 564.34 346.78 551.79 360.9C536.59 378.02 524.38 399.56 521.06 405.64C520.48 406.7 519.46 407.44 518.27 407.67L505.14 410.24C503.8 410.5 502.5 410.06 501.58 409.2L502.17 414.23C502.44 416.59 504.67 418.22 507 417.77L520.14 415.2C521.33 414.97 522.34 414.23 522.92 413.17C526.25 407.09 538.46 385.55 553.66 368.43C571.81 348 573.54 320.04 573.54 320.04Z" />
		<path id="Path 34" class="shp6" d="M565.5 318.9L566.61 322.96C566.82 323.75 567.45 324.36 568.24 324.55L570.96 325.21C571.65 325.38 572.38 325.21 572.93 324.76L576.28 321.99C577.04 321.36 577.3 320.31 576.92 319.4L575.98 317.13C575.71 316.47 575.14 315.97 574.44 315.8L570.17 314.77C569.55 314.61 568.9 314.73 568.37 315.1L566.39 316.45C565.61 316.99 565.25 317.97 565.5 318.9Z" />
		<path id="Path 35" class="shp7" d="M576.92 319.4L575.98 317.13C575.95 317.03 575.88 316.95 575.83 316.86C576.21 317.77 575.95 318.81 575.19 319.44L571.84 322.21C571.29 322.67 570.57 322.84 569.88 322.67L567.16 322.01C566.8 321.92 566.48 321.74 566.21 321.5L566.61 322.96C566.82 323.75 567.45 324.36 568.24 324.55L570.96 325.21C571.65 325.38 572.38 325.21 572.93 324.76L576.28 321.98C577.04 321.36 577.3 320.31 576.92 319.4Z" />
		<path id="Path 36" class="shp15" d="M592.03 298.61L570.44 298.23L570.33 310.33C570.3 313.79 570.4 310.43 573.49 312C578.68 314.64 586.82 318.36 588.3 312.74L592.03 298.61Z" />
		<path id="Path 37" class="shp16" d="M573.49 312L561.21 322.65L561.51 298.48L570.44 298.22L573.49 312Z" />
		<path id="Path 38" class="shp9" d="M620.4 433.39C620.41 433.38 620.41 433.38 620.42 433.38C620.41 433.38 620.41 433.38 620.4 433.39Z" />
		<path id="Path 39" class="shp17" d="M578.21 202.5C578.21 202.5 547.21 235.32 549.44 272.22C551.68 309.13 603.52 314.23 636.1 284.2C668.67 254.16 661.3 224.01 645.74 208.98C628.22 192.06 599.32 180.76 578.21 202.5Z" />
		<path id="Path 40" class="shp15" d="M578.59 201.08C578.59 201.08 579.93 231.53 635.98 240.73C635.98 240.73 634.39 245.63 636.14 249.48C637.9 253.34 639.01 260.75 635.6 265.77L643.17 265.17C643.17 265.17 650.55 255.96 651.16 252.75C651.78 249.54 650.39 237.28 650.62 236.94C650.84 236.6 650.83 234.34 643.88 232.2C636.93 230.07 625.62 225.98 621.94 224.15C618.26 222.33 578.59 201.08 578.59 201.08Z" />
		<path id="Path 41" class="shp17" d="M649.06 258.76C651.26 258.43 655.75 258.43 659.5 261.53C664.68 265.81 665.52 274.21 659.48 280.57C653.43 286.92 637.88 296.71 634.3 282.17C631.67 271.54 645.12 259.34 649.06 258.76Z" />
		<path id="Path 42" class="shp15" d="M652.74 266.19C652.74 266.19 655.53 264.27 658.31 266.19C661.09 268.11 658.91 274.35 656.89 276.46C654.87 278.58 653.71 275.78 654.22 274.17C654.73 272.55 654.16 269.85 652.88 268.59C651.6 267.32 652.11 266.53 652.74 266.19ZM646.21 272.38C646.21 272.38 649.49 275.41 648.13 278.46C646.77 281.51 643.78 281.8 641.82 281.33C639.86 280.87 639 282.66 640.18 283.66C641.37 284.65 646.94 285.33 649.76 281.53C652.59 277.72 652.25 272.24 650.33 270.2C648.41 268.16 644.94 270.83 646.21 272.38Z" />
		<path id="Path 43" class="shp6" d="M645.88 237.61C645.88 237.61 641.28 243.94 640.95 253.05C640.63 262.15 635.6 265.77 635.6 265.77L639.9 271.53C639.9 271.53 649.23 267.94 654.84 259.09C654.84 259.09 660.39 260.47 662.81 266.08C662.81 266.08 684.14 255.16 693.67 241.14C703.2 227.12 683.08 210.58 683.08 210.58C683.08 210.58 688.51 180.45 641.51 165.61C606.59 154.59 592.42 135.34 592.42 135.34C592.42 135.34 580.45 155.51 598.73 176.41C598.73 176.41 585.8 174.81 578.17 164.36C578.17 164.36 549.6 220.28 645.88 237.61Z" />
		<path id="Path 44" class="shp13" d="M626.41 453.16C626.41 453.16 676.39 412.29 677.24 395.41C678.09 378.53 621.32 320.18 615.5 313.83L587.48 341.27C587.48 341.27 595.69 351.61 597.68 353.86C603.11 359.99 638.46 395.59 638.46 395.59C638.46 395.59 623.41 414.58 603.92 434.44L626.41 453.16Z" />
		<path id="Path 45" fill-rule="evenodd" class="shp14" d="M626.41 453.16L606.49 436.58C600.9 479.64 594.78 510.45 594.78 510.45C496.89 522.87 459.51 470.44 459.51 470.44C459.51 470.44 461.44 465.75 464.68 458.11C502.89 484.52 567.99 486.48 567.99 486.48C567.99 486.48 580.38 480.63 575.67 478C570.97 475.37 566.25 469.69 567.07 464.93C567.88 460.17 575.63 457.55 575.63 457.55C571.68 451.18 578.28 448.1 578.28 448.1L585.66 446.57L586.89 434.4L601.32 395.69L580.76 400.31L605.48 375.34L608.85 340.29L615.45 363.8L641.34 389.7L656.9 392.87L641.4 399.35C641.4 399.35 630.34 410.91 622.42 423.58C614.49 436.25 628.05 451.78 628.06 451.79C627.02 452.66 626.41 453.16 626.41 453.16ZM638.46 395.59C638.46 395.59 624.91 381.94 613.3 370.09C611.75 391.54 609.55 412.34 607.19 431.07C625.07 412.48 638.46 395.59 638.46 395.59Z" />
		<path id="Path 46" class="shp8" d="M608.2 436.33C606.1 437.83 602.65 440.03 599.04 441.2C598.59 441.12 598.14 441.07 597.7 441.05L597.7 441.05C589.25 437.46 581.54 445.12 580.65 445.79C577.43 448.2 575.82 451.4 577.66 454.82C575.1 456.58 572.8 458.64 571.64 460.34C568.53 464.91 573.38 470.2 577.69 468.86C577.69 468.86 577.69 468.86 577.7 468.86C577.6 469.31 577.57 469.75 577.63 470.17C578.39 475.34 583.75 476.16 583.75 476.16C584.74 481.34 589.15 482.07 589.15 482.07C589.15 482.07 590.32 485.96 594.58 485.92C598.66 485.88 606.75 476.17 607.61 472.95C612.08 466.24 615.06 455.96 615.06 455.96C615.06 455.96 615.74 455.57 616.81 454.83C617.52 454.35 618.41 453.71 619.39 452.95C620.31 452.24 621.31 451.4 622.31 450.48L608.2 436.33Z" />
		<path id="Path 47" class="shp9" d="M599.18 441.16C599.13 441.17 599.09 441.19 599.04 441.2C599.1 441.21 599.14 441.2 599.18 441.16ZM592.48 465.35L592.41 465.41C592.43 465.39 592.45 465.37 592.48 465.35ZM577.66 454.82L585.2 451.26L591.08 445.85L578.62 452.36L577.19 450.14C576.7 451.61 576.78 453.19 577.66 454.82ZM618.47 446.63L615.07 447.03L609.46 443.7L612.29 450.08C612.29 450.08 612.73 455.95 611.52 459.62C610.31 463.29 603.75 474.86 603.75 474.86C603.75 474.86 595.77 483.68 594.79 481.92C593.8 480.16 596.56 473.45 596.56 473.45L590.59 479.17C590.59 479.17 587.82 479.44 586.87 478.48C585.92 477.51 585.84 475.31 585.84 475.31L590.19 466.69L581.78 473.64C581.78 473.64 579.92 471.29 579.6 470.24C579.28 469.2 580.69 465.15 580.69 465.15L584.65 459.12C584.65 459.12 577.05 466.3 574.2 464.98C571.35 463.65 571.64 460.34 571.64 460.34C568.53 464.92 573.38 470.2 577.69 468.86C577.69 468.86 577.69 468.86 577.69 468.86C577.6 469.31 577.57 469.75 577.63 470.17C578.39 475.34 583.75 476.16 583.75 476.16C584.73 481.34 589.15 482.07 589.15 482.07C589.15 482.07 590.32 485.96 594.58 485.92C598.66 485.88 606.75 476.17 607.61 472.95C612.08 466.24 615.06 455.96 615.06 455.96C615.06 455.96 615.74 455.57 616.81 454.84C617.52 454.35 618.41 453.72 619.39 452.95C620.31 452.24 621.3 451.4 622.31 450.48L618.47 446.63ZM608.2 436.33C606.22 437.75 603.02 439.8 599.63 441.01C603.06 439.86 606.1 438.46 608.79 436.92L608.2 436.33Z" />
		<path id="Path 48" class="shp16" d="M622.47 461.19L596.86 434.86L604.56 427.87L630.24 454.01L622.47 461.19ZM573.49 312L578.36 329.48L598.36 308.96L590.7 303.66L573.49 312ZM418.17 239.41L452.23 225.66L455.8 235.43L421.89 249.33L418.17 239.41Z" />
		<path id="Path 49" class="shp7" d="M645.88 237.61C645.88 237.61 641.28 243.94 640.95 253.05C640.63 262.15 635.6 265.77 635.6 265.77L639.9 271.53C639.9 271.53 649.23 267.94 654.84 259.09C654.84 259.09 660.83 260.31 663.24 267.32C663.24 267.32 684.14 255.16 693.67 241.14C701.25 230 690.09 217.27 685.19 212.51C688.75 216.18 694.89 224.74 688.34 235.36C679.56 249.61 659.93 250.85 656.63 244.77C653.34 238.7 662.63 226.62 662.63 226.62C651 228.22 636.43 220.48 636.43 220.48C643.36 219.19 647.23 213 647.23 213C617.5 212.64 590.5 196.49 590.5 196.49C593.47 196.78 599.7 194.24 599.7 194.24C577.02 187.07 578.17 164.36 578.17 164.36C578.17 164.36 549.6 220.28 645.88 237.61ZM598.73 176.41C612.78 186.19 627.37 181.79 627.37 181.79C590.23 174.68 592.43 135.34 592.43 135.34C592.43 135.34 580.45 155.51 598.73 176.41Z" />
		<path id="Path 50" class="shp6" d="M579.01 228.73C581.77 230.19 583.26 233.09 583.06 236.01C583.88 235.37 584.59 234.56 585.11 233.58C587.08 229.84 585.65 225.2 581.91 223.23C578.17 221.26 573.54 222.69 571.57 226.43C571.05 227.41 570.78 228.45 570.71 229.5C573.01 227.69 576.25 227.28 579.01 228.73ZM611.06 245.64C613.82 247.1 615.31 250 615.12 252.92C615.93 252.28 616.64 251.47 617.16 250.49C619.13 246.75 617.7 242.12 613.96 240.14C610.22 238.17 605.59 239.6 603.62 243.34C603.1 244.32 602.83 245.37 602.76 246.41C605.07 244.6 608.3 244.19 611.06 245.64Z" />
		<path id="Path 51" class="shp4" d="M568.51 270.88C568.51 270.88 568.13 272.49 568.22 274.83C573.35 277.87 588.61 285.75 604.67 283.19C607.04 279.79 608 276.67 608 276.67C590.12 283.21 568.51 270.88 568.51 270.88Z" />
		<path id="Path 52" class="shp18" d="M568.21 274.83C568.29 276.93 568.77 279.61 570.24 282.24C572.61 280.85 575.67 280.17 578.84 279.9C574.05 278.09 570.3 276.06 568.21 274.83Z" />
		<path id="Path 53" class="shp19" d="M583.43 291.14C594.58 293.89 601.17 288.22 604.67 283.19C595.13 284.71 585.86 282.55 578.84 279.9C575.67 280.17 572.61 280.85 570.24 282.24C572.25 285.83 576.11 289.33 583.43 291.14Z" />
		<path id="Path 54" class="shp20" d="M595.21 288.9C595.21 288.9 588.65 292.06 579.83 287.77C571.01 283.48 586.1 286.8 595.21 288.9Z" />
		<path id="Path 55" class="shp15" d="M599.41 239.35C599.41 239.35 575.98 241.56 573.74 252.54C572.31 259.54 580.3 264.12 588.79 264.55C588.79 264.55 580.08 260.21 579.28 255.4C578.47 250.59 589.67 242.16 599.41 239.35ZM641.23 287.17C636.28 285.2 636.95 276.28 636.95 276.28C636.95 276.28 635.91 277.32 634 278.96C633.97 280.04 634.03 281.11 634.3 282.17C636.83 292.44 645.33 290.57 652.23 286.34C652.23 286.34 646.19 289.14 641.23 287.17ZM636.1 284.2C636.64 283.7 637.14 283.2 637.66 282.7C636.7 279.64 636.95 276.28 636.95 276.28C636.95 276.28 615.92 297.53 588.74 298.55C562.02 299.56 552.81 285.12 552.51 284.63C564.42 309.85 607.62 310.45 636.1 284.2Z" />
		<path id="Path 56" class="shp7" d="M464.68 458.11C461.37 466.06 459.41 470.94 459.41 470.94C459.41 470.94 496.45 525.02 594.59 511.41C594.59 511.41 595.76 505.36 597.18 497.44C519.62 502.47 472.19 468.78 464.68 458.11Z" />
		<path id="Path 57" class="shp5" d="M386.36 690.02L353.78 709.79C351.87 710.95 350.64 712.96 350.46 715.18C350.15 719.3 353.48 722.77 357.6 722.64L418.23 720.65L420.41 691.26L386.36 690.02Z" />
		<path id="Path 58" class="shp14" d="M541.27 296.06C533.09 295.78 489.14 292.05 489.14 292.05C489.14 292.05 486.69 288.07 482.67 281.61L486.07 294.15L485.72 304.67L490.5 295.06L557.43 297.33C557.43 297.33 544.28 296.17 541.27 296.06ZM477.67 428.35L477.85 428.59L515.09 358.16L529.99 341.98L540.26 346.78L533.83 337.37L543.06 333.06L505.23 330.26L470.93 320.77C483.07 328.63 509 335.74 525.37 339.12C524.26 340.6 523.15 342.09 522 343.64C508.93 361.19 490.98 398.66 477.67 428.35Z" />
		<path id="Path 59" class="shp5" d="M89.58 910.42L0 1000L344.58 1000L344.58 910.42L89.58 910.42ZM910.42 910.42L1000 1000L655.42 1000L655.42 910.42L910.42 910.42ZM665 820.83L550 820.83L335 820.83L245.42 910.42L245.42 1000L754.58 1000L754.58 910.42L665 820.83Z" />
		<path id="Path 79" class="shp21" d="M127.33 77.24L111.8 68.95L127.94 53.11L151.8 65.52L127.33 77.24Z" />
		<path id="Path 80" class="shp22" d="M368.4 133.07L357.42 133.82L356.26 127.2L364 122.08L368.4 133.07ZM250.65 157.93L239.67 158.69L238.5 152.06L246.25 146.95L250.65 157.93ZM96.64 253.4L85.66 254.16L84.49 247.53L92.23 242.42L96.64 253.4ZM257.2 103.07L246.21 103.82L245.05 97.19L252.79 92.08L257.2 103.07ZM36.13 100.29L25.14 101.04L23.98 94.41L31.72 89.3L36.13 100.29ZM374.48 285.78L363.49 286.54L362.33 279.91L370.07 274.8L374.48 285.78ZM205.42 41.02L194.43 41.77L193.27 35.14L201.01 30.03L205.42 41.02ZM147.5 16.86L136.52 17.61L135.35 10.98L143.1 5.87L147.5 16.86ZM406.74 185.47L395.76 186.22L394.6 179.59L402.34 174.49L406.74 185.47ZM452.06 82.75L441.08 83.5L439.91 76.87L447.65 71.76L452.06 82.75ZM242.54 292.6L231.57 293.35L230.4 286.73L238.14 281.62L242.54 292.6Z" />
		<path id="Path 81" class="shp23" d="M314.04 152.45L314.6 159.28L306.36 155.46L305.83 146.36L314.04 152.45ZM12.9 202.88L6.5 206.26L6.7 197.71L15.32 193.37L12.9 202.88ZM319.44 392.83L313.03 396.21L313.24 387.66L321.86 383.33L319.44 392.83ZM299.23 85.21L292.83 88.59L293.03 80.03L301.66 75.7L299.23 85.21ZM143 139.06L136.21 141.69L137.53 133.23L146.65 129.9L143 139.06ZM290.21 302.12L297.57 302.04L292.95 309.43L283.15 309.36L290.21 302.12Z" />
		<path id="Path 82" class="shp24" d="M205.17 325.34L194.21 328.93L191.07 317.8L204.32 313.59L205.17 325.34ZM134.53 183.98L135.17 194.77L122.8 194.44L122.17 181.44L134.53 183.98ZM71.91 36.59L60.94 40.19L57.81 29.06L71.06 24.84L71.91 36.59ZM283.29 28.89L272.33 32.49L269.19 21.35L282.44 17.14L283.29 28.89ZM207.11 104.09L196.15 107.69L193.02 96.56L206.26 92.35L207.11 104.09ZM327.12 225.27L316.16 228.87L313.03 217.74L326.27 213.52L327.12 225.27Z" />
		<path id="Path 83" class="shp21" d="M170.45 252.9L161.97 244.57L176 237.1L189.08 249.7L170.45 252.9ZM55.2 207.88L46.89 199.41L61.06 192.18L73.89 204.98L55.2 207.88ZM17.8 289.63L19.1 280.67L30.97 284.97L29.15 298.68L17.8 289.63ZM78.17 124.96L87.71 126.75L82.31 137.49L67.72 134.9L78.17 124.96ZM403.16 30.28L410.48 24.33L416.37 34.83L405.3 44.04L403.16 30.28ZM475.44 30.28L482.75 24.33L488.65 34.83L477.58 44.04L475.44 30.28Z" />
		<path id="Path 84" class="shp22" d="M211.45 205L189.35 206.52L187.01 193.18L202.58 182.9L211.45 205Z" />
		<path id="Path 85" class="shp23" d="M259.42 268.96L245.71 274.72L246.13 257.5L264.29 249.84L259.42 268.96ZM424.68 317.8L410.97 323.56L411.39 306.34L429.56 298.68L424.68 317.8ZM375.43 78.89L374.72 96.37L354.24 86.34L355.14 63.16L375.43 78.89Z" />
		<path id="Path 86" class="shp24" d="M147.75 314.86L125.68 322.1L119.38 299.7L146.03 291.22L147.75 314.86Z" />
		<path id="Path 87" class="shp22" d="M866.23 133.07L855.25 133.82L854.08 127.2L861.82 122.08L866.23 133.07ZM748.47 157.93L737.49 158.69L736.32 152.06L744.07 146.95L748.47 157.93ZM546.56 321.58L535.76 319.49L536.33 312.78L545.12 309.83L546.56 321.58ZM755.02 103.07L744.04 103.82L742.88 97.19L750.61 92.08L755.02 103.07ZM533.95 100.29L522.96 101.04L509.44 97.45L517.18 92.34L533.95 100.29ZM886.75 306.04L875.76 306.79L874.6 300.16L882.34 295.05L886.75 306.04ZM703.24 41.02L692.25 41.77L691.09 35.14L698.83 30.03L703.24 41.02ZM904.56 185.47L893.58 186.22L892.42 179.59L900.16 174.49L904.56 185.47ZM949.88 82.75L938.9 83.5L937.74 76.87L945.47 71.76L949.88 82.75ZM740.37 292.6L729.39 293.35L728.22 286.73L735.96 281.62L740.37 292.6Z" />
		<path id="Path 88" class="shp23" d="M815 129.53L815.56 136.35L807.32 132.54L806.79 123.44L815 129.53ZM977.08 221.67L977.64 228.5L969.41 224.68L968.88 215.58L977.08 221.67ZM501.99 227.57L495.59 230.95L495.79 222.4L504.41 218.07L501.99 227.57ZM797.05 85.21L790.65 88.59L790.85 80.03L799.48 75.7L797.05 85.21ZM966.25 129.92L959.85 133.31L960.05 124.75L968.68 120.42L966.25 129.92ZM640.82 139.06L634.03 141.69L635.35 133.23L644.47 129.9L640.82 139.06ZM788.04 302.12L795.4 302.04L790.77 309.43L780.98 309.36L788.04 302.12Z" />
		<path id="Path 89" class="shp24" d="M628.5 71.57L629.14 82.37L616.77 82.04L616.14 69.04L628.5 71.57ZM569.73 36.59L558.76 40.19L555.63 29.06L568.88 24.84L569.73 36.59ZM781.11 28.89L770.15 32.49L767.02 21.35L780.26 17.14L781.11 28.89ZM704.93 104.09L693.97 107.69L690.84 96.56L704.08 92.35L704.93 104.09ZM919.61 234.73L908.65 238.32L905.51 227.19L918.75 222.98L919.61 234.73ZM734.29 213.58L723.33 217.18L720.2 206.05L733.44 201.83L734.29 213.58Z" />
		<path id="Path 90" class="shp21" d="M811.8 252.9L803.34 244.57L817.35 237.11L830.44 249.7L811.8 252.9ZM515.62 278.71L516.92 269.74L528.79 274.05L526.97 287.76L515.62 278.71ZM570.18 121.68L579.72 123.47L574.32 134.22L559.74 131.63L570.18 121.68ZM875.48 26.13L882.8 20.18L888.69 30.68L877.63 39.89L875.48 26.13Z" />
		<path id="Path 91" class="shp22" d="M815.56 196.52L793.46 198.03L791.11 184.7L806.68 174.41L815.56 196.52Z" />
		<path id="Path 92" class="shp23" d="M757.24 268.96L743.53 274.72L743.95 257.5L762.11 249.84L757.24 268.96ZM954.3 320.27L940.59 326.04L941.01 308.82L959.18 301.15L954.3 320.27ZM873.25 78.89L872.54 96.37L852.06 86.34L852.96 63.16L873.25 78.89Z" />
		<path id="Path 93" class="shp24" d="M682.57 328.12L660.51 335.36L654.2 312.95L680.86 304.48L682.57 328.12Z" />
		<path id="Path 94" class="shp22" d="M250.65 483.6L239.67 484.36L238.5 477.73L246.25 472.62L250.65 483.6ZM90.56 579.07L79.58 579.83L78.41 573.2L86.15 568.09L90.56 579.07ZM257.2 428.74L246.21 429.49L245.05 422.86L252.79 417.75L257.2 428.74ZM36.13 425.96L25.14 426.71L23.98 420.08L31.72 414.97L36.13 425.96ZM205.42 366.69L194.43 367.44L193.27 360.81L201.01 355.7L205.42 366.69ZM142.79 382.58L131.8 383.33L130.64 376.7L138.38 371.59L142.79 382.58ZM242.54 618.27L231.57 619.03L230.4 612.4L238.14 607.29L242.54 618.27Z" />
		<path id="Path 95" class="shp23" d="M12.9 528.55L6.5 531.93L6.7 523.37L15.32 519.04L12.9 528.55ZM153.38 448.75L146.58 451.38L147.91 442.92L157.02 439.59L153.38 448.75ZM220.71 708.44L213.92 711.08L215.24 702.61L224.36 699.28L220.71 708.44ZM290.21 627.8L297.57 627.71L292.95 635.1L283.15 635.03L290.21 627.8Z" />
		<path id="Path 96" class="shp24" d="M194.05 646.2L183.09 649.8L179.96 638.67L193.2 634.46L194.05 646.2ZM111.96 744.04L101 747.63L97.86 736.5L111.11 732.29L111.96 744.04ZM134.53 509.65L135.17 520.44L122.8 520.12L122.17 507.11L134.53 509.65ZM71.91 362.26L60.94 365.86L57.81 354.73L71.06 350.52L71.91 362.26ZM283.29 354.56L272.33 358.16L269.19 347.03L282.44 342.82L283.29 354.56ZM207.11 429.76L196.15 433.36L193.02 422.23L206.26 418.02L207.11 429.76Z" />
		<path id="Path 97" class="shp21" d="M170.45 578.57L161.97 570.24L176 562.78L189.08 575.37L170.45 578.57ZM17.8 615.31L19.1 606.34L30.97 610.65L29.15 624.35L17.8 615.31ZM54.7 460.09L64.24 461.88L58.84 472.62L44.25 470.03L54.7 460.09Z" />
		<path id="Path 98" class="shp22" d="M211.45 530.67L189.35 532.19L187.01 518.86L202.58 508.57L211.45 530.67Z" />
		<path id="Path 99" class="shp23" d="M259.42 594.63L245.71 600.39L246.13 583.17L264.29 575.51L259.42 594.63Z" />
		<path id="Path 100" class="shp22" d="M450.2 401.32L439.22 402.08L438.05 395.45L445.8 390.34L450.2 401.32ZM469.01 349.96L458.02 350.71L456.86 344.08L464.6 338.97L469.01 349.96ZM406.74 464.61L395.76 465.36L394.59 458.74L402.34 453.63L406.74 464.61Z" />
		<path id="Path 101" class="shp23" d="M335.95 337.49L329.15 340.13L330.48 331.66L339.6 328.33L335.95 337.49ZM477.22 571.9L484.58 571.81L479.96 579.21L470.16 579.13L477.22 571.9Z" />
		<path id="Path 102" class="shp24" d="M336.2 548.4L325.24 552L322.11 540.87L335.35 536.66L336.2 548.4ZM384.46 335.02L373.5 338.62L370.37 327.48L383.61 323.28L384.46 335.02Z" />
		<path id="Path 103" class="shp21" d="M347.8 483.83L339.32 475.49L353.35 468.03L366.43 480.62L347.8 483.83Z" />
		<path id="Path 104" class="shp22" d="M381.61 400.06L359.51 401.58L357.16 388.24L372.74 377.96L381.61 400.06Z" />
		<path id="Path 105" class="shp23" d="M282.9 532.16L269.19 537.93L269.61 520.71L287.78 513.04L282.9 532.16Z" />
		<path id="Path 106" class="shp21" d="M845.62 517.56L836.56 531.92L819.68 516.77L833.24 494.7L845.62 517.56ZM721.88 542.18L712.82 556.54L695.94 541.39L709.5 519.31L721.88 542.18Z" />
		<path id="Path 107" class="shp22" d="M866.23 458.74L855.25 459.49L854.08 452.87L861.82 447.75L866.23 458.74ZM749.61 499.81L738.63 500.57L737.46 493.93L745.2 488.83L749.61 499.81ZM747.54 443.84L736.57 444.6L735.39 437.96L743.14 432.86L747.54 443.84ZM886.75 631.71L875.76 632.46L874.6 625.83L882.34 620.72L886.75 631.71ZM890.25 737.41L879.26 738.16L878.1 731.53L885.84 726.42L890.25 737.41ZM904.56 511.14L893.58 511.89L892.42 505.26L900.16 500.16L904.56 511.14ZM949.88 408.42L938.9 409.17L937.74 402.54L945.47 397.43L949.88 408.42Z" />
		<path id="Path 108" class="shp23" d="M799.25 445.12L799.81 451.94L791.57 448.13L791.04 439.03L799.25 445.12ZM651.46 494.33L652.02 501.15L643.78 497.34L643.25 488.24L651.46 494.33ZM977.08 547.34L977.64 554.17L969.41 550.35L968.88 541.25L977.08 547.34ZM814.47 671.45L808.06 674.83L808.27 666.28L816.89 661.95L814.47 671.45ZM797.05 410.88L790.65 414.26L790.85 405.7L799.48 401.37L797.05 410.88ZM975.08 441.79L968.68 445.17L968.89 436.62L977.51 432.29L975.08 441.79ZM788.04 627.8L795.4 627.71L790.77 635.1L780.98 635.03L788.04 627.8Z" />
		<path id="Path 109" class="shp24" d="M695.94 599.7L684.98 603.29L681.84 592.16L695.09 587.95L695.94 599.7ZM677.89 660.02L666.93 663.61L663.79 652.48L677.03 648.27L677.89 660.02ZM781.11 354.56L770.15 358.16L767.02 347.03L780.26 342.82L781.11 354.56ZM697.89 429.76L686.93 433.36L683.8 422.23L697.03 418.02L697.89 429.76ZM919.61 560.4L908.65 563.99L905.51 552.86L918.75 548.65L919.61 560.4ZM791.04 536L780.08 539.59L776.95 528.46L790.19 524.25L791.04 536Z" />
		<path id="Path 110" class="shp21" d="M828.35 584.99L819.88 576.66L833.9 569.19L846.99 581.78L828.35 584.99ZM711.84 715.08L703.37 706.75L717.39 699.28L730.48 711.87L711.84 715.08ZM624.36 592.89L615.9 584.56L629.92 577.09L643 589.68L624.36 592.89ZM973.26 355.95L980.57 350L986.47 360.5L975.4 369.71L973.26 355.95Z" />
		<path id="Path 111" class="shp23" d="M757.24 594.63L743.53 600.39L743.95 583.17L762.11 575.51L757.24 594.63ZM954.3 645.94L940.59 651.71L941.01 634.49L959.18 626.82L954.3 645.94ZM873.25 404.56L872.54 422.04L852.06 412.01L852.96 388.83L873.25 404.56ZM724.57 368.07L723.85 385.54L703.37 375.52L704.27 352.34L724.57 368.07Z" />
	</g>
</svg>