<svg xmlns="http://www.w3.org/2000/svg" viewBox="0 0 1600 1600" width="1600" height="1600">
	<defs>
		<clipPath clipPathUnits="userSpaceOnUse" id="cp1">
			<path d="M0 0L1600 0L1600 1600L0 1600Z" />
		</clipPath>
	</defs>
	<style>
		tspan { white-space:pre }
		.shp0 { fill: #00afcc } 
		.shp1 { fill: #d0d2d3 } 
		.shp2 { fill: #ffffff } 
		.shp3 { fill: #b9deee } 
		.shp4 { fill: #004264 } 
		.shp5 { fill: #00527a } 
		.shp6 { fill: #f6cb99 } 
		.shp7 { fill: #00486c } 
		.shp8 { fill: #003350 } 
		.shp9 { fill: #99baca } 
		.shp10 { fill: #003452 } 
		.shp11 { fill: #e6e7e8 } 
		.shp12 { fill: #dadbdc } 
		.shp13 { fill: #00263d } 
		.shp14 { fill: #003351 } 
		.shp15 { fill: #a6a8ab } 
		.shp16 { fill: #337595 } 
		.shp17 { fill: #d1d3d4 } 
		.shp18 { fill: #004062 } 
		.shp19 { fill: #6e99b1 } 
		.shp20 { fill: #002a45 } 
		.shp21 { fill: #00314e } 
		.shp22 { fill: #003856 } 
		.shp23 { fill: #003a5a } 
		.shp24 { fill: #004366 } 
		.shp25 { fill: #929497 } 
		.shp26 { fill: #404041 } 
		.shp27 { fill: #f1f2f2 } 
	</style>
	<g id="Page 1" clip-path="url(#cp1)">
		<path id="Path 1" class="shp0" d="M0 1600L1600 1600L1600 0L0 0L0 1600Z" />
		<path id="Path 2" class="shp1" d="M771.35 917.89L839.28 917.89L873.24 1054.82L737.39 1054.82L771.35 917.89Z" />
		<path id="Path 3" class="shp2" d="M926.3 1055.18C926.3 1057.15 924.64 1058.76 922.58 1058.76L692.69 1058.76C690.64 1058.76 688.97 1057.15 688.97 1055.18L688.97 1045.65C688.97 1043.68 690.64 1042.08 692.69 1042.08L922.58 1042.08C924.64 1042.08 926.3 1043.68 926.3 1045.65L926.3 1055.18ZM1133.19 509.46C1133.19 497.29 1126.74 491.92 1114.9 491.92L500.38 491.92C488.54 491.92 477.44 497.29 477.44 509.46L477.44 880.93L477.44 891.87L477.44 937.72C477.44 949.56 488.54 964.28 500.38 964.28L1114.9 964.28C1126.74 964.28 1133.19 949.56 1133.19 937.72L1133.19 891.87L1133.19 880.93L1133.19 509.46Z" />
		<path id="Path 4" class="shp3" d="M1104.3 520.81L506.33 520.81L506.33 935.4L1104.3 935.4L1104.3 520.81Z" />
		<path id="Path 7" class="shp4" d="M653.05 855.82L717.33 855.82C725.18 855.82 731.6 862.24 731.6 870.09L731.6 870.09C731.6 877.94 725.18 884.36 717.33 884.36L653.05 884.36C645.2 884.36 638.78 877.94 638.78 870.09L638.78 870.09C638.78 862.24 645.2 855.82 653.05 855.82ZM778.51 855.82L842.8 855.82C850.65 855.82 857.06 862.24 857.06 870.09L857.06 870.09C857.06 877.94 850.65 884.36 842.8 884.36L778.51 884.36C770.66 884.36 764.24 877.94 764.24 870.09L764.24 870.09C764.24 862.24 770.66 855.82 778.51 855.82ZM903.98 855.82L968.26 855.82C976.11 855.82 982.53 862.24 982.53 870.09L982.53 870.09C982.53 877.94 976.11 884.36 968.26 884.36L903.98 884.36C896.13 884.36 889.7 877.94 889.7 870.09L889.7 870.09C889.7 862.24 896.13 855.82 903.98 855.82ZM903 1160.83C903.27 1159.99 905.41 1155.12 905.79 1151.86C906.75 1143.57 856.94 1133.95 856.01 1142.26L855.14 1150.02L903 1160.83ZM681.67 1162.76C681.39 1161.92 679.19 1157.08 678.76 1153.82C677.68 1145.55 727.35 1135.22 728.4 1143.53L729.37 1151.27L681.67 1162.76Z" />
		<path id="Path 8" class="shp1" d="M792.75 1158.68C785.63 1158.63 759 1158.32 754.82 1156.59C750.06 1154.61 738.12 1146.84 734.46 1145.95C720.51 1142.57 681.94 1148.79 675.45 1160.34C675.45 1160.34 655.83 1202.51 647.72 1246.06C639.62 1289.6 642.21 1318.46 646.67 1330.49C651.15 1342.51 656.11 1347.41 663.61 1348.09C671.1 1348.78 679.86 1346.34 696.41 1335.43C712.96 1324.54 721.09 1311.14 741.87 1303.32C757.03 1297.62 781.57 1296.9 793.72 1296.94C805.88 1296.73 830.42 1297.1 845.67 1302.59C866.55 1310.12 874.86 1323.4 891.57 1334.07C908.27 1344.73 917.06 1347.04 924.55 1346.26C932.04 1345.48 936.93 1340.51 941.24 1328.42C945.53 1316.33 947.7 1287.44 939 1244.01C930.28 1200.58 910.07 1158.7 910.07 1158.7C903.42 1147.23 864.76 1141.56 850.86 1145.14C847.21 1146.07 835.39 1154.01 830.65 1156.05C826.5 1157.85 799.88 1158.53 792.75 1158.68Z" />
		<path id="Path 9" class="shp2" d="M792.75 1158.68C785.63 1158.63 759 1158.32 754.82 1156.59C750.06 1154.61 738.12 1146.84 734.46 1145.95C720.51 1142.57 681.94 1148.79 675.45 1160.34C675.45 1160.34 655.83 1202.51 647.72 1246.06C644.41 1263.86 642.89 1279.2 642.54 1291.95C643.06 1303.35 644.63 1311.75 646.57 1316.96C651.05 1328.99 656.01 1333.89 663.51 1334.58C671.01 1335.25 679.76 1332.81 696.31 1321.91C712.86 1311.02 721 1297.62 741.77 1289.8C756.94 1284.09 781.47 1283.38 793.63 1283.41C805.79 1283.21 830.33 1283.58 845.57 1289.07C866.46 1296.6 874.77 1309.88 891.47 1320.55C908.18 1331.21 916.96 1333.52 924.45 1332.74C931.94 1331.96 936.84 1326.98 941.15 1314.9C943.01 1309.65 944.47 1301.23 944.82 1289.83C944.3 1277.09 942.56 1261.76 939 1244.01C930.28 1200.58 910.07 1158.7 910.07 1158.7C903.42 1147.23 864.76 1141.56 850.86 1145.14C847.21 1146.07 835.39 1154.01 830.65 1156.05C826.5 1157.85 799.88 1158.53 792.75 1158.68Z" />
		<path id="Path 10" class="shp4" d="M712.06 1221.42C724.28 1221.33 734.17 1211.29 734.08 1199.08C734 1186.85 723.97 1176.96 711.75 1177.05C699.53 1177.14 689.63 1187.16 689.71 1199.39C689.8 1211.6 699.84 1221.5 712.06 1221.42Z" />
		<path id="Path 11" class="shp5" d="M712.01 1214.73C720.55 1214.67 727.46 1207.66 727.4 1199.12C727.34 1190.58 720.33 1183.67 711.79 1183.73C703.25 1183.79 696.34 1190.81 696.4 1199.34C696.46 1207.88 703.47 1214.79 712.01 1214.73Z" />
		<path id="Path 12" class="shp4" d="M838.61 1276.75C851.02 1276.66 861.07 1266.47 860.97 1254.06C860.89 1241.65 850.71 1231.61 838.29 1231.7C825.89 1231.79 815.84 1241.97 815.93 1254.38C816.01 1266.79 826.21 1276.83 838.61 1276.75Z" />
		<path id="Path 13" class="shp5" d="M838.56 1269.96C847.23 1269.9 854.26 1262.77 854.19 1254.11C854.13 1245.44 847 1238.42 838.34 1238.48C829.67 1238.55 822.65 1245.67 822.71 1254.33C822.77 1263 829.9 1270.03 838.56 1269.96Z" />
		<path id="Path 14" class="shp4" d="M757.11 1277.43C769.99 1277.34 780.41 1266.77 780.32 1253.9C780.22 1241.03 769.66 1230.61 756.78 1230.7C743.91 1230.78 733.49 1241.35 733.58 1254.23C733.67 1267.09 744.24 1277.52 757.11 1277.43ZM757.08 1272.94C767.48 1272.86 775.9 1264.33 775.83 1253.93C775.75 1243.53 767.21 1235.11 756.82 1235.19C746.43 1235.26 738 1243.8 738.08 1254.2C738.15 1264.59 746.7 1273.01 757.08 1272.94Z" />
		<path id="Path 15" class="shp5" d="M763.5 1236.36C763.29 1246.89 763.6 1247.08 774.34 1246.71C775.28 1248.94 775.81 1251.37 775.83 1253.93C775.84 1256.39 775.39 1258.74 774.55 1260.9C763.61 1260.68 763.39 1260.85 763.76 1271.67C761.68 1272.48 759.43 1272.92 757.08 1272.94C754.42 1272.96 751.88 1272.42 749.58 1271.45C749.78 1261.21 749.48 1260.79 739.43 1261.13C738.58 1258.98 738.09 1256.65 738.07 1254.2C738.05 1251.65 738.55 1249.21 739.45 1246.98C749.29 1247.16 749.67 1246.72 749.34 1236.79C751.63 1235.78 754.17 1235.21 756.82 1235.19C759.17 1235.17 761.42 1235.58 763.5 1236.36ZM876.94 1182.88C871.62 1181.52 867.88 1176.75 867.83 1171.26C867.79 1164.59 873.17 1159.13 879.83 1159.08C880.86 1159.08 881.9 1159.2 882.89 1159.46C888.22 1160.81 891.96 1165.59 892 1171.08C892.02 1174.3 890.79 1177.35 888.52 1179.65C886.24 1181.95 883.22 1183.23 880 1183.25C878.97 1183.26 877.94 1183.14 876.94 1182.88ZM880 1182.31C886.14 1182.27 891.1 1177.23 891.06 1171.09C891.02 1164.95 885.98 1159.98 879.84 1160.02C873.7 1160.07 868.73 1165.11 868.77 1171.25C868.81 1177.38 873.86 1182.36 880 1182.31ZM852.25 1206.08C846.93 1204.72 843.19 1199.94 843.14 1194.45C843.1 1187.78 848.49 1182.33 855.15 1182.28C856.18 1182.27 857.21 1182.4 858.21 1182.65C863.53 1184.01 867.27 1188.79 867.32 1194.28C867.35 1200.94 861.98 1206.4 855.32 1206.45C854.28 1206.46 853.25 1206.33 852.26 1206.08L852.25 1206.08ZM855.31 1205.51C861.45 1205.47 866.42 1200.43 866.37 1194.28C866.33 1188.14 861.29 1183.18 855.15 1183.22C849.02 1183.26 844.04 1188.3 844.09 1194.44C844.13 1200.58 849.17 1205.55 855.31 1205.51ZM877.27 1230.2C871.95 1228.85 868.2 1224.06 868.16 1218.58C868.14 1215.36 869.39 1212.32 871.65 1210.01C873.92 1207.71 876.94 1206.43 880.17 1206.41C881.2 1206.4 882.23 1206.53 883.24 1206.78C888.55 1208.14 892.3 1212.92 892.33 1218.41C892.35 1221.63 891.12 1224.67 888.85 1226.97C886.58 1229.27 883.56 1230.55 880.34 1230.58C879.3 1230.58 878.27 1230.46 877.27 1230.2ZM880.33 1229.64C886.48 1229.59 891.44 1224.56 891.4 1218.41C891.35 1212.27 886.32 1207.31 880.17 1207.35C874.04 1207.39 869.07 1212.43 869.11 1218.57C869.14 1224.71 874.19 1229.68 880.33 1229.64ZM900.49 1205.74C895.16 1204.38 891.42 1199.6 891.38 1194.11C891.34 1187.44 896.72 1181.99 903.38 1181.94C904.42 1181.93 905.45 1182.06 906.45 1182.31C911.78 1183.67 915.52 1188.45 915.55 1193.94C915.6 1200.6 910.21 1206.06 903.55 1206.11C902.51 1206.11 901.49 1205.99 900.49 1205.74ZM903.55 1205.17C909.69 1205.13 914.66 1200.08 914.62 1193.95C914.57 1187.81 909.53 1182.83 903.39 1182.88C897.25 1182.92 892.28 1187.97 892.32 1194.1C892.37 1200.24 897.41 1205.21 903.55 1205.17Z" />
		<path id="Path 16" class="shp4" d="M773.58 1212.42C777 1212.4 779.77 1209.59 779.74 1206.17C779.72 1202.75 776.91 1199.98 773.49 1200C770.08 1200.03 767.3 1202.83 767.33 1206.26C767.35 1209.68 770.16 1212.45 773.58 1212.42ZM812.5 1212.33C816.02 1212.31 818.88 1209.42 818.86 1205.9C818.83 1202.37 815.93 1199.52 812.41 1199.54C808.89 1199.57 806.04 1202.46 806.07 1205.98C806.09 1209.5 808.98 1212.36 812.5 1212.33Z" />
		<path id="Path 17" class="shp6" d="M594.62 1388.76C590.27 1344.04 577.52 1281.21 593.63 1262.99C597.56 1251.13 611.52 1192.42 649.41 1145.34C656.91 1136.02 674.12 1120.52 692.44 1116.18C701.32 1115.64 712.38 1139.56 684.55 1149.04C655 1174.71 628.91 1274.42 662.41 1292.98C670.45 1297.44 683.94 1298.19 702.34 1287.49L733.89 1317.68C698.99 1378.03 721.74 1341.03 690.3 1390.94C686.77 1396.56 671.38 1499.89 664.05 1586.89L561.19 1586.89C586.56 1488.68 590.47 1417.03 594.62 1388.76ZM756.47 1271.05C756.34 1282.15 719.93 1341.84 718.05 1342.72C710.99 1346.03 675.91 1337.95 667.2 1298.85C671 1295.99 713.61 1284.05 719.54 1268.3C729.95 1240.66 769.27 1232.38 756.47 1271.05Z" />
		<path id="Path 18" class="shp5" d="M675.24 1598.79L694.46 1431.25L575.81 1415.77L528.53 1598.79L675.24 1598.79Z" />
		<path id="Path 19" class="shp7" d="M675.24 1598.79L694.46 1431.25L640.21 1424.17L608.44 1598.79L675.24 1598.79Z" />
		<path id="Path 20" class="shp6" d="M1007.8 1388.3C1008.32 1343.38 1015.66 1279.68 998.05 1262.91C993.12 1251.42 979.69 1187.05 937.92 1143.38C929.65 1134.73 911.18 1120.75 892.55 1117.99C883.66 1118.21 874.68 1142.99 903.22 1150.07C928.25 1176.72 963.87 1277.31 932.08 1298.66C924.45 1303.79 911.08 1305.7 891.83 1296.6L862.97 1329.38C902.9 1386.52 877.08 1351.61 912.66 1398.65C916.66 1403.94 940.81 1505.58 955.55 1591.64L1058.03 1582.85C1024.36 1487.17 1014.35 1416.11 1007.8 1388.3ZM836.78 1275.85C837.87 1286.9 874.97 1348.75 876.92 1349.46C884.24 1352.15 921.85 1340.86 927.19 1301.16C923.16 1298.63 880.6 1285.14 873.35 1269.95C860.62 1243.31 820.73 1238.42 836.78 1275.85Z" />
		<path id="Path 21" class="shp5" d="M924.76 1600L905.54 1432.46L1024.19 1416.98L1071.47 1600L924.76 1600Z" />
		<path id="Path 22" class="shp7" d="M922.34 1600L903.12 1432.46L957.37 1425.38L989.14 1600L922.34 1600Z" />
		<path id="Path 23" class="shp4" d="M261.03 783.57C262.57 789.78 272.96 831.64 278.3 853.17C280.02 860.09 274.75 865.33 265.58 865.29C257.9 865.27 252.19 865.18 252.19 865.18L231.51 781.79C231.51 781.79 237.68 779.98 246.08 777.45C254.48 774.92 259.51 777.42 261.03 783.57Z" />
		<path id="Path 24" class="shp2" d="M227.35 850.75C232.27 857.52 238.19 863.26 244.72 867.65L221.89 775.68C217.95 781.66 215.21 788.74 213.89 796.46L227.35 850.75Z" />
		<path id="Path 25" class="shp4" d="M395.1 783.57C393.56 789.78 383.16 831.64 377.82 853.18C376.11 860.1 381.37 865.34 390.54 865.3C398.22 865.28 403.92 865.18 403.92 865.18L424.61 781.79C424.61 781.79 418.44 779.98 410.05 777.46C401.66 774.92 396.63 777.42 395.1 783.57Z" />
		<path id="Path 26" class="shp2" d="M330.38 899.55C330.38 899.55 397.05 890.32 404.24 854.37L412.4 858.02C412.4 858.02 402.94 899.67 331.3 906.34L330.38 899.55Z" />
		<path id="Path 27" class="shp5" d="M342.8 901.79C342.8 911.88 333.72 920.06 322.52 920.06C311.32 920.06 302.24 911.88 302.24 901.79C302.24 891.71 311.32 883.53 322.52 883.53C333.72 883.53 342.8 891.71 342.8 901.79Z" />
		<path id="Path 28" class="shp2" d="M427.29 851.11C422.36 857.64 416.44 863.2 409.93 867.48L432.95 779.46C436.87 785.1 439.57 791.81 440.88 799.16L427.29 851.11Z" />
		<path id="Path 29" class="shp8" d="M433.55 778.57L432.38 778.39C432.86 775.38 433.47 770.4 433.3 767.7C433.22 766.34 432.78 765.56 432.14 765.08C432.15 764.22 432.18 763.39 432.18 762.53C432.18 720.83 385.38 687.02 327.66 687.02C269.94 687.02 223.15 720.83 223.15 762.53C223.15 763.28 223.16 764.03 223.18 764.78C222.26 765.22 221.61 766.02 221.52 767.7C221.35 770.4 221.94 775.37 222.44 778.39C221.74 778.5 221.26 778.57 221.26 778.57L221.23 778.62L244.05 870.6L244.11 870.64C244.11 870.64 248.07 870.02 250.76 869.62C253.41 869.21 254.93 867.7 254.41 865.54C253.86 863.39 233.57 781.6 233.07 779.62C232.87 778.81 232.4 778.28 231.81 777.94C231.05 774 231.34 769.29 231.96 766.2C232.18 765.04 231.94 763.74 229.61 763.77C229.85 726.01 273.65 697.64 327.66 697.64C381.68 697.64 425.49 726.02 425.71 763.79C425.59 763.78 425.46 763.77 425.35 763.77C422.87 763.67 422.62 765.01 422.86 766.2C423.46 769.29 423.78 773.98 423.03 777.92C422.43 778.26 421.95 778.8 421.75 779.62C421.25 781.6 400.96 863.39 400.41 865.54C399.89 867.7 401.39 869.21 404.07 869.62C406.74 870.02 410.72 870.64 410.72 870.64L410.77 870.6L433.59 778.62L433.55 778.57Z" />
		<path id="Path 30" class="shp5" d="M393.86 708.19C397.64 704.16 398.47 702.83 398.47 702.83C380.61 690.26 355.38 682.66 327.41 682.66C300.86 682.66 276.76 689.52 259.1 701C259.1 701 260.49 703.31 264.52 707.49C268.56 711.68 275.01 712.2 281.47 709.92C295.18 705.07 310.68 701.83 327.43 701.83C345.06 701.83 361.53 705.07 375.52 710.77C384.94 713.95 390.09 712.2 393.86 708.19Z" />
		<path id="Path 31" class="shp2" d="M1280.14 971.19L1433.71 971.19L1433.71 601.13L1280.14 601.13L1280.14 971.19Z" />
		<path id="Path 32" class="shp5" d="M1433.71 894.97L1433.71 971.2L1280.14 971.2L1280.14 894.97C1296.76 867.62 1324.95 849.63 1356.92 849.63C1388.9 849.63 1417.09 867.62 1433.71 894.97Z" />
		<path id="Path 33" class="shp9" d="M1293.36 820.37L1420.49 820.37L1420.49 791.74L1293.36 791.74L1293.36 820.37ZM1293.36 780.5L1420.49 780.5L1420.49 610.57L1293.36 610.57L1293.36 780.5Z" />
		<path id="Path 34" class="shp2" d="M1302.48 654.62L1410.1 654.62L1410.1 625.36L1302.48 625.36L1302.48 654.62ZM1302.48 688.14L1410.1 688.14L1410.1 658.87L1302.48 658.87L1302.48 688.14ZM1302.48 721.65L1410.1 721.65L1410.1 692.39L1302.48 692.39L1302.48 721.65ZM1302.48 755.17L1410.1 755.17L1410.1 725.9L1302.48 725.9L1302.48 755.17Z" />
		<path id="Path 35" class="shp10" d="M1327.11 802.37L1343.78 802.37L1343.78 797.33L1327.11 797.33L1327.11 802.37ZM1347.72 802.37L1364.4 802.37L1364.4 797.33L1347.72 797.33L1347.72 802.37ZM1370.06 802.37L1386.74 802.37L1386.74 797.33L1370.06 797.33L1370.06 802.37ZM1352.67 813.46C1353.67 813.46 1354.48 812.64 1354.48 811.65C1354.48 810.65 1353.67 809.84 1352.67 809.84C1351.68 809.84 1350.86 810.65 1350.86 811.65C1350.86 812.64 1351.68 813.46 1352.67 813.46ZM1361.09 813.54C1362.13 813.54 1362.98 812.69 1362.98 811.65C1362.98 810.61 1362.13 809.76 1361.09 809.76C1360.05 809.76 1359.2 810.61 1359.2 811.65C1359.2 812.69 1360.05 813.54 1361.09 813.54Z" />
		<path id="Path 36" class="shp5" d="M1305 846.17C1309.51 846.17 1313.18 842.5 1313.18 837.99C1313.18 833.49 1309.51 829.81 1305 829.81C1300.49 829.81 1296.82 833.49 1296.82 837.99C1296.82 842.5 1300.49 846.17 1305 846.17ZM1408.85 846.17C1413.35 846.17 1417.03 842.5 1417.03 837.99C1417.03 833.49 1413.35 829.81 1408.85 829.81C1404.34 829.81 1400.66 833.49 1400.66 837.99C1400.66 842.5 1404.34 846.17 1408.85 846.17Z" />
		<path id="Path 37" class="shp11" d="M1288.48 984.95L1318.37 984.95L1318.37 971.19L1288.48 971.19L1288.48 984.95ZM1395.47 984.95L1425.37 984.95L1425.37 971.19L1395.47 971.19L1395.47 984.95Z" />
		<path id="Path 38" class="shp12" d="M1185.31 1198.72L1334.02 1198.72C1338.73 1198.72 1342.57 1202.57 1342.57 1207.27L1342.57 1445.47C1342.57 1450.17 1338.73 1454.02 1334.02 1454.02L1185.31 1454.02C1180.61 1454.02 1176.76 1450.17 1176.76 1445.47L1176.76 1207.27C1176.76 1202.57 1180.61 1198.72 1185.31 1198.72Z" />
		<path id="Path 39" class="shp2" d="M1185.31 1184.58L1334.02 1184.58C1338.73 1184.58 1342.57 1188.42 1342.57 1193.12L1342.57 1431.33C1342.57 1436.03 1338.73 1439.87 1334.02 1439.87L1185.31 1439.87C1180.61 1439.87 1176.76 1436.03 1176.76 1431.33L1176.76 1193.12C1176.76 1188.42 1180.61 1184.58 1185.31 1184.58Z" />
		<path id="Path 40" class="shp13" d="M1195.84 1326.7L1323.49 1326.7L1323.49 1216.16L1195.84 1216.16L1195.84 1326.7Z" />
		<path id="Path 41" class="shp14" d="M1195.84 1331.64L1323.49 1331.64L1323.49 1221.09L1195.84 1221.09L1195.84 1331.64ZM1217.64 1347.42L1222.74 1347.42C1226.05 1347.42 1228.74 1350.11 1228.74 1353.43L1228.74 1357.21C1228.74 1360.53 1231.43 1363.21 1234.75 1363.21L1238.53 1363.21C1241.85 1363.21 1244.53 1365.9 1244.53 1369.22L1244.53 1374.32C1244.53 1377.63 1241.85 1380.32 1238.53 1380.32L1234.75 1380.32C1231.43 1380.32 1228.74 1383.01 1228.74 1386.33L1228.74 1390.11C1228.74 1393.42 1226.05 1396.11 1222.74 1396.11L1217.64 1396.11C1214.32 1396.11 1211.63 1393.42 1211.63 1390.11L1211.63 1386.33C1211.63 1383.01 1208.95 1380.32 1205.63 1380.32L1201.85 1380.32C1198.53 1380.32 1195.84 1377.63 1195.84 1374.32L1195.84 1369.22C1195.84 1365.9 1198.53 1363.21 1201.85 1363.21L1205.63 1363.21C1208.95 1363.21 1211.63 1360.53 1211.63 1357.21L1211.63 1353.43C1211.63 1350.11 1214.32 1347.42 1217.64 1347.42ZM1297.27 1361.66C1301.83 1361.66 1305.55 1357.95 1305.55 1353.39C1305.55 1348.83 1301.83 1345.11 1297.27 1345.11C1292.72 1345.11 1289 1348.83 1289 1353.39C1289 1357.95 1292.72 1361.66 1297.27 1361.66ZM1297.27 1397.55C1301.83 1397.55 1305.55 1393.83 1305.55 1389.27C1305.55 1384.72 1301.83 1381 1297.27 1381C1292.72 1381 1289 1384.72 1289 1389.27C1289 1393.83 1292.72 1397.55 1297.27 1397.55ZM1271.06 1371.33C1271.06 1366.76 1274.76 1363.06 1279.33 1363.06C1283.9 1363.06 1287.61 1366.76 1287.61 1371.33C1287.61 1375.9 1283.9 1379.61 1279.33 1379.61C1274.76 1379.61 1271.06 1375.9 1271.06 1371.33ZM1306.94 1371.33C1306.94 1366.76 1310.65 1363.06 1315.22 1363.06C1319.79 1363.06 1323.49 1366.76 1323.49 1371.33C1323.49 1375.9 1319.79 1379.61 1315.22 1379.61C1310.65 1379.61 1306.94 1375.9 1306.94 1371.33ZM1233.1 1413.71L1243.63 1413.71L1243.63 1409.76L1233.1 1409.76L1233.1 1413.71ZM1254.4 1413.71L1264.93 1413.71L1264.93 1409.76L1254.4 1409.76L1254.4 1413.71ZM1275.71 1413.71L1286.23 1413.71L1286.23 1409.76L1275.71 1409.76L1275.71 1413.71Z" />
		<path id="Path 42" class="shp1" d="M154.75 1282.38L367.18 1282.38L367.18 990.62L154.75 990.62L154.75 1282.38Z" />
		<path id="Path 43" class="shp11" d="M186.34 1282.38L398.77 1282.38L398.77 990.62L186.34 990.62L186.34 1282.38Z" />
		<path id="Path 44" class="shp15" d="M154.75 1282.38L186.34 1282.38L198.95 1297.51L142.14 1297.51L154.75 1282.38Z" />
		<path id="Path 45" class="shp1" d="M186.34 1282.38L398.78 1282.38L411.38 1297.51L198.95 1297.51L186.34 1282.38Z" />
		<path id="Path 46" class="shp5" d="M167.21 1282.38L170.91 1282.38L170.91 990.62L167.21 990.62L167.21 1282.38ZM154.75 1120.69L398.77 1120.69L398.77 1124.39L154.75 1124.39L154.75 1120.69Z" />
		<path id="Path 47" class="shp2" d="M303.41 1302.83C316.94 1302.83 327.97 1291.8 327.97 1278.27C327.97 1264.75 316.94 1253.71 303.41 1253.71C289.89 1253.71 278.85 1264.75 278.85 1278.27C278.85 1291.8 289.89 1302.83 303.41 1302.83ZM407.95 1302.83C421.47 1302.83 432.51 1291.8 432.51 1278.27C432.51 1264.75 421.47 1253.71 407.95 1253.71C394.42 1253.71 383.39 1264.75 383.39 1278.27C383.39 1291.8 394.42 1302.83 407.95 1302.83Z" />
		<path id="Path 48" class="shp11" d="M312.61 1216.13C304.37 1206.22 265.88 1194.65 252.2 1216.78L264.47 1222.18L312.61 1216.13ZM398.72 1216.13C406.96 1206.22 445.45 1194.65 459.12 1216.78L446.85 1222.18L398.72 1216.13Z" />
		<path id="Path 49" class="shp2" d="M255.08 1213.29C241.15 1228.55 231.37 1262.24 227.58 1298.46C223.14 1340.91 225.11 1359.18 245.35 1360.66C265.59 1362.14 274.48 1317.71 286.33 1305.37C305.72 1285.17 329.74 1288.78 355.68 1288.67C381.62 1288.78 405.64 1285.17 425.03 1305.37C436.88 1317.71 445.77 1362.14 466.01 1360.66C486.25 1359.18 488.22 1340.91 483.78 1298.46C479.99 1262.24 470.21 1228.55 456.28 1213.29L255.08 1213.29Z" />
		<path id="Path 50" class="shp1" d="M271.51 1270.19C288.1 1270.19 301.62 1256.66 301.62 1240.08C301.62 1223.49 288.1 1209.96 271.51 1209.96C254.92 1209.96 241.4 1223.49 241.4 1240.08C241.4 1256.66 254.92 1270.19 271.51 1270.19ZM438.86 1270.19C455.45 1270.19 468.97 1256.66 468.97 1240.08C468.97 1223.49 455.45 1209.96 438.86 1209.96C422.27 1209.96 408.75 1223.49 408.75 1240.08C408.75 1256.66 422.27 1270.19 438.86 1270.19Z" />
		<path id="Path 51" class="shp5" d="M263.7 1222.65C263.7 1220.98 265.05 1219.63 266.72 1219.63L271.11 1219.63L275.5 1219.63C277.17 1219.63 278.52 1220.98 278.52 1222.65L278.52 1232.09C269.7 1240.02 272.52 1240.03 263.7 1232.09L263.7 1222.65ZM252.03 1249.28C250.28 1249.28 248.87 1247.87 248.87 1246.12L248.87 1241.87L248.87 1237.62C248.87 1235.87 250.28 1234.46 252.03 1234.46L261.33 1234.46C269.27 1243.28 269.27 1240.46 261.33 1249.28L252.03 1249.28ZM278.52 1260.97C278.52 1262.7 277.12 1264.11 275.38 1264.11L271.11 1264.11L266.84 1264.11C265.11 1264.11 263.7 1262.7 263.7 1260.97L263.7 1251.65C272.53 1243.71 269.7 1243.71 278.52 1251.65L278.52 1260.97ZM290.12 1234.46C291.91 1234.46 293.36 1235.91 293.36 1237.69L293.36 1241.87L293.36 1246.05C293.36 1247.83 291.91 1249.28 290.12 1249.28L280.89 1249.28C272.96 1240.45 272.95 1243.28 280.89 1234.46L290.12 1234.46ZM438.86 1232.09C443.11 1232.09 446.57 1228.62 446.57 1224.37C446.57 1220.13 443.11 1216.66 438.86 1216.66C434.61 1216.66 431.15 1220.13 431.15 1224.37C431.15 1228.62 434.61 1232.09 438.86 1232.09ZM438.86 1263.5C443.11 1263.5 446.57 1260.03 446.57 1255.78C446.57 1251.54 443.11 1248.07 438.86 1248.07C434.61 1248.07 431.15 1251.54 431.15 1255.78C431.15 1260.03 434.61 1263.5 438.86 1263.5ZM415.44 1240.08C415.44 1235.82 418.89 1232.37 423.15 1232.37C427.41 1232.37 430.87 1235.82 430.87 1240.08C430.87 1244.34 427.41 1247.79 423.15 1247.79C418.89 1247.79 415.44 1244.34 415.44 1240.08ZM446.85 1240.08C446.85 1235.82 450.3 1232.37 454.56 1232.37C458.82 1232.37 462.28 1235.82 462.28 1240.08C462.28 1244.34 458.82 1247.79 454.56 1247.79C450.3 1247.79 446.85 1244.34 446.85 1240.08ZM304.47 1295.31C313.51 1295.31 320.88 1287.93 320.88 1278.89C320.88 1269.85 313.51 1262.48 304.47 1262.48C295.43 1262.48 288.05 1269.85 288.05 1278.89C288.05 1287.93 295.43 1295.31 304.47 1295.31Z" />
		<path id="Path 52" class="shp16" d="M304.47 1287.97C309.47 1287.97 313.55 1283.89 313.55 1278.89C313.55 1273.89 309.47 1269.82 304.47 1269.82C299.47 1269.82 295.39 1273.89 295.39 1278.89C295.39 1283.89 299.47 1287.97 304.47 1287.97Z" />
		<path id="Path 53" class="shp5" d="M403.51 1295.31C412.55 1295.31 419.92 1287.93 419.92 1278.89C419.92 1269.85 412.55 1262.48 403.51 1262.48C394.47 1262.48 387.1 1269.85 387.1 1278.89C387.1 1287.93 394.47 1295.31 403.51 1295.31Z" />
		<path id="Path 54" class="shp16" d="M403.51 1287.97C408.51 1287.97 412.59 1283.89 412.59 1278.89C412.59 1273.89 408.51 1269.82 403.51 1269.82C398.51 1269.82 394.43 1273.89 394.43 1278.89C394.43 1283.89 398.51 1287.97 403.51 1287.97Z" />
		<path id="Path 55" class="shp5" d="M306.85 1209.96L404.52 1209.96L404.52 1250.2C404.52 1252.98 402.18 1255.26 399.33 1255.26L312.03 1255.26C309.18 1255.26 306.85 1252.98 306.85 1250.2L306.85 1209.96Z" />
		<path id="Path 56" class="shp17" d="M251.94 442.81L251.94 442.81C287.18 432.33 324.58 452.58 335.06 487.82L352.39 546.06C362.87 581.3 342.61 618.7 307.38 629.18L307.37 629.18C272.14 639.66 234.74 619.41 224.26 584.17L206.93 525.93C196.45 490.69 216.71 453.29 251.94 442.81Z" />
		<path id="Path 57" class="shp11" d="M247.39 427.52L247.4 427.52C282.63 417.04 320.03 437.29 330.51 472.53L347.84 530.77C358.32 566.01 338.06 603.41 302.83 613.89L302.83 613.89C267.59 624.37 230.19 604.12 219.71 568.88L202.38 510.64C191.9 475.4 212.16 438 247.39 427.52Z" />
		<path id="Path 58" class="shp17" d="M272.87 545.15L217.54 561.61C202.17 509.94 175.18 450.19 237.46 426.11L272.87 545.15ZM254.94 420.91C320.25 407.04 330.3 471.83 345.67 523.5L290.35 539.95L254.94 420.91Z" />
		<path id="Path 59" class="shp18" d="M272.87 545.15L290.35 539.95L258.19 431.85L240.71 437.05L272.87 545.15Z" />
		<path id="Path 60" class="shp19" d="M258.06 495.38L275.54 490.18L260.28 438.85L242.8 444.05L258.06 495.38Z" />
		<path id="Path 61" class="shp20" d="M247.19 451.31L260.56 447.33L259.51 443.78L246.13 447.76L247.19 451.31ZM249.52 459.14L262.89 455.16L261.84 451.61L248.46 455.59L249.52 459.14ZM251.84 466.96L265.22 462.99L264.17 459.44L250.79 463.42L251.84 466.96ZM254.17 474.79L267.55 470.81L266.49 467.26L253.12 471.24L254.17 474.79ZM256.5 482.62L269.88 478.64L268.82 475.09L255.44 479.07L256.5 482.62ZM258.83 490.44L272.2 486.46L271.15 482.92L257.77 486.89L258.83 490.44Z" />
		<path id="Path 62" class="shp21" d="M218.2 563.8L346.33 525.69L345.67 523.5L217.54 561.61L218.2 563.8Z" />
		<path id="Path 63" class="shp5" d="M243.92 426.44C242.63 422.76 241.34 418.31 240.35 414.16C239.42 410.23 238.75 406.52 238.59 403.92L238.59 403.9C236.95 376.92 223.02 372.94 209.69 369.13C191.84 364.04 174.9 359.2 181.71 314.58L187.7 315.5C181.7 354.85 196.13 358.97 211.35 363.32C226.7 367.7 242.75 372.28 244.64 403.54L244.64 403.54C244.78 405.8 245.39 409.15 246.25 412.75C247.19 416.73 248.42 420.97 249.64 424.44L243.92 426.44ZM243.63 436.18L255.28 432.72L249.92 414.7L238.27 418.17L243.63 436.18Z" />
		<path id="Path 64" class="shp21" d="M263.37 500.94L274.2 497.72C275.35 497.37 276.57 498.04 276.91 499.19L279.19 506.83C279.53 507.98 278.87 509.21 277.72 509.55L266.89 512.77C265.74 513.11 264.51 512.45 264.17 511.3L261.9 503.65C261.56 502.5 262.22 501.28 263.37 500.94ZM267.75 515.68L278.58 512.46C279.73 512.12 280.95 512.78 281.3 513.93L283.57 521.58C283.91 522.73 283.25 523.95 282.1 524.29L271.27 527.51C270.12 527.85 268.9 527.19 268.56 526.04L266.28 518.4C265.94 517.24 266.6 516.02 267.75 515.68ZM272.14 530.42L282.97 527.2C284.12 526.86 285.34 527.52 285.68 528.67L287.96 536.32C288.3 537.47 287.64 538.69 286.49 539.03L275.65 542.25C274.5 542.6 273.28 541.94 272.94 540.79L270.67 533.14C270.32 531.99 270.98 530.77 272.14 530.42Z" />
		<path id="Path 65" class="shp5" d="M1540.94 1105.78C1540.95 1111.12 1536.63 1115.45 1531.28 1115.46L1209 1115.93C1203.66 1115.93 1199.33 1111.61 1199.32 1106.27L1199.18 1011.73C1199.18 1006.39 1203.5 1002.06 1208.84 1002.05L1531.13 1001.59C1536.46 1001.58 1540.79 1005.9 1540.8 1011.24L1540.94 1105.78Z" />
		<path id="Path 66" class="shp9" d="M1217.97 1014.94L1205.29 1014.95L1205.3 1026.32L1217.98 1026.31L1217.97 1014.94ZM1240.73 1014.92L1228.05 1014.93L1228.07 1026.3L1240.75 1026.29L1240.73 1014.92ZM1256.24 1014.91L1243.56 1014.92L1243.57 1026.29L1256.25 1026.28L1256.24 1014.91ZM1271.75 1014.89L1259.07 1014.9L1259.08 1026.27L1271.76 1026.26L1271.75 1014.89ZM1287.26 1014.88L1274.58 1014.89L1274.59 1026.26L1287.27 1026.25L1287.26 1014.88ZM1308.5 1014.86L1295.82 1014.87L1295.83 1026.24L1308.5 1026.23L1308.5 1014.86ZM1324.01 1014.84L1311.32 1014.86L1311.34 1026.23L1324.02 1026.21L1324.01 1014.84ZM1339.51 1014.83L1326.83 1014.84L1326.85 1026.21L1339.53 1026.2L1339.51 1014.83ZM1355.02 1014.82L1342.34 1014.83L1342.36 1026.19L1355.03 1026.18L1355.02 1014.82ZM1373.23 1014.79L1360.55 1014.81L1360.56 1026.18L1373.24 1026.17L1373.23 1014.79ZM1388.74 1014.78L1376.06 1014.79L1376.06 1026.17L1388.75 1026.15L1388.74 1014.78ZM1404.24 1014.77L1391.56 1014.78L1391.58 1026.15L1404.25 1026.14L1404.24 1014.77ZM1407.08 1026.14L1419.76 1026.13L1419.75 1014.75L1407.07 1014.76L1407.08 1026.14ZM1438.94 1014.73L1426.26 1014.75L1426.27 1026.11L1438.95 1026.1L1438.94 1014.73ZM1441.78 1026.1L1454.46 1026.09L1454.46 1014.72L1441.77 1014.73L1441.78 1026.1ZM1457.28 1026.09L1469.97 1026.07L1469.96 1014.71L1457.28 1014.72L1457.28 1026.09ZM1205.8 1045L1218.48 1044.98L1218.48 1033.61L1205.8 1033.63L1205.8 1045ZM1232.99 1033.6L1220.32 1033.61L1220.32 1044.98L1233 1044.97L1232.99 1033.6ZM1234.84 1044.97L1247.52 1044.96L1247.51 1033.58L1234.83 1033.6L1234.84 1044.97ZM1262.03 1033.57L1249.35 1033.58L1249.36 1044.96L1262.04 1044.94L1262.03 1033.57ZM1276.55 1033.56L1263.87 1033.57L1263.87 1044.95L1276.55 1044.93L1276.55 1033.56ZM1278.39 1044.93L1291.07 1044.91L1291.06 1033.55L1278.38 1033.56L1278.39 1044.93ZM1305.58 1033.53L1292.9 1033.54L1292.91 1044.91L1305.59 1044.9L1305.58 1033.53ZM1307.42 1044.9L1320.1 1044.89L1320.1 1033.52L1307.41 1033.53L1307.42 1044.9ZM1321.94 1044.89L1334.62 1044.87L1334.61 1033.51L1321.93 1033.52L1321.94 1044.89ZM1336.46 1044.87L1349.15 1044.86L1349.13 1033.49L1336.45 1033.51L1336.46 1044.87ZM1350.98 1044.86L1363.66 1044.85L1363.65 1033.48L1350.97 1033.49L1350.98 1044.86ZM1365.5 1044.84L1378.18 1044.83L1378.16 1033.47L1365.48 1033.48L1365.5 1044.84ZM1392.68 1033.45L1380 1033.46L1380.01 1044.83L1392.69 1044.82L1392.68 1033.45ZM1419.41 1033.65L1394.73 1033.68L1394.75 1045.04L1419.42 1045.02L1419.41 1033.65ZM1206.16 1047.67L1206.17 1059.04L1221.95 1059.03L1221.94 1047.66L1206.16 1047.67ZM1236.59 1047.65L1223.91 1047.66L1223.92 1059.03L1236.61 1059.02L1236.59 1047.65ZM1238.44 1059.02L1251.12 1059L1251.11 1047.63L1238.43 1047.64L1238.44 1059.02ZM1265.62 1047.62L1252.94 1047.63L1252.96 1059L1265.64 1058.99L1265.62 1047.62ZM1280.14 1047.61L1267.46 1047.62L1267.48 1058.99L1280.16 1058.97L1280.14 1047.61ZM1294.66 1047.59L1281.98 1047.6L1281.99 1058.97L1294.68 1058.96L1294.66 1047.59ZM1296.51 1058.96L1309.19 1058.95L1309.18 1047.58L1296.5 1047.59L1296.51 1058.96ZM1311.03 1058.94L1323.71 1058.93L1323.69 1047.56L1311.02 1047.58L1311.03 1058.94ZM1325.54 1058.93L1338.23 1058.92L1338.21 1047.55L1325.54 1047.56L1325.54 1058.93ZM1340.06 1058.92L1352.74 1058.91L1352.73 1047.54L1340.05 1047.55L1340.06 1058.92ZM1354.58 1058.91L1367.26 1058.89L1367.24 1047.52L1354.57 1047.53L1354.58 1058.91ZM1369.09 1058.89L1381.77 1058.88L1381.76 1047.51L1369.09 1047.52L1369.09 1058.89ZM1383.61 1058.88L1396.29 1058.87L1396.29 1047.49L1383.6 1047.51L1383.61 1058.88ZM1205.65 1073.54L1224.85 1073.52L1224.84 1062.15L1205.64 1062.17L1205.65 1073.54ZM1239.64 1062.14L1226.96 1062.15L1226.97 1073.52L1239.65 1073.51L1239.64 1062.14ZM1254.16 1062.12L1241.48 1062.14L1241.49 1073.51L1254.17 1073.5L1254.16 1062.12ZM1268.68 1062.11L1255.99 1062.12L1256 1073.49L1268.68 1073.48L1268.68 1062.11ZM1283.19 1062.1L1270.51 1062.11L1270.52 1073.48L1283.2 1073.47L1283.19 1062.1ZM1297.71 1062.09L1285.03 1062.1L1285.04 1073.47L1297.72 1073.46L1297.71 1062.09ZM1312.23 1062.07L1299.55 1062.08L1299.55 1073.45L1312.23 1073.44L1312.23 1062.07ZM1326.74 1062.05L1314.06 1062.07L1314.07 1073.44L1326.76 1073.43L1326.74 1062.05ZM1341.26 1062.04L1328.58 1062.05L1328.59 1073.43L1341.27 1073.42L1341.26 1062.04ZM1355.78 1062.03L1343.1 1062.04L1343.1 1073.41L1355.79 1073.4L1355.78 1062.03ZM1370.29 1062.02L1357.61 1062.03L1357.62 1073.4L1370.31 1073.39L1370.29 1062.02ZM1384.81 1062L1372.13 1062.01L1372.14 1073.38L1384.83 1073.37L1384.81 1062ZM1399.33 1061.99L1386.65 1062L1386.66 1073.37L1399.35 1073.36L1399.33 1061.99ZM1398.35 1058.61C1400.83 1058.62 1399.57 1058.64 1401.44 1058.73C1401.44 1061.43 1401.22 1070.02 1401.38 1073.33L1419.59 1073.23L1419.77 1047.6L1398.34 1047.48C1398.32 1051.25 1398.4 1053.91 1398.35 1058.61ZM1230.61 1075.97L1205.21 1075.99L1205.21 1087.36L1230.62 1087.34L1230.61 1075.97ZM1392.69 1087.19L1419.45 1087.16L1419.44 1075.79L1392.68 1075.82L1392.69 1087.19ZM1245.13 1075.96L1232.46 1075.97L1232.47 1087.34L1245.15 1087.33L1245.13 1075.96ZM1246.99 1087.32L1259.67 1087.31L1259.65 1075.94L1246.98 1075.96L1246.99 1087.32ZM1274.17 1075.93L1261.49 1075.94L1261.5 1087.31L1274.18 1087.3L1274.17 1075.93ZM1288.69 1075.92L1276.01 1075.93L1276.02 1087.3L1288.7 1087.29L1288.69 1075.92ZM1303.21 1075.9L1290.53 1075.91L1290.54 1087.28L1303.22 1087.27L1303.21 1075.9ZM1317.72 1075.89L1305.05 1075.9L1305.05 1087.27L1317.73 1087.26L1317.72 1075.89ZM1332.24 1075.87L1319.56 1075.89L1319.57 1087.26L1332.25 1087.25L1332.24 1075.87ZM1346.76 1075.86L1334.08 1075.88L1334.09 1087.25L1346.77 1087.23L1346.76 1075.86ZM1361.28 1075.85L1348.6 1075.86L1348.6 1087.23L1361.29 1087.22L1361.28 1075.85ZM1375.8 1075.84L1363.12 1075.85L1363.12 1087.22L1375.8 1087.2L1375.8 1075.84ZM1390.31 1075.82L1377.63 1075.83L1377.64 1087.2L1390.32 1087.19L1390.31 1075.82ZM1261.56 1101.41L1366.48 1101.31L1366.46 1089.95L1261.54 1090.04L1261.56 1101.41ZM1205.1 1101.47L1224.69 1101.45L1224.68 1090.08L1205.09 1090.1L1205.1 1101.47ZM1226.9 1101.45L1241.67 1101.44L1241.66 1090.06L1226.89 1090.08L1226.9 1101.45ZM1243.51 1101.43L1259.24 1101.41L1259.23 1090.04L1243.5 1090.06L1243.51 1101.43ZM1368.24 1101.31L1387.83 1101.29L1387.82 1089.92L1368.23 1089.94L1368.24 1101.31ZM1390.01 1101.3L1403.87 1101.28L1403.86 1089.91L1390 1089.93L1390.01 1101.3ZM1406.18 1101.28L1419.46 1101.27L1419.46 1089.9L1406.17 1089.91L1406.18 1101.28ZM1441.5 1088.66L1454.18 1088.64L1454.17 1077.28L1441.49 1077.29L1441.5 1088.66ZM1426.99 1102.16L1439.68 1102.15L1439.67 1090.78L1426.99 1090.79L1426.99 1102.16ZM1441.52 1102.15L1454.19 1102.14L1454.18 1090.76L1441.51 1090.77L1441.52 1102.15ZM1456.03 1102.13L1468.72 1102.12L1468.7 1090.75L1456.02 1090.76L1456.03 1102.13ZM1427.3 1045.01L1439.99 1045L1439.97 1033.63L1427.29 1033.64L1427.3 1045.01ZM1441.8 1045L1454.48 1044.99L1454.47 1033.62L1441.79 1033.63L1441.8 1045ZM1456.3 1044.99L1468.98 1044.98L1468.97 1033.6L1456.29 1033.62L1456.3 1044.99ZM1427.31 1058.16L1439.99 1058.15L1439.98 1046.78L1427.31 1046.79L1427.31 1058.16ZM1441.82 1058.15L1454.49 1058.14L1454.49 1046.77L1441.8 1046.78L1441.82 1058.15ZM1456.31 1058.14L1468.99 1058.12L1468.97 1046.75L1456.3 1046.77L1456.31 1058.14ZM1490.89 1034.6L1478.21 1034.61L1478.23 1045.98L1490.9 1045.97L1490.89 1034.6ZM1492.94 1045.96L1505.62 1045.95L1505.61 1034.58L1492.93 1034.59L1492.94 1045.96ZM1507.66 1045.95L1520.34 1045.94L1520.33 1034.57L1507.64 1034.58L1507.66 1045.95ZM1522.37 1045.94L1535.05 1045.92L1535.04 1034.56L1522.36 1034.57L1522.37 1045.94ZM1491.08 1014.61L1478.39 1014.62L1478.41 1025.99L1491.09 1025.98L1491.08 1014.61ZM1493.12 1025.98L1505.8 1025.97L1505.79 1014.6L1493.11 1014.6L1493.12 1025.98ZM1507.84 1025.96L1520.52 1025.95L1520.51 1014.58L1507.82 1014.59L1507.84 1025.96ZM1522.54 1014.58L1522.55 1025.95L1535.24 1025.94L1535.23 1014.57L1522.54 1014.58ZM1490.9 1048.42L1478.22 1048.43L1478.23 1059.8L1490.92 1059.79L1490.9 1048.42ZM1492.95 1059.79L1505.63 1059.78L1505.63 1048.41L1492.94 1048.42L1492.95 1059.79ZM1507.67 1059.77L1520.35 1059.76L1520.34 1048.39L1507.65 1048.4L1507.67 1059.77ZM1522.4 1073.76L1535.08 1073.75L1535.06 1048.87L1522.38 1048.88L1522.4 1073.76ZM1490.92 1062.24L1478.24 1062.25L1478.25 1073.62L1490.93 1073.61L1490.92 1062.24ZM1492.96 1073.61L1505.64 1073.6L1505.64 1062.23L1492.96 1062.24L1492.96 1073.61ZM1507.68 1073.6L1520.36 1073.58L1520.35 1062.21L1507.67 1062.22L1507.68 1073.6ZM1490.93 1076.4L1478.25 1076.41L1478.25 1087.78L1490.95 1087.77L1490.93 1076.4ZM1492.98 1087.77L1505.66 1087.76L1505.65 1076.38L1492.97 1076.4L1492.98 1087.77ZM1507.7 1087.76L1520.37 1087.74L1520.36 1076.37L1507.69 1076.38L1507.7 1087.76ZM1478.73 1101.61L1505.33 1101.58L1505.33 1090.21L1478.72 1090.24L1478.73 1101.61ZM1507.71 1101.58L1520.39 1101.57L1520.38 1090.2L1507.7 1090.21L1507.71 1101.58ZM1522.43 1101.09L1535.11 1101.08L1535.08 1076.83L1522.4 1076.84L1522.43 1101.09Z" />
		<path id="Path 67" class="shp4" d="M876.17 212.84C876.21 212.16 876.88 208.11 876.54 205.59C875.68 199.2 836.54 201.51 837.42 207.91L838.26 213.89L876.17 212.84ZM710.75 256.56C710.38 255.98 707.81 252.78 706.86 250.42C704.47 244.43 739.71 227.21 742.08 233.23L744.29 238.84L710.75 256.56Z" />
		<path id="Path 68" class="shp12" d="M793.18 232.29C787.83 233.61 767.82 238.47 764.37 237.97C760.42 237.39 750 233.85 747.08 233.89C735.99 234.02 708.28 246.05 705.63 255.94C705.63 255.94 698.98 291.27 701.23 325.44C703.48 359.6 710.93 380.73 716.57 388.88C722.22 397.03 726.87 399.76 732.62 398.83C738.36 397.92 744.45 394.42 754.77 383.09C765.09 371.77 768.62 360.18 782.69 350.35C792.95 343.19 811.2 337.96 820.31 335.67C829.38 333.19 847.83 328.78 860.3 329.98C877.38 331.64 886.14 339.99 900.69 344.79C915.24 349.59 922.26 349.65 927.72 347.63C933.19 345.61 935.9 340.95 936.82 331.07C937.73 321.2 933.84 299.14 919.02 268.27C904.2 237.41 881.06 209.9 881.06 209.9C873.89 202.58 843.85 205.71 834.12 211.05C831.56 212.45 824.22 220.65 821.06 223.09C818.3 225.22 798.49 230.82 793.18 232.29Z" />
		<path id="Path 69" class="shp2" d="M793.18 232.29C787.83 233.61 767.82 238.47 764.37 237.97C760.42 237.39 750 233.85 747.08 233.89C735.99 234.02 708.28 246.05 705.63 255.94C705.63 255.94 698.98 291.27 701.23 325.44C702.15 339.4 703.94 351.19 706.11 360.81C708.68 369.24 711.46 375.23 713.91 378.77C719.56 386.92 724.22 389.65 729.96 388.73C735.71 387.8 741.8 384.31 752.11 372.98C762.43 361.66 765.97 350.07 780.03 340.24C790.3 333.07 808.54 327.85 817.65 325.55C826.73 323.08 845.18 318.67 857.64 319.87C874.73 321.52 883.49 329.88 898.04 334.68C912.59 339.48 919.61 339.54 925.07 337.52C930.53 335.5 933.25 330.84 934.17 320.96C934.56 316.68 934.05 310.09 932.13 301.48C929.31 292.04 925.08 280.9 919.02 268.27C904.2 237.41 881.06 209.9 881.06 209.9C873.89 202.58 843.85 205.71 834.12 211.05C831.56 212.45 824.22 220.65 821.06 223.09C818.3 225.22 798.49 230.82 793.18 232.29Z" />
		<path id="Path 70" class="shp4" d="M744.72 294.7C753.85 292.3 759.34 282.89 756.94 273.75C754.55 264.61 745.15 259.12 736.01 261.52C726.87 263.92 721.37 273.32 723.77 282.47C726.16 291.6 735.57 297.09 744.72 294.7Z" />
		<path id="Path 71" class="shp5" d="M743.4 289.69C749.78 288.02 753.62 281.45 751.95 275.07C750.27 268.68 743.7 264.84 737.32 266.52C730.93 268.19 727.1 274.77 728.77 281.15C730.45 287.53 737.02 291.37 743.4 289.69Z" />
		<path id="Path 72" class="shp4" d="M850.08 311.97C859.35 309.54 864.93 299.99 862.5 290.71C860.06 281.43 850.52 275.85 841.23 278.29C831.96 280.72 826.38 290.27 828.81 299.55C831.24 308.83 840.8 314.41 850.08 311.97Z" />
		<path id="Path 73" class="shp5" d="M848.75 306.9C855.23 305.2 859.13 298.52 857.43 292.04C855.73 285.56 849.05 281.66 842.57 283.36C836.09 285.07 832.19 291.74 833.89 298.22C835.59 304.7 842.27 308.6 848.75 306.9Z" />
		<path id="Path 74" class="shp22" d="M789.16 328.05C798.79 325.52 804.57 315.61 802.05 305.99C799.52 296.36 789.62 290.58 779.99 293.11C770.37 295.63 764.58 305.54 767.1 315.16C769.63 324.78 779.54 330.58 789.16 328.05Z" />
		<path id="Path 75" class="shp4" d="M788.28 324.69C796.05 322.65 800.73 314.64 798.69 306.87C796.65 299.1 788.64 294.42 780.87 296.46C773.1 298.5 768.42 306.5 770.47 314.28C772.5 322.05 780.51 326.73 788.28 324.69Z" />
		<path id="Path 76" class="shp5" d="M786.1 296.06C787.96 303.99 788.22 304.07 796.2 301.75C797.33 303.24 798.19 304.96 798.69 306.87C799.17 308.71 799.28 310.56 799.07 312.33C790.83 314.26 790.69 314.43 793.04 322.47C791.64 323.47 790.04 324.23 788.28 324.69C786.29 325.21 784.29 325.3 782.38 325.01C780.57 317.3 780.26 317.05 772.8 319.21C771.75 317.77 770.94 316.12 770.46 314.28C769.96 312.38 769.87 310.45 770.12 308.61C777.52 306.87 777.72 306.47 775.58 299.09C777.1 297.9 778.89 296.99 780.87 296.46C782.63 296 784.39 295.88 786.1 296.06ZM860.86 234.34C856.62 234.34 852.9 231.47 851.82 227.37C850.51 222.39 853.5 217.27 858.48 215.96C859.25 215.76 860.05 215.66 860.85 215.66C865.1 215.66 868.81 218.52 869.89 222.63C870.52 225.03 870.18 227.55 868.91 229.71C867.65 231.87 865.63 233.4 863.23 234.03C862.45 234.24 861.66 234.34 860.86 234.34ZM863.04 233.33C867.63 232.13 870.39 227.4 869.18 222.81C867.98 218.22 863.26 215.46 858.67 216.66C854.08 217.87 851.31 222.6 852.52 227.19C853.72 231.77 858.46 234.54 863.04 233.33ZM846.8 256.43C842.55 256.43 838.84 253.56 837.75 249.46C836.45 244.48 839.44 239.36 844.42 238.05C845.2 237.85 845.99 237.75 846.78 237.75C851.03 237.75 854.75 240.61 855.83 244.72C857.13 249.7 854.14 254.82 849.17 256.12C848.39 256.33 847.6 256.43 846.8 256.43L846.8 256.43ZM848.98 255.42C853.57 254.22 856.33 249.49 855.12 244.9C853.92 240.31 849.19 237.55 844.6 238.75C840.02 239.96 837.25 244.68 838.46 249.27C839.67 253.87 844.39 256.63 848.98 255.42ZM870.15 269.72C865.9 269.72 862.18 266.86 861.11 262.76C860.47 260.35 860.82 257.83 862.08 255.67C863.34 253.52 865.36 251.98 867.77 251.35C868.55 251.14 869.34 251.04 870.14 251.04C874.38 251.04 878.1 253.91 879.17 258.01C879.81 260.42 879.46 262.94 878.2 265.09C876.94 267.25 874.92 268.79 872.51 269.42C871.74 269.62 870.94 269.72 870.15 269.72ZM872.33 268.72C876.93 267.51 879.68 262.79 878.48 258.2C877.27 253.6 872.55 250.84 867.95 252.05C863.37 253.25 860.6 257.98 861.81 262.57C863.01 267.16 867.74 269.92 872.33 268.72ZM882.87 246.96C878.62 246.96 874.9 244.1 873.82 239.99C872.51 235.01 875.51 229.89 880.49 228.59C881.26 228.38 882.06 228.28 882.86 228.28C887.1 228.28 890.82 231.15 891.9 235.25C893.2 240.23 890.21 245.35 885.23 246.65C884.46 246.86 883.66 246.96 882.87 246.96ZM885.05 245.95C889.64 244.75 892.4 240.02 891.2 235.43C889.99 230.84 885.27 228.08 880.67 229.29C876.08 230.49 873.32 235.22 874.53 239.81C875.73 244.4 880.46 247.16 885.05 245.95Z" />
		<path id="Path 77" class="shp4" d="M789.08 276.21C791.64 275.54 793.18 272.9 792.5 270.35C791.83 267.79 789.2 266.25 786.64 266.92C784.09 267.59 782.54 270.22 783.22 272.79C783.89 275.34 786.52 276.88 789.08 276.21ZM818.22 268.71C820.85 268.02 822.43 265.31 821.75 262.67C821.05 260.04 818.34 258.45 815.7 259.15C813.07 259.84 811.49 262.55 812.18 265.18C812.87 267.81 815.59 269.4 818.22 268.71Z" />
		<path id="Path 78" class="shp23" d="M427.88 356.28L600.73 356.28L600.73 188.32L427.88 188.32L427.88 356.28Z" />
		<path id="Path 79" class="shp24" d="M431.17 352.98L597.43 352.98L597.43 191.62L431.17 191.62L431.17 352.98Z" />
		<path id="Path 80" class="shp15" d="M514.29 347.39C555.65 347.39 589.39 313.66 589.39 272.3C589.39 230.94 555.65 197.21 514.29 197.21C472.94 197.21 439.22 230.94 439.22 272.3C439.22 313.66 472.94 347.39 514.29 347.39Z" />
		<path id="Path 81" class="shp1" d="M514.29 197.21C525.36 197.21 535.87 199.61 545.34 203.91L528.7 251.94L499.89 251.94L483.26 203.91C492.73 199.61 503.23 197.21 514.29 197.21ZM514.29 347.77C525.36 347.77 535.87 345.37 545.34 341.07L528.7 293.05L499.89 293.05L483.26 341.07C492.73 345.37 503.23 347.77 514.29 347.77Z" />
		<path id="Path 82" class="shp25" d="M514.29 298.07C528.49 298.07 540.06 286.49 540.06 272.3C540.06 258.11 528.49 246.53 514.29 246.53C500.1 246.53 488.53 258.11 488.53 272.3C488.53 286.49 500.1 298.07 514.29 298.07Z" />
		<path id="Path 83" class="shp26" d="M514.29 280.45C518.79 280.45 522.46 276.79 522.46 272.3C522.46 267.81 518.79 264.15 514.29 264.15C509.81 264.15 506.15 267.81 506.15 272.3C506.15 276.79 509.81 280.45 514.29 280.45Z" />
		<path id="Path 84" class="shp23" d="M536.94 436.77L621.96 286.27L475.72 203.66L390.7 354.15L536.94 436.77Z" />
		<path id="Path 85" class="shp5" d="M535.69 432.28L617.47 287.52L476.97 208.15L395.19 352.9L535.69 432.28Z" />
		<path id="Path 86" class="shp17" d="M571.7 357.15C592.05 321.15 579.28 275.18 543.26 254.84C507.26 234.5 461.29 247.28 440.95 283.28C420.61 319.29 433.39 365.25 469.4 385.59C505.41 405.93 551.36 393.16 571.7 357.15Z" />
		<path id="Path 87" class="shp27" d="M440.95 283.28C446.4 273.65 453.65 265.68 462.05 259.55L495.69 297.65L481.51 322.75L431.52 313.6C432.43 303.24 435.51 292.92 440.95 283.28ZM572.03 357.34C577.48 347.7 580.56 337.38 581.47 327.02L531.49 317.88L517.31 342.97L550.94 381.07C559.34 374.94 566.59 366.98 572.03 357.34Z" />
		<path id="Path 88" class="shp25" d="M528.77 332.89C535.75 320.54 531.36 304.76 519 297.78C506.65 290.8 490.88 295.19 483.9 307.54C476.92 319.9 481.3 335.67 493.66 342.65C506.01 349.63 521.78 345.25 528.77 332.89Z" />
		<path id="Path 89" class="shp26" d="M513.43 324.23C515.64 320.32 514.25 315.32 510.34 313.11C506.43 310.9 501.44 312.3 499.23 316.21C497.03 320.12 498.41 325.11 502.32 327.31C506.22 329.52 511.22 328.14 513.43 324.23Z" />
		<path id="Path 90" class="shp2" d="M1155.39 269.99L1372.94 347.85C1391.35 354.43 1401.01 374.88 1394.43 393.29L1366.78 470.53C1360.2 488.94 1339.75 498.61 1321.35 492.02L1103.8 414.17C1085.39 407.58 1075.72 387.13 1082.3 368.72L1109.95 291.49C1116.53 273.08 1136.99 263.41 1155.39 269.99Z" />
		<path id="Path 91" class="shp14" d="M1123 397.2L1317.26 466.72L1357.76 353.54L1163.5 284.02L1123 397.2Z" />
		<path id="Path 92" class="shp5" d="M1111.59 313.11C1110.97 312.87 1110.66 312.18 1110.9 311.56L1113.44 304.97C1113.56 304.67 1113.79 304.43 1114.08 304.3C1114.36 304.17 1114.69 304.17 1114.99 304.28L1123.68 307.63C1124.3 307.87 1124.98 307.85 1125.58 307.59C1126.18 307.32 1126.65 306.83 1126.89 306.22L1130.24 297.52C1130.35 297.22 1130.58 296.99 1130.87 296.86C1131.16 296.73 1131.49 296.72 1131.78 296.84L1138.38 299.38C1138.68 299.5 1138.92 299.72 1139.05 300.01C1139.17 300.3 1139.18 300.63 1139.07 300.93L1135.71 309.62C1135.47 310.23 1135.49 310.91 1135.76 311.51C1136.02 312.11 1136.52 312.58 1137.13 312.82L1145.83 316.18C1146.44 316.41 1146.75 317.11 1146.51 317.72L1143.97 324.32C1143.85 324.61 1143.63 324.85 1143.34 324.98C1143.05 325.11 1142.72 325.12 1142.42 325L1133.73 321.65C1133.11 321.41 1132.43 321.43 1131.83 321.69C1131.23 321.96 1130.76 322.45 1130.52 323.07L1127.17 331.76C1127.06 332.06 1126.83 332.3 1126.54 332.43C1126.25 332.55 1125.92 332.56 1125.63 332.45L1119.03 329.9C1118.73 329.79 1118.49 329.56 1118.37 329.27C1118.24 328.98 1118.23 328.65 1118.34 328.36L1121.7 319.66C1121.94 319.05 1121.92 318.37 1121.65 317.77C1121.39 317.17 1120.89 316.7 1120.28 316.46L1111.59 313.11ZM1108.21 378.3C1114.79 380.65 1122.07 377.2 1124.43 370.63C1126.78 364.05 1123.34 356.76 1116.76 354.41C1110.18 352.06 1102.9 355.5 1100.55 362.08C1098.19 368.66 1101.64 375.94 1108.21 378.3ZM1354.22 401.08C1357.7 402.33 1361.54 400.51 1362.79 397.03C1364.03 393.56 1362.21 389.72 1358.74 388.47C1355.27 387.23 1351.42 389.05 1350.17 392.52C1348.93 395.99 1350.75 399.84 1354.22 401.08ZM1379.01 409.95C1382.49 411.2 1386.33 409.38 1387.58 405.9C1388.81 402.43 1387 398.59 1383.53 397.34C1380.05 396.1 1376.21 397.92 1374.96 401.39C1373.73 404.87 1375.54 408.71 1379.01 409.95ZM1371.8 391.06C1375.26 392.3 1379.12 390.48 1380.35 387.01C1381.6 383.54 1379.78 379.69 1376.31 378.45C1372.83 377.21 1368.98 379.02 1367.75 382.5C1366.5 385.97 1368.32 389.82 1371.8 391.06ZM1361.44 419.98C1364.92 421.22 1368.76 419.41 1370.01 415.93C1371.25 412.46 1369.43 408.61 1365.96 407.37C1362.48 406.13 1358.64 407.95 1357.39 411.42C1356.16 414.89 1357.97 418.74 1361.44 419.98ZM1342.81 462.25C1349.38 464.6 1356.67 461.16 1359.02 454.58C1361.38 448 1357.93 440.72 1351.35 438.37C1344.78 436.01 1337.49 439.45 1335.14 446.03C1332.78 452.61 1336.23 459.89 1342.81 462.25Z" />
	</g>
</svg>