<svg xmlns="http://www.w3.org/2000/svg" viewBox="0 0 1042 1042" width="1042" height="1042">
	<defs>
		<clipPath clipPathUnits="userSpaceOnUse" id="cp1">
			<path d="M-1409 0L1318 0L1318 1042L-1409 1042Z" />
		</clipPath>
	</defs>
	<style>
		tspan { white-space:pre }
		.shp0 { fill: #f7ff85 } 
		.shp1 { fill: #356c82 } 
		.shp2 { fill: #fcd09f } 
		.shp3 { fill: #eba98d } 
		.shp4 { fill: #2798c4 } 
		.shp5 { fill: #fc8a86 } 
		.shp6 { fill: #e86f6b } 
		.shp7 { fill: #fca29f } 
		.shp8 { fill: #fc918d } 
		.shp9 { fill: #384a48 } 
		.shp10 { fill: #ffffff } 
		.shp11 { fill: #ededed } 
		.shp12 { fill: #475e5c } 
		.shp13 { fill: #2d7c9c } 
		.shp14 { fill: #2dacde } 
		.shp15 { fill: #c7b85a } 
		.shp16 { fill: #94fffa } 
	</style>
	<g id="Page 1" clip-path="url(#cp1)">
		<path id="Path 1" class="shp0" d="M1318.08 0.33L1318.08 1042L-244.42 1042L-244.42 0.33L1318.08 0.33Z" />
		<path id="Path 2" class="shp1" d="M680.73 726.07C688.46 727.11 696.21 728.25 703.92 729.48C699.52 746.07 697.96 763.4 699.29 780.51C697.42 780.12 695.54 779.73 693.69 779.34L397.97 800.7C392.29 776.4 380.86 753.47 364.88 734.3C368.64 738.82 438.38 723.25 447.86 722.29C476.79 719.34 505.85 717.68 534.92 717.28C591.39 716.52 645.76 725.21 701.33 729.8C708.52 730.39 717.23 734.77 716.42 741.95C715.6 748.93 705.83 754.23 708.67 760.65L680.73 726.07Z" />
		<path id="Path 3" class="shp2" d="M662.57 782.55C659.69 793.93 650.42 802.53 641.94 812.94C635.06 821.39 560.37 914.25 559.24 913.62C528.42 896.55 497.41 879.35 470.78 857.63C450.11 840.77 426.88 818.19 418.61 794.06C412 774.75 415.45 749.89 412.25 729.42C411.14 722.23 410.51 715.04 410.01 707.83C408.97 692.96 408.37 678.04 404.55 663.17C491.17 672.46 578.97 673.37 665.81 665.92C661.09 682.98 658.4 700.44 657.75 717.96C657 737.14 662.7 755.32 663.45 773.98C663.57 777.03 663.25 779.87 662.57 782.55Z" />
		<path id="Path 4" class="shp3" d="M665.81 665.92C661.09 682.98 658.4 700.44 657.75 717.96C645.76 722.33 633.32 725.85 620.66 728.54C597.77 733.4 575.67 735.33 553.34 740.83C528.86 746.87 502.55 745.44 479.42 736.02C456.53 726.69 432.82 717.81 410.01 707.83C408.97 692.96 408.37 678.04 404.55 663.17C491.17 672.46 578.97 673.37 665.81 665.92Z" />
		<path id="Path 5" class="shp4" d="M925.58 896.52C961.81 936.23 964.56 990.19 974.44 1042L88.11 1042C97.98 990.19 100.73 936.23 136.95 896.52C157.98 873.46 187.73 858.65 216.72 844.38C248.16 830.1 279.24 809.98 311.26 795.1C321.11 790.5 331.05 786.4 341.12 783.12C351.89 779.62 363.57 777.15 375.74 775.6C390.45 773.73 405.85 773.27 421.05 774.17C436.95 775.06 452.68 777.42 467.18 781.1C467.21 781.1 467.23 781.12 467.25 781.12C469.57 781.73 471.87 782.35 474.14 783.04C477.99 784.17 481.76 785.4 485.41 786.73C490.46 788.58 495.39 790.71 500.19 793.13C520.82 803.42 538.89 818.54 551.33 836.33C553.03 838.73 554.59 841.17 556.06 843.67C556.24 843.96 556.42 844.27 556.59 844.58C556.54 843.9 556.49 843.21 556.49 842.52C556.38 839.12 556.42 835.71 556.68 832.31C557.34 823.42 559.57 814.25 563.59 805.83C563.84 805.23 564.14 804.65 564.44 804.06C564.83 803.29 565.24 802.52 565.65 801.77C568.41 796.81 571.83 792.21 576 788.17C576.33 787.81 576.69 787.46 577.06 787.13C592.07 773.25 613.37 778.33 633.48 778.33L711.69 778.33C713.06 779 714.42 779.69 715.79 780.35C733.65 789.15 751.52 797.94 769.4 806.75C794.87 819.27 820.33 831.83 845.81 844.38C874.81 858.65 904.56 873.46 925.58 896.52Z" />
		<path id="Path 6" class="shp2" d="M360.36 453.71C369.96 484.11 368.35 500.8 335.46 509.47C311.85 515.7 286.31 507.1 271.51 487.62C258.19 470.11 256.61 444.51 267.65 425.49C278.7 406.47 301.73 395.17 323.53 398.05C331.64 399.13 339.95 402.33 344.75 408.95C347.35 412.54 348.72 416.84 350.05 421.06C353.49 431.95 356.92 442.83 360.36 453.71Z" />
		<path id="Path 7" fill-rule="evenodd" class="shp3" d="M303.29 483.46C288.5 486.85 279.81 468.77 279.46 456.75C278.98 440.77 289.33 427.46 304.06 422.27C304.08 422.27 304.1 422.25 304.12 422.25C307.19 421.19 308.5 425.94 305.56 427.06C305.54 427.08 305.5 427.08 305.48 427.1C292.83 431.54 284.02 443.04 284.5 456.75C284.73 463.23 287.13 470.92 292.21 475.42C290.31 467.85 295.52 458.83 304.71 461.38C317.19 464.79 314.69 480.85 303.29 483.46ZM304.79 466.85C302.69 467.02 300.6 467.19 298.5 467.35C296.02 470.17 295.9 473.23 298.17 476.58C298.73 477.23 298.88 477.98 298.77 478.65C299.33 478.67 299.94 478.63 300.54 478.5C305.92 479.02 307.33 475.15 304.79 466.85Z" />
		<path id="Path 8" class="shp2" d="M719.42 448.38C709.81 478.77 711.44 495.47 744.31 504.14C767.94 510.36 793.46 501.76 808.27 482.29C821.58 464.78 823.17 439.18 812.13 420.16C801.08 401.14 778.06 389.83 756.25 392.72C748.15 393.79 739.83 397 735.02 403.62C732.44 407.2 731.06 411.51 729.73 415.73C726.29 426.61 722.85 437.5 719.42 448.38Z" />
		<path id="Path 9" fill-rule="evenodd" class="shp3" d="M800.58 456.75C800.23 468.77 791.54 486.85 776.75 483.46C765.37 480.85 762.85 464.79 775.33 461.38C784.52 458.83 789.73 467.85 787.83 475.42C792.92 470.92 795.31 463.23 795.54 456.75C796.02 443.04 787.23 431.54 774.56 427.1C771.52 426.04 772.83 421.17 775.92 422.25C790.69 427.42 801.06 440.75 800.58 456.75ZM781.54 467.35C779.44 467.19 777.35 467.02 775.25 466.85C772.71 475.15 774.13 479.02 779.5 478.5C780.1 478.63 780.71 478.67 781.29 478.65C781.17 477.98 781.31 477.23 781.87 476.58C784.15 473.23 784.04 470.17 781.54 467.35Z" />
		<path id="Path 10" class="shp2" d="M762.52 441.99C762.52 565.84 662.12 666.23 538.28 666.23C414.43 666.23 314.04 565.84 314.04 441.99C314.04 421.91 316.7 401.84 322.02 382.48C326.52 366.06 329.64 349.1 335.02 332.93C345.81 300.48 366.34 271.24 393.54 250.44C413.8 234.95 437.64 224.25 462.6 219.02C486.11 214.09 510.95 216.72 534.69 214.96C562.43 212.9 590.51 212.69 617.97 217.61C649.86 223.33 681.08 236.36 704.5 258.76C715.65 269.4 724.75 282.21 731 296.29C738 312.04 737.15 326.29 739.94 342.54C742.5 357.47 752.21 372.74 755.96 387.98C760.33 405.63 762.52 423.81 762.52 441.99Z" />
		<path id="Path 11" class="shp3" d="M670.2 193.08C604.61 195.3 539.13 201.04 474.14 210.24C445.35 214.31 409.22 215.08 382.16 225.97C373.88 229.31 368.7 234.82 368.47 244.42C368.12 259.77 378.75 258.99 390.07 262.88C410.94 270.04 428.91 282.46 450.81 288.09C494.91 299.42 541.31 298.08 586.27 293.71C604.76 291.92 623.57 291.36 641.74 287.21C655.64 284.04 678.02 279.3 688.48 269.67C698 260.92 698.04 251.82 699.83 240.28C701.48 229.54 709.46 217.09 704.77 206.24C699.56 194.17 683.35 192.63 670.2 193.08Z" />
		<path id="Path 12" class="shp2" d="M752.85 535.73C748.4 571.32 737.08 606.61 715.92 635.57C690.17 670.8 651.09 693.27 609.16 703.55C589.35 708.41 570.23 710.32 550.89 715.83C529.71 721.87 506.94 720.44 486.93 711.02C465.38 700.88 442.97 691.24 421.67 680.21C375.83 656.49 336.9 617.59 322.71 566.95C319.76 556.43 317.68 545.66 316.56 534.78C310.73 477.84 328.8 414.75 379.84 385.68C430.21 356.98 489.42 345.02 547 345.02C602.11 345.02 661.05 354.47 710.44 379.92C762.33 406.68 759.29 484.36 752.85 535.73Z" />
		<path id="Path 13" class="shp5" d="M679.79 568.03C670.86 586.6 658.73 601.97 644.42 614.21C643.99 614.6 643.53 614.99 643.08 615.36C604.12 647.84 546.47 656.8 497.66 647.67C475.63 643.55 455.94 634.35 439.57 621.36C413.22 600.46 395.4 569.72 389.99 534.38C389.78 533.1 389.61 531.81 389.53 530.5C389.24 527 389.51 523.47 391.33 520.54C391.67 520.01 392.05 519.52 392.46 519.05C394.1 517.23 396.32 515.97 398.74 515.28C400.49 514.76 402.36 514.52 404.17 514.57C434.56 515.4 464.18 523.17 494.53 523.69C527.82 524.26 561.26 520.66 593.87 514.05C615.35 509.7 636.72 504.57 657.78 498.3C659.24 497.86 660.99 497.12 662.92 496.25C670.97 492.65 682.02 487.03 687.69 493.57C689.63 495.81 691.08 498.33 692.17 501.07C699.96 520.8 687.52 551.92 679.79 568.03Z" />
		<path id="Path 14" class="shp6" d="M551.03 614.23C530.64 617.15 512.69 611.97 494.99 601.89C485.82 596.65 476.14 593.07 472.67 581.8C468.23 567.33 475.6 551.14 487.36 541.6C499.13 532.06 514.43 528.07 529.44 526.04C544.7 523.97 560.54 523.72 575.19 528.47C583.48 531.16 591.45 535.58 596.86 542.41C607.58 555.9 605.72 576.63 595.42 590.44C585.11 604.25 568.09 611.78 551.03 614.23Z" />
		<path id="Path 15" class="shp7" d="M543.38 428.41C541.56 425.83 539.76 423.23 537.94 420.67C534.41 415.72 533.4 409.57 529.61 404.78C526.09 400.32 519.71 397.57 514.56 399.97C510.86 401.7 508.64 405.65 507.68 409.62C506.73 413.59 506.81 417.73 506.37 421.8C503.64 447.2 474.62 478.82 506.12 496.7C516.66 502.69 529.67 504.17 541.29 500.7C554.81 496.68 567.42 485.72 567.71 470.47C567.97 456.87 556.82 445.96 549.02 436.05C547.07 433.56 545.21 431 543.38 428.41Z" />
		<path id="Path 16" class="shp8" d="M541.29 488.72C529.67 492.18 516.66 490.7 506.12 484.71C497.62 479.89 493.55 474.06 492.16 467.63C490.24 478.8 492.59 489.02 506.12 496.7C516.66 502.69 529.67 504.17 541.29 500.7C554.81 496.68 567.42 485.72 567.71 470.47C567.75 468.31 567.48 466.21 567 464.18C564.14 476.45 553.07 485.21 541.29 488.72Z" />
		<path id="Path 17" class="shp9" d="M412.84 144.67C407.88 146.6 403.02 148.78 398.26 151.24C371.72 164.98 352.16 189.52 359.64 220.39C366.08 246.92 386.37 269.45 414.12 273.5C470.46 281.74 528.99 285.82 586.27 280.26C615.4 277.43 644.32 272.1 672.37 263.71C689.65 258.54 721.56 246.56 730.1 229.21C738.62 211.89 738.21 182.32 737.65 163.53C737.4 154.78 736.81 148.54 738.29 140.12C738.85 136.9 737.83 113.32 737.5 113.71C721.56 131.43 701.96 145.84 680.27 155.73C694.75 138.28 704.42 116.89 707.98 94.51C650.79 133.31 583.73 138.81 517.18 133.31C482.03 130.41 445.47 131.99 412.84 144.67Z" />
		<path id="Path 18" class="shp7" d="M340.13 446.75C357.17 439.25 377.41 438.61 395 445.03C401.08 447.24 407.45 451 408.82 457.06C409.9 461.89 407.4 466.85 403.96 470.52C398.34 476.49 390.26 480 381.99 481.52C373.72 483.04 365.19 482.72 356.78 482.06C350.87 481.59 344.85 480.92 339.48 478.51C333.09 475.64 325.38 468.6 325.7 461.4C325.91 456.65 329.2 452.17 333.8 450.35L340.13 446.75ZM677.35 446.75C694.4 439.25 714.65 438.61 732.23 445.03C738.31 447.24 744.69 451 746.04 457.06C747.12 461.89 744.62 466.85 741.19 470.52C735.58 476.49 727.5 480 719.23 481.52C710.94 483.04 702.42 482.72 694 482.06C688.1 481.59 682.08 480.92 676.71 478.51C670.32 475.64 662.61 468.6 662.93 461.4C663.14 456.65 666.43 452.17 671.03 450.35L677.35 446.75Z" />
		<path id="Path 19" class="shp10" d="M662.92 496.25C661.91 503.14 658.51 509.83 653.86 515.11C646.56 523.4 636.52 528.76 626.47 533.32C583.02 552.98 534.3 560.76 486.9 555.62C453.96 552.04 419.33 540.49 398.74 515.28C400.49 514.76 402.36 514.52 404.17 514.57C434.56 515.4 464.18 523.17 494.53 523.69C527.82 524.26 561.26 520.66 593.87 514.05C615.35 509.7 636.72 504.57 657.78 498.3C659.24 497.86 660.99 497.12 662.92 496.25Z" />
		<path id="Path 20" class="shp11" d="M407.67 524.6C436.83 525.89 465.35 533.07 494.53 533.57C527.82 534.15 561.26 530.55 593.87 523.94C615.35 519.59 636.72 514.46 657.78 508.19C658.15 508.07 658.55 507.94 658.96 507.79C660.93 504.16 662.34 500.25 662.92 496.25C660.99 497.12 659.24 497.86 657.78 498.3C636.72 504.57 615.35 509.7 593.87 514.05C561.26 520.66 527.82 524.26 494.53 523.69C464.18 523.17 434.56 515.4 404.17 514.57C402.36 514.52 400.49 514.76 398.74 515.28C401.48 518.63 404.48 521.72 407.67 524.6Z" />
		<path id="Path 21" class="shp7" d="M644.42 614.21C643.99 614.6 643.53 614.99 643.08 615.36C604.12 647.84 546.47 656.8 497.66 647.67C475.63 643.55 455.94 634.35 439.57 621.36C449.08 610.38 463.73 600.39 473.55 594.02C506.67 572.51 547.86 562.91 586.91 569.99C601.85 572.7 616.77 577.83 628.25 587.75C636.19 594.63 642.24 604.07 644.42 614.21Z" />
		<path id="Path 22" class="shp3" d="M383.53 504.66C375.5 507.16 370.08 514.1 369.34 522.43C368.96 526.74 375.69 526.71 376.07 522.43C376.54 517.18 380.34 512.7 385.32 511.15C389.44 509.86 387.68 503.37 383.53 504.66ZM707.5 501.29C706.73 498.31 705.94 495.32 705.17 492.34C704.08 488.15 697.6 489.93 698.69 494.13C699.46 497.11 700.23 500.09 701 503.07C702.08 507.26 708.58 505.49 707.5 501.29ZM586.75 654.65C555.99 674.6 515.42 674.16 485.06 653.63C481.46 651.2 478.1 657.02 481.66 659.43C513.88 681.23 557.52 681.61 590.14 660.45C593.76 658.11 590.4 652.28 586.75 654.65Z" />
		<path id="Path 23" class="shp9" d="M301.94 288.69C300.38 295.7 298.91 302.59 297.4 309.04C291.51 334.06 288.21 360.66 292.66 386.19C294.15 394.72 319.49 463.16 313.58 465.13C319.22 463.25 324.86 461.37 330.5 459.48C331.87 459.02 333.75 432.23 334.37 428.47C336.66 414.69 340.92 401.26 343.19 387.44C347.68 360.25 356.76 333.81 370.04 309.66C384.18 283.94 415.81 232.86 384.65 206.53C362.86 188.13 325.37 223.44 316.5 241.6C309.76 255.4 305.57 272.39 301.94 288.69ZM732.98 209.85C717.81 225.34 684.54 222.59 677.67 245.8C672.39 263.59 680.9 278.96 690.4 293.64C705.21 316.49 707.65 345.37 719.17 370.54C732.73 400.21 748.54 428.16 750.25 461.75C756.17 459.82 762.08 457.89 768 455.95C762.44 457.77 773.08 386.97 773.52 382.43C774.92 368.26 779.31 355.11 778.56 340.96C777.75 325.64 775.38 310.37 771.73 295.48C764.27 264.87 751.12 235.63 732.98 209.85ZM398.21 419.76C394.16 420.17 390.83 417.39 393.39 410.55C402.49 386.19 434.76 383.9 453.68 396.89C457.19 399.3 460.53 402.47 461.47 406.63C463.73 416.67 453.32 417.49 446.65 416.64C442.31 408.67 433.23 403.53 424.17 403.91C412.84 404.38 410.75 411.6 403.45 417.51C401.85 418.81 399.96 419.59 398.21 419.76ZM600.08 416.4C596.03 416.81 592.7 414.03 595.26 407.18C604.36 382.83 636.63 380.54 655.55 393.52C659.06 395.93 662.4 399.11 663.34 403.26C665.6 413.31 655.19 414.13 648.52 413.28C644.18 405.3 635.1 400.16 626.04 400.54C614.71 401.02 612.62 408.24 605.32 414.15C603.72 415.45 601.84 416.22 600.08 416.4ZM468.07 354.31C453.28 339.18 415.49 337.69 400.36 339.94C388.59 341.69 374.7 359.33 382.6 371.29C389.14 381.19 396.61 371.99 403.29 367.6C424.77 353.48 451.7 360.68 474.13 368.59C474.08 362.85 471.81 358.14 468.07 354.31ZM603.25 354.31C618.04 339.18 655.83 337.69 670.95 339.94C682.73 341.69 696.6 359.33 688.71 371.29C682.17 381.19 674.71 371.99 668.02 367.6C646.54 353.48 619.61 360.68 597.18 368.59C597.23 362.85 599.5 358.14 603.25 354.31Z" />
		<path id="Path 24" class="shp3" d="M449.56 381.31C435.37 371.59 416.8 371.71 402.75 381.66C400.12 383.52 402.64 387.89 405.29 386.01C418.02 377 434.14 376.85 447.02 385.67C449.7 387.5 452.23 383.14 449.56 381.31ZM656.94 382.3C643.17 371.38 625.05 369.54 609.44 377.69C606.56 379.19 609.11 383.55 611.98 382.05C625.42 375.03 641.45 376.41 653.37 385.86C655.89 387.86 659.48 384.31 656.94 382.3ZM467.11 415.87C462.99 418.46 458.86 421.05 454.74 423.65C452 425.37 454.53 429.74 457.28 428C461.41 425.41 465.53 422.81 469.66 420.22C472.4 418.5 469.87 414.13 467.11 415.87ZM599.79 417.15C596.42 415.66 593.06 414.16 589.7 412.67C586.76 411.36 584.19 415.71 587.15 417.02C590.51 418.52 593.88 420.01 597.24 421.51C600.18 422.82 602.75 418.47 599.79 417.15Z" />
		<path id="Path 25" class="shp12" d="M689.73 115.96C686.08 144.47 671.04 171.37 648.64 189.38C621.31 211.35 584.88 219.42 549.83 218.57C514.77 217.72 480.49 208.72 446.59 199.77C456.77 187.01 466.95 174.25 477.14 161.49C454.54 165.71 431.94 169.94 409.35 174.16C420.63 162.75 431.67 154.44 446.95 149.55C488.51 136.27 527.39 153.4 569.3 151.64C611.55 149.87 653.41 137.69 689.73 115.96ZM736.27 245.86C764.19 279.8 772.21 323.5 761.21 365.21C764.54 352.57 748.15 328.64 743.19 316.8C735.35 298.06 726.79 279.62 717.5 261.56C727.17 268.52 736.85 275.48 746.52 282.44C745.46 269.75 741.96 257.26 736.27 245.86ZM346.99 242.43C346.82 261.64 340.4 279.9 334.27 297.87C328.78 313.96 326.53 332.27 320.81 347.62C309.19 341.88 315.54 306.46 316.56 295.48C317.55 284.8 319.2 274.18 321.74 263.75C323.48 256.59 329.55 245.43 329.51 239.01C329.58 250.76 329.65 262.52 329.71 274.28C333.83 262.87 339.68 252.1 346.99 242.43Z" />
		<path id="Path 26" class="shp13" d="M439.32 838.46C436.81 845.45 435.19 852.64 433.83 859.93C432.99 864.43 429.93 870.81 430.1 875.32C430.37 882.73 438.75 882.95 445.05 886.29C451.15 889.54 456.88 893.49 462.08 898.06C459.21 877.42 465.01 859.38 473.84 841.09C482.51 823.14 498.23 805.85 518.16 805.76C506.34 793.49 486.02 792.12 470.79 799.76C455.56 807.4 445.08 822.43 439.32 838.46Z" />
		<path id="Path 27" class="shp14" d="M369.05 737.32C360.06 736.14 360.16 739.17 353.6 748.79C340.24 768.41 320.86 799.34 336.51 822C342.26 830.33 350.52 836.53 358.64 842.58C385.73 862.78 412.81 882.98 439.9 903.18C432.63 897.75 456.1 845.54 459.84 838.71C471.04 818.33 494.55 801.53 518.88 806.32C511.68 804.9 501.86 792.86 494.19 789.61C484.38 785.44 474.65 781.04 464.82 776.48C448.3 768.8 431.31 763 414.83 755.39C401.23 749.11 388.52 741.02 373.43 738.06C371.76 737.74 370.31 737.49 369.05 737.32Z" />
		<path id="Path 28" class="shp13" d="M554.87 805.42C575.65 805.78 594.41 820.08 604.61 838.18C614.8 856.29 617.61 877.66 617.64 898.45C624.59 886.6 631.54 874.75 638.5 862.9C640.73 859.09 643.02 855.12 643.44 850.73C644.02 844.65 640.94 838.83 637.38 833.87C619.1 808.42 584.71 795.75 554.3 803.26L554.87 805.42Z" />
		<path id="Path 29" class="shp14" d="M709 737.32C717.98 736.14 717.88 739.17 724.44 748.79C737.81 768.41 757.19 799.34 741.54 822C735.79 830.33 727.52 836.53 719.42 842.58C692.31 862.78 665.23 882.98 638.14 903.18C634.01 878.94 628.7 854.18 615.08 833.71C603.14 815.76 572.31 787.81 551.7 811.11C555.82 806.45 557.03 797.08 561.25 791.61C565.34 786.32 570.31 783.38 576.28 780.5C588.76 774.46 602.83 773.92 616 770.2C631.82 765.74 648.38 762.24 663.22 755.39C676.81 749.11 689.52 741.02 704.62 738.06C706.29 737.74 707.73 737.49 709 737.32Z" />
		<path id="Path 30" class="shp10" d="M544.2 892.97C542.39 891.16 539.43 889.8 536.83 889.92C534.14 890.04 531.35 890.92 529.47 892.97C527.6 895.01 526.42 897.51 526.42 900.33L526.42 902.42C526.42 905.09 527.58 907.89 529.47 909.78C531.27 911.59 534.24 912.95 536.83 912.83C539.53 912.71 542.32 911.83 544.2 909.78C546.07 907.74 547.25 905.24 547.25 902.42L547.25 900.33C547.25 897.66 546.09 894.86 544.2 892.97Z" />
		<path id="Path 65" class="shp15" d="M866.99 249.74L823.22 272.62C817.28 275.73 822.53 284.72 828.47 281.62L872.24 258.74C878.19 255.63 872.93 246.64 866.99 249.74ZM880.86 422.39C871.84 423.78 862.81 425.17 853.78 426.56C847.18 427.58 849.98 437.62 856.55 436.61C865.58 435.22 874.61 433.83 883.64 432.44C890.24 431.42 887.43 421.38 880.86 422.39ZM853.65 622.88L820.92 605.11C815.02 601.91 809.76 610.9 815.66 614.1C826.57 620.03 837.48 625.95 848.39 631.88C854.28 635.08 859.55 626.09 853.65 622.88ZM187.66 249.74L231.43 272.62C237.37 275.73 232.11 284.72 226.17 281.62L182.4 258.74C176.46 255.63 181.72 246.64 187.66 249.74ZM173.78 422.39C182.81 423.78 191.84 425.17 200.87 426.56C207.47 427.58 204.67 437.62 198.1 436.61C189.07 435.22 180.04 433.83 171.01 432.44C164.41 431.42 167.21 421.38 173.78 422.39ZM201 622.88L233.73 605.11C239.63 601.91 244.89 610.9 238.99 614.1C228.08 620.03 217.17 625.95 206.26 631.88C200.37 635.08 195.1 626.09 201 622.88Z" />
		<path id="Path 70" fill-rule="evenodd" class="shp16" d="M550.81 1000.37C550.46 1000.65 549.52 1001.27 548.06 1001.98C546.29 1002.83 543.4 1003.96 539.58 1004.5C533.5 1005.33 528.06 1004.08 527.17 1003.83C527.15 1003.79 527.13 1003.75 527.13 1003.69C527.13 1003.67 527.13 1003.67 527.13 1003.65C527.1 1003.62 527.1 1003.62 527.1 1003.6C527.1 1003.58 527.08 1003.54 527.08 1003.5C527.06 1003.31 527.02 1003.12 527 1002.94C527 1002.88 526.98 1002.81 526.98 1002.77C526.98 1002.75 526.98 1002.75 526.98 1002.75C526.94 1002.31 526.92 1001.87 526.92 1001.42C526.92 1001.4 526.9 999.52 527.35 998.21C527.98 996.48 528.79 995.35 528.83 995.29C529.27 994.71 529.67 994.35 529.85 994.19L529.9 994.15C531.15 993 532.73 992.06 534.48 991.48C535.73 991.06 536.81 990.81 537.79 990.71C538.75 990.6 539.48 990.56 540.06 990.56C540.69 990.56 541.12 990.6 541.67 990.71C543.13 990.94 545.94 991.9 548.54 995.62C549.46 996.94 550.46 999.04 550.81 1000.37ZM537.75 998C537.75 995.96 536.1 994.33 534.08 994.33C532.06 994.33 530.42 995.96 530.42 998C530.42 1000.02 532.06 1001.67 534.08 1001.67C536.1 1001.67 537.75 1000.02 537.75 998ZM547.08 996.69C547.08 995.44 546.06 994.42 544.81 994.42C543.56 994.42 542.54 995.44 542.54 996.69C542.54 997.94 543.56 998.96 544.81 998.96C546.06 998.96 547.08 997.94 547.08 996.69Z" />
	</g>
</svg>