<svg xmlns="http://www.w3.org/2000/svg" viewBox="0 0 512 512" width="512" height="512">
	<defs>
		<clipPath clipPathUnits="userSpaceOnUse" id="cp1">
			<path d="M-264 -251L778 -251L778 791L-264 791Z" />
		</clipPath>
	</defs>
	<style>
		tspan { white-space:pre }
		.shp0 { fill: #eff4f5 } 
		.shp1 { fill: #abc4ca } 
		.shp2 { fill: #cfdfe1 } 
	</style>
	<g id="Page 1" clip-path="url(#cp1)">
		<path id="Path 51" class="shp0" d="M256.83 61.83C156.65 61.83 130.99 128.5 130.99 172.87L130.99 367.47C130.99 411.84 156.65 478.5 256.83 478.5C357.02 478.5 382.67 411.84 382.67 367.47L382.67 172.87C382.67 128.5 357.02 61.83 256.83 61.83Z" />
		<path id="Path 52" class="shp1" d="M256.83 282C253 282 249.89 278.89 249.89 275.06L249.89 89.61C249.89 85.78 253 82.67 256.83 82.67C260.67 82.67 263.78 85.78 263.78 89.61L263.78 275.06C263.78 278.89 260.67 282 256.83 282Z" />
		<path id="Path 53" class="shp2" d="M256.83 125.06C243.28 125.06 232.3 136.05 232.3 149.6L232.3 187.3C232.3 200.85 243.28 211.83 256.83 211.83C270.38 211.83 281.37 200.85 281.37 187.3L281.37 149.6C281.37 136.05 270.38 125.06 256.83 125.06Z" />
	</g>
</svg>