<svg xmlns="http://www.w3.org/2000/svg" viewBox="0 0 1202 604" width="1202" height="604">
	<defs>
		<clipPath clipPathUnits="userSpaceOnUse" id="cp1">
			<path d="M0 0L1202 0L1202 604L0 604Z" />
		</clipPath>
		<clipPath clipPathUnits="userSpaceOnUse" id="cp2">
			<path d="M0.96 600.88L1200.96 600.88L1200.96 0.88L0.96 0.88L0.96 600.88Z" />
		</clipPath>
	</defs>
	<style>
		tspan { white-space:pre }
		.shp0 { fill: #c2c9c8 } 
	</style>
	<g id="Page 1" clip-path="url(#cp1)">
		<g id="Mask" clip-path="url(#cp2)">
			<path id="Path 15" fill-rule="evenodd" class="shp0" d="M-50.89 218.61L62.83 211.9L-29.05 156.18L-51.13 173.37L-51.13 172.14L-29.39 155.21L-28.83 155.17L64.68 211.88C64.86 211.99 64.95 212.21 64.9 212.41C64.85 212.62 64.67 212.77 64.46 212.79L-50.89 219.59L-50.89 218.61ZM-49.73 447.61L9.3 481.48L53.87 469.58L-49.82 429.87L-49.82 428.82L55.63 469.2C55.82 469.28 55.95 469.47 55.94 469.68C55.93 469.9 55.79 470.08 55.58 470.13L9.35 482.48L9.23 482.5L8.98 482.43L-49.72 448.74L-49.73 447.61ZM445.09 376.55L325.95 337.9C325.71 337.83 325.57 337.58 325.62 337.33C325.67 337.09 325.89 336.91 326.15 336.95L450.31 351.34L450.65 351.54L450.74 351.92L445.72 376.18L445.49 376.5L445.24 376.57L445.09 376.55ZM330.92 338.49L444.87 375.45L449.67 352.25L330.92 338.49ZM773.85 672.89L773.55 672.6L731.85 564.27C731.77 564.07 731.83 563.84 732 563.71L732.58 563.69L833.24 634.41L833.45 634.82L833.22 635.23L774.26 672.84L774 672.91L773.85 672.89ZM733.34 565.41L774.24 671.69L832.08 634.79L733.34 565.41Z" />
			<path id="Path 16" fill-rule="evenodd" class="shp0" d="M594.82 675.44C594.75 675.25 594.81 675.03 594.97 674.9L731.99 563.71L732.43 563.62L732.76 563.92L774.46 672.25L774.41 672.7L774.01 672.91L595.29 675.76L595.28 675.76C595.08 675.77 594.89 675.64 594.82 675.44ZM732.09 564.89L596.69 674.76L773.3 671.95L732.09 564.89ZM119.12 420.71L119.08 420.14L221.09 250.98L221.42 250.75L221.81 250.85L326.41 337.06L326.58 337.51L326.28 337.89L119.68 420.84L119.5 420.88L119.12 420.71ZM221.63 251.97L120.67 419.39L325.15 337.29L221.63 251.97Z" />
			<path id="Path 17" fill-rule="evenodd" class="shp0" d="M119.35 420.85C119.13 420.79 118.99 420.58 119.01 420.35L135.31 212.86L135.55 212.48L136 212.46L221.7 250.79L221.97 251.09L221.92 251.48L119.91 420.64L119.5 420.88L119.35 420.85ZM136.23 213.63L120.15 418.36L220.8 251.45L136.23 213.63Z" />
			<path id="Path 18" fill-rule="evenodd" class="shp0" d="M63.96 212.42L64.04 212L64.43 211.81L135.8 212.41L136.16 212.57L136.29 212.94L119.99 420.39C119.99 420.45 119.97 420.51 119.95 420.57C119.92 420.66 119.86 420.74 119.78 420.79L55.75 470.05L55.46 470.15L55.28 470.11L-49.82 429.87L-49.82 428.83L55.37 469.1L118.23 420.74L-49.95 402.72L-49.96 401.74L118.84 419.83L63.96 212.42ZM65.06 212.79L119.24 417.49L135.27 213.39L65.06 212.79Z" />
			<path id="Path 19" fill-rule="evenodd" class="shp0" d="M135.79 213.39L64.42 212.79C64.15 212.78 63.94 212.56 63.94 212.29L64.24 145.24L-51.55 89.2L-51.56 88.11L64.24 144.16L64.58 -165.21L-52.07 -12.33L-52.08 -13.93L64.68 -166.95C64.8 -167.12 65.03 -167.19 65.22 -167.12C65.42 -167.05 65.55 -166.86 65.55 -166.65L65.21 144.73L136.13 212.55L136.25 213.09C136.17 213.27 136 213.39 135.8 213.39L135.79 213.39ZM64.92 211.81L134.57 212.4L65.21 146.08L64.92 211.81Z" />
			<path id="Path 20" fill-rule="evenodd" class="shp0" d="M64.17 212.71L-29.34 156.01C-29.38 155.98 -29.42 155.95 -29.46 155.91L-29.46 155.91L-51.35 129.89L-51.35 128.36L-28.88 155.08L63 144.64L-51.55 89.2L-51.56 88.11L64.94 144.5C64.98 144.52 65.02 144.54 65.05 144.57L65.05 144.57L65.05 144.57C65.16 144.67 65.22 144.82 65.21 144.97L64.92 212.3L64.67 212.72L64.43 212.79L64.17 212.71ZM63.94 211.43L64.24 145.49L13.03 151.3L-27.61 155.92L63.94 211.43ZM595.42 675.75L486.83 707.44L483.27 707.46L593.97 675.15L397.61 574.07L413.71 619.41L445.05 707.65L444.01 707.66L396.46 573.75L267.7 636.23L426.31 707.75L423.96 707.76L266.34 636.7C266.17 636.62 266.06 636.45 266.06 636.26C266.05 636.07 266.16 635.89 266.33 635.81L396.53 572.63L396.92 572.62L396.94 572.64L396.96 572.64L595.51 674.84C595.68 674.93 595.79 675.12 595.77 675.32C595.75 675.52 595.61 675.69 595.42 675.75Z" />
			<path id="Path 21" fill-rule="evenodd" class="shp0" d="M388.1 419.49L354.61 409.48C354.41 409.42 354.27 409.24 354.26 409.03C354.26 408.82 354.39 408.62 354.59 408.55L445.07 375.62C445.3 375.54 445.55 375.64 445.67 375.85C445.78 376.06 445.73 376.33 445.53 376.47L388.53 419.41L388.24 419.51L388.1 419.49ZM356.31 408.97L388.14 418.48L442.33 377.66L356.31 408.97Z" />
			<path id="Path 22" fill-rule="evenodd" class="shp0" d="M354.3 409.19L325.64 337.62L325.74 337.1L326.25 336.98L445.39 375.62C445.59 375.68 445.72 375.86 445.73 376.07C445.73 376.28 445.6 376.47 445.4 376.54L354.92 409.47L354.75 409.5C354.56 409.5 354.38 409.38 354.3 409.19ZM326.94 338.23L355.03 408.39L443.74 376.11L326.94 338.23Z" />
			<path id="Path 23" fill-rule="evenodd" class="shp0" d="M396.26 573.19L354.28 409.13L354.41 408.66L354.89 408.54L388.37 418.55C388.57 418.61 388.71 418.79 388.72 418.99L397.23 573.05C397.24 573.3 397.06 573.52 396.81 573.56L396.74 573.56C396.52 573.56 396.32 573.41 396.26 573.19ZM355.44 409.73L395.97 568.12L387.77 419.39L355.44 409.73Z" />
			<path id="Path 24" fill-rule="evenodd" class="shp0" d="M119.02 420.49C118.97 420.26 119.09 420.02 119.31 419.94L325.92 336.99L326.29 336.99L326.55 337.26L355.21 408.83L355.16 409.27L354.78 409.5L119.52 420.88L119.5 420.88C119.27 420.88 119.07 420.72 119.02 420.49ZM325.83 338.08L122.38 419.76L354.04 408.56L325.83 338.08Z" />
			<path id="Path 25" fill-rule="evenodd" class="shp0" d="M325.79 337.81L221.19 251.61L221.01 251.22L221.2 250.85L349.92 150.36L350.46 150.32C350.63 150.42 350.73 150.61 350.7 150.81L326.58 337.5L326.28 337.89L326.1 337.93L325.79 337.81ZM222.28 251.24L325.73 336.5L349.58 151.87L222.28 251.24Z" />
			<path id="Path 26" fill-rule="evenodd" class="shp0" d="M221.26 251.66C221.09 251.56 221 251.37 221.01 251.18L237.6 100.39L237.85 100.02L238.29 99.99L350.42 150.3L350.7 150.69L350.52 151.13L221.8 251.61L221.51 251.72L221.26 251.66ZM238.5 101.16L222.12 250.13L349.28 150.86L238.5 101.16Z" />
			<path id="Path 27" fill-rule="evenodd" class="shp0" d="M237.68 100.71L64.66 -166.39L64.66 -166.93C64.77 -167.09 64.97 -167.17 65.16 -167.13L291.7 -122.26L292.02 -122.04L292.08 -121.66L238.57 100.55C238.52 100.74 238.37 100.89 238.18 100.92L238.1 100.93L237.68 100.71ZM66.1 -165.95L237.88 99.22L291.01 -121.39L66.1 -165.95Z" />
			<path id="Path 28" fill-rule="evenodd" class="shp0" d="M221.3 251.68L135.6 213.35L135.32 213L135.44 212.57L237.73 100.11C237.87 99.95 238.1 99.91 238.29 99.99C238.49 100.08 238.6 100.28 238.58 100.49L221.99 251.29L221.75 251.66L221.51 251.72L221.3 251.68ZM136.61 212.73L221.09 250.51L237.44 101.88L136.61 212.73Z" />
			<path id="Path 29" fill-rule="evenodd" class="shp0" d="M135.46 213.25L64.39 145.29L64.25 144.81L64.6 144.46L237.97 99.97C238.18 99.91 238.4 100 238.51 100.19L238.45 100.77L136.16 213.23L135.81 213.39L135.8 213.39L135.46 213.25ZM65.7 145.19L135.77 212.2L236.63 101.32L65.7 145.19Z" />
			<path id="Path 30" fill-rule="evenodd" class="shp0" d="M64.43 145.32L64.24 144.94L64.58 -166.66C64.58 -166.87 64.72 -167.06 64.93 -167.12C65.14 -167.18 65.36 -167.1 65.48 -166.92L238.5 100.17L238.55 100.62L238.21 100.91L64.85 145.41L64.73 145.43L64.43 145.32ZM65.55 -165L65.22 144.31L237.31 100.14L65.55 -165ZM396.65 573.55L176.56 532.52C176.36 532.48 176.21 532.33 176.17 532.14C176.13 531.95 176.2 531.75 176.37 531.64L354.47 408.61L354.92 408.55L355.23 408.89L397.21 572.95L397.09 573.41L396.74 573.56L396.65 573.55ZM177.89 531.77L396.07 572.45L354.45 409.81L177.89 531.77Z" />
			<path id="Path 31" fill-rule="evenodd" class="shp0" d="M266.17 636.57L176.28 532.36L176.22 531.79C176.32 531.61 176.53 531.52 176.74 531.56L396.82 572.59C397.04 572.63 397.19 572.8 397.22 573.01C397.25 573.22 397.14 573.42 396.95 573.51L266.76 636.69L266.55 636.74L266.17 636.57ZM177.93 532.77L266.67 635.65L395.19 573.28L177.93 532.77Z" />
			<path id="Path 32" fill-rule="evenodd" class="shp0" d="M176.53 532.51L176.21 532.26L119.06 420.61L119.07 420.14L119.47 419.9L354.73 408.52C354.94 408.52 355.15 408.65 355.21 408.85C355.29 409.06 355.21 409.29 355.03 409.41L176.92 532.44L176.65 532.53L176.53 532.51ZM120.28 420.84L176.82 531.32L353.06 409.58L120.28 420.84Z" />
			<path id="Path 33" fill-rule="evenodd" class="shp0" d="M205.34 658.31L205.1 657.99L176.17 532.15C176.12 531.93 176.22 531.7 176.42 531.6C176.63 531.5 176.87 531.55 177.01 531.72L266.91 635.93L267.02 636.38L266.71 636.71L205.74 658.34L205.58 658.37L205.34 658.31ZM177.56 533.85L205.93 657.24L265.71 636.03L177.56 533.85Z" />
			<path id="Path 34" fill-rule="evenodd" class="shp0" d="M205.53 658.37L59.52 645.55C59.33 645.53 59.17 645.4 59.1 645.22L59.23 644.71L176.31 531.69L176.78 531.57L177.12 531.93L206.05 657.77L205.94 658.2L205.58 658.37L205.53 658.37ZM60.68 644.66L204.95 657.34L176.36 532.99L60.68 644.66Z" />
			<path id="Path 35" fill-rule="evenodd" class="shp0" d="M176.42 532.47L55.23 470.09L54.97 469.7L55.16 469.27L119.2 420L119.6 419.91L119.93 420.17L177.08 531.81C177.18 532 177.14 532.23 176.99 532.38L176.65 532.53L176.42 532.47ZM56.36 469.58L175.52 530.91L119.33 421.14L56.36 469.58Z" />
			<path id="Path 36" fill-rule="evenodd" class="shp0" d="M59.44 645.53L59.1 645.2L8.76 482.15L8.88 481.66L9.37 481.54L176.78 531.57L177.12 531.92L176.99 532.39L59.9 645.41L59.57 645.55L59.44 645.53ZM9.96 482.74L59.8 644.16L175.7 532.27L9.96 482.74Z" />
			<path id="Path 37" fill-rule="evenodd" class="shp0" d="M176.5 532.51L9.09 482.48C8.88 482.41 8.74 482.22 8.74 482C8.74 481.78 8.89 481.59 9.1 481.54L55.33 469.19L55.68 469.22L176.87 531.6C177.09 531.72 177.19 531.99 177.1 532.22C177.02 532.41 176.84 532.53 176.65 532.53L176.5 532.51ZM11.02 482.04L171.73 530.06L55.4 470.18L11.02 482.04ZM899.53 594.73L732.22 564.57L731.86 564.3L731.88 563.85L760.55 512.82L760.85 512.59L761.22 512.64L899.87 593.83C900.07 593.95 900.16 594.2 900.08 594.42C900.01 594.61 899.82 594.74 899.62 594.74L899.53 594.73ZM733.06 563.73L897 593.28L761.16 513.74L733.06 563.73Z" />
			<path id="Path 38" fill-rule="evenodd" class="shp0" d="M731.93 564.41L675 496.37L674.96 495.8C675.06 495.62 675.27 495.54 675.47 495.57L761.07 512.58L761.42 512.86L761.4 513.3L732.73 564.33L732.35 564.58L732.3 564.58L731.93 564.41ZM676.64 496.8L732.22 563.23L760.22 513.41L676.64 496.8ZM489.62 220.42L462.73 116.86C462.66 116.6 462.82 116.33 463.08 116.26C463.34 116.19 463.61 116.35 463.68 116.61L490.56 220.18C490.63 220.44 490.47 220.71 490.21 220.77L490.09 220.79C489.87 220.79 489.68 220.64 489.62 220.42Z" />
			<path id="Path 39" fill-rule="evenodd" class="shp0" d="M489.87 220.74L350 151.19C349.82 151.1 349.71 150.91 349.73 150.71C349.75 150.51 349.89 150.34 350.08 150.28L463.06 116.27L463.44 116.31L463.68 116.61L490.56 220.18L490.4 220.68L490.09 220.79L489.87 220.74ZM351.54 150.86L489.35 219.39L462.86 117.35L351.54 150.86Z" />
			<path id="Path 40" fill-rule="evenodd" class="shp0" d="M450.2 352.31L326.04 337.92C325.84 337.9 325.68 337.76 325.62 337.56C325.58 337.36 325.65 337.16 325.81 337.04L489.81 219.9L490.38 219.9C490.55 220.03 490.62 220.24 490.56 220.44L450.73 351.97C450.66 352.18 450.47 352.31 450.26 352.31L450.2 352.31ZM327.41 337.1L449.91 351.29L489.21 221.53L327.41 337.1Z" />
			<path id="Path 41" fill-rule="evenodd" class="shp0" d="M325.85 337.86C325.68 337.76 325.59 337.57 325.61 337.38L349.74 150.69L349.99 150.32L350.44 150.31L490.31 219.86L490.58 220.26L490.38 220.7L326.38 337.84L326.1 337.93L325.85 337.86ZM350.61 151.49L326.73 336.39L489.14 220.38L350.61 151.49ZM535.3 444.34L444.94 376.47L444.76 375.98L449.78 351.73L450.13 351.36L450.61 351.49L535.95 443.62C536.13 443.8 536.13 444.09 535.96 444.28L535.6 444.44L535.3 444.34ZM445.78 375.88L531.54 440.29L450.54 352.86L445.78 375.88Z" />
			<path id="Path 42" fill-rule="evenodd" class="shp0" d="M535.51 444.43L388.15 419.5C387.96 419.47 387.81 419.32 387.76 419.13C387.71 418.94 387.79 418.74 387.94 418.63L444.94 375.69L445.53 375.69L535.89 443.56C536.07 443.69 536.13 443.93 536.04 444.14C535.97 444.32 535.79 444.44 535.6 444.44L535.51 444.43ZM389.44 418.72L533.69 443.13L445.24 376.69L389.44 418.72Z" />
			<path id="Path 43" fill-rule="evenodd" class="shp0" d="M396.55 573.53C396.38 573.45 396.26 573.29 396.25 573.1L387.75 419.04L387.91 418.65L388.32 418.54L535.68 443.47L536.06 443.81L535.93 444.31L397.07 573.43L396.74 573.56L396.55 573.53ZM388.76 419.6L397.17 572L534.54 444.26L388.76 419.6ZM-50.68 260.39L61.62 212.95L-50.89 219.59L-50.89 218.61L64.4 211.81C64.66 211.79 64.84 211.95 64.9 212.17L64.9 212.17L119.96 420.23C119.99 420.33 120 420.44 119.96 420.55C119.95 420.58 119.93 420.61 119.92 420.64C119.88 420.7 119.84 420.74 119.79 420.78L119.78 420.78C119.7 420.84 119.6 420.88 119.5 420.88L119.45 420.88L-49.95 402.72L-49.96 401.74L117.45 419.68L55.24 380.52L-50.41 314.03L-50.41 312.87L118.71 419.31L64.1 212.97L-50.67 261.45L-50.68 260.39ZM732.12 564.55L562.68 496.11C562.46 496.02 562.34 495.8 562.38 495.57C562.42 495.34 562.63 495.17 562.86 495.17L562.86 495.17L675.38 495.57L675.75 495.74L732.68 563.78L732.7 564.38L732.3 564.58L732.12 564.55ZM565.4 496.16L730.67 562.91L675.15 496.54L565.4 496.16Z" />
			<path id="Path 44" fill-rule="evenodd" class="shp0" d="M595.11 675.73L594.8 675.36L562.38 495.75L562.55 495.28L563.04 495.21L732.49 563.64L732.79 564.02L732.61 564.47L595.59 675.66L595.28 675.76L595.11 675.73ZM563.5 496.45L595.62 674.37L731.35 564.23L563.5 496.45Z" />
			<path id="Path 45" fill-rule="evenodd" class="shp0" d="M675.38 496.54L562.86 496.15L562.43 495.89L535.16 444.17L535.23 443.63C535.36 443.47 535.57 443.42 535.77 443.49L675.55 495.6C675.77 495.68 675.9 495.91 675.86 496.14C675.82 496.37 675.61 496.54 675.38 496.54L675.38 496.54ZM563.16 495.17L672.64 495.56L536.62 444.85L563.16 495.17Z" />
			<path id="Path 46" fill-rule="evenodd" class="shp0" d="M595.06 675.71L396.51 573.51L396.25 573.06L396.53 572.63L562.65 495.22L563.09 495.23L563.34 495.57L595.76 675.19L595.57 675.67L595.28 675.76L595.06 675.71ZM397.85 573.1L594.62 674.39L562.49 496.37L397.85 573.1Z" />
			<path id="Path 47" fill-rule="evenodd" class="shp0" d="M396.33 573.35C396.2 573.15 396.23 572.88 396.4 572.71L535.26 443.59L535.68 443.47L536.03 443.72L563.29 495.43L563.33 495.81L563.07 496.1L396.94 573.52L396.74 573.56L396.33 573.35ZM535.46 444.74L399.34 571.32L562.19 495.43L535.46 444.74ZM-49.44 503.34L8.08 481.91L-49.72 448.74L-49.73 447.61L9.47 481.59C9.64 481.68 9.73 481.86 9.71 482.05C9.7 482.24 9.57 482.4 9.4 482.47L-49.44 504.38L-49.44 503.34ZM462.93 117.14L350.03 41.64C349.81 41.49 349.75 41.18 349.9 40.96C350.05 40.73 350.35 40.68 350.58 40.83L463.47 116.33C463.7 116.48 463.76 116.78 463.61 117.01L463.2 117.22L462.93 117.14Z" />
			<path id="Path 48" fill-rule="evenodd" class="shp0" d="M349.93 151.14L349.73 150.75L349.81 41.23L350.07 40.8L350.58 40.83L463.47 116.33L463.69 116.81C463.66 117 463.53 117.15 463.34 117.2L350.36 151.22L350.22 151.24L349.93 151.14ZM350.79 42.15L350.71 150.09L462.07 116.57L350.79 42.15Z" />
			<path id="Path 49" fill-rule="evenodd" class="shp0" d="M350.02 151.19L237.89 100.89L237.6 100.46L237.86 100.01L350.07 40.8L350.56 40.81L350.79 41.23L350.71 150.75L350.49 151.16L350.22 151.24L350.02 151.19ZM239.21 100.4L349.73 149.99L349.81 42.04L239.21 100.4Z" />
			<path id="Path 50" fill-rule="evenodd" class="shp0" d="M237.79 100.83L237.62 100.33L291.13 -121.89C291.18 -122.1 291.37 -122.25 291.58 -122.26C291.79 -122.29 292 -122.14 292.07 -121.94L350.76 41.07C350.85 41.3 350.75 41.55 350.53 41.66L238.32 100.87L238.1 100.93L237.79 100.83ZM291.7 -120.07L238.82 99.5L349.7 41L291.7 -120.07ZM-49.17 556.35L7.78 483.07L-49.44 504.38L-49.44 503.34L9.06 481.55C9.26 481.48 9.49 481.54 9.62 481.72L9.62 481.8L9.69 481.86L60.03 644.91C60.03 644.92 60.03 644.92 60.04 644.93C60.05 645 60.06 645.07 60.05 645.15C60.04 645.17 60.04 645.19 60.03 645.22C60 645.31 59.94 645.39 59.86 645.45L59.85 645.45C59.8 645.49 59.75 645.52 59.68 645.53L-48.58 672.43L-48.58 671.42L58.38 644.85L-49.09 572.3L-49.09 571.12L58.69 643.88L9.04 483.05L-49.16 557.94L-49.17 556.35ZM221.47 244.76C225.05 244.74 227.96 247.62 227.98 251.2C228 254.78 225.11 257.69 221.54 257.71C217.96 257.73 215.04 254.84 215.03 251.26C215.01 247.69 217.89 244.77 221.47 244.76Z" />
			<path id="Path 52" class="shp0" d="M133.02 212.91C133.01 211.38 134.25 210.14 135.78 210.13C137.31 210.12 138.56 211.36 138.57 212.89C138.58 214.42 137.34 215.67 135.81 215.67C134.28 215.68 133.03 214.45 133.02 212.91Z" />
			<path id="Path 54" class="shp0" d="M64.76 151.32C61.24 151.34 58.36 148.49 58.35 144.97C58.33 141.45 61.17 138.57 64.69 138.56C68.22 138.54 71.09 141.38 71.11 144.9C71.13 148.43 68.29 151.3 64.76 151.32Z" />
			<path id="Path 56" class="shp0" d="M354.72 403.25C357.91 403.23 360.5 405.8 360.52 408.98C360.53 412.17 357.97 414.76 354.78 414.78C351.6 414.79 349 412.22 348.99 409.04C348.97 405.86 351.54 403.26 354.72 403.25Z" />
			<path id="Path 58" class="shp0" d="M176.63 528.44C178.61 528.43 180.23 530.03 180.24 532.02C180.25 534 178.65 535.62 176.66 535.63C174.68 535.64 173.06 534.04 173.05 532.05C173.04 530.07 174.64 528.45 176.63 528.44Z" />
			<path id="Path 60" class="shp0" d="M55.42 462.7C59.26 462.68 62.39 465.78 62.41 469.62C62.43 473.47 59.33 476.6 55.49 476.62C51.65 476.64 48.52 473.54 48.5 469.69C48.48 465.85 51.58 462.72 55.42 462.7Z" />
			<path id="Path 62" class="shp0" d="M899.6 591.39C901.19 591.38 902.47 592.66 902.48 594.24C902.49 595.82 901.21 597.1 899.63 597.11C898.05 597.12 896.76 595.85 896.76 594.27C896.75 592.69 898.02 591.4 899.6 591.39Z" />
			<path id="Path 64" class="shp0" d="M760.95 508.43C763.51 508.42 765.59 510.48 765.6 513.04C765.62 515.6 763.55 517.68 761 517.69C758.44 517.7 756.36 515.64 756.35 513.09C756.33 510.53 758.39 508.45 760.95 508.43Z" />
			<path id="Path 66" class="shp0" d="M490.08 217.51C491.62 217.5 492.88 218.74 492.89 220.29C492.89 221.83 491.65 223.09 490.11 223.1C488.56 223.1 487.3 221.86 487.3 220.31C487.29 218.77 488.53 217.51 490.08 217.51Z" />
			<path id="Path 68" class="shp0" d="M326.06 331.07C329.58 331.05 332.45 333.89 332.47 337.41C332.49 340.92 329.65 343.79 326.13 343.81C322.61 343.83 319.75 340.99 319.73 337.47C319.71 333.95 322.55 331.09 326.06 331.07Z" />
			<path id="Path 70" class="shp0" d="M450.27 355C448.52 355.01 447.09 353.6 447.08 351.84C447.07 350.09 448.49 348.66 450.24 348.65C452 348.64 453.43 350.06 453.44 351.81C453.44 353.57 452.03 355 450.27 355Z" />
			<path id="Path 72" class="shp0" d="M445.22 372.49C447.2 372.48 448.82 374.08 448.83 376.06C448.84 378.05 447.24 379.66 445.26 379.68C443.27 379.69 441.66 378.09 441.65 376.1C441.64 374.12 443.24 372.5 445.22 372.49Z" />
			<path id="Path 74" class="shp0" d="M388.22 416.2C389.77 416.2 391.04 417.45 391.05 419C391.06 420.56 389.8 421.82 388.25 421.83C386.7 421.84 385.43 420.58 385.42 419.03C385.42 417.48 386.67 416.21 388.22 416.2Z" />
			<path id="Path 76" class="shp0" d="M119.47 415.5C122.17 415.49 124.37 417.66 124.39 420.36C124.4 423.06 122.22 425.26 119.52 425.28C116.82 425.29 114.62 423.11 114.61 420.41C114.59 417.71 116.77 415.51 119.47 415.5Z" />
			<path id="Path 78" class="shp0" d="M64.4 206.68C67.5 206.66 70.03 209.16 70.05 212.27C70.06 215.37 67.56 217.9 64.46 217.92C61.35 217.93 58.83 215.43 58.81 212.33C58.79 209.22 61.3 206.69 64.4 206.68Z" />
			<path id="Path 80" class="shp0" d="M732.27 558C735.64 557.98 738.38 560.69 738.4 564.06C738.41 567.43 735.7 570.17 732.33 570.19C728.97 570.2 726.23 567.49 726.21 564.12C726.19 560.76 728.91 558.01 732.27 558Z" />
			<path id="Path 82" class="shp0" d="M671.87 496.07C671.86 494.14 673.42 492.56 675.36 492.55C677.3 492.54 678.87 494.1 678.89 496.04C678.9 497.98 677.33 499.55 675.39 499.56C673.46 499.57 671.88 498.01 671.87 496.07Z" />
			<path id="Path 84" class="shp0" d="M562.83 489.89C566.02 489.88 568.61 492.45 568.63 495.63C568.64 498.81 566.08 501.41 562.89 501.43C559.71 501.44 557.11 498.87 557.1 495.69C557.08 492.5 559.65 489.91 562.83 489.89Z" />
			<path id="Path 86" class="shp0" d="M396.71 568.04C399.49 568.03 401.75 570.27 401.76 573.05C401.78 575.83 399.54 578.09 396.76 578.1C393.99 578.12 391.72 575.88 391.71 573.1C391.69 570.32 393.93 568.06 396.71 568.04Z" />
			<path id="Path 88" class="shp0" d="M535.57 440.26C537.61 440.25 539.27 441.89 539.29 443.93C539.3 445.97 537.65 447.63 535.61 447.64C533.58 447.65 531.91 446.01 531.9 443.97C531.89 441.93 533.54 440.27 535.57 440.26Z" />
			<path id="Path 90" class="shp0" d="M463.18 112.32C465.62 112.31 467.6 114.27 467.62 116.71C467.63 119.15 465.66 121.14 463.23 121.15C460.79 121.16 458.8 119.2 458.79 116.76C458.77 114.32 460.74 112.33 463.18 112.32Z" />
			<path id="Path 92" class="shp0" d="M350.2 147.47C352.01 147.46 353.49 148.92 353.5 150.73C353.51 152.54 352.05 154.02 350.24 154.03C348.42 154.04 346.95 152.58 346.94 150.77C346.93 148.95 348.39 147.48 350.2 147.47Z" />
			<path id="Path 94" class="shp0" d="M350.34 48.29C346.44 48.31 343.26 45.17 343.24 41.27C343.22 37.37 346.37 34.19 350.27 34.17C354.17 34.15 357.34 37.3 357.36 41.2C357.38 45.09 354.24 48.27 350.34 48.29Z" />
			<path id="Path 96" class="shp0" d="M238.08 96.84C240.06 96.83 241.69 98.43 241.7 100.42C241.71 102.41 240.1 104.03 238.11 104.04C236.12 104.05 234.5 102.45 234.49 100.46C234.48 98.47 236.09 96.85 238.08 96.84Z" />
			<path id="Path 98" class="shp0" d="M9.2 477.35C11.78 477.34 13.87 479.41 13.89 481.99C13.9 484.56 11.82 486.65 9.25 486.67C6.68 486.68 4.58 484.61 4.57 482.03C4.55 479.46 6.63 477.36 9.2 477.35Z" />
		</g>
	</g>
</svg>