<svg xmlns="http://www.w3.org/2000/svg" viewBox="0 0 1000 600" width="1000" height="600">
	<defs>
		<clipPath clipPathUnits="userSpaceOnUse" id="cp1">
			<path d="M-31 -198L1523 -198L1523 742L-31 742Z" />
		</clipPath>
		<linearGradient id="grd1" gradientUnits="userSpaceOnUse"  x1="403.679" y1="613.023" x2="565.576" y2="434.588">
			<stop offset="0" stop-color="#a62b2b"  />
			<stop offset="1" stop-color="#eb3d3d"  />
		</linearGradient>
		<linearGradient id="grd2" gradientUnits="userSpaceOnUse"  x1="95.598" y1="330.059" x2="141.152" y2="403.637">
			<stop offset="0" stop-color="#ffc05c"  />
			<stop offset="1" stop-color="#ff3857"  />
		</linearGradient>
		<linearGradient id="grd3" gradientUnits="userSpaceOnUse"  x1="218.254" y1="634.61" x2="276.281" y2="502.308">
			<stop offset="0" stop-color="#f7b877"  />
			<stop offset="1" stop-color="#ffdfbd"  />
		</linearGradient>
		<linearGradient id="grd4" gradientUnits="userSpaceOnUse"  x1="695.533" y1="634.61" x2="753.561" y2="502.308">
			<stop offset="0" stop-color="#f7b877"  />
			<stop offset="1" stop-color="#ffdfbd"  />
		</linearGradient>
		<linearGradient id="grd5" gradientUnits="userSpaceOnUse"  x1="816.714" y1="233.604" x2="797.676" y2="255.044">
			<stop offset="0" stop-color="#ffc05c"  />
			<stop offset="1" stop-color="#ff3857"  />
		</linearGradient>
		<linearGradient id="grd6" gradientUnits="userSpaceOnUse"  x1="803.95" y1="274.761" x2="821.31" y2="274.761">
			<stop offset="0" stop-color="#f7b877"  />
			<stop offset="1" stop-color="#ffdfbd"  />
		</linearGradient>
		<linearGradient id="grd7" gradientUnits="userSpaceOnUse"  x1="798.683" y1="256.51" x2="831.853" y2="251.954">
			<stop offset="0" stop-color="#f7b877"  />
			<stop offset="1" stop-color="#ffdfbd"  />
		</linearGradient>
	</defs>
	<style>
		tspan { white-space:pre }
		.shp0 { fill: url(#grd1) } 
		.shp1 { fill: #d43737 } 
		.shp2 { fill: #131c24 } 
		.shp3 { fill: #3c568a } 
		.shp4 { fill: #202e4a } 
		.shp5 { fill: #d9c7c1 } 
		.shp6 { fill: #eea987 } 
		.shp7 { fill: #d88a51 } 
		.shp8 { fill: #c78d71 } 
		.shp9 { fill: #1b2833 } 
		.shp10 { fill: #1a2833 } 
		.shp11 { fill: #2d4169 } 
		.shp12 { fill: #3e5e78 } 
		.shp13 { fill: #eea886 } 
		.shp14 { fill: #263947 } 
		.shp15 { fill: #eddad3 } 
		.shp16 { fill: #cf8c6c } 
		.shp17 { fill: #16202e } 
		.shp18 { fill: #0c3454 } 
		.shp19 { fill: #1d5e94 } 
		.shp20 { fill: #d6c5be } 
		.shp21 { fill: #fae6de } 
		.shp22 { fill: #a77860 } 
		.shp23 { fill: #912b2b } 
		.shp24 { fill: url(#grd2) } 
		.shp25 { fill: #fac48d } 
		.shp26 { fill: #db9c7c } 
		.shp27 { fill: url(#grd3) } 
		.shp28 { fill: url(#grd4) } 
		.shp29 { fill: #d6c7b2 } 
		.shp30 { fill: #eddcc5 } 
		.shp31 { fill: #323657 } 
		.shp32 { fill: #e6a281 } 
		.shp33 { fill: #eed9cf } 
		.shp34 { fill: #434343 } 
		.shp35 { fill: #e55353 } 
		.shp36 { fill: #ffc05c } 
		.shp37 { fill: #464c7a } 
		.shp38 { fill: #404670 } 
		.shp39 { fill: #252840 } 
		.shp40 { fill: #efaa88 } 
		.shp41 { fill: #0f3a5e } 
		.shp42 { fill: #223247 } 
		.shp43 { fill: #943636 } 
		.shp44 { fill: url(#grd5) } 
		.shp45 { fill: url(#grd6) } 
		.shp46 { fill: url(#grd7) } 
		.shp47 { fill: #faa146 } 
	</style>
	<g id="Page 1" clip-path="url(#cp1)">
		<path id="Path 19" class="shp0" d="M585.4 599.78L425.4 599.78L425.4 402.04L585.4 402.04L585.4 599.78Z" />
		<path id="Path 20" class="shp1" d="M516.02 206.68C516.02 206.68 489.58 199.58 467.34 215.45C445.1 231.32 415.22 261.29 387.93 251.42C360.64 241.54 338.49 270.56 338.49 270.56C338.49 270.56 381.39 257 381.2 304.74C381.09 333.7 435.35 320.59 447.66 295.57C459.97 270.55 458.41 263.86 473.86 259.93C500.15 253.25 497.82 226.93 512.74 231.77C527.66 236.62 516.02 206.68 516.02 206.68Z" />
		<path id="Path 21" class="shp2" d="M480.63 396.58C480.63 396.58 479.32 399.51 478.22 400.68C477.12 401.84 472.91 403.92 472.89 407.37C472.86 411.12 479.99 410.08 482.78 409.94C485.56 409.8 485.78 407.8 486.95 405.68C488.12 403.56 489.31 403.92 489.53 402.21C489.75 400.5 488.63 396.67 488.63 396.67L480.63 396.58Z" />
		<path id="Path 22" class="shp3" d="M480.51 395.5L480.3 397.28C480.3 397.28 484.69 398.74 488.83 397.43L488.6 395L480.51 395.5Z" />
		<path id="Path 23" class="shp2" d="M532.02 396.58C532.02 396.58 533.32 399.51 534.42 400.68C535.53 401.84 539.74 403.92 539.76 407.37C539.79 411.12 532.66 410.08 529.87 409.94C527.08 409.8 526.87 407.8 525.7 405.68C524.53 403.56 523.34 403.92 523.12 402.21C522.9 400.5 524.02 396.67 524.02 396.67L532.02 396.58Z" />
		<path id="Path 24" class="shp3" d="M532.14 395.5L532.34 397.28C532.34 397.28 527.96 398.74 523.82 397.43L524.05 395L532.14 395.5Z" />
		<path id="Path 25" class="shp4" d="M529.84 348.23C529.84 352.85 534.15 395 534.15 395C533.65 396.54 523.07 396.35 521.42 395.58C519.77 394.81 514.97 353.04 514.67 348.39C514.36 343.73 507.47 303.25 506.03 303.4C504.58 303.55 497.72 346.94 496.57 350.48C495.41 354.02 490.17 395.99 490.17 395.99C486.54 397.99 477.91 395.48 477.91 395.48C477.91 395.48 479.72 352.4 479.93 351.1C480.23 349.17 479.91 343.98 480.75 332.46C481.5 322.16 484.22 299.74 485.94 287.59C486 287.16 486.06 286.74 486.12 286.35C486.45 283.98 486.7 282.25 486.83 281.41C486.88 281.05 486.91 280.86 486.91 280.86C487.37 280.66 487.86 280.48 488.36 280.31C500.45 276.26 523.46 276.52 523.46 276.52C523.46 276.52 523.77 280.65 523.8 280.85C523.83 281.1 523.88 281.48 523.94 281.98C524.08 283.05 524.28 284.64 524.51 286.49C524.51 286.51 524.51 286.52 524.51 286.53C524.52 286.59 524.53 286.65 524.53 286.7C525.35 293.29 526.5 302.93 526.39 303.94C526.22 305.48 529.84 343.62 529.84 348.23Z" />
		<path id="Path 26" class="shp5" d="M531.56 211.69L525.62 233C525.41 233.69 525.17 234.54 524.91 235.52L524.9 235.56C524.9 235.57 524.9 235.58 524.9 235.59C523.9 239.39 522.68 245.18 522.31 251.61C522.07 255.99 522.88 273.62 522.88 273.62C522.88 273.62 513.89 276.97 500.45 276.12C500.45 276.12 485.98 275.79 487.16 266.92C490.28 243.45 487.23 233.77 486.82 231.41C486.82 231.41 485.11 220.6 483.71 211.05C487.78 209.53 504.91 203.1 504.91 203.1L513.92 203.78C513.92 203.78 527.6 207.14 531.56 211.69Z" />
		<path id="Path 27" class="shp6" d="M509.43 172.98C509.43 172.98 518.22 174.46 516.73 188.23C515.24 201.99 507.48 200.78 506.96 200.76C506.44 200.74 499.15 200.92 498.77 184.1C498.77 184.1 498.65 171.65 509.43 172.98ZM513.28 196.77C513.28 196.77 512.98 202.43 513.51 203.66C514.05 204.9 506.45 208.8 501.73 204.35C501.73 204.35 502.69 198.16 502.39 195.98C502.1 193.79 513.28 196.77 513.28 196.77ZM516.91 184.34C516.91 184.34 517.88 183.32 518.22 184.36C518.57 185.41 516.67 190.05 516.79 190.26C516.79 190.26 516.6 190.66 516.37 190.44C516.15 190.21 516.91 184.34 516.91 184.34ZM498.87 183.97C498.87 183.97 497.94 182.91 497.55 183.94C497.17 184.97 498.57 189.6 498.75 189.89C498.75 189.89 499.05 190.36 499.29 190.15C499.52 189.93 498.87 183.97 498.87 183.97Z" />
		<path id="Path 28" class="shp7" d="M517.47 183.17C517.16 185.05 516.88 186.45 516.88 186.45L515.6 188.12C515.6 188.12 515.67 184.43 515.48 183.85C515.4 183.63 515.32 183.24 515.23 182.81C515.08 182.12 514.93 181.33 514.83 181.07C514.66 180.65 507.29 178.5 500.73 181.52C500.73 181.52 500.79 182.09 500.78 182.73C500.78 183.46 500.7 184.29 500.36 184.41C499.73 184.64 499.99 188.74 499.99 188.74L498.97 187.56C498.97 187.56 498.68 185.42 498.38 182.96C498.38 182.96 498.38 182.95 498.38 182.94C498.31 182.37 498.25 181.78 498.18 181.19C498.04 178.72 498.28 174.23 501.5 171.6C503.67 170.66 509.61 169.73 512.92 171.65C512.92 171.65 514.7 172.75 515.07 173.11C518.67 177.07 517.47 183.17 517.47 183.17Z" />
		<path id="Path 29" class="shp8" d="M502.99 198.92C502.99 198.92 504.4 200.86 507.66 200.79C510.92 200.72 512.33 199.02 512.33 199.02C512.33 199.02 510.79 202.25 507.64 202.21C504.49 202.18 502.99 198.92 502.99 198.92Z" />
		<path id="Path 30" class="shp6" d="M500.84 204.47C500.84 204.47 503.19 208.58 507.66 208.96C510.5 209.21 512.93 205.6 514.08 203.84C514.08 203.84 507.76 201.13 500.84 204.47Z" />
		<path id="Path 31" class="shp9" d="M507.66 207.43L509.7 210.53C509.7 210.53 507.56 211.74 505.57 210.45L507.66 207.43Z" />
		<path id="Path 32" class="shp10" d="M486.67 277.72C486.67 277.72 497.7 281.79 522.65 277.96L522.31 273.44C522.31 273.44 507.85 277.71 487.11 274.05L486.67 277.72Z" />
		<path id="Path 33" class="shp11" d="M514.1 203.82C514.1 203.82 511.52 223.11 511.88 239.74C512.23 256.35 517.63 287.52 517.63 287.52C517.63 287.52 527.25 286.58 529.64 283.57C529.64 283.57 524.12 253.57 524.27 249.13C524.43 244.69 531.35 211.26 531.35 211.26C531.35 211.26 528.64 207.65 514.1 203.82ZM500.3 204.83C500.3 204.83 500.28 223.11 499.92 239.74C499.57 256.35 497.38 287.29 497.38 287.29C497.38 287.29 486.1 285.68 483.71 282.68C483.71 282.68 487.69 253.57 487.53 249.13C487.37 244.69 482.43 211.58 482.43 211.58C482.43 211.58 484.14 209.14 500.3 204.83Z" />
		<path id="Path 34" class="shp12" d="M508.49 279.87L501.71 279.87L501.71 274.83L508.49 274.83L508.49 279.87Z" />
		<path id="Path 35" class="shp9" d="M506.71 209.75C506.71 209.75 503.68 220.07 503.42 240.6C503.15 261.11 503.79 267 503.79 267L506.15 271.68L509.3 266.8C509.3 266.8 508.29 219.58 508.87 210.1L506.71 209.75Z" />
		<path id="Path 36" class="shp13" d="M519.34 238.62C519.34 238.62 523.82 236.37 524.44 235.97C525.06 235.58 532.55 234.46 533.49 234.5C534.43 234.53 534.48 235.28 534.21 235.55C533.94 235.81 526.46 237.04 526.34 237.22C526.21 237.4 526.97 237.33 526.97 237.33C526.97 237.33 535.03 237.21 535.59 237.75C536.15 238.29 535.51 238.8 535.18 238.93C535.18 238.93 535.91 239.78 535.07 240.13C534.22 240.47 533.07 240.69 533.07 240.69C533.07 240.69 534.14 241.24 533.44 241.73C532.74 242.22 524.19 244.86 524.19 244.86C524.19 244.86 521.02 238.79 519.34 238.62Z" />
		<path id="Path 37" class="shp11" d="M534.74 254.06C528.91 255.45 515.46 253.2 510.33 252.07C509.24 251.83 508.01 251.58 506.75 251.33L506.75 251.33C504.65 250.92 502.46 250.51 500.69 250.2L500.68 250.2C498.5 249.81 496.93 249.55 496.93 249.55C496.93 249.55 525.18 243.2 526.22 243.2C527.26 243.2 523.61 226.69 523.61 226.69C523.61 226.69 519.97 212.86 521.86 207.43C521.86 207.43 529.03 209.6 531.35 211.26C532.64 212.18 533.6 218.18 534.48 222.25C535.59 227.42 538.19 239.19 538.49 241.68C538.75 243.94 540.56 252.67 534.74 254.06ZM491.52 207.49C491.52 207.49 482.84 210.45 482.43 211.58C480.68 216.35 479.86 221.56 479.29 223.65C478.6 226.2 477.03 233.83 476.62 236.31C476.11 239.49 475.12 250.73 475.55 252.46C476.09 254.65 481.25 254.49 484.03 254.06C486.81 253.62 525.46 244.22 525.46 244.22C525.46 244.22 523.26 237.03 523.14 236.39C523.14 236.39 493.35 239.8 489.56 240.61C487.39 241.07 486.93 241.25 486.93 241.25C486.93 241.25 493.49 214.28 491.52 207.49Z" />
		<path id="Path 38" class="shp13" d="M496.65 239.67C496.65 239.67 492.76 236.51 492.24 235.99C491.72 235.47 484.65 232.77 483.72 232.6C482.79 232.42 482.64 233.17 482.71 233.53C482.83 234.18 490.04 236.6 490.12 236.8C490.21 237 489.48 236.77 489.48 236.77C489.48 236.77 481.64 234.91 480.97 235.32C480.3 235.73 480.82 236.36 481.11 236.57C481.11 236.57 480.22 237.23 480.97 237.75C481.72 238.28 482.79 238.74 482.79 238.74C482.79 238.74 481.64 239.05 482.22 239.67C482.79 240.3 486.93 241.25 486.93 241.25C486.93 241.25 494.98 239.48 496.65 239.67Z" />
		<path id="Path 39" class="shp14" d="M519.85 245.58L506.75 251.33L506.75 251.33C504.65 250.92 502.46 250.51 500.69 250.2L519.85 245.58Z" />
		<path id="Path 40" class="shp7" d="M513.54 172.88C513.54 172.88 515.72 171.78 516.9 173.22C518.08 174.66 518.2 182.5 516.76 185.5C515.32 188.51 516.99 174.83 513.54 172.88Z" />
		<path id="Path 41" class="shp1" d="M509.54 209.24L519.48 205.39C519.48 205.39 517.47 204.46 513.63 203.67L509.54 209.24ZM505.57 209.36L495.7 206.12C495.7 206.12 499.56 204.68 502.18 204.13L505.57 209.36Z" />
		<path id="Path 42" class="shp15" d="M513.29 202.55C513.29 202.55 511.49 204.91 507.66 207.43L510.04 211.09L514.1 203.82L513.29 202.55ZM501.91 203.1C501.91 203.1 504.2 205.97 507.66 207.43L505.05 211.2L500.45 204.74L501.91 203.1Z" />
		<path id="Path 43" class="shp13" d="M128.43 448.18C128.43 448.18 131.73 446.57 132.24 446.34C132.75 446.11 134.29 446.37 136.04 446.83C137.79 447.28 139.94 448.68 140.05 448.97C140.14 449.27 140.38 449.52 140.17 450.29C139.95 451.05 139.34 451.58 139.34 451.58C139.34 451.58 139.51 452.66 138.71 453.25C138.71 453.25 138.83 454.27 137.82 454.8C137.82 454.8 137.9 455.8 137.13 456.12C137.13 456.12 135.58 455.86 134.98 455.92C134.38 455.99 130.43 454.83 127.49 453.63C127.49 453.63 125.86 451.96 128.43 448.18Z" />
		<path id="Path 44" class="shp16" d="M133.29 450.06C133.29 450.06 132.09 451.45 131.55 451.67C131.01 451.89 133.2 455.43 133.2 455.43C133.2 455.43 134.95 451.57 133.29 450.06Z" />
		<path id="Path 45" class="shp17" d="M106.67 580.62C106.67 580.62 109.21 585.16 110.71 586.08C112.59 587.22 116.23 590.9 117.51 591.07C118.78 591.24 123.36 592.05 122.47 594.63C121.75 596.75 110.83 596.45 109.6 595.39C108.37 594.32 104.69 590.52 103.21 590.6C101.72 590.69 102.27 596.09 102.27 596.09L100.66 596.09C100.66 596.09 100.1 590.83 100.03 589.93C99.83 587.25 101.74 585.28 101.82 583.75C101.91 582.23 101.99 581.09 101.99 581.09L106.67 580.62Z" />
		<path id="Path 46" class="shp13" d="M117.14 590.94C117.14 590.94 113.55 592.19 110.78 590.6C108.01 589 102.69 586.59 100.82 586.57C100.82 586.57 101.84 583.44 101.86 583.09C101.88 582.74 101.99 581.09 101.99 581.09L106.64 580.34C106.64 580.34 109.65 584.76 110.98 585.81C112.31 586.85 115.71 589.45 117.14 590.94ZM62.81 584.89C62.81 584.89 63.25 588.03 63.74 588.89C64.23 589.74 65.58 594.11 66.19 594.92C66.8 595.74 68.15 601.86 66.19 602.59C64.23 603.33 59.63 604.55 58.07 602.1C56.52 599.65 56.32 597.21 56.57 595.33C56.81 593.45 58.67 584.84 58.65 583.99C58.62 583.14 62.81 584.89 62.81 584.89Z" />
		<path id="Path 47" class="shp17" d="M65.41 593.23C65.41 593.23 65.62 597.98 62.03 597.98C58.44 597.98 56.85 593.65 56.85 593.65C56.85 593.65 55.63 595.78 56.85 600.31C58.07 604.83 63.17 603.89 64.31 603.73C65.46 603.57 70.87 602.14 65.41 593.23Z" />
		<path id="Path 48" class="shp18" d="M68.73 476.6C68.73 476.6 64.09 482.51 62.45 486.43C60.81 490.34 58.08 498.91 58.45 505.55C58.81 512.19 60.99 524.65 60.36 527.48C59.72 530.29 59.09 536.12 58.4 538.12C57.72 540.12 54.99 545.94 54.72 551.95C54.45 557.95 56.66 584.29 56.48 586.74C56.3 589.2 64.43 587.7 64.43 587.7C64.43 587.7 64.63 563.96 65.54 559.86C66.45 555.77 67.55 541.85 68.36 540.85C69.18 539.85 71.48 529.29 71.63 527.57C71.77 525.9 81.5 497.05 82.05 492.14C82.59 487.23 94.78 476.6 94.78 476.6C94.78 476.6 82.83 472.03 68.73 476.6ZM98.95 581.92C97.23 581.65 92.6 555.04 93.14 550.31C93.69 545.58 94.23 535.49 92.69 531.39C91.67 528.7 85.33 515.01 81.06 505.4C80.46 504.04 79.9 502.77 79.4 501.62C78.05 498.49 77.15 496.27 77.13 495.82C77.04 494 71.11 462.66 94.54 476.6C94.54 476.6 94.78 479.08 95.05 479.99C95.32 480.9 101.6 504.09 102.24 513.01C102.88 521.93 104.51 529.49 104.79 531.39C105.06 533.3 104.51 539.66 103.97 541.3C103.42 542.94 107.52 579.91 107.79 580.82C108.06 581.73 100.68 582.19 98.95 581.92Z" />
		<path id="Path 49" class="shp19" d="M86.64 429.59C86.64 429.59 91.4 428.03 94.12 430.68C96.83 433.33 98.93 436.86 99.67 438.3C100.42 439.75 107.77 449.74 108.28 450.02C108.78 450.31 114.91 449.03 118.64 448.51C123.87 447.78 128.62 447.45 128.62 447.45L129.33 454.43C129.33 454.43 105.87 458.94 103.83 457.28C99.33 453.63 88.28 440.09 88.28 440.09C88.28 440.09 79.12 435 86.64 429.59Z" />
		<path id="Path 50" class="shp15" d="M85.35 427.08C85.35 427.08 89.78 429.17 91.32 429.48C92.86 429.79 98.84 437.55 99.89 440.38C100.93 443.21 99.89 447.46 97.73 452.45C95.58 457.44 97.61 459.1 96.63 464.09C95.64 469.08 94.78 479.64 94.97 482.41C95.16 485.18 70.06 485.71 64.33 480.66C64.33 480.66 70.09 472.04 70.83 470.81C71.57 469.58 70.95 462.86 70.27 461.14C69.59 459.42 62.5 445.55 62.5 445.55C62.5 445.55 61.5 433.61 64.83 431.03C67.73 428.78 75.5 427.85 76.92 427.36C78.33 426.87 82.45 426.65 85.35 427.08Z" />
		<path id="Path 51" class="shp20" d="M86.77 436.96L89.46 433.81L87.12 425.5C87.12 425.5 86.34 430.13 86.77 436.96Z" />
		<path id="Path 52" class="shp13" d="M87.47 421.96C87.47 421.96 86.58 430.1 86.77 432.75C86.77 432.75 82.16 437.36 76.92 427.36C76.92 427.36 79.12 423.24 77.46 417.61C75.8 412 87.47 421.96 87.47 421.96ZM86.77 432.75L86.77 436.96L81.47 433L86.77 432.75Z" />
		<path id="Path 53" class="shp20" d="M86.77 436.96L84.57 434.24L77.15 426.85L74.75 429.16L86.77 436.96Z" />
		<path id="Path 54" class="shp19" d="M78.25 486.41C76.16 496.4 61.06 485.28 61.06 485.28C61.06 485.28 70.85 468.82 66.96 455.67C66.92 455.57 66.89 455.46 66.86 455.36C66.61 454.53 66.36 453.74 66.12 452.99C62.54 442.11 59.95 439.24 59.95 439.24C59.95 439.24 63.86 429.58 68.08 428.93C72.29 428.28 76.12 427.56 76.12 427.56C76.12 427.56 82.34 437 82.64 441.16C82.94 445.31 80.34 476.41 78.25 486.41ZM100.5 442.29C100.5 442.29 100.97 448.02 97.04 455.55C97.04 455.55 97.12 465.63 97.24 469.14C97.37 472.65 98.2 485.92 98.2 485.92L93.88 488.45C93.01 488.96 91.93 488.26 92.05 487.25C93.27 477.15 97.25 438.84 88.64 428.54L92.09 429.56C92.09 429.56 100.5 438.29 100.5 442.29Z" />
		<path id="Path 55" class="shp21" d="M89.46 433.81L92.86 434.75L87.12 425.5L89.46 433.81ZM84.57 434.24L81.47 438.3L75.13 427.74L77.15 426.85L84.57 434.24Z" />
		<path id="Path 56" class="shp13" d="M84.25 395.71C87.5 395.4 94.79 396.69 96.31 405.26C96.31 405.26 96.16 407.59 95.68 409.45C95.21 411.3 97.1 416.6 96.68 416.89C96.27 417.17 94.52 417.6 94.52 417.6C94.52 417.6 92.91 423.57 90.84 423.61C88.77 423.66 80.88 422.42 76.85 415.28C72.82 408.14 71.15 396.97 84.25 395.71Z" />
		<path id="Path 57" class="shp7" d="M96.31 405.26C96.31 405.26 91.2 409.11 86 410.08C80.79 411.06 77.98 420.11 77.98 420.11C77.98 420.11 69.25 406.99 75.29 398.59C81.34 390.19 96.97 395.16 96.31 405.26Z" />
		<path id="Path 58" class="shp13" d="M83.81 409.95C83.73 408.93 82.53 407.46 80.93 408.93C79.34 410.39 81.8 415.11 83.14 414.57C84.48 414.04 83.89 410.99 83.81 409.95Z" />
		<path id="Path 59" class="shp22" d="M87.48 423.14C87.36 423.77 87.24 424.51 87.14 425.29C82.77 422.8 80.48 419.63 80.48 419.63C83.01 421.71 87.48 423.14 87.48 423.14Z" />
		<path id="Path 60" class="shp23" d="M69.92 442.65C69.7 448.56 66.86 455.36 66.86 455.36C66.61 454.53 66.36 453.74 66.12 452.99C67.71 448.52 69.92 442.65 69.92 442.65Z" />
		<path id="Path 61" class="shp7" d="M78.93 408.13C80.53 411.76 79.57 415.7 76.78 416.92C73.99 418.14 70.44 416.19 68.85 412.56C67.25 408.93 68.22 404.99 71 403.77C73.79 402.54 77.34 404.5 78.93 408.13Z" />
		<path id="Path 62" class="shp24" d="M120.45 361.91C120.45 361.91 137.06 350.94 151.46 373.97C165.86 397.01 166.18 402.15 181.64 409.5L160.02 427.51C144.56 420.16 143.38 415.61 129.84 391.98C119.22 373.45 98.83 379.92 98.83 379.92C98.83 379.92 112.7 368.69 122.34 369.4C122.34 369.4 123.89 365.19 120.45 361.91Z" />
		<path id="Path 63" class="shp25" d="M79.49 497.78L77.86 495.82L183.9 407.51L185.53 409.47L79.49 497.78Z" />
		<path id="Path 64" class="shp13" d="M102.28 484.26C102.28 484.26 101.42 484.32 101.03 484.17C101.03 484.17 100.34 483.83 99.84 483.62C99.68 483.55 99.53 483.5 99.44 483.47C99.04 483.36 98.14 483.25 97.26 482.72C96.38 482.2 93.47 480.04 93.47 480.04L94.87 477.22L95.95 474.99C95.95 474.99 101.57 474.45 102.45 474.85C102.53 474.89 102.62 474.93 102.69 474.97C103.4 475.38 103.76 475.98 104.11 476.23C104.23 476.33 105.43 477.35 105.43 477.82C105.42 478.47 105.15 478.92 104.77 479.16C104.77 479.16 104.7 480.45 104.11 481.08C104.11 481.08 104.08 482.26 103.13 482.85C103.13 482.85 102.96 484.04 102.28 484.26ZM95.95 474.99L93.74 475.12L93.47 480.04C93.47 480.04 95.18 478.07 95.95 474.99Z" />
		<path id="Path 65" class="shp19" d="M66.67 429.47C66.67 429.47 60.07 433.61 59.49 440.52C58.92 447.43 59.95 449.84 60.71 452.77C61.43 455.55 62.18 463.28 62.32 464.08C62.46 464.89 62.89 475.4 65.92 477.74C68.97 480.1 93.19 481.25 93.36 481.98C93.53 482.71 94.86 474.27 94.86 474.27C94.86 474.27 82.09 473.29 80.39 472.55C77.63 471.34 72.67 470.87 72.46 468.03C72.21 464.69 71.01 453.58 71.09 451.85C71.16 450.12 71.78 429.5 66.67 429.47Z" />
		<path id="Path 66" class="shp26" d="M139.59 448.84C139.59 448.84 135.14 447.79 134.88 448.49C134.62 449.18 134.95 449.59 134.95 449.59L132.92 449.99C132.92 449.99 131.73 451.02 133.19 452.02C133.19 452.02 131.98 452.86 133.5 453.66C133.5 453.66 132.95 454.57 133.59 455.07C134.24 455.56 137.13 456.12 137.13 456.12C137.13 456.12 137.79 455.96 137.82 454.8C137.82 454.8 138.82 454.35 138.71 453.25C138.71 453.25 139.46 452.77 139.34 451.58C139.34 451.58 140.92 450.37 140.05 448.97C140.05 448.97 139.78 448.88 139.59 448.84Z" />
		<path id="Path 67" class="shp13" d="M132.38 446.35C132.38 446.35 134.78 448.39 135.59 450.07C135.78 450.45 135.89 450.86 135.61 451.17C135.32 451.49 134.5 451.48 133.42 450.65C132.34 449.82 130.56 449.25 130.56 449.25C130.56 449.25 129.7 448.07 132.38 446.35Z" />
		<path id="Path 68" class="shp27" d="M339.94 451.85L192 451.85L192 599.78L339.94 599.78L339.94 451.85Z" />
		<path id="Path 69" class="shp28" d="M817.22 451.85L669.28 451.85L669.28 599.78L817.22 599.78L817.22 451.85Z" />
		<path id="Path 70" class="shp13" d="M958.12 413.89C958.12 413.89 954.97 417.13 954.86 417.47C954.74 417.81 952.89 412.11 952.89 412.11L958.12 413.89ZM952.89 412.11C952.89 412.11 951.81 408.6 951.67 408.06C951.52 407.52 952.02 406.03 952.74 404.38C953.46 402.73 955.18 400.81 955.49 400.76C955.8 400.71 956.08 400.51 956.8 400.85C957.53 401.19 957.96 401.87 957.96 401.87C957.96 401.87 959.05 401.86 959.51 402.74C959.51 402.74 960.53 402.79 960.89 403.88C960.89 403.88 961.89 403.94 962.09 404.76C962.09 404.76 961.59 406.24 961.56 406.85C961.54 407.45 959.77 411.17 958.12 413.89C958.12 413.89 956.22 415.23 952.89 412.11Z" />
		<path id="Path 71" class="shp16" d="M955.5 407.6C955.5 407.6 956.69 409.01 956.83 409.58C956.96 410.14 960.79 408.53 960.79 408.53C960.79 408.53 957.26 406.2 955.5 407.6Z" />
		<path id="Path 72" class="shp26" d="M955.28 401.19C955.28 401.19 953.55 405.43 954.2 405.79C954.85 406.15 955.31 405.89 955.31 405.89L955.39 407.96C955.39 407.96 956.21 409.3 957.43 408.01C957.43 408.01 958.07 409.34 959.1 407.95C959.1 407.95 959.91 408.64 960.5 408.08C961.09 407.53 962.09 404.76 962.09 404.76C962.09 404.76 962.04 404.07 960.89 403.88C960.89 403.88 960.61 402.81 959.51 402.74C959.51 402.74 959.15 401.93 957.96 401.87C957.96 401.87 957.01 400.11 955.49 400.76C955.49 400.76 955.35 401.01 955.28 401.19Z" />
		<path id="Path 73" class="shp13" d="M951.7 407.92C951.7 407.92 954.09 405.88 955.88 405.33C956.28 405.2 956.7 405.16 956.97 405.49C957.24 405.82 957.1 406.62 956.11 407.56C955.12 408.5 954.28 410.17 954.28 410.17C954.28 410.17 952.98 410.84 951.7 407.92Z" />
		<path id="Path 74" class="shp29" d="M879.19 587.15C879.19 587.15 877.1 588.65 875.94 589.7C874.78 590.74 873.2 591.88 872.23 594.55C871.25 597.26 872.79 599.2 875.41 599.36C878.03 599.52 882.05 597.55 882.44 595.15C882.82 592.78 885.9 593.05 886.3 591.36C886.7 589.68 886.17 587.6 886.17 587.6L879.19 587.15Z" />
		<path id="Path 75" class="shp13" d="M879.54 585.19L879.19 587.15C879.19 587.15 880.27 589.15 886.17 587.6L885.86 585.66L879.54 585.19Z" />
		<path id="Path 76" class="shp29" d="M886.17 587.6C886.17 587.6 884.84 587.77 883.89 587.92C882.95 588.07 881.07 586.86 879.19 587.15L879.77 589.54C879.77 589.54 886.04 588.37 886.17 587.6ZM916.82 587.15C916.82 587.15 918.91 588.65 920.07 589.7C921.23 590.74 922.81 591.88 923.78 594.55C924.76 597.26 923.21 599.2 920.6 599.36C917.98 599.52 913.96 597.55 913.57 595.15C913.19 592.78 910.11 593.05 909.71 591.36C909.31 589.68 909.84 587.6 909.84 587.6L916.82 587.15Z" />
		<path id="Path 77" class="shp13" d="M916.47 585.19L916.82 587.15C916.82 587.15 915.74 589.15 909.84 587.6L910.15 585.66L916.47 585.19Z" />
		<path id="Path 78" class="shp30" d="M918.93 478.41C918.93 478.41 898.61 474.4 888.08 478.19C887.64 478.35 887.21 478.52 886.81 478.71C886.81 478.71 886.79 478.89 886.74 479.22C886.63 480 886.41 481.62 886.12 483.83C886.07 484.2 886.02 484.59 885.96 485C884.46 496.35 882.22 512.85 881.8 520.9C881.23 531.46 880.65 532.97 880.65 534.96C880.64 540.31 878.76 585.4 878.76 585.4C878.76 585.4 881.95 587.11 886.87 585.4C886.87 585.4 892.68 540.67 893.68 537.36C894.69 534.05 901.82 503.9 903.08 503.75C904.34 503.61 907.84 535.62 908.11 539.98C908.37 544.33 908.12 584.7 909.56 585.42C911 586.14 916.84 586.21 917.27 584.78C917.27 584.78 918.98 543.73 918.98 539.42C918.98 535.1 920.38 501.48 920.25 500.04C920.25 500.04 920.65 489.48 918.93 478.41Z" />
		<path id="Path 79" class="shp31" d="M909.46 420.39C909.46 420.39 918.29 422.99 923.14 424.23C927.07 425.24 933.9 428.77 941.61 429.99C943.51 430.29 951.41 411.52 951.41 411.52C951.41 411.52 959.31 413.38 959.35 413.62C959.45 414.28 949.04 439.26 945.98 440.49C943.57 441.45 922.53 438.65 922.53 438.65C922.53 438.65 920.24 470.61 920.24 474.54C920.24 478.47 920.29 488.5 920.29 488.5C920.29 488.5 914.71 491.86 901.85 492.21C901.85 492.21 882.86 492.28 884.78 485.47C886.2 480.45 886.29 446.35 885.91 446.16C885.52 445.96 878.64 454.59 879.31 456.25C879.98 457.91 897.8 463.87 897.8 463.87C897.8 463.87 898.32 465.79 895.56 470.14C895.56 470.14 868.93 462.36 868.83 460.73C868.74 459.1 879.91 427.44 883.55 425.78C888.81 423.4 902.55 419.64 902.55 419.64L909.46 420.39Z" />
		<path id="Path 80" class="shp29" d="M909.84 587.6C909.84 587.6 911.17 587.77 912.12 587.92C913.06 588.07 914.94 586.86 916.82 587.15L916.24 589.54C916.24 589.54 909.97 588.37 909.84 587.6Z" />
		<path id="Path 81" class="shp32" d="M903.34 462.99C903.34 462.99 905.26 462.94 905.85 462.85C906.44 462.77 906.05 464.02 905.37 464.26C904.68 464.49 903.34 462.99 903.34 462.99Z" />
		<path id="Path 82" class="shp33" d="M896.83 421.28C896.83 421.28 896.64 428.95 904.54 428.77C912.72 428.58 911.01 420.85 911.01 420.85C911.01 420.85 904.8 418.05 896.83 421.28Z" />
		<path id="Path 83" class="shp13" d="M909.17 414.39C909.17 414.39 908.46 418.29 909.69 420.95C909.69 420.95 910.93 427.15 904.58 427.43C898.24 427.71 898.3 420.74 898.3 420.74C898.3 420.74 899.61 419.98 898.59 414.43C897.58 408.88 909.17 414.39 909.17 414.39ZM905.32 391.86C905.32 391.86 913.44 393.17 912.2 406.19C910.97 419.2 903.8 418.13 903.32 418.12C902.84 418.11 896.12 418.36 895.6 402.47C895.6 402.47 895.37 390.71 905.32 391.86ZM912.33 402.51C912.33 402.51 913.22 401.54 913.55 402.52C913.87 403.51 912.39 407.75 912.28 408.1C912.28 408.1 912.11 408.49 911.9 408.28C911.69 408.06 912.33 402.51 912.33 402.51ZM895.79 402.34C895.79 402.34 894.92 401.35 894.58 402.33C894.23 403.31 895.67 407.77 895.74 407.94C895.74 407.94 895.9 408.32 896.11 408.12C896.33 407.91 895.79 402.34 895.79 402.34Z" />
		<path id="Path 84" class="shp34" d="M912.32 404.5L911.16 406.1C911.16 406.1 911.2 402.61 911.01 402.06C910.82 401.51 911.23 399.61 911.07 399.21C910.92 398.82 905.52 400.29 896.66 399.38C896.66 399.38 897.65 402.53 897.07 402.75C896.49 402.97 896.77 406.84 896.77 406.84L895.82 405.73C895.82 405.73 894.74 399.13 894.84 398.03C894.98 396.56 894.48 389.71 906.95 390.89C908.37 391.02 909.74 391.55 910.88 392.44C912.16 393.44 913.48 395 913.36 397.14C913.2 399.97 912.32 404.5 912.32 404.5Z" />
		<path id="Path 85" class="shp22" d="M899.62 416.4C899.62 416.4 902.97 420.31 908.29 416.4C908.29 416.4 906.8 419.36 903.67 419.43C900.54 419.5 899.62 416.4 899.62 416.4Z" />
		<path id="Path 86" class="shp35" d="M903.4 464.06L902.25 462.34C901.87 461.76 892.8 448.25 890.3 423.3L892.87 422.48C894.79 441.6 900.82 454.46 903.32 459C906.46 453.3 915.35 435.91 916.31 422.36L918.88 423.08C917.67 440.13 905 461.37 904.46 462.28L903.4 464.06Z" />
		<path id="Path 87" class="shp36" d="M907.61 461.61C907.61 463.97 905.7 465.89 903.34 465.89C900.98 465.89 899.06 463.97 899.06 461.61C899.06 459.25 900.98 457.34 903.34 457.34C905.7 457.34 907.61 459.25 907.61 461.61Z" />
		<path id="Path 88" class="shp13" d="M904.46 472.18C904.46 472.18 903.62 472.39 903.21 472.3C903.21 472.3 902.47 472.08 901.94 471.95C901.77 471.91 901.63 471.88 901.53 471.87C901.12 471.83 900.21 471.86 899.26 471.49C898.31 471.12 895.08 469.46 895.08 469.46L896 466.46L896.7 464.08C896.7 464.08 902.16 462.62 903.08 462.87C903.17 462.89 903.26 462.92 903.34 462.95C904.11 463.24 904.56 463.77 904.94 463.96C905.08 464.04 906.44 464.85 906.51 465.31C906.61 465.96 906.41 466.45 906.08 466.75C906.08 466.75 906.21 468.02 905.74 468.74C905.74 468.74 905.91 469.92 905.06 470.65C905.06 470.65 905.1 471.86 904.46 472.18Z" />
		<path id="Path 89" class="shp31" d="M897.8 463.69C897.8 463.69 897.85 467.71 895.37 470.71C895.37 470.71 876 464.04 873.67 463.13C871.34 462.21 882.14 433.53 882.14 433.53L890.07 436.24L885.81 444.3C885.81 444.3 883.7 448.82 879.31 456.25C879.31 456.25 882.01 458.63 897.8 463.69Z" />
		<path id="Path 90" class="shp35" d="M890.3 423.3C890.3 423.3 891.63 422.61 892.87 422.48C892.87 422.48 891.64 423.06 890.3 423.3ZM916.31 422.36C916.31 422.36 917.78 422.57 918.88 423.08C918.88 423.08 917.09 422.83 916.31 422.36Z" />
		<path id="Path 91" class="shp13" d="M309.68 311.98C309.68 311.98 307.64 311.65 306.54 312.05C305.45 312.45 307.72 306.05 307.72 306.05L309.68 311.98ZM307.72 306.05C307.72 306.05 310.29 302.87 310.7 302.39C311.11 301.92 312.79 301.46 314.77 301.1C316.75 300.73 319.59 301.13 319.82 301.38C320.07 301.63 320.43 301.77 320.57 302.65C320.71 303.53 320.34 304.35 320.34 304.35C320.34 304.35 321.03 305.35 320.5 306.33C320.5 306.33 321.1 307.3 320.32 308.31C320.32 308.31 320.87 309.28 320.25 309.97C320.25 309.97 318.56 310.43 317.99 310.78C317.41 311.14 313.84 311.86 310.3 312.04C310.3 312.04 306.41 312.38 307.72 306.05Z" />
		<path id="Path 92" class="shp16" d="M313.71 305.86C313.71 305.86 313.26 307.86 312.85 308.36C312.44 308.86 316.39 310.6 316.39 310.6C316.39 310.6 316.14 306.47 313.71 305.86Z" />
		<path id="Path 93" class="shp26" d="M319.3 301.45C319.3 301.45 314.31 302.5 314.38 303.32C314.45 304.15 314.97 304.41 314.97 304.41L313.11 305.77C313.11 305.77 312.39 307.36 314.34 307.69C314.34 307.69 313.51 309.1 315.43 309.19C315.43 309.19 315.3 310.38 316.18 310.57C317.06 310.77 320.25 309.97 320.25 309.97C320.25 309.97 320.84 309.49 320.32 308.31C320.32 308.31 321.12 307.39 320.5 306.33C320.5 306.33 321.03 305.49 320.34 304.35C320.34 304.35 321.37 302.38 319.82 301.38C319.82 301.38 319.51 301.41 319.3 301.45Z" />
		<path id="Path 94" class="shp13" d="M314.35 303.28C314.35 303.28 314.38 298.46 313.77 296.46C313.63 296.01 313.62 295.83 313.15 295.79C312.68 295.75 312.2 297.48 311.95 298.98C311.69 300.47 310.66 302.44 310.66 302.44C310.66 302.44 310.86 303.9 314.35 303.28Z" />
		<path id="Path 95" class="shp31" d="M311.75 312.17C311.75 312.17 286.92 319.3 282.8 318.28C280.89 317.81 274.66 313.76 272.28 310.66C271.49 309.65 270.72 308.58 269.99 307.52C269.99 307.52 269.99 307.52 269.99 307.52C267.06 303.29 264.77 299.25 264.77 299.25C264.77 299.25 256.12 289.11 263.06 284.6C263.06 284.6 265.16 284.24 266.52 284.63C270.81 285.86 274.32 294.52 274.93 295.84C275.53 297.16 281.92 308.97 282.36 309.25C282.8 309.52 286.88 309.85 289.93 309.11C294.35 308.05 308.05 304.47 308.05 304.47L311.75 312.17Z" />
		<path id="Path 96" class="shp37" d="M242.16 444.85C242.16 444.85 240.64 447.7 239.64 448.83C238.64 449.96 234.82 451.98 234.8 455.34C234.77 458.99 241.24 457.97 243.77 457.84C246.3 457.71 246.49 455.76 247.55 453.7C248.61 451.64 249.69 451.99 249.89 450.33C250.09 448.66 248.86 444.85 248.86 444.85L242.16 444.85ZM280.65 444.52C280.65 444.52 283.76 448 286.93 448.72C290.09 449.45 292.3 450.38 292.32 452.38C292.35 454.38 283.22 455.69 279.6 453.68C274.2 450.68 273.65 451.58 273.05 450.08C272.45 448.58 273.77 444.56 273.73 444.09C273.69 443.5 280.65 444.52 280.65 444.52Z" />
		<path id="Path 97" class="shp38" d="M280.3 442.85C280.3 442.85 280.71 444.48 280.65 444.52C280.59 444.55 273.52 445.39 273.73 444.09C273.91 443.03 274.16 441.88 274.16 441.88L280.3 442.85ZM248.77 443.75C248.77 443.75 249.07 445.3 249.01 445.34C248.95 445.38 241.84 446.65 241.88 445.36C241.91 444.33 242.54 443.14 242.54 443.14L248.77 443.75Z" />
		<path id="Path 98" class="shp35" d="M273.87 345.31C273.87 345.31 276.44 370.26 277.78 378.81C279.34 388.8 279.87 397.05 280.31 402.22C280.85 408.72 280.96 440.71 281.35 442.61C281.73 444.51 272.83 443.14 272.83 443.14C272.83 443.14 268.46 401.34 266.82 394.42C265.3 387.97 259.66 360.21 258.28 361.96C256.89 363.73 255.17 394.36 254.14 399.45C253.11 404.54 249.99 444.35 249.99 444.35C249.99 444.35 242.91 445.76 241.03 444.17C241.03 444.17 240.17 409.86 240.82 400.32C241.07 396.69 236.57 356.75 242.35 340.67C245.4 332.17 273.87 345.31 273.87 345.31Z" />
		<path id="Path 99" class="shp39" d="M273.51 341.1L274.01 345.69C274.01 345.69 264.37 350.18 239.76 352.82L239.7 348.67L273.51 341.1Z" />
		<path id="Path 100" class="shp31" d="M255.76 283.55C255.76 283.55 258.77 283.93 265.85 284.5C267.08 285.36 271 295.55 271.41 298.21C271.81 300.88 272.03 311.36 271.35 315.65C270.66 319.94 275.79 338.94 274.01 342.09C274.01 342.09 256.61 349.3 238.99 348.9C238.99 348.9 239.18 331.53 237.87 325.89C236.19 318.67 232.24 302.05 232.24 302.05C232.24 302.05 230.82 288.99 232.63 288.05C236.71 285.93 246.69 284.22 246.69 284.22L255.76 283.55Z" />
		<path id="Path 101" class="shp40" d="M234.85 355.46C234.85 355.46 234.36 354.69 234.31 354.25C234.31 354.25 234.28 353.45 234.23 352.88C234.21 352.69 234.19 352.54 234.16 352.44C234.06 352.01 233.72 351.12 233.77 350.05C233.82 348.97 234.37 345.2 234.37 345.2L237.68 345.09L240.4 344.21C240.4 344.21 243.58 349.92 243.65 350.93C243.66 351.03 243.66 351.12 243.66 351.21C243.64 352.07 243.26 352.7 243.2 353.15C243.17 353.31 242.82 354.94 242.38 355.17C241.77 355.48 241.22 355.45 240.81 355.22C240.81 355.22 239.59 355.8 238.71 355.57C238.71 355.57 237.6 356.13 236.58 355.54C236.58 355.54 235.39 355.98 234.85 355.46Z" />
		<path id="Path 102" class="shp31" d="M236.77 287.25C237.93 287.48 239.56 289.9 239.63 295.23C239.71 300.94 238.3 303.64 237.8 305.07C237.3 306.5 234.3 315.96 234.55 317.23C235.19 320.55 236.69 329.35 236.92 330.01C237.3 331.12 240.42 344.23 240.42 344.23L233.7 347.2C233.7 347.2 229.63 332.51 228.2 328.11C227.62 326.35 226.18 321.48 225.92 316.41C225.66 311.53 227.23 300.36 227.54 299.43C227.85 298.51 229.06 285.75 236.77 287.25Z" />
		<path id="Path 103" class="shp35" d="M260.73 299.14L259.91 299.1C259.51 299.08 250.03 298.48 240.28 286.12L242.33 284.5C249.62 293.74 256.72 295.88 259.16 296.36C259.73 294.73 260.74 290.63 259.77 283.96L262.44 284.21C263.87 294.02 261.23 298.22 261.12 298.42L260.73 299.14Z" />
		<path id="Path 104" class="shp36" d="M262.54 297.05C263.07 298.9 262.36 300.73 260.95 301.14C259.54 301.55 257.95 300.39 257.42 298.54C256.88 296.69 257.59 294.86 259 294.45C260.42 294.04 262 295.21 262.54 297.05Z" />
		<path id="Path 105" class="shp31" d="M259.82 284.01C259.82 284.01 260.09 281.55 252.52 281.8C244.94 282.05 240.03 284.29 240.12 286.46C240.21 288.63 259.98 291.96 259.98 291.96L259.82 284.01Z" />
		<path id="Path 106" class="shp6" d="M249.21 256.79C249.21 256.79 259.36 251.75 260.2 265.85C261.05 279.96 258.72 281.65 251.57 280.44C244.41 279.22 242.88 270.42 241.52 266.26C240.15 262.1 245.83 257.77 249.21 256.79ZM257.73 285.58C257.73 285.58 255.32 286.97 246.69 284.22C246.69 284.22 246.32 278.55 244.14 273.44C241.95 268.34 255.95 279.29 255.95 279.29C255.82 279.4 255.86 279.93 256.01 280.66C256.14 281.28 256.36 282.03 256.65 282.8C257.3 284.51 257.16 284.21 257.73 285.58Z" />
		<path id="Path 107" class="shp7" d="M243.73 273.06C243.73 273.06 243.3 269.32 244.82 268.81C246.34 268.29 247.38 270.38 247.38 270.38L248.63 270.17C248.63 270.17 247.1 266.49 248.49 265.46C249.88 264.43 258.86 264.24 259.83 262.85C260.81 261.45 258.38 254.02 255.87 253.54C253.37 253.05 246.58 252.25 242.77 256.45C242.77 256.45 239.33 258.4 239.5 261.4C239.67 264.39 242.24 271.17 243.73 273.06Z" />
		<path id="Path 108" class="shp22" d="M256.65 282.8C248.32 282.3 246.6 277.77 246.57 277.7C250.19 281.46 256.01 280.66 256.01 280.66C256.14 281.28 256.36 282.03 256.65 282.8Z" />
		<path id="Path 109" class="shp6" d="M246.41 267.02C245.81 265.84 243.2 266.28 243.68 268.21C244.16 270.14 246.66 272.93 247.47 272.27C248.29 271.6 247.24 268.66 246.41 267.02Z" />
		<path id="Path 110" class="shp41" d="M768.52 453.39C767.01 454.76 766.73 456.95 765.07 457.93C764.59 458.21 763.64 458.49 762.53 458.69C760.51 459.05 757.94 459.13 756.68 458.4C756.26 458.15 755.98 457.8 755.93 457.35C755.64 454.81 759.39 451.97 761.05 450.7C762.07 449.93 763.13 448.11 763.97 446.44C764.49 445.4 764.93 444.42 765.22 443.78C765.22 443.78 765.22 443.78 765.22 443.78C765.23 443.79 765.32 443.96 765.57 444.14C765.91 444.38 766.55 444.63 767.69 444.44C769.28 444.18 769.9 443.76 770.07 443.6C770.09 443.6 770.09 443.59 770.1 443.58C770.11 443.57 770.12 443.56 770.12 443.56C770.13 443.55 770.13 443.55 770.13 443.55C770.13 443.55 770.14 443.55 770.14 443.55C770.14 443.54 770.14 443.54 770.14 443.54C770.46 445.13 770.98 446.75 771.18 447.51C771.86 450.14 769.94 452.1 768.52 453.39Z" />
		<path id="Path 111" class="shp13" d="M743.75 340.43C743.75 340.43 738.41 359.03 737.48 363.78C736.55 368.53 733.94 391.52 733.66 395.43C733.38 399.34 729.45 417.66 729.25 419.06C727.76 429.41 726.04 443.77 726.04 443.77C726.04 443.77 729.41 447.75 731 443.65C736.6 429.26 739.45 426.62 740.67 417.08C743.08 398.27 745.55 398.43 746.38 396.24C754.73 374.03 756.13 361.36 757.25 360.06C758.36 358.76 758.52 360.73 759.17 363.61C759.82 366.5 758.9 386.36 760.08 394.03C760.72 398.2 762.16 407.56 762.62 412.96C763.09 418.36 765.53 443.35 765.53 443.35C765.53 443.35 768.54 447.51 770.12 443.56C770.27 443.19 773.14 420.13 773.24 413.71C773.33 407.29 770.49 406.37 772.77 393.93C777.65 367.28 776.97 362.69 771.28 343.53C757.35 296.66 743.75 340.43 743.75 340.43Z" />
		<path id="Path 112" class="shp31" d="M771.41 338.84C771.41 338.84 779.89 356.38 774.19 391.97C774.19 391.97 756.91 390.35 731 388.5C731 388.5 742.79 340.62 743.12 337.58C743.45 334.54 771.41 338.84 771.41 338.84Z" />
		<path id="Path 113" class="shp41" d="M765.53 443.35C765.53 443.35 763.67 445.96 763.86 446.35C764.06 446.74 767.91 447.37 768.57 446.44C769.23 445.51 770.14 443.54 770.14 443.54C770.14 443.54 766.56 445.29 765.53 443.35ZM729.08 452.94C727.13 453.53 726.54 456.84 724.89 457.82C723.23 458.79 715.14 459.47 714.84 456.94C714.55 454.4 718.24 452.13 719.9 450.86C721.55 449.6 725.28 445.43 726.04 443.77C726.04 443.77 726.71 444.83 728.69 444.5C730.68 444.18 731 443.65 731 443.65C730.93 445.62 731.61 447.01 731.81 447.77C732.5 450.4 731.03 452.35 729.08 452.94Z" />
		<path id="Path 114" class="shp13" d="M805.47 281.15C805.47 281.15 807.98 277.6 808.35 277.18C808.72 276.75 810.24 276.36 812.02 276.05C813.8 275.75 816.34 276.13 816.55 276.36C816.76 276.58 817.09 276.71 817.2 277.5C817.32 278.29 816.98 279.03 816.98 279.03C816.98 279.03 817.59 279.93 817.1 280.8C817.1 280.8 817.63 281.68 816.92 282.59C816.92 282.59 817.41 283.46 816.84 284.07C816.84 284.07 815.32 284.47 814.81 284.78C814.29 285.09 810.21 285.66 807.03 285.77C807.03 285.77 804.7 285.65 805.47 281.15Z" />
		<path id="Path 115" class="shp16" d="M810.04 279.7C810.04 279.7 810.21 281.54 810 282.08C809.79 282.63 813.86 283.48 813.86 283.48C813.86 283.48 812.28 279.55 810.04 279.7Z" />
		<path id="Path 116" class="shp13" d="M711.91 307.36C711.91 307.36 710.02 305.63 710.46 304.24C710.83 303.05 710.45 301.26 710.33 300.71C710.18 299.97 710.55 297.52 709.61 297.7C708.68 297.89 708.81 301.71 708.68 302.52C708.54 303.32 706.15 300.56 705.32 300.39C704.48 300.23 700.12 304.45 701.98 306.15C703.84 307.87 706.96 308.46 707.22 308.83C707.49 309.2 708.53 310.13 708.53 310.13L711.91 307.36ZM705.85 300.69C705.85 300.69 699.81 295.83 699.14 295.85C698.46 295.86 698.22 296.2 698.76 296.68C699.31 297.16 704.46 301.54 704.46 301.54C704.46 301.54 696.35 296.99 695.79 296.88C695.47 296.82 694.96 297.45 695.23 297.74C695.5 298.02 703.28 302.99 703.28 302.99C703.28 302.99 695.7 298.75 695.21 298.8C694.78 298.84 694.45 299.54 695 299.9C695.54 300.25 702.35 304.58 702.35 304.58C702.35 304.58 696.64 301.84 696.25 302.13C696.01 302.3 695.54 302.83 697.04 303.49C698.53 304.15 701.9 306.07 701.9 306.07L705.85 300.69Z" />
		<path id="Path 117" class="shp42" d="M754.2 253.21C754.2 253.21 760.54 252.55 762.82 258.66C765.1 264.78 767.25 266.78 767.52 270C768.61 282.99 774.68 280.05 772.97 287.55C771.27 295.04 770.08 296.17 770.08 296.17L755.57 293.33L740.87 293.38C740.87 293.38 746.63 290.5 745.34 284.39C744.06 278.27 740.87 268.24 742.67 261.41C744.48 254.59 750.42 253.73 754.2 253.21Z" />
		<path id="Path 118" class="shp35" d="M808.86 287.23C808.64 287 795.09 296.1 793.61 296.95C790.71 298.63 787.55 298.55 784.26 298.75C780.58 298.97 776.39 298.58 772.78 299.31C770.9 299.69 770.68 300.18 769.71 302.17C767.05 307.6 766.19 314.34 765.83 320.31C765.47 326.53 767.85 330.85 770.36 336.34C771.21 338.2 772.29 339.78 771.39 341.34C770.31 343.19 766.36 343.68 764.41 343.93C759.61 344.56 752.54 344.01 747.64 343.04C739.43 341.41 743 333.59 742.4 328.63C742 325.31 740.39 320.33 739.47 317.1C738.56 313.92 738.46 312.59 738.63 309.2C736.87 314.21 735.74 321.88 731 325.06C727.33 327.51 723.69 325.1 721.05 322.8C716.05 318.45 711.04 314.09 706.04 309.74C707.1 308.75 708.17 307.77 709.24 306.78C709.58 306.46 709.6 306.37 710 306.05C710.94 305.3 710.83 305.03 711.8 305.69C712.45 306.13 714.18 307.74 714.72 308.25C716.54 309.93 718.13 310.96 719.94 312.64C721.52 314.11 725.76 316.43 726.36 315.91C727.94 314.57 729.01 311.62 729.65 309.94C731.43 305.24 733.22 300.51 735.34 295.96C737.6 291.09 742.62 288.5 747.48 286.56C751.7 284.88 757.33 285.22 761.61 286.3C764.61 287.07 765.68 287.11 768.66 287.94C771.51 288.74 774.18 289.75 777.07 290.35C780.45 291.05 783.89 291.29 787.32 291.33C790.03 291.36 791.15 290.91 793.42 289.33C796.48 287.21 802.01 282.54 805.31 280.74C806.11 280.3 808.3 284.9 808.86 287.23Z" />
		<path id="Path 119" class="shp13" d="M758.58 278.62C758.58 278.62 758.07 284.94 759.29 286.84C760.51 288.73 758.25 291.3 753.59 290.43C748.94 289.55 749.21 286.91 749.21 286.91C749.21 286.91 750.51 283 750.13 279.88C749.75 276.76 758.58 278.62 758.58 278.62ZM761.61 286.3C761.61 286.3 757.41 296.11 751.97 298.16C751.97 298.16 746.61 293.4 748.05 286.35C748.05 286.35 754.97 282.8 761.61 286.3ZM755.04 256.79C755.04 256.79 763.43 258 762.2 270.38C760.97 282.77 753.57 281.78 753.07 281.77C752.58 281.76 745.65 282.03 745.05 266.92C745.05 266.92 744.77 255.74 755.04 256.79Z" />
		<path id="Path 120" class="shp42" d="M754.08 261.27C754.08 261.27 758 265.4 759.82 267.48C761.64 269.57 761.85 273.6 761.85 273.6C761.85 273.6 764.92 269.86 763.64 265.49C762.35 261.13 759.32 252.64 751.64 255.25C743.96 257.86 743.67 269.33 744.57 275.02C744.57 275.02 748.02 262.46 754.08 261.27Z" />
		<path id="Path 121" class="shp22" d="M750.86 281.25C750.86 281.25 754.44 283.05 758.08 280.21C758.08 280.21 756.68 282.53 754.25 282.66C751.81 282.79 750.86 281.25 750.86 281.25Z" />
		<path id="Path 122" class="shp43" d="M739.93 300.66C738.76 303.7 738.63 309.2 738.63 309.2C738.63 309.2 738.25 310.65 737.64 312.36C737.47 304.18 739.93 300.66 739.93 300.66Z" />
		<path id="Path 123" class="shp44" d="M821.92 234.54C819.58 231.98 822.78 228.24 822.78 228.24C820.25 229.09 818.32 230.15 816.83 231.38C816.25 230.62 815.73 229.86 815.36 229.09C813.41 224.91 817.99 220.73 817.99 220.73C812.48 222.44 809.12 226.98 807.59 232.39C807.42 232.21 807.24 232.03 807.03 231.86C804.9 230.1 808.29 226.57 808.29 226.57C808.29 226.57 802.76 228.89 803.69 232.05C804.62 235.21 805.54 234.92 802.61 238.27C799.68 241.61 802.56 246.71 807.96 245.54C808.94 245.32 809.84 246.51 810.29 245.88C812.14 247.28 814.22 246.66 816.35 245.78C817.7 246.39 819.32 246.4 821.07 245.42C826.83 242.22 824.27 237.11 821.92 234.54Z" />
		<path id="Path 124" class="shp45" d="M803.95 245.72L803.95 248.32C803.95 249.54 804.94 250.53 806.15 250.53L806.45 250.53C806.68 250.53 806.87 250.7 806.89 250.92L811.77 303.71C811.86 304.76 813.4 304.76 813.49 303.71L818.38 250.92C818.4 250.7 818.59 250.53 818.81 250.53L819.11 250.53C820.32 250.53 821.31 249.54 821.31 248.32L821.31 245.72C821.31 245.48 821.12 245.29 820.87 245.29L804.39 245.29C804.15 245.29 803.95 245.48 803.95 245.72Z" />
		<path id="Path 125" class="shp46" d="M818.83 256.18L806.43 256.18C805.73 256.18 805.16 255.6 805.16 254.9L805.16 254.29C805.16 253.59 805.73 253.02 806.43 253.02L818.83 253.02C819.53 253.02 820.1 253.59 820.1 254.29L820.1 254.9C820.1 255.6 819.53 256.18 818.83 256.18Z" />
		<path id="Path 126" class="shp26" d="M816.08 276.42C816.08 276.42 811.59 277.3 811.64 278.04C811.7 278.79 812.16 279.03 812.16 279.03L810.48 280.23C810.48 280.23 809.82 281.65 811.56 281.96C811.56 281.96 810.8 283.23 812.53 283.32C812.53 283.32 812.4 284.38 813.19 284.57C813.98 284.75 816.84 284.07 816.84 284.07C816.84 284.07 817.38 283.65 816.92 282.59C816.92 282.59 817.65 281.76 817.1 280.8C817.1 280.8 817.59 280.06 816.98 279.03C816.98 279.03 817.93 277.27 816.55 276.36C816.55 276.36 816.27 276.38 816.08 276.42Z" />
		<path id="Path 127" class="shp13" d="M808.49 277.13C808.49 277.13 811.51 278 812.95 279.2C813.28 279.47 813.54 279.79 813.41 280.19C813.29 280.6 812.54 280.93 811.21 280.62C809.88 280.31 808.02 280.52 808.02 280.52C808.02 280.52 806.75 279.8 808.49 277.13Z" />
		<path id="Path 128" class="shp47" d="M567.97 80.04L553.98 82.01L551.53 95.92L545.34 83.22L531.35 85.19L541.51 75.38L535.31 62.68L547.79 69.31L557.95 59.49L555.5 73.41L567.97 80.04ZM515.65 123.71L507.67 117.6L499.38 123.3L502.73 113.81L494.74 107.7L504.8 107.95L508.15 98.46L511.01 108.11L521.07 108.36L512.79 114.07L515.65 123.71ZM585.12 149.43L573.8 145.57L566.64 155.15L566.81 143.19L555.49 139.34L566.91 135.8L567.08 123.84L573.97 133.61L585.4 130.08L578.23 139.66L585.12 149.43ZM472.89 68.48L459.36 65.56L452.39 77.52L450.99 63.75L437.46 60.83L450.13 55.24L448.73 41.46L457.96 51.79L470.62 46.2L463.66 58.16L472.89 68.48ZM461.31 133.53L453.75 131L449.01 137.41L449.08 129.44L441.51 126.92L449.11 124.52L449.18 116.55L453.81 123.03L461.41 120.63L456.67 127.04L461.31 133.53ZM543.25 36.13L536.3 35.18L533.24 41.5L532 34.59L525.04 33.64L531.23 30.33L529.99 23.42L535.05 28.28L541.24 24.96L538.18 31.28L543.25 36.13Z" />
	</g>
</svg>