<svg xmlns="http://www.w3.org/2000/svg" viewBox="0 0 373 600" width="373" height="600">
	<defs>
		<clipPath clipPathUnits="userSpaceOnUse" id="cp1">
			<path d="M0 0L373 0L373 410L0 410Z" />
		</clipPath>
	</defs>
	<style>
		tspan { white-space:pre }
		.txt0 { font-size: 90px;fill: #ffffff;font-family: "Noto Sans";font-weight: 600 } 
		.shp1 { fill: #ffffff } 
	</style>
	<text id="ATG.io " style="transform: matrix(1,0,0,1,51,570)" >
		<tspan x="0" y="0" class="txt0">ATG.io</tspan>
	</text>
	<g id="Page 1" clip-path="url(#cp1)">
		<path id="Path 1" fill-rule="evenodd" class="shp1" d="M107.28 32.99C100.63 32.99 87.84 35.83 79.89 55.72C78.81 58.42 76.19 60.19 73.28 60.19C72.67 60.2 56.99 60.56 44.03 74.65C30.56 89.31 24.9 113.18 27.22 145.61C27.33 147.18 26.92 148.75 26.04 150.06C24.59 152.25 -9.05 204.5 44 239.87C46.5 241.54 47.69 244.6 46.96 247.51C46.49 249.43 35.81 295.09 76.08 312.35C79.48 313.8 81.19 317.62 80.03 321.13C79.99 321.26 75.14 336.51 81.69 347.31C85.21 353.1 91.71 356.83 101.03 358.39C103.11 358.73 104.93 359.99 106 361.81C111.59 371.36 130.24 396.08 148.66 395.78C159.4 395.62 169.65 387.01 179.14 370.19L179.14 23.13C176.18 20.82 170.23 16.84 162.39 15C147.52 11.51 132.65 17.07 118.18 31.53C116.41 33.3 113.85 34.01 111.43 33.4C110.93 33.29 109.42 32.99 107.28 32.99ZM224.1 395.78C224.21 395.78 224.31 395.78 224.42 395.78C242.81 395.78 261.2 371.3 266.76 361.81C267.82 359.99 269.65 358.73 271.73 358.39C281.07 356.83 287.6 353.08 291.1 347.25C297.57 336.51 292.78 321.29 292.73 321.13C291.56 317.62 293.28 313.8 296.68 312.35C325.9 299.83 328.36 272.62 327.29 257.71C319.11 262.32 311.15 264.63 303.48 264.63C299.91 264.63 296.41 264.13 292.98 263.14C269.94 256.44 259.74 229.46 259.32 228.31C257.96 224.63 259.84 220.54 263.52 219.18C267.19 217.81 271.29 219.69 272.65 223.37C272.73 223.59 280.86 244.84 297 249.49C306.06 252.1 316.54 248.95 328.13 240.13C328.64 239.73 329.2 239.42 329.77 239.19C351.43 224.36 360.94 205.08 358.04 181.88C355.79 163.82 346.82 150.19 346.72 150.06C345.85 148.75 345.44 147.18 345.55 145.61C347.86 113.19 342.2 89.31 328.73 74.65C317.32 62.24 303.8 60.48 300.28 60.23C267.23 71.86 266.47 98.5 266.46 99.65C266.4 103.53 263.23 106.68 259.35 106.68C259.33 106.68 259.31 106.68 259.3 106.68C255.39 106.66 252.24 103.5 252.24 99.6C252.24 98.12 252.69 65.23 289.73 49.1C278.96 30.05 263.19 32.98 261.27 33.42C260.17 33.66 259.04 33.65 257.97 33.4L245.11 50.68C243.72 52.56 241.58 53.55 239.4 53.55C237.92 53.55 236.44 53.09 235.16 52.14C232.01 49.79 231.36 45.34 233.7 42.19L246.78 24.62C234.61 15.22 222.22 12.03 209.84 15.13C202.02 17.08 196.16 21.11 193.36 23.33L193.36 369.74C202.93 386.85 213.26 395.61 224.1 395.78ZM148.34 410C122.35 410 101.51 381.11 95.47 371.79C83.5 369.14 74.76 363.37 69.48 354.58C62.75 343.41 63.66 330.35 65.03 322.81C31.96 305.28 28.64 269.63 32.15 248.93C1.88 226.77 -1.81 199.47 0.61 180.11C2.74 163.03 9.88 149.42 12.88 144.32C10.71 108.77 17.75 82 33.83 64.73C46.37 51.27 61.01 47.47 68.44 46.39C79.78 22.42 99.05 17.78 110.78 18.91C132.71 -1.53 153.01 -2.01 166.38 1.33C175.2 3.53 182.11 7.66 186.39 10.78C190.67 7.66 197.58 3.53 206.39 1.33C219.76 -2.01 240.06 -1.52 261.99 18.91C273.71 17.78 292.99 22.42 304.33 46.39C311.76 47.47 326.4 51.27 338.94 64.73C355.01 82 362.06 108.77 359.89 144.32C362.89 149.42 370.03 163.03 372.16 180.11C374.59 199.48 370.89 226.77 340.62 248.93C344.13 269.63 340.81 305.28 307.73 322.81C309.11 330.34 310.02 343.41 303.29 354.58C298.01 363.36 289.27 369.14 277.3 371.79C271.21 381.17 250.11 410.38 223.92 410C209.99 409.8 197.39 401.56 186.38 385.47C175.37 401.56 162.78 409.8 148.84 410C148.68 410 148.51 410 148.34 410ZM225.86 303.91C226.1 302.85 230.89 280.55 207.8 257.46C205.03 254.68 205.03 250.18 207.8 247.4C210.58 244.62 215.09 244.62 217.86 247.4C235.34 264.89 239.8 282.55 240.51 294.12C244.25 292.67 248.31 291.83 252.7 291.83C256.63 291.83 259.81 295.02 259.81 298.94C259.81 302.87 256.63 306.05 252.7 306.05C235.19 306.05 222.85 331.33 219.57 341.07C218.58 344.04 215.8 345.92 212.83 345.92C212.08 345.92 211.32 345.8 210.57 345.55C206.85 344.3 204.84 340.29 206.08 336.56C206.48 335.37 212.83 316.79 225.85 303.95C225.85 303.94 225.86 303.92 225.86 303.91ZM298.29 194.07C284.04 194.07 266.75 189.93 254.36 173.44C243.79 159.37 239.18 147.16 235.82 138.24C232.64 129.8 231.3 127.1 229.3 126.27C225.67 136.49 220.57 146.84 213.41 155.92C212.01 157.7 209.92 158.63 207.82 158.63C206.28 158.63 204.73 158.13 203.42 157.1C200.34 154.67 199.81 150.2 202.24 147.11C224.42 119 224.03 74.66 224.02 74.21C223.96 70.29 227.1 67.06 231.03 67C235.07 66.9 238.19 70.08 238.24 74.01C238.26 75.2 238.41 92.24 233.38 112.59C242.39 115.36 245.67 124.07 249.13 133.23C252.36 141.79 256.38 152.45 265.73 164.9C283.74 188.87 317.65 177.01 319.09 176.5C322.77 175.17 326.85 177.08 328.19 180.76C329.52 184.45 327.63 188.52 323.95 189.86C323.05 190.19 312.09 194.07 298.29 194.07ZM186.52 19.86L186.56 19.86L186.52 19.86Z" />
		<path id="Path 2" fill-rule="evenodd" class="shp1" d="M86.68 92.21C86.68 76.52 99.45 63.76 115.13 63.76C130.81 63.76 143.57 76.52 143.57 92.21C143.57 105.44 134.49 116.59 122.24 119.75L122.24 177.54L136.46 177.54C140.39 177.54 143.57 180.73 143.57 184.65L143.57 221.11C155.83 224.27 164.91 235.42 164.91 248.65C164.91 261.88 155.83 273.03 143.57 276.2L143.57 299.33C155.83 302.5 164.91 313.65 164.91 326.87C164.91 342.56 152.15 355.32 136.46 355.32C120.78 355.32 108.02 342.56 108.02 326.87C108.02 313.65 117.1 302.5 129.35 299.33L129.35 276.2C117.1 273.03 108.02 261.88 108.02 248.65C108.02 235.42 117.1 224.27 129.35 221.11L129.35 191.76L92.9 191.76C89.73 204.02 78.58 213.1 65.35 213.1C49.67 213.1 36.91 200.34 36.91 184.65C36.91 168.97 49.67 156.21 65.35 156.21C78.58 156.21 89.73 165.29 92.9 177.54L108.02 177.54L108.02 119.75C95.76 116.59 86.68 105.44 86.68 92.21ZM115.13 77.99C107.29 77.99 100.91 84.36 100.91 92.21C100.91 100.05 107.29 106.43 115.13 106.43C122.97 106.43 129.35 100.05 129.35 92.21C129.35 84.36 122.97 77.99 115.13 77.99ZM65.35 170.43C57.51 170.43 51.13 176.81 51.13 184.65C51.13 192.5 57.51 198.87 65.35 198.87C73.19 198.87 79.57 192.5 79.57 184.65C79.57 176.81 73.19 170.43 65.35 170.43ZM136.46 234.43C128.62 234.43 122.24 240.81 122.24 248.65C122.24 256.5 128.62 262.87 136.46 262.87C144.31 262.87 150.68 256.5 150.68 248.65C150.68 240.81 144.31 234.43 136.46 234.43ZM136.46 312.65C128.62 312.65 122.24 319.03 122.24 326.87C122.24 334.72 128.62 341.1 136.46 341.1C144.31 341.1 150.68 334.72 150.68 326.87C150.68 319.03 144.31 312.65 136.46 312.65Z" />
	</g>
</svg>